<?xml version="1.0" encoding="UTF-8" standalone="no"?>
<!DOCTYPE svg PUBLIC "-//W3C//DTD SVG 1.1//EN"
 "http://www.w3.org/Graphics/SVG/1.1/DTD/svg11.dtd">
<!-- Generated by graphviz version 2.38.0 (20140413.2041)
 -->
<!-- Title: %3 Pages: 1 -->
<svg width="736pt" height="526pt"
 viewBox="0.00 0.00 736.00 526.00" xmlns="http://www.w3.org/2000/svg" xmlns:xlink="http://www.w3.org/1999/xlink">
<g id="graph0" class="graph" transform="scale(1 1) rotate(0) translate(4 522)">
<title>%3</title>
<polygon fill="white" stroke="none" points="-4,4 -4,-522 732,-522 732,4 -4,4"/>
<g id="clust1" class="cluster"><title>cluster0</title>
<polygon fill="none" stroke="black" points="8,-268 8,-510 376,-510 376,-268 8,-268"/>
<text text-anchor="middle" x="192" y="-494.8" font-family="Times New Roman,serif" font-size="14.00">Browser</text>
</g>
<g id="clust2" class="cluster"><title>cluster1</title>
<polygon fill="none" stroke="black" points="493,-8 493,-415 720,-415 720,-8 493,-8"/>
<text text-anchor="middle" x="606.5" y="-399.8" font-family="Times New Roman,serif" font-size="14.00">Kernel</text>
</g>
<!-- WebGL -->
<g id="node1" class="node"><title>WebGL</title>
<polygon fill="lightblue" stroke="black" points="16,-332 16,-368 78,-368 78,-332 16,-332"/>
<text text-anchor="middle" x="47" y="-346.3" font-family="Times New Roman,serif" font-size="14.00">WebGL</text>
</g>
<!-- ThreeJS -->
<g id="node2" class="node"><title>ThreeJS</title>
<polygon fill="lightblue" stroke="black" points="124.5,-387 124.5,-423 186.5,-423 186.5,-387 124.5,-387"/>
<text text-anchor="middle" x="155.5" y="-401.3" font-family="Times New Roman,serif" font-size="14.00">ThreeJS</text>
</g>
<!-- WebGL&#45;&gt;ThreeJS -->
<g id="edge1" class="edge"><title>WebGL&#45;&gt;ThreeJS</title>
<path fill="none" stroke="black" d="M87.3,-370.296C99.4838,-376.588 112.716,-383.421 124.191,-389.347"/>
<polygon fill="black" stroke="black" points="88.7249,-367.092 78.2338,-365.614 85.5129,-373.312 88.7249,-367.092"/>
</g>
<!-- x3dom -->
<g id="node3" class="node"><title>x3dom</title>
<polygon fill="lightblue" stroke="black" points="127.5,-332 127.5,-368 183.5,-368 183.5,-332 127.5,-332"/>
<text text-anchor="middle" x="155.5" y="-346.3" font-family="Times New Roman,serif" font-size="14.00">x3dom</text>
</g>
<!-- WebGL&#45;&gt;x3dom -->
<g id="edge2" class="edge"><title>WebGL&#45;&gt;x3dom</title>
<path fill="none" stroke="black" d="M88.4054,-350C101.462,-350 115.615,-350 127.462,-350"/>
<polygon fill="black" stroke="black" points="88.2338,-346.5 78.2338,-350 88.2337,-353.5 88.2338,-346.5"/>
</g>
<!-- vtk.js -->
<g id="node4" class="node"><title>vtk.js</title>
<polygon fill="lightblue" stroke="black" points="128.5,-442 128.5,-478 182.5,-478 182.5,-442 128.5,-442"/>
<text text-anchor="middle" x="155.5" y="-456.3" font-family="Times New Roman,serif" font-size="14.00">vtk.js</text>
</g>
<!-- WebGL&#45;&gt;vtk.js -->
<g id="edge3" class="edge"><title>WebGL&#45;&gt;vtk.js</title>
<path fill="none" stroke="black" d="M66.334,-376.58C78.9016,-393.754 96.5791,-415.989 115,-433 119.028,-436.719 123.604,-440.316 128.178,-443.605"/>
<polygon fill="black" stroke="black" points="68.9288,-374.193 60.251,-368.115 63.2442,-378.278 68.9288,-374.193"/>
</g>
<!-- GlowScript -->
<g id="node5" class="node"><title>GlowScript</title>
<polygon fill="none" stroke="black" points="115,-277 115,-313 196,-313 196,-277 115,-277"/>
<text text-anchor="middle" x="155.5" y="-291.3" font-family="Times New Roman,serif" font-size="14.00">GlowScript</text>
</g>
<!-- WebGL&#45;&gt;GlowScript -->
<g id="edge4" class="edge"><title>WebGL&#45;&gt;GlowScript</title>
<path fill="none" stroke="black" d="M87.2204,-329.745C97.7279,-324.319 109.02,-318.487 119.296,-313.181"/>
<polygon fill="black" stroke="black" points="85.5129,-326.688 78.2338,-334.386 88.7249,-332.908 85.5129,-326.688"/>
</g>
<!-- VisPy.gloo -->
<g id="node11" class="node"><title>VisPy.gloo</title>
<polygon fill="none" stroke="black" points="505.5,-17 505.5,-53 584.5,-53 584.5,-17 505.5,-17"/>
<text text-anchor="middle" x="545" y="-31.3" font-family="Times New Roman,serif" font-size="14.00">VisPy.gloo</text>
</g>
<!-- WebGL&#45;&gt;VisPy.gloo -->
<g id="edge13" class="edge"><title>WebGL&#45;&gt;VisPy.gloo</title>
<path fill="none" stroke="black" d="M63.2479,-322.99C89.4175,-278.489 146.622,-188.932 214,-131 299.396,-57.5764 438.26,-40.2366 505.325,-36.1933"/>
<polygon fill="black" stroke="black" points="60.1413,-321.369 58.1421,-331.774 66.1933,-324.887 60.1413,-321.369"/>
<text text-anchor="middle" x="233.5" y="-134.8" font-family="Times New Roman,serif" font-size="14.00" fill="red">Comm</text>
</g>
<!-- K3D -->
<g id="node6" class="node"><title>K3D</title>
<polygon fill="none" stroke="black" points="292.5,-442 292.5,-478 346.5,-478 346.5,-442 292.5,-442"/>
<text text-anchor="middle" x="319.5" y="-456.3" font-family="Times New Roman,serif" font-size="14.00">K3D</text>
</g>
<!-- ThreeJS&#45;&gt;K3D -->
<g id="edge5" class="edge"><title>ThreeJS&#45;&gt;K3D</title>
<path fill="none" stroke="black" d="M196.309,-418.515C226.223,-428.671 266.351,-442.295 292.317,-451.111"/>
<polygon fill="black" stroke="black" points="197.186,-415.117 186.591,-415.216 194.935,-421.745 197.186,-415.117"/>
</g>
<!-- ParaViewWeb -->
<g id="node7" class="node"><title>ParaViewWeb</title>
<polygon fill="beige" stroke="black" points="271,-387 271,-423 368,-423 368,-387 271,-387"/>
<text text-anchor="middle" x="319.5" y="-401.3" font-family="Times New Roman,serif" font-size="14.00">ParaViewWeb</text>
</g>
<!-- ThreeJS&#45;&gt;ParaViewWeb -->
<g id="edge6" class="edge"><title>ThreeJS&#45;&gt;ParaViewWeb</title>
<path fill="none" stroke="black" d="M196.778,-405C219.194,-405 247.233,-405 270.749,-405"/>
<polygon fill="black" stroke="black" points="196.591,-401.5 186.591,-405 196.591,-408.5 196.591,-401.5"/>
</g>
<!-- SciviJS -->
<g id="node8" class="node"><title>SciviJS</title>
<polygon fill="beige" stroke="black" points="290.5,-332 290.5,-368 348.5,-368 348.5,-332 290.5,-332"/>
<text text-anchor="middle" x="319.5" y="-346.3" font-family="Times New Roman,serif" font-size="14.00">SciviJS</text>
</g>
<!-- ThreeJS&#45;&gt;SciviJS -->
<g id="edge8" class="edge"><title>ThreeJS&#45;&gt;SciviJS</title>
<path fill="none" stroke="black" d="M196.096,-391.557C225.331,-381.631 264.409,-368.364 290.466,-359.518"/>
<polygon fill="black" stroke="black" points="194.935,-388.255 186.591,-394.784 197.186,-394.883 194.935,-388.255"/>
</g>
<!-- PyThreeJS -->
<g id="node9" class="node"><title>PyThreeJS</title>
<polygon fill="lightblue" stroke="black" points="506.5,-292 506.5,-328 583.5,-328 583.5,-292 506.5,-292"/>
<text text-anchor="middle" x="545" y="-306.3" font-family="Times New Roman,serif" font-size="14.00">PyThreeJS</text>
</g>
<!-- ThreeJS&#45;&gt;PyThreeJS -->
<g id="edge10" class="edge"><title>ThreeJS&#45;&gt;PyThreeJS</title>
<path fill="none" stroke="black" d="M192.39,-380.825C193.618,-379.884 194.825,-378.941 196,-378 231.59,-349.498 228.58,-324.72 271,-308 349.931,-276.888 451.953,-290.262 506.185,-301.122"/>
<polygon fill="black" stroke="black" points="190.067,-378.188 184.087,-386.935 194.216,-383.826 190.067,-378.188"/>
<text text-anchor="middle" x="319.5" y="-311.8" font-family="Times New Roman,serif" font-size="14.00" fill="red">IPyWidgets sync</text>
</g>
<!-- Sage.plot3d -->
<g id="node14" class="node"><title>Sage.plot3d</title>
<polygon fill="none" stroke="black" points="503.5,-237 503.5,-273 586.5,-273 586.5,-237 503.5,-237"/>
<text text-anchor="middle" x="545" y="-251.3" font-family="Times New Roman,serif" font-size="14.00">Sage.plot3d</text>
</g>
<!-- ThreeJS&#45;&gt;Sage.plot3d -->
<g id="edge16" class="edge"><title>ThreeJS&#45;&gt;Sage.plot3d</title>
<path fill="none" stroke="black" d="M193.926,-380.673C194.655,-379.803 195.348,-378.912 196,-378 213.434,-353.615 197.278,-337.879 214,-313 231.853,-286.439 240.985,-280.103 271,-269 349.115,-240.103 448.43,-244.247 503.166,-249.71"/>
<polygon fill="black" stroke="black" points="191.251,-378.396 186.596,-387.913 196.17,-383.376 191.251,-378.396"/>
<text text-anchor="middle" x="319.5" y="-272.8" font-family="Times New Roman,serif" font-size="14.00" fill="red">Static HTML</text>
</g>
<!-- IPyVolume -->
<g id="node15" class="node"><title>IPyVolume</title>
<polygon fill="none" stroke="black" points="505,-182 505,-218 585,-218 585,-182 505,-182"/>
<text text-anchor="middle" x="545" y="-196.3" font-family="Times New Roman,serif" font-size="14.00">IPyVolume</text>
</g>
<!-- ThreeJS&#45;&gt;IPyVolume -->
<g id="edge11" class="edge"><title>ThreeJS&#45;&gt;IPyVolume</title>
<path fill="none" stroke="black" d="M193.705,-381.205C194.526,-380.17 195.294,-379.102 196,-378 221.775,-337.762 189.172,-312.829 214,-272 230.488,-244.886 241.484,-240.655 271,-229 349.689,-197.929 450.502,-196.003 504.93,-197.744"/>
<polygon fill="black" stroke="black" points="191.069,-378.894 186.562,-388.483 196.065,-383.798 191.069,-378.894"/>
<text text-anchor="middle" x="319.5" y="-232.8" font-family="Times New Roman,serif" font-size="14.00" fill="red">IPyWidgets sync</text>
</g>
<!-- Mayavi -->
<g id="node10" class="node"><title>Mayavi</title>
<polygon fill="none" stroke="black" points="516.5,-127 516.5,-163 573.5,-163 573.5,-127 516.5,-127"/>
<text text-anchor="middle" x="545" y="-141.3" font-family="Times New Roman,serif" font-size="14.00">Mayavi</text>
</g>
<!-- x3dom&#45;&gt;Mayavi -->
<g id="edge12" class="edge"><title>x3dom&#45;&gt;Mayavi</title>
<path fill="none" stroke="black" d="M191.182,-329.004C192.968,-327.125 194.599,-325.123 196,-323 218.706,-288.588 192.864,-267.398 214,-232 230.833,-203.808 240.986,-198.314 271,-185 354.633,-147.901 465.437,-143.894 516.313,-144.252"/>
<polygon fill="black" stroke="black" points="188.854,-326.391 183.684,-335.638 193.492,-331.633 188.854,-326.391"/>
<text text-anchor="middle" x="319.5" y="-188.8" font-family="Times New Roman,serif" font-size="14.00" fill="red">Static HTML</text>
</g>
<!-- vtk.js&#45;&gt;ParaViewWeb -->
<g id="edge7" class="edge"><title>vtk.js&#45;&gt;ParaViewWeb</title>
<path fill="none" stroke="black" d="M192.285,-447.851C215.427,-439.994 245.814,-429.677 270.972,-421.136"/>
<polygon fill="black" stroke="black" points="190.872,-444.634 182.528,-451.163 193.122,-451.263 190.872,-444.634"/>
</g>
<!-- VPython -->
<g id="node13" class="node"><title>VPython</title>
<polygon fill="none" stroke="black" points="512,-72 512,-108 578,-108 578,-72 512,-72"/>
<text text-anchor="middle" x="545" y="-86.3" font-family="Times New Roman,serif" font-size="14.00">VPython</text>
</g>
<!-- GlowScript&#45;&gt;VPython -->
<g id="edge15" class="edge"><title>GlowScript&#45;&gt;VPython</title>
<path fill="none" stroke="black" d="M166.839,-267.441C182.682,-229.756 216.936,-163.77 271,-137 351.164,-97.3059 458.954,-90.4813 511.909,-89.717"/>
<polygon fill="black" stroke="black" points="163.551,-266.236 163.031,-276.818 170.036,-268.869 163.551,-266.236"/>
<text text-anchor="middle" x="319.5" y="-140.8" font-family="Times New Roman,serif" font-size="14.00" fill="red">Comm</text>
</g>
<!-- K3D&#45;Jupyter -->
<g id="node12" class="node"><title>K3D&#45;Jupyter</title>
<polygon fill="none" stroke="black" points="501,-347 501,-383 589,-383 589,-347 501,-347"/>
<text text-anchor="middle" x="545" y="-361.3" font-family="Times New Roman,serif" font-size="14.00">K3D&#45;Jupyter</text>
</g>
<!-- K3D&#45;&gt;K3D&#45;Jupyter -->
<g id="edge14" class="edge"><title>K3D&#45;&gt;K3D&#45;Jupyter</title>
<path fill="none" stroke="black" d="M356.059,-444.886C395.519,-428.113 459.175,-401.055 501.301,-383.149"/>
<polygon fill="black" stroke="black" points="354.41,-441.783 346.576,-448.916 357.148,-448.226 354.41,-441.783"/>
<text text-anchor="middle" x="434.5" y="-434.8" font-family="Times New Roman,serif" font-size="14.00" fill="red">IPyWidgets sync</text>
</g>
<!-- VisPy.scene -->
<g id="node16" class="node"><title>VisPy.scene</title>
<polygon fill="none" stroke="black" points="626,-17 626,-53 712,-53 712,-17 626,-17"/>
<text text-anchor="middle" x="669" y="-31.3" font-family="Times New Roman,serif" font-size="14.00">VisPy.scene</text>
</g>
<!-- VisPy.gloo&#45;&gt;VisPy.scene -->
<g id="edge9" class="edge"><title>VisPy.gloo&#45;&gt;VisPy.scene</title>
<path fill="none" stroke="black" d="M594.7,-35C605.007,-35 615.803,-35 625.844,-35"/>
<polygon fill="black" stroke="black" points="594.602,-31.5001 584.602,-35 594.602,-38.5001 594.602,-31.5001"/>
</g>
</g>
</svg>
