<?xml version="1.0" encoding="UTF-8" standalone="no"?>
<!DOCTYPE svg PUBLIC "-//W3C//DTD SVG 1.1//EN"
 "http://www.w3.org/Graphics/SVG/1.1/DTD/svg11.dtd">
<!-- Generated by graphviz version 2.38.0 (20140413.2041)
 -->
<!-- Title: %3 Pages: 1 -->
<svg width="736pt" height="478pt"
 viewBox="0.00 0.00 736.00 478.00" xmlns="http://www.w3.org/2000/svg" xmlns:xlink="http://www.w3.org/1999/xlink">
<g id="graph0" class="graph" transform="scale(1 1) rotate(0) translate(4 474)">
<title>%3</title>
<polygon fill="white" stroke="none" points="-4,4 -4,-474 732,-474 732,4 -4,4"/>
<g id="clust1" class="cluster"><title>cluster0</title>
<polygon fill="none" stroke="black" points="8,-220 8,-462 376,-462 376,-220 8,-220"/>
<text text-anchor="middle" x="192" y="-446.8" font-family="Times New Roman,serif" font-size="14.00">Browser</text>
</g>
<g id="clust2" class="cluster"><title>cluster1</title>
<polygon fill="none" stroke="black" points="493,-8 493,-360 720,-360 720,-8 493,-8"/>
<text text-anchor="middle" x="606.5" y="-344.8" font-family="Times New Roman,serif" font-size="14.00">Kernel</text>
</g>
<!-- WebGL -->
<g id="node1" class="node"><title>WebGL</title>
<polygon fill="lightblue" stroke="black" points="16,-284 16,-320 78,-320 78,-284 16,-284"/>
<text text-anchor="middle" x="47" y="-298.3" font-family="Times New Roman,serif" font-size="14.00">WebGL</text>
</g>
<!-- ThreeJS -->
<g id="node2" class="node"><title>ThreeJS</title>
<polygon fill="lightblue" stroke="black" points="124.5,-339 124.5,-375 186.5,-375 186.5,-339 124.5,-339"/>
<text text-anchor="middle" x="155.5" y="-353.3" font-family="Times New Roman,serif" font-size="14.00">ThreeJS</text>
</g>
<!-- WebGL&#45;&gt;ThreeJS -->
<g id="edge1" class="edge"><title>WebGL&#45;&gt;ThreeJS</title>
<path fill="none" stroke="black" d="M87.3,-322.296C99.4838,-328.588 112.716,-335.421 124.191,-341.347"/>
<polygon fill="black" stroke="black" points="88.7249,-319.092 78.2338,-317.614 85.5129,-325.312 88.7249,-319.092"/>
</g>
<!-- x3dom -->
<g id="node3" class="node"><title>x3dom</title>
<polygon fill="lightblue" stroke="black" points="127.5,-229 127.5,-265 183.5,-265 183.5,-229 127.5,-229"/>
<text text-anchor="middle" x="155.5" y="-243.3" font-family="Times New Roman,serif" font-size="14.00">x3dom</text>
</g>
<!-- WebGL&#45;&gt;x3dom -->
<g id="edge2" class="edge"><title>WebGL&#45;&gt;x3dom</title>
<path fill="none" stroke="black" d="M87.2449,-281.733C100.62,-274.826 115.263,-267.263 127.462,-260.963"/>
<polygon fill="black" stroke="black" points="85.5129,-278.688 78.2338,-286.386 88.7249,-284.908 85.5129,-278.688"/>
</g>
<!-- vtk.js -->
<g id="node4" class="node"><title>vtk.js</title>
<polygon fill="lightblue" stroke="black" points="128.5,-394 128.5,-430 182.5,-430 182.5,-394 128.5,-394"/>
<text text-anchor="middle" x="155.5" y="-408.3" font-family="Times New Roman,serif" font-size="14.00">vtk.js</text>
</g>
<!-- WebGL&#45;&gt;vtk.js -->
<g id="edge3" class="edge"><title>WebGL&#45;&gt;vtk.js</title>
<path fill="none" stroke="black" d="M66.334,-328.58C78.9016,-345.754 96.5791,-367.989 115,-385 119.028,-388.719 123.604,-392.316 128.178,-395.605"/>
<polygon fill="black" stroke="black" points="68.9288,-326.193 60.251,-320.115 63.2442,-330.278 68.9288,-326.193"/>
</g>
<!-- GlowScript -->
<g id="node5" class="node"><title>GlowScript</title>
<polygon fill="none" stroke="black" points="115,-284 115,-320 196,-320 196,-284 115,-284"/>
<text text-anchor="middle" x="155.5" y="-298.3" font-family="Times New Roman,serif" font-size="14.00">GlowScript</text>
</g>
<!-- WebGL&#45;&gt;GlowScript -->
<g id="edge4" class="edge"><title>WebGL&#45;&gt;GlowScript</title>
<path fill="none" stroke="black" d="M88.4115,-302C97.0016,-302 106.066,-302 114.635,-302"/>
<polygon fill="black" stroke="black" points="88.2338,-298.5 78.2338,-302 88.2337,-305.5 88.2338,-298.5"/>
</g>
<!-- VisPy.gloo -->
<g id="node11" class="node"><title>VisPy.gloo</title>
<polygon fill="none" stroke="black" points="505.5,-17 505.5,-53 584.5,-53 584.5,-17 505.5,-17"/>
<text text-anchor="middle" x="545" y="-31.3" font-family="Times New Roman,serif" font-size="14.00">VisPy.gloo</text>
</g>
<!-- WebGL&#45;&gt;VisPy.gloo -->
<g id="edge13" class="edge"><title>WebGL&#45;&gt;VisPy.gloo</title>
<path fill="none" stroke="black" d="M61.7937,-274.704C86.2079,-229.149 141.38,-137.729 214,-88 303.887,-26.4456 439.426,-26.6717 505.307,-31.1674"/>
<polygon fill="black" stroke="black" points="58.6202,-273.219 57.0556,-283.697 64.8133,-276.481 58.6202,-273.219"/>
<text text-anchor="middle" x="233.5" y="-91.8" font-family="Times New Roman,serif" font-size="14.00" fill="red">Comm</text>
</g>
<!-- K3D -->
<g id="node6" class="node"><title>K3D</title>
<polygon fill="none" stroke="black" points="292.5,-284 292.5,-320 346.5,-320 346.5,-284 292.5,-284"/>
<text text-anchor="middle" x="319.5" y="-298.3" font-family="Times New Roman,serif" font-size="14.00">K3D</text>
</g>
<!-- ThreeJS&#45;&gt;K3D -->
<g id="edge5" class="edge"><title>ThreeJS&#45;&gt;K3D</title>
<path fill="none" stroke="black" d="M196.309,-343.485C226.223,-333.329 266.351,-319.705 292.317,-310.889"/>
<polygon fill="black" stroke="black" points="194.935,-340.255 186.591,-346.784 197.186,-346.883 194.935,-340.255"/>
</g>
<!-- ParaViewWeb -->
<g id="node7" class="node"><title>ParaViewWeb</title>
<polygon fill="beige" stroke="black" points="271,-394 271,-430 368,-430 368,-394 271,-394"/>
<text text-anchor="middle" x="319.5" y="-408.3" font-family="Times New Roman,serif" font-size="14.00">ParaViewWeb</text>
</g>
<!-- ThreeJS&#45;&gt;ParaViewWeb -->
<g id="edge6" class="edge"><title>ThreeJS&#45;&gt;ParaViewWeb</title>
<path fill="none" stroke="black" d="M196.171,-370.468C218.686,-378.112 247.02,-387.732 270.749,-395.788"/>
<polygon fill="black" stroke="black" points="197.186,-367.117 186.591,-367.216 194.935,-373.745 197.186,-367.117"/>
</g>
<!-- SciviJS -->
<g id="node8" class="node"><title>SciviJS</title>
<polygon fill="beige" stroke="black" points="290.5,-339 290.5,-375 348.5,-375 348.5,-339 290.5,-339"/>
<text text-anchor="middle" x="319.5" y="-353.3" font-family="Times New Roman,serif" font-size="14.00">SciviJS</text>
</g>
<!-- ThreeJS&#45;&gt;SciviJS -->
<g id="edge8" class="edge"><title>ThreeJS&#45;&gt;SciviJS</title>
<path fill="none" stroke="black" d="M196.86,-357C226.01,-357 264.636,-357 290.466,-357"/>
<polygon fill="black" stroke="black" points="196.591,-353.5 186.591,-357 196.591,-360.5 196.591,-353.5"/>
</g>
<!-- PyThreeJS -->
<g id="node9" class="node"><title>PyThreeJS</title>
<polygon fill="none" stroke="black" points="506.5,-237 506.5,-273 583.5,-273 583.5,-237 506.5,-237"/>
<text text-anchor="middle" x="545" y="-251.3" font-family="Times New Roman,serif" font-size="14.00">PyThreeJS</text>
</g>
<!-- ThreeJS&#45;&gt;PyThreeJS -->
<g id="edge11" class="edge"><title>ThreeJS&#45;&gt;PyThreeJS</title>
<path fill="none" stroke="black" d="M192.39,-332.825C193.618,-331.884 194.825,-330.941 196,-330 231.59,-301.498 228.735,-277.108 271,-260 349.653,-228.163 451.787,-238.403 506.11,-247.444"/>
<polygon fill="black" stroke="black" points="190.067,-330.188 184.087,-338.935 194.216,-335.826 190.067,-330.188"/>
<text text-anchor="middle" x="319.5" y="-263.8" font-family="Times New Roman,serif" font-size="14.00" fill="red">IPyWidgets sync</text>
</g>
<!-- Sage.plot3d -->
<g id="node14" class="node"><title>Sage.plot3d</title>
<polygon fill="none" stroke="black" points="503.5,-182 503.5,-218 586.5,-218 586.5,-182 503.5,-182"/>
<text text-anchor="middle" x="545" y="-196.3" font-family="Times New Roman,serif" font-size="14.00">Sage.plot3d</text>
</g>
<!-- ThreeJS&#45;&gt;Sage.plot3d -->
<g id="edge16" class="edge"><title>ThreeJS&#45;&gt;Sage.plot3d</title>
<path fill="none" stroke="black" d="M193.926,-332.673C194.655,-331.803 195.348,-330.912 196,-330 213.434,-305.615 197.414,-289.969 214,-265 231.859,-238.114 240.916,-231.693 271,-220 348.737,-189.785 448.192,-191.598 503.054,-195.726"/>
<polygon fill="black" stroke="black" points="191.251,-330.396 186.596,-339.913 196.17,-335.376 191.251,-330.396"/>
<text text-anchor="middle" x="319.5" y="-223.8" font-family="Times New Roman,serif" font-size="14.00" fill="red">Static HTML</text>
</g>
<!-- Mayavi -->
<g id="node10" class="node"><title>Mayavi</title>
<polygon fill="none" stroke="black" points="516.5,-72 516.5,-108 573.5,-108 573.5,-72 516.5,-72"/>
<text text-anchor="middle" x="545" y="-86.3" font-family="Times New Roman,serif" font-size="14.00">Mayavi</text>
</g>
<!-- x3dom&#45;&gt;Mayavi -->
<g id="edge12" class="edge"><title>x3dom&#45;&gt;Mayavi</title>
<path fill="none" stroke="black" d="M164.181,-219.097C172.567,-193.369 188.338,-155.684 214,-132 299.094,-53.4645 453.321,-72.1844 516.193,-83.9925"/>
<polygon fill="black" stroke="black" points="160.735,-218.395 161.129,-228.983 167.424,-220.46 160.735,-218.395"/>
<text text-anchor="middle" x="319.5" y="-99.8" font-family="Times New Roman,serif" font-size="14.00" fill="red">Static HTML</text>
</g>
<!-- vtk.js&#45;&gt;ParaViewWeb -->
<g id="edge7" class="edge"><title>vtk.js&#45;&gt;ParaViewWeb</title>
<path fill="none" stroke="black" d="M192.597,-412C215.7,-412 245.926,-412 270.972,-412"/>
<polygon fill="black" stroke="black" points="192.528,-408.5 182.528,-412 192.528,-415.5 192.528,-408.5"/>
</g>
<!-- VPython -->
<g id="node13" class="node"><title>VPython</title>
<polygon fill="none" stroke="black" points="512,-127 512,-163 578,-163 578,-127 512,-127"/>
<text text-anchor="middle" x="545" y="-141.3" font-family="Times New Roman,serif" font-size="14.00">VPython</text>
</g>
<!-- GlowScript&#45;&gt;VPython -->
<g id="edge15" class="edge"><title>GlowScript&#45;&gt;VPython</title>
<path fill="none" stroke="black" d="M195.186,-276.182C195.465,-275.793 195.737,-275.398 196,-275 218.502,-240.975 187.961,-216.4 214,-185 286.849,-97.1524 444.062,-121.155 511.834,-136.626"/>
<polygon fill="black" stroke="black" points="192.473,-273.965 188.377,-283.736 197.672,-278.651 192.473,-273.965"/>
<text text-anchor="middle" x="319.5" y="-146.8" font-family="Times New Roman,serif" font-size="14.00" fill="red">Comm</text>
</g>
<!-- K3D&#45;Jupyter -->
<g id="node12" class="node"><title>K3D&#45;Jupyter</title>
<polygon fill="none" stroke="black" points="501,-292 501,-328 589,-328 589,-292 501,-292"/>
<text text-anchor="middle" x="545" y="-306.3" font-family="Times New Roman,serif" font-size="14.00">K3D&#45;Jupyter</text>
</g>
<!-- K3D&#45;&gt;K3D&#45;Jupyter -->
<g id="edge14" class="edge"><title>K3D&#45;&gt;K3D&#45;Jupyter</title>
<path fill="none" stroke="black" d="M356.781,-303.299C396.162,-304.708 459.014,-306.958 500.885,-308.457"/>
<polygon fill="black" stroke="black" points="356.695,-299.793 346.576,-302.933 356.444,-306.789 356.695,-299.793"/>
<text text-anchor="middle" x="434.5" y="-310.8" font-family="Times New Roman,serif" font-size="14.00" fill="red">IPyWidgets sync</text>
</g>
<!-- IPyVolume -->
<g id="node15" class="node"><title>IPyVolume</title>
<polygon fill="none" stroke="black" points="629,-237 629,-273 709,-273 709,-237 629,-237"/>
<text text-anchor="middle" x="669" y="-251.3" font-family="Times New Roman,serif" font-size="14.00">IPyVolume</text>
</g>
<!-- PyThreeJS&#45;&gt;IPyVolume -->
<g id="edge9" class="edge"><title>PyThreeJS&#45;&gt;IPyVolume</title>
<path fill="none" stroke="black" d="M593.925,-255C605.421,-255 617.567,-255 628.624,-255"/>
<polygon fill="black" stroke="black" points="593.6,-251.5 583.6,-255 593.599,-258.5 593.6,-251.5"/>
</g>
<!-- VisPy.scene -->
<g id="node16" class="node"><title>VisPy.scene</title>
<polygon fill="none" stroke="black" points="626,-17 626,-53 712,-53 712,-17 626,-17"/>
<text text-anchor="middle" x="669" y="-31.3" font-family="Times New Roman,serif" font-size="14.00">VisPy.scene</text>
</g>
<!-- VisPy.gloo&#45;&gt;VisPy.scene -->
<g id="edge10" class="edge"><title>VisPy.gloo&#45;&gt;VisPy.scene</title>
<path fill="none" stroke="black" d="M594.7,-35C605.007,-35 615.803,-35 625.844,-35"/>
<polygon fill="black" stroke="black" points="594.602,-31.5001 584.602,-35 594.602,-38.5001 594.602,-31.5001"/>
</g>
</g>
</svg>
