<?xml version="1.0" encoding="utf-8"?>
<!DOCTYPE svg PUBLIC "-//W3C//DTD SVG 1.1//EN" "http://www.w3.org/Graphics/SVG/1.1/DTD/svg11.dtd">

<svg version="1.1" x="0px" y="0px" height="175" width="980" xmlns="http://www.w3.org/2000/svg">
    <g transform="translate(50,20)">
        <g id="x-axis" class="axis" transform="translate(10, 125)">
            <g class="tick" style=";" transform="translate(152.7136347229742,0)">
                <line y2="6" x2="0" stroke="#888"></line>
                <text y="9" x="0" dy=".71em" style="text-anchor: middle;">2013</text>
            </g>
            <g class="tick" transform="translate(332.5457949828551,0)">
                <line y2="6" x2="0" stroke="#888"></line>
                <text y="9" x="0" dy=".71em" style="text-anchor: middle;">2014</text>
            </g>
            <g class="tick" transform="translate(512.377955242736,0)">
                <line y2="6" x2="0" stroke="#888"></line>
                <text y="9" x="0" dy=".71em" style="text-anchor: middle;">2015</text>
            </g>
            <g class="tick" transform="translate(692.2101155026168,0)">
                <line y2="6" x2="0" stroke="#888"></line>
                <text y="9" x="0" dy=".71em" style="text-anchor: middle;">2016</text>
            </g>
            <g class="tick" transform="translate(872.5349666125248,0)">
                <line y2="6" x2="0" stroke="#888"></line>
                <text y="9" x="0" dy=".71em" style="text-anchor: middle;">2017</text>
            </g>
        </g>
        <g id="y-axis" class="axis">
            <g class="tick" transform="translate(0,125)" >
                <line x2="910" y2="0" stroke="#888"></line>
                <text x="-10" y="0" dy=".32em" style="text-anchor: end;">0</text>
            </g>
            <g class="tick" transform="translate(0,90.84699453551912)">
                <line x2="910" y2="0" stroke="#888"></line>
                <text x="-10" y="0" dy=".32em" style="text-anchor: end;">50</text>
            </g>
            <g class="tick" transform="translate(0,56.693989071038246)">
                <line x2="910" y2="0" stroke="#888"></line>
                <text x="-10" y="0" dy=".32em" style="text-anchor: end;">100</text>
            </g>
            <g class="tick" transform="translate(0,22.540983606557376)">
                <line x2="910" y2="0" stroke="#888"></line>
                <text x="-10" y="0" dy=".32em" style="text-anchor: end;">150</text>
            </g>
        </g>
        <path class="area" fill="#1db34f" fill-opacity="0.5"
        d="M0,120.21857923497268L0.5748059916982493,119.87704918032787C1.1496119833964986,119.53551912568307,2.2992239667929972,118.85245901639344,3.448835950189496,119.64936247723132C4.5984479335859945,120.44626593806922,5.748059916982493,122.7231329690346,6.897671900378992,122.15391621129325C8.04728388377549,121.5846994535519,9.196895867171989,118.16939890710381,10.34650785056849,117.14480874316939C11.496119833964986,116.12021857923497,12.645731817361485,117.4863387978142,13.795343800757983,117.71402550091074C14.944955784154482,117.94171220400727,16.09456776755098,117.03096539162112,17.24417975094748,117.25865209471766C18.393791734343978,117.4863387978142,19.54340371774048,118.85245901639344,20.69301570113698,119.76320582877959C21.842627684533475,120.67395264116576,22.992239667929976,121.12932604735883,24.141851651326476,121.92622950819671C25.291463634722973,122.7231329690346,26.44107561811947,123.8615664845173,27.590687601515967,123.52003642987249C28.740299584912467,123.17850637522768,29.889911568308968,121.35701275045537,31.039523551705464,118.96630236794171C32.18913553510197,116.57559198542805,33.338747518498465,113.61566484517304,34.48835950189496,113.72950819672131C35.63797148529146,113.84335154826958,36.787583468687956,117.03096539162112,37.93719545208446,119.42167577413478C39.08680743548096,121.81238615664844,40.23641941887746,123.40619307832422,41.38603140227396,124.2030965391621C42.535643385670454,125,43.68525536906695,125,44.83486735246345,124.31693989071037C45.984479335859945,123.63387978142076,47.13409131925645,122.26775956284152,48.28370330265295,120.67395264116576C49.43331528604945,119.08014571948998,50.582927269445946,117.25865209471766,51.73253925284244,117.60018214936247C52.88215123623894,117.94171220400727,54.03176321963544,120.4462659380692,55.18137520303193,121.58469945355189C56.33098718642844,122.7231329690346,57.48059916982494,122.49544626593806,58.63021115322144,122.26775956284152C59.77982313661794,122.04007285974498,60.92943512001444,121.81238615664844,62.07904710341094,121.69854280510017C63.22865908680743,121.5846994535519,64.37827107020394,121.5846994535519,65.52788305360042,122.15391621129325C66.67749503699693,122.7231329690346,67.82710702039341,123.8615664845173,68.97671900378992,124.31693989071037C70.12633098718642,124.77231329690346,71.27594297058292,124.54462659380692,72.42555495397943,124.43078324225864C73.57516693737593,124.31693989071039,74.72477892077242,124.31693989071039,75.87439090416892,124.43078324225864C77.02400288756542,124.54462659380692,78.17361487096191,124.77231329690346,79.32322685435841,123.40619307832421C80.4728388377549,122.04007285974498,81.6224508211514,119.08014571948996,82.77206280454791,119.08014571948996C83.92167478794441,119.08014571948996,85.07128677134091,122.04007285974498,86.2208987547374,123.52003642987249C87.3705107381339,125,88.5201227215304,125,89.6697347049269,124.88615664845172C90.81934668832339,124.77231329690346,91.96895867171989,124.54462659380692,93.1185706551164,124.54462659380691C94.2681826385129,124.54462659380692,95.4177946219094,124.77231329690346,96.5674066053059,121.01548269581056C97.7170185887024,117.25865209471766,98.8666305720989,109.51730418943532,100.0162425554954,108.4927140255009C101.16585453889189,107.46812386156648,102.31546652228839,113.16029143897995,103.46507850568489,114.75409836065572C104.61469048908138,116.34790528233151,105.76430247247788,113.84335154826957,106.91391445587438,114.867941712204C108.06352643927087,115.89253187613843,109.21313842266737,120.44626593806922,110.36275040606387,122.7231329690346C111.51236238946036,125,112.66197437285686,125,113.81158635625337,124.99999999999999C114.96119833964987,125,116.11081032304638,125,117.26042230644288,124.88615664845172C118.41003428983939,124.77231329690346,119.55964627323588,124.54462659380692,120.70925825663238,124.54462659380691C121.85887024002888,124.54462659380692,123.00848222342537,124.77231329690346,124.15809420682187,124.65846994535518C125.30770619021837,124.54462659380691,126.45731817361487,124.08925318761382,127.60693015701136,123.97540983606555C128.75654214040787,123.86156648451728,129.90615412380436,124.08925318761383,131.05576610720087,123.74772313296903C132.20537809059735,123.40619307832422,133.35499007399386,122.49544626593806,134.50460205739034,122.60928961748633C135.65421404078685,122.7231329690346,136.80382602418334,123.8615664845173,137.95343800757985,124.43078324225864C139.10304999097633,125,140.25266197437284,125,141.40227395776935,124.99999999999999C142.55188594116584,125,143.70149792456235,125,144.85110990795886,124.99999999999999C146.00072189135534,125,147.15033387475182,125,148.29994585814833,124.99999999999999C149.44955784154484,125,150.59916982494133,125,151.74878180833784,124.88615664845172C152.89839379173435,124.77231329690346,154.04800577513083,124.54462659380692,155.19761775852734,124.54462659380691C156.34722974192383,124.54462659380692,157.49684172532034,124.77231329690346,158.64645370871682,124.77231329690345C159.7960656921133,124.77231329690346,160.9456776755098,124.54462659380692,162.09528965890632,124.54462659380691C163.2449016423028,124.54462659380692,164.39451362569932,124.77231329690346,165.54412560909583,124.88615664845172C166.6937375924923,125,167.8433495758888,125,168.9929615592853,124.77231329690345C170.1425735426818,124.54462659380691,171.2921855260783,124.08925318761382,172.44179750947478,124.08925318761382C173.59140949287132,124.08925318761382,174.7410214762678,124.54462659380691,175.89063345966431,124.43078324225864C177.0402454430608,124.31693989071037,178.1898574264573,123.63387978142075,179.3394694098538,121.92622950819671C180.48908139325027,120.21857923497267,181.63869337664678,117.4863387978142,182.7883053600433,117.60018214936247C183.93791734343978,117.71402550091074,185.0875293268363,120.67395264116574,186.2371413102328,122.15391621129324C187.38675329362928,123.63387978142075,188.53636527702577,123.63387978142075,189.68597726042228,123.29234972677594C190.8355892438188,122.95081967213113,191.9852012272153,122.26775956284152,193.13481321061178,121.35701275045537C194.2844251940083,120.44626593806922,195.4340371774048,119.30783242258651,196.58364916080131,117.37249544626593C197.7332611441978,115.43715846994535,198.88287312759428,112.70491803278688,200.0324851109908,112.47723132969034C201.1820970943873,112.24954462659379,202.33170907778378,114.52641165755918,203.4813210611803,117.03096539162111C204.63093304457678,119.53551912568304,205.7805450279733,122.26775956284152,206.93015701136977,123.29234972677595C208.07976899476625,124.31693989071037,209.22938097816277,123.63387978142075,210.37899296155928,122.26775956284152C211.52860494495576,120.90163934426228,212.67821692835224,118.85245901639342,213.82782891174875,118.73861566484516C214.97744089514526,118.62477231329689,216.12705287854178,120.4462659380692,217.2766648619383,120.78779599271401C218.42627684533477,121.12932604735883,219.57588882873125,119.99089253187613,220.72550081212773,119.76320582877959C221.87511279552425,119.53551912568305,223.02472477892076,120.21857923497268,224.17433676231724,119.64936247723134C225.32394874571375,119.08014571948998,226.47356072911023,117.25865209471766,227.62317271250674,117.94171220400727C228.77278469590323,118.62477231329689,229.92239667929974,121.81238615664844,231.07200866269625,122.15391621129326C232.22162064609276,122.49544626593806,233.37123262948927,119.99089253187614,234.52084461288575,119.76320582877959C235.67045659628226,119.53551912568305,236.82006857967875,121.5846994535519,237.96968056307526,122.49544626593806C239.11929254647174,123.40619307832421,240.26890452986825,123.17850637522767,241.41851651326473,122.83697632058286C242.56812849666125,122.49544626593806,243.71774048005773,122.04007285974498,244.8673524634542,122.38160291438979C246.01696444685072,122.7231329690346,247.16657643024723,123.8615664845173,248.31618841364372,122.38160291438979C249.46580039704023,120.90163934426229,250.6154123804367,116.80327868852459,251.7650243638332,114.64025500910745C252.9146363472297,112.47723132969034,254.0642483306262,112.2495446265938,255.21386031402272,106.44353369763205C256.3634722974192,100.6375227686703,257.51308428081575,89.25318761384335,258.66269626421223,87.09016393442622C259.8123082476087,84.9271402550091,260.9619202310052,91.9854280510018,262.1115322144017,97.33606557377048C263.2611441977982,102.68670309653915,264.41075618119464,106.32969034608377,265.5603681645912,99.61293260473586C266.70998014798766,92.89617486338796,267.8595921313842,75.81967213114753,269.00920411478074,75.9335154826958C270.1588160981772,76.04735883424408,271.3084280815737,93.35154826958106,272.4580400649702,102.68670309653916C273.6076520483667,112.02185792349727,274.75726403176316,113.38797814207649,275.9068760151597,114.5264116575592C277.0564879985562,115.6648451730419,278.20609998195266,116.57559198542805,279.3557119653492,117.25865209471768C280.5053239487457,117.94171220400727,281.65493593214217,118.39708561020035,282.8045479155387,118.96630236794171C283.9541598989352,119.53551912568305,285.10377188233167,120.21857923497268,286.25338386572815,120.44626593806922C287.40299584912464,120.67395264116576,288.5526078325212,120.44626593806922,289.7022198159177,120.90163934426229C290.8518317993142,121.35701275045537,292.0014437827107,122.49544626593806,293.15105576610716,123.29234972677594C294.30066774950365,124.08925318761382,295.4502797329002,124.54462659380691,296.59989171629667,122.7231329690346C297.74950369969315,120.90163934426229,298.89911568308963,116.80327868852459,300.0487276664861,115.43715846994533C301.19833964988266,114.0710382513661,302.3479516332792,115.43715846994533,303.4975636166757,117.48633879781418C304.64717560007216,119.53551912568304,305.7967875834687,122.26775956284152,306.9463995668652,123.63387978142076C308.09601155026166,125,309.24562353365815,125,310.39523551705463,124.99999999999999C311.54484750045117,125,312.6944594838477,125,313.8440714672442,124.65846994535518C314.9936834506407,124.31693989071037,316.14329543403716,123.63387978142075,317.29290741743364,123.63387978142075C318.4425194008302,123.63387978142075,319.59213138422666,124.31693989071037,320.74174336762314,124.65846994535518C321.8913553510197,125,323.0409673344161,125,324.19057931781265,124.99999999999999C325.34019130120913,125,326.4898032846056,125,327.63941526800215,124.99999999999999C328.78902725139864,125,329.9386392347951,125,331.08825121819166,124.99999999999999C332.23786320158814,125,333.3874751849846,125,334.53708716838116,121.81238615664844C335.6866991517776,118.6247723132969,336.8363111351741,112.2495446265938,337.9859231185706,110.31420765027323C339.1355351019671,108.37887067395265,340.28514708536363,110.88342440801458,341.4347590687601,111.22495446265938C342.58437105215665,111.56648451730419,343.73398303555314,109.74499089253187,344.8835950189496,110.3142076502732C346.0332070023461,110.88342440801456,347.1828189857426,113.84335154826957,348.33243096913907,106.32969034608378C349.4820429525356,98.81602914389798,350.63165493593215,80.8287795992714,351.78126691932863,74.22586520947176C352.9308789027251,67.62295081967213,354.08049088612165,72.40437158469945,355.23010286951813,71.03825136612022C356.3797148529146,69.67213114754098,357.5293268363111,62.15846994535519,358.6789388197076,60.79234972677595C359.8285508031041,59.42622950819673,360.9781627865006,64.20765027322405,362.12777476989714,73.54280510018215C363.2773867532936,82.87795992714025,364.4269987366901,96.76684881602914,365.57661072008665,100.52367941712204C366.7262227034831,104.28051001821493,367.87583468687956,97.90528233151184,369.02544667027604,98.92987249544626C370.1750586536726,99.95446265938068,371.32467063706906,108.37887067395263,372.4742826204656,108.4927140255009C373.6238946038621,108.60655737704917,374.77350658725857,100.40983606557376,375.9231185706551,94.48998178506375C377.0727305540516,88.57012750455372,378.22234253744807,84.9271402550091,379.37195452084455,86.97632058287796C380.52156650424104,89.02550091074681,381.6711784876376,96.76684881602914,382.8207904710341,102.68670309653916C383.9704024544306,108.60655737704917,385.1200144378271,112.70491803278688,386.2696264212236,110.7695810564663C387.4192384046201,108.83424408014571,388.5688503880166,100.86520947176685,389.71846237141307,99.72677595628414C390.86807435480955,98.58834244080145,392.0176863382061,104.28051001821493,393.16729832160263,109.28961748633878C394.31691030499906,114.29872495446264,395.4665222883956,118.62477231329689,396.616134271792,119.6493624772313C397.76574625518856,120.67395264116574,398.9153582385851,118.39708561020035,400.0649702219816,118.39708561020035C401.21458220537806,118.39708561020035,402.36419418877455,120.67395264116574,403.51380617217103,121.9262295081967C404.66341815556757,123.17850637522767,405.81303013896405,123.40619307832421,406.96264212236053,123.29234972677594C408.1122541057571,123.17850637522767,409.2618660891535,122.7231329690346,410.41147807255004,120.90163934426228C411.5610900559465,119.08014571948996,412.710702039343,115.89253187613842,413.86031402273954,108.83424408014571C415.009926006136,101.775956284153,416.1595379895325,90.84699453551912,417.309149972929,88.11475409836065C418.4587619563255,85.38251366120218,419.608373939722,90.84699453551912,420.7579859231185,91.9854280510018C421.90759790651504,93.1238615664845,423.0572098899115,89.93624772313296,424.20682187330806,92.89617486338798C425.35643385670454,95.85610200364299,426.506045840101,104.96357012750455,427.6556578234975,104.16666666666666C428.805269806894,103.36976320582878,429.9548817902905,92.66848816029145,431.104493773687,81.28415300546447C432.2541057570835,69.89981785063752,433.40371774048003,57.83242258652094,434.5533297238766,54.417122040072854C435.70294170727306,51.00182149362476,436.85255369066954,56.23861566484516,438.002165674066,57.94626593806922C439.1517776574625,59.65391621129326,440.301389640859,57.83242258652095,441.4510016242555,50.887978142076506C442.600613607652,43.943533697632056,443.7502255910485,31.876138433515475,444.899837574445,28.233151183970847C446.0494495578415,24.59016393442622,447.19906154123805,29.371584699453543,448.34867352463453,35.86065573770491C449.498285508031,42.34972677595628,450.6478974914275,50.546448087431685,451.797509474824,57.26320582877959C452.94712145822047,63.979963570127495,454.09673344161695,69.2167577413479,455.24634542501343,74.90892531876139C456.3959574084099,80.60109289617486,457.54556939180645,86.74863387978142,458.695181375203,91.64389799635703C459.8447933585995,96.5391621129326,460.99440534199596,100.18214936247722,462.1440173253925,100.9790528233151C463.29362930878904,101.77595628415298,464.4432412921855,99.72677595628414,465.592853275582,99.1575591985428C466.74246525897854,98.58834244080145,467.8920772423751,99.4990892531876,469.04168922577156,98.24681238615665C470.19130120916805,96.99453551912568,471.34091319256447,93.5792349726776,472.4905251759609,94.71766848816029C473.64013715935744,95.85610200364297,474.789749142754,101.54826958105646,475.93936112615046,103.82513661202185C477.08897310954694,106.10200364298724,478.2385850929435,104.96357012750454,479.38819707634,106.78506375227686C480.5378090597365,108.60655737704917,481.687421043133,113.38797814207649,482.8370330265295,113.50182149362476C483.986645009926,113.61566484517303,485.1362569933225,109.06193078324225,486.285868976719,107.92349726775956C487.43548096011546,106.78506375227687,488.58509294351194,109.06193078324225,489.7347049269084,109.2896174863388C490.88431691030496,109.51730418943534,492.03392889370144,107.69581056466302,493.1835408770979,102.9143897996357C494.33315286049447,98.13296903460838,495.482764843891,90.39162112932604,496.6323768272875,89.36703096539162C497.78198881068397,88.3424408014572,498.93160079408045,94.03460837887067,500.08121277747694,99.72677595628414C501.2308247608734,105.41894353369763,502.3804367442699,111.1111111111111,503.53004872766644,115.32331511839708C504.6796607110629,119.53551912568304,505.82927269445946,122.26775956284152,506.978884677856,123.52003642987249C508.1284966612525,124.77231329690346,509.27810864464897,124.54462659380692,510.42772062804545,123.40619307832422C511.57733261144193,122.26775956284152,512.7269445948384,120.21857923497268,513.876556578235,117.827868852459C515.0261685616314,115.43715846994535,516.1757805450279,112.70491803278688,517.3253925284243,110.20036429872493C518.475004511821,107.695810564663,519.6246164952174,105.41894353369761,520.774228478614,107.24043715846993C521.9238404620105,109.06193078324225,523.0734524454069,114.98178506375227,524.2230644288034,118.05555555555556C525.3726764121999,121.12932604735883,526.5222883955964,121.35701275045537,527.6719003789929,121.2431693989071C528.8215123623893,121.12932604735883,529.9711243457858,120.67395264116576,531.1207363291824,120.56010928961749C532.2703483125788,120.44626593806922,533.4199602959754,120.67395264116576,534.5695722793719,116.12021857923497C535.7191842627684,111.56648451730419,536.868796246165,102.23132969034609,538.0184082295614,101.54826958105647C539.168020212958,100.86520947176685,540.3176321963545,108.83424408014571,541.467244179751,112.59107468123861C542.6168561631474,116.3479052823315,543.766468146544,115.89253187613842,544.9160801299404,115.2094717668488C546.0656921133368,114.52641165755918,547.2153040967333,113.61566484517303,548.3649160801299,94.37613843351548C549.5145280635263,75.13661202185791,550.6641400469229,37.56830601092896,551.8137520303194,29.143897996357012C552.9633640137158,20.719489981785063,554.1129759971125,41.43897996357013,555.2625879805089,56.92167577413479C556.4121999639054,72.40437158469945,557.561811947302,82.65027322404372,558.7114239306984,90.05009107468125C559.8610359140948,97.44990892531877,561.0106478974914,102.00364298724955,562.1602598808879,105.76047358834245C563.3098718642843,109.51730418943534,564.4594838476809,112.47723132969034,565.6090958310774,113.84335154826957C566.7587078144738,115.20947176684881,567.9083197978704,114.98178506375227,569.0579317812669,115.32331511839708C570.2075437646633,115.6648451730419,571.3571557480598,116.57559198542805,572.5067677314563,116.46174863387978C573.6563797148528,116.34790528233151,574.8059916982494,115.20947176684882,575.9556036816459,110.88342440801458C577.1052156650424,106.55737704918033,578.2548276484389,99.04371584699453,579.4044396318354,90.9608378870674C580.5540516152319,82.87795992714025,581.7036635986284,74.22586520947178,582.8532755820249,72.29052823315119C584.0028875654214,70.35519125683061,585.1524995488178,75.13661202185793,586.3021115322143,77.29963570127505C587.4517235156109,79.46265938069217,588.6013354990073,79.00728597449908,589.7509474824038,79.91803278688523C590.9005594658003,80.8287795992714,592.0501714491968,83.10564663023678,593.1997834325933,78.89344262295081C594.3493954159899,74.68123861566484,595.4990073993864,63.9799635701275,596.6486193827828,66.71220400728598C597.7982313661794,69.44444444444444,598.9478433495758,85.61020036429872,600.0974553329723,92.32695810564663C601.2470673163688,99.04371584699453,602.3966792997653,96.31147540983606,603.5462912831617,95.74225865209472C604.6959032665584,95.17304189435336,605.8455152499548,96.76684881602914,606.9951272333514,99.4990892531876C608.1447392167479,102.23132969034607,609.2943512001443,106.10200364298723,610.4439631835409,99.15755919854278C611.5935751669373,92.21311475409834,612.7431871503338,74.45355191256829,613.8927991337303,70.6967213114754C615.0424111171269,66.93989071038251,616.1920231005233,77.18579234972677,617.3416350839199,81.96721311475409C618.4912470673164,86.74863387978141,619.6408590507128,86.0655737704918,620.7904710341093,86.0655737704918C621.9400830175058,86.0655737704918,623.0896950009023,86.74863387978141,624.2393069842988,89.93624772313296C625.3889189676954,93.12386156648452,626.5385309510918,98.81602914389799,627.6881429344884,103.36976320582878C628.8377549178848,107.92349726775956,629.9873669012813,111.33879781420765,631.1369788846778,114.18488160291439C632.2865908680742,117.03096539162112,633.4362028514707,119.30783242258651,634.5858148348673,119.19398907103823C635.7354268182638,119.08014571948998,636.8850388016604,116.57559198542805,638.0346507850569,116.80327868852459C639.1842627684534,117.03096539162112,640.3338747518499,119.99089253187613,641.4834867352463,121.69854280510016C642.6330987186428,123.40619307832421,643.7827107020394,123.8615664845173,644.9323226854358,123.52003642987249C646.0819346688322,123.17850637522768,647.2315466522288,122.04007285974498,648.3811586356253,121.5846994535519C649.5307706190217,121.12932604735883,650.6803826024183,121.35701275045537,651.8299945858148,118.39708561020035C652.9796065692112,115.43715846994535,654.1292185526078,109.28961748633878,655.2788305360043,109.17577413479052C656.4284425194007,109.06193078324225,657.5780545027973,114.98178506375227,658.7276664861938,118.51092896174863C659.8772784695902,122.04007285974498,661.0268904529868,123.17850637522768,662.1765024363833,123.40619307832422C663.3261144197797,123.63387978142076,664.4757264031763,122.95081967213113,665.6253383865728,122.95081967213113C666.7749503699692,122.95081967213113,667.9245623533658,123.63387978142076,669.0741743367623,123.63387978142076C670.2237863201588,123.63387978142076,671.3733983035552,122.95081967213113,672.5230102869517,122.95081967213113C673.6726222703483,122.95081967213113,674.8222342537447,123.63387978142076,675.9718462371412,123.97540983606557C677.1214582205378,124.31693989071039,678.2710702039342,124.31693989071039,679.4206821873308,124.2030965391621C680.5702941707273,124.08925318761383,681.7199061541238,123.86156648451728,682.8695181375203,123.0646630236794C684.0191301209168,122.26775956284152,685.1687421043132,120.90163934426229,686.3183540877097,121.12932604735883C687.4679660711062,121.35701275045537,688.6175780545027,123.17850637522768,689.7671900378991,122.95081967213115C690.9168020212958,122.7231329690346,692.0664140046922,120.44626593806922,693.2160259880887,119.99089253187613C694.3656379714853,119.53551912568305,695.5152499548817,120.90163934426229,696.6648619382782,121.92622950819671C697.8144739216747,122.95081967213113,698.9640859050712,123.63387978142076,700.1136978884676,123.74772313296903C701.2633098718643,123.8615664845173,702.4129218552607,123.40619307832421,703.5625338386573,122.83697632058286C704.7121458220538,122.26775956284152,705.8617578054502,121.5846994535519,707.0113697888467,121.92622950819671C708.1609817722432,122.26775956284152,709.3105937556397,123.63387978142076,710.4602057390362,122.7231329690346C711.6098177224328,121.81238615664844,712.7594297058292,118.62477231329689,713.9090416892258,117.71402550091074C715.0586536726222,116.80327868852459,716.2082656560187,118.16939890710383,717.3578776394152,119.76320582877959C718.5074896228117,121.35701275045537,719.6571016062082,123.17850637522768,720.8067135896047,124.08925318761383C721.9563255730013,125,723.1059375563977,125,724.2555495397943,123.97540983606557C725.4051615231908,122.95081967213113,726.5547735065873,120.90163934426229,727.7043854899837,120.33242258652093C728.8539974733802,119.76320582877959,730.0036094567768,120.67395264116576,731.1532214401732,121.5846994535519C732.3028334235696,122.49544626593806,733.4524454069661,123.40619307832422,734.6020573903627,123.97540983606557C735.7516693737591,124.54462659380692,736.9012813571557,124.77231329690346,738.0508933405522,124.88615664845172C739.2005053239486,125,740.3501173073452,125,741.4997292907417,124.99999999999999C742.6493412741381,125,743.7989532575347,125,744.9485652409312,124.99999999999999C746.0981772243276,125,747.2477892077242,125,748.3974011911207,124.99999999999999C749.5470131745171,125,750.6966251579137,125,751.8462371413102,124.77231329690345C752.9958491247066,124.54462659380691,754.1454611081032,124.08925318761382,755.2950730914997,121.35701275045535C756.4446850748961,118.62477231329689,757.5942970582926,113.61566484517303,758.7439090416891,112.13570127504553C759.8935210250856,110.65573770491802,761.0431330084822,112.70491803278688,762.1927449918786,115.43715846994535C763.3423569752752,118.16939890710381,764.4919689586717,121.5846994535519,765.6415809420682,123.29234972677595C766.7911929254647,125,767.9408049088611,125,769.0904168922576,124.99999999999999C770.2400288756542,125,771.3896408590507,125,772.5392528424472,124.99999999999999C773.6888648258437,125,774.8384768092401,125,775.9880887926365,124.99999999999999C777.1377007760331,125,778.2873127594296,125,779.4369247428261,124.99999999999999C780.5865367262227,125,781.7361487096191,125,782.8857606930156,124.99999999999999C784.0353726764122,125,785.1849846598086,125,786.3345966432053,124.99999999999999C787.4842086266017,125,788.6338206099981,125,789.7834325933947,124.99999999999999C790.9330445767912,125,792.0826565601876,125,793.232268543584,124.99999999999999C794.3818805269806,125,795.5314925103771,125,796.6811044937735,124.99999999999999C797.8307164771701,125,798.9803284605666,125,800.1299404439632,124.99999999999999C801.2795524273597,125,802.4291644107561,125,803.5787763941527,124.99999999999999C804.7283883775491,125,805.8780003609456,125,807.0276123443421,124.99999999999999C808.1772243277386,125,809.3268363111351,125,810.4764482945317,124.99999999999999C811.6260602779282,125,812.7756722613246,125,813.9252842447211,123.17850637522767C815.0748962281176,121.35701275045537,816.2245082115141,117.71402550091074,817.3741201949106,117.60018214936247C818.523732178307,117.4863387978142,819.6733441617035,120.90163934426229,820.8229561451001,122.3816029143898C821.9725681284965,123.8615664845173,823.1221801118929,123.40619307832421,824.2717920952895,123.40619307832421C825.421404078686,123.40619307832421,826.5710160620825,123.8615664845173,827.720628045479,123.97540983606557C828.8702400288755,124.08925318761383,830.019852012272,123.86156648451728,831.1694639956686,123.97540983606555C832.319075979065,124.08925318761382,833.4686879624614,124.54462659380691,834.618299945858,124.77231329690345C835.7679119292545,125,836.9175239126511,125,838.0671358960476,124.99999999999999C839.216747879444,125,840.3663598628406,125,841.5159718462371,124.99999999999999C842.6655838296335,125,843.81519581303,125,844.9648077964265,124.99999999999999C846.114419779823,125,847.2640317632196,125,848.413643746616,124.88615664845172C849.5632557300125,124.77231329690346,850.7128677134091,124.54462659380692,851.8624796968056,124.54462659380691C853.012091680202,124.54462659380692,854.1617036635985,124.77231329690346,855.311315646995,124.88615664845172C856.4609276303916,125,857.6105396137881,125,858.7601515971846,124.99999999999999C859.9097635805811,125,861.0593755639775,125,862.2089875473739,124.99999999999999C863.3585995307704,125,864.508211514167,125,865.6578234975635,124.99999999999999C866.8074354809601,125,867.9570474643566,125,869.106659447753,124.99999999999999C870.2562714311496,125,871.4058834145461,125,872.5554953979427,124.99999999999999C873.7051073813391,125,874.8547193647355,125,876.004331348132,124.99999999999999C877.1539433315286,125,878.303555314925,125,879.4531672983214,124.99999999999999C880.602779281718,125,881.7523912651145,125,882.9020032485109,124.99999999999999C884.0516152319075,125,885.201227215304,125,886.3508391987006,124.99999999999999C887.5004511820971,125,888.6500631654935,125,889.7996751488901,124.99999999999999C890.9492871322865,125,892.098899115683,125,893.2485110990795,124.88615664845172C894.398123082476,124.77231329690346,895.5477350658725,124.54462659380692,896.6973470492691,124.54462659380691C897.8469590326656,124.54462659380692,898.996571016062,124.77231329690346,900.1461829994585,124.88615664845172C901.295794982855,125,902.4454069662515,125,903.595018949648,124.99999999999999C904.7446309330444,125,905.8942429164409,125,906.4690489081391,124.99999999999999L907.0438548998375,125L907.0438548998375,125L906.4690489081391,124.99999999999999C905.8942429164409,125,904.7446309330444,125,903.595018949648,124.99999999999999C902.4454069662515,125,901.295794982855,125,900.1461829994585,124.99999999999999C898.996571016062,125,897.8469590326656,125,896.6973470492691,124.99999999999999C895.5477350658725,125,894.398123082476,125,893.2485110990796,124.99999999999999C892.098899115683,125,890.9492871322865,125,889.79967514889,124.99999999999999C888.6500631654935,125,887.5004511820971,125,886.3508391987006,124.99999999999999C885.201227215304,125,884.0516152319075,125,882.9020032485109,124.99999999999999C881.7523912651145,125,880.602779281718,125,879.4531672983214,124.99999999999999C878.303555314925,125,877.1539433315286,125,876.004331348132,124.99999999999999C874.8547193647355,125,873.7051073813391,125,872.5554953979425,124.99999999999999C871.4058834145461,125,870.2562714311496,125,869.1066594477531,124.99999999999999C867.9570474643566,125,866.8074354809601,125,865.6578234975635,124.99999999999999C864.508211514167,125,863.3585995307704,125,862.2089875473739,124.99999999999999C861.0593755639775,125,859.9097635805811,125,858.7601515971846,124.99999999999999C857.6105396137881,125,856.4609276303916,125,855.311315646995,124.99999999999999C854.1617036635985,125,853.012091680202,125,851.8624796968055,124.99999999999999C850.7128677134091,125,849.5632557300125,125,848.4136437466161,124.99999999999999C847.2640317632196,125,846.114419779823,125,844.9648077964265,124.99999999999999C843.81519581303,125,842.6655838296335,125,841.5159718462371,124.99999999999999C840.3663598628406,125,839.216747879444,125,838.0671358960476,124.99999999999999C836.9175239126511,125,835.7679119292545,125,834.618299945858,124.99999999999999C833.4686879624614,125,832.319075979065,125,831.1694639956685,124.99999999999999C830.019852012272,125,828.8702400288755,125,827.7206280454791,124.99999999999999C826.5710160620825,125,825.421404078686,125,824.2717920952895,124.99999999999999C823.1221801118929,125,821.9725681284965,125,820.8229561451001,124.99999999999999C819.6733441617035,125,818.523732178307,125,817.3741201949106,124.99999999999999C816.2245082115141,125,815.0748962281176,125,813.9252842447211,124.99999999999999C812.7756722613246,125,811.6260602779282,125,810.4764482945317,124.99999999999999C809.3268363111351,125,808.1772243277386,125,807.0276123443422,124.99999999999999C805.8780003609456,125,804.7283883775491,125,803.5787763941526,124.99999999999999C802.4291644107561,125,801.2795524273597,125,800.1299404439632,124.99999999999999C798.9803284605666,125,797.8307164771701,125,796.6811044937735,124.99999999999999C795.5314925103771,125,794.3818805269806,125,793.232268543584,124.99999999999999C792.0826565601876,125,790.9330445767912,125,789.7834325933947,124.99999999999999C788.6338206099981,125,787.4842086266017,125,786.3345966432051,124.99999999999999C785.1849846598086,125,784.0353726764122,125,782.8857606930155,124.99999999999999C781.7361487096191,125,780.5865367262227,125,779.4369247428261,124.99999999999999C778.2873127594296,125,777.1377007760331,125,775.9880887926365,124.99999999999999C774.8384768092401,125,773.6888648258437,125,772.5392528424472,124.99999999999999C771.3896408590507,125,770.2400288756542,125,769.0904168922576,124.99999999999999C767.9408049088611,125,766.7911929254647,125,765.6415809420681,124.99999999999999C764.4919689586717,125,763.3423569752752,125,762.1927449918787,124.99999999999999C761.0431330084822,125,759.8935210250856,125,758.7439090416891,124.99999999999999C757.5942970582926,125,756.4446850748961,125,755.2950730914997,124.99999999999999C754.1454611081032,125,752.9958491247066,125,751.8462371413102,124.99999999999999C750.6966251579137,125,749.5470131745171,125,748.3974011911206,124.99999999999999C747.2477892077242,125,746.0981772243276,125,744.9485652409312,124.99999999999999C743.7989532575347,125,742.6493412741381,125,741.4997292907417,124.99999999999999C740.3501173073452,125,739.2005053239486,125,738.0508933405522,124.99999999999999C736.9012813571557,125,735.7516693737591,125,734.6020573903627,124.99999999999999C733.4524454069661,125,732.3028334235696,125,731.1532214401732,124.99999999999999C730.0036094567768,125,728.8539974733802,125,727.7043854899837,124.99999999999999C726.5547735065873,125,725.4051615231908,125,724.2555495397943,124.99999999999999C723.1059375563977,125,721.9563255730013,125,720.8067135896048,124.99999999999999C719.6571016062082,125,718.5074896228117,125,717.3578776394152,124.99999999999999C716.2082656560187,125,715.0586536726222,125,713.9090416892258,124.99999999999999C712.7594297058292,125,711.6098177224328,125,710.4602057390363,124.99999999999999C709.3105937556397,125,708.1609817722432,125,707.0113697888467,124.99999999999999C705.8617578054502,125,704.7121458220538,125,703.5625338386573,124.99999999999999C702.4129218552607,125,701.2633098718643,125,700.1136978884678,124.99999999999999C698.9640859050712,125,697.8144739216747,125,696.6648619382781,124.99999999999999C695.5152499548817,125,694.3656379714853,125,693.2160259880887,124.99999999999999C692.0664140046922,125,690.9168020212958,125,689.7671900378992,124.99999999999999C688.6175780545027,125,687.4679660711062,125,686.3183540877097,124.99999999999999C685.1687421043132,125,684.0191301209168,125,682.8695181375202,124.99999999999999C681.7199061541238,125,680.5702941707273,125,679.4206821873308,124.99999999999999C678.2710702039342,125,677.1214582205378,125,675.9718462371411,124.99999999999999C674.8222342537447,125,673.6726222703483,125,672.5230102869517,124.99999999999999C671.3733983035552,125,670.2237863201588,125,669.0741743367623,124.99999999999999C667.9245623533658,125,666.7749503699692,125,665.6253383865728,124.99999999999999C664.4757264031763,125,663.3261144197797,125,662.1765024363832,124.99999999999999C661.0268904529868,125,659.8772784695902,125,658.7276664861938,124.99999999999999C657.5780545027973,125,656.4284425194007,125,655.2788305360043,124.99999999999999C654.1292185526078,125,652.9796065692112,125,651.8299945858148,124.99999999999999C650.6803826024183,125,649.5307706190217,125,648.3811586356253,124.99999999999999C647.2315466522288,125,646.0819346688322,125,644.9323226854358,124.99999999999999C643.7827107020394,125,642.6330987186428,125,641.4834867352463,124.99999999999999C640.3338747518499,125,639.1842627684534,125,638.0346507850569,124.99999999999999C636.8850388016604,125,635.7354268182638,125,634.5858148348674,124.99999999999999C633.4362028514707,125,632.2865908680742,125,631.1369788846778,124.99999999999999C629.9873669012813,125,628.8377549178848,125,627.6881429344884,124.99999999999999C626.5385309510918,125,625.3889189676954,125,624.2393069842989,124.99999999999999C623.0896950009023,125,621.9400830175058,125,620.7904710341093,124.99999999999999C619.6408590507128,125,618.4912470673164,125,617.3416350839199,124.99999999999999C616.1920231005233,125,615.0424111171269,125,613.8927991337304,124.99999999999999C612.7431871503338,125,611.5935751669373,125,610.4439631835407,124.99999999999999C609.2943512001443,125,608.1447392167479,125,606.9951272333514,124.99999999999999C605.8455152499548,125,604.6959032665584,125,603.5462912831618,124.99999999999999C602.3966792997653,125,601.2470673163688,125,600.0974553329723,124.99999999999999C598.9478433495758,125,597.7982313661794,125,596.6486193827828,124.99999999999999C595.4990073993864,125,594.3493954159899,125,593.1997834325933,124.99999999999999C592.0501714491968,125,590.9005594658003,125,589.7509474824037,124.99999999999999C588.6013354990073,125,587.4517235156109,125,586.3021115322143,124.99999999999999C585.1524995488178,125,584.0028875654214,125,582.8532755820249,124.99999999999999C581.7036635986284,125,580.5540516152319,125,579.4044396318354,124.99999999999999C578.2548276484389,125,577.1052156650424,125,575.9556036816459,124.99999999999999C574.8059916982494,125,573.6563797148528,125,572.5067677314563,124.99999999999999C571.3571557480598,125,570.2075437646633,125,569.0579317812669,124.99999999999999C567.9083197978704,125,566.7587078144738,125,565.6090958310774,124.99999999999999C564.4594838476809,125,563.3098718642843,125,562.1602598808879,124.99999999999999C561.0106478974914,125,559.8610359140948,125,558.7114239306984,124.99999999999999C557.561811947302,125,556.4121999639054,125,555.2625879805089,124.99999999999999C554.1129759971125,125,552.9633640137158,125,551.8137520303194,124.99999999999999C550.6641400469229,125,549.5145280635263,125,548.3649160801299,124.99999999999999C547.2153040967333,125,546.0656921133368,125,544.9160801299404,124.99999999999999C543.766468146544,125,542.6168561631474,125,541.467244179751,124.99999999999999C540.3176321963545,125,539.168020212958,125,538.0184082295615,124.99999999999999C536.868796246165,125,535.7191842627684,125,534.5695722793719,124.99999999999999C533.4199602959754,125,532.2703483125788,125,531.1207363291824,124.99999999999999C529.9711243457858,125,528.8215123623893,125,527.6719003789929,124.99999999999999C526.5222883955964,125,525.3726764121999,125,524.2230644288034,124.99999999999999C523.0734524454069,125,521.9238404620105,125,520.774228478614,124.99999999999999C519.6246164952174,125,518.475004511821,125,517.3253925284245,124.99999999999999C516.1757805450279,125,515.0261685616314,125,513.8765565782348,124.99999999999999C512.7269445948384,125,511.57733261144193,125,510.42772062804545,124.99999999999999C509.27810864464897,125,508.1284966612525,125,506.97888467785594,124.99999999999999C505.82927269445946,125,504.6796607110629,125,503.5300487276664,124.99999999999999C502.3804367442699,125,501.2308247608734,125,500.08121277747694,124.99999999999999C498.93160079408045,125,497.78198881068397,125,496.6323768272875,124.99999999999999C495.482764843891,125,494.33315286049447,125,493.183540877098,124.99999999999999C492.03392889370144,125,490.88431691030496,125,489.7347049269084,124.99999999999999C488.58509294351194,125,487.43548096011546,125,486.285868976719,124.99999999999999C485.1362569933225,125,483.986645009926,125,482.83703302652947,124.99999999999999C481.687421043133,125,480.5378090597365,125,479.38819707634,124.99999999999999C478.2385850929435,125,477.08897310954694,125,475.93936112615046,124.99999999999999C474.789749142754,125,473.64013715935744,125,472.490525175961,124.99999999999999C471.34091319256447,125,470.19130120916805,125,469.04168922577156,124.99999999999999C467.8920772423751,125,466.74246525897854,125,465.592853275582,124.99999999999999C464.4432412921855,125,463.29362930878904,125,462.1440173253925,124.99999999999999C460.99440534199596,125,459.8447933585995,125,458.695181375203,124.99999999999999C457.54556939180645,125,456.3959574084099,125,455.24634542501343,124.99999999999999C454.09673344161695,125,452.94712145822047,125,451.797509474824,124.99999999999999C450.6478974914275,125,449.498285508031,125,448.34867352463453,124.99999999999999C447.19906154123805,125,446.0494495578415,125,444.899837574445,124.99999999999999C443.7502255910485,125,442.600613607652,125,441.45100162425547,124.99999999999999C440.301389640859,125,439.1517776574625,125,438.002165674066,124.99999999999999C436.85255369066954,125,435.70294170727306,125,434.5533297238766,124.99999999999999C433.40371774048003,125,432.2541057570835,125,431.10449377368695,124.99999999999999C429.9548817902905,125,428.805269806894,125,427.6556578234975,124.99999999999999C426.506045840101,125,425.35643385670454,125,424.20682187330806,124.99999999999999C423.0572098899115,125,421.90759790651504,125,420.75798592311855,124.99999999999999C419.608373939722,125,418.4587619563255,125,417.309149972929,124.99999999999999C416.1595379895325,125,415.009926006136,125,413.86031402273954,124.99999999999999C412.710702039343,125,411.5610900559465,125,410.41147807255004,124.99999999999999C409.2618660891535,125,408.1122541057571,125,406.96264212236053,124.99999999999999C405.81303013896405,125,404.66341815556757,125,403.51380617217103,124.99999999999999C402.36419418877455,125,401.21458220537806,125,400.0649702219816,124.99999999999999C398.9153582385851,125,397.76574625518856,125,396.6161342717921,124.99999999999999C395.4665222883956,125,394.31691030499906,125,393.16729832160263,124.99999999999999C392.0176863382061,125,390.86807435480955,125,389.71846237141307,124.99999999999999C388.5688503880166,125,387.4192384046201,125,386.26962642122356,124.99999999999999C385.1200144378271,125,383.9704024544306,125,382.8207904710341,124.99999999999999C381.6711784876376,125,380.52156650424104,125,379.37195452084455,124.99999999999999C378.22234253744807,125,377.0727305540516,125,375.92311857065505,124.99999999999999C374.77350658725857,125,373.6238946038621,125,372.4742826204656,124.99999999999999C371.32467063706906,125,370.1750586536726,125,369.0254466702761,124.99999999999999C367.87583468687956,125,366.7262227034831,125,365.5766107200866,124.99999999999999C364.4269987366901,125,363.2773867532936,125,362.12777476989714,124.99999999999999C360.9781627865006,125,359.8285508031041,125,358.6789388197076,124.99999999999999C357.5293268363111,125,356.3797148529146,125,355.2301028695181,124.99999999999999C354.08049088612165,125,352.9308789027251,125,351.78126691932863,124.99999999999999C350.63165493593215,125,349.4820429525356,125,348.33243096913907,124.99999999999999C347.1828189857426,125,346.0332070023461,125,344.8835950189496,124.99999999999999C343.73398303555314,125,342.58437105215665,125,341.4347590687602,124.99999999999999C340.28514708536363,125,339.1355351019671,125,337.9859231185706,124.99999999999999C336.8363111351741,125,335.6866991517776,125,334.53708716838116,124.99999999999999C333.3874751849846,125,332.23786320158814,125,331.08825121819166,124.99999999999999C329.9386392347951,125,328.78902725139864,125,327.63941526800215,124.99999999999999C326.4898032846056,125,325.34019130120913,125,324.19057931781265,124.99999999999999C323.0409673344161,125,321.8913553510197,125,320.74174336762314,124.99999999999999C319.59213138422666,125,318.4425194008302,125,317.29290741743364,124.99999999999999C316.14329543403716,125,314.9936834506407,125,313.8440714672442,124.99999999999999C312.6944594838477,125,311.54484750045117,125,310.3952355170547,124.99999999999999C309.24562353365815,125,308.09601155026166,125,306.9463995668651,124.99999999999999C305.7967875834687,125,304.64717560007216,125,303.4975636166757,124.99999999999999C302.3479516332792,125,301.19833964988266,125,300.0487276664862,124.99999999999999C298.89911568308963,125,297.74950369969315,125,296.5998917162966,124.99999999999999C295.4502797329002,125,294.30066774950365,125,293.15105576610716,124.99999999999999C292.0014437827107,125,290.8518317993142,125,289.7022198159177,124.99999999999999C288.5526078325212,125,287.40299584912464,125,286.25338386572815,124.99999999999999C285.10377188233167,125,283.9541598989352,125,282.8045479155387,124.99999999999999C281.65493593214217,125,280.5053239487457,125,279.3557119653492,124.99999999999999C278.20609998195266,125,277.0564879985562,125,275.9068760151597,124.99999999999999C274.75726403176316,125,273.6076520483667,125,272.4580400649702,124.99999999999999C271.3084280815737,125,270.1588160981772,125,269.0092041147807,124.99999999999999C267.8595921313842,125,266.70998014798766,125,265.5603681645912,124.99999999999999C264.41075618119464,125,263.2611441977982,125,262.1115322144017,124.99999999999999C260.9619202310052,125,259.8123082476087,125,258.6626962642122,124.99999999999999C257.51308428081575,125,256.3634722974192,125,255.21386031402272,124.99999999999999C254.0642483306262,125,252.9146363472297,125,251.76502436383322,124.99999999999999C250.6154123804367,125,249.46580039704023,125,248.31618841364374,124.99999999999999C247.16657643024723,125,246.01696444685072,125,244.8673524634542,124.99999999999999C243.71774048005773,125,242.56812849666125,125,241.41851651326476,124.99999999999999C240.26890452986825,125,239.11929254647174,125,237.96968056307526,124.99999999999999C236.82006857967875,125,235.67045659628226,125,234.52084461288575,124.99999999999999C233.37123262948927,125,232.22162064609276,125,231.07200866269625,124.99999999999999C229.92239667929974,125,228.77278469590323,125,227.62317271250674,124.99999999999999C226.47356072911023,125,225.32394874571375,125,224.17433676231724,124.99999999999999C223.02472477892076,125,221.87511279552425,125,220.72550081212776,124.99999999999999C219.57588882873125,125,218.42627684533477,125,217.2766648619383,124.99999999999999C216.12705287854178,125,214.97744089514526,125,213.82782891174875,124.99999999999999C212.67821692835224,125,211.52860494495576,125,210.37899296155925,124.99999999999999C209.22938097816277,125,208.07976899476625,125,206.93015701136977,124.99999999999999C205.7805450279733,125,204.63093304457678,125,203.48132106118027,124.99999999999999C202.33170907778378,125,201.1820970943873,125,200.0324851109908,124.99999999999999C198.88287312759428,125,197.7332611441978,125,196.58364916080131,124.99999999999999C195.4340371774048,125,194.2844251940083,125,193.1348132106118,124.99999999999999C191.9852012272153,125,190.8355892438188,125,189.68597726042228,124.99999999999999C188.53636527702577,125,187.38675329362928,125,186.2371413102328,124.99999999999999C185.0875293268363,125,183.93791734343978,125,182.7883053600433,124.99999999999999C181.63869337664678,125,180.48908139325027,125,179.3394694098538,124.99999999999999C178.1898574264573,125,177.0402454430608,125,175.89063345966431,124.99999999999999C174.7410214762678,125,173.59140949287132,125,172.4417975094748,124.99999999999999C171.2921855260783,125,170.1425735426818,125,168.9929615592853,124.99999999999999C167.8433495758888,125,166.6937375924923,125,165.5441256090958,124.99999999999999C164.39451362569932,125,163.2449016423028,125,162.09528965890632,124.99999999999999C160.9456776755098,125,159.7960656921133,125,158.64645370871682,124.99999999999999C157.49684172532034,125,156.34722974192383,125,155.19761775852731,124.99999999999999C154.04800577513083,125,152.89839379173435,125,151.74878180833784,124.99999999999999C150.59916982494133,125,149.44955784154484,125,148.29994585814833,124.99999999999999C147.15033387475182,125,146.00072189135534,125,144.85110990795886,124.99999999999999C143.70149792456235,125,142.55188594116584,125,141.40227395776935,124.99999999999999C140.25266197437284,125,139.10304999097633,125,137.95343800757985,124.99999999999999C136.80382602418334,125,135.65421404078685,125,134.50460205739037,124.99999999999999C133.35499007399386,125,132.20537809059735,125,131.05576610720084,124.99999999999999C129.90615412380436,125,128.75654214040787,125,127.60693015701136,124.99999999999999C126.45731817361487,125,125.30770619021837,125,124.15809420682187,124.99999999999999C123.00848222342537,125,121.85887024002888,125,120.70925825663238,124.99999999999999C119.55964627323588,125,118.41003428983939,125,117.26042230644288,124.99999999999999C116.11081032304638,125,114.96119833964987,125,113.81158635625337,124.99999999999999C112.66197437285686,125,111.51236238946036,125,110.36275040606387,124.99999999999999C109.21313842266737,125,108.06352643927087,125,106.91391445587438,124.99999999999999C105.76430247247788,125,104.61469048908138,125,103.46507850568489,124.99999999999999C102.31546652228839,125,101.16585453889189,125,100.0162425554954,124.99999999999999C98.8666305720989,125,97.7170185887024,125,96.56740660530589,124.99999999999999C95.4177946219094,125,94.2681826385129,125,93.1185706551164,124.99999999999999C91.96895867171989,125,90.81934668832339,125,89.6697347049269,124.99999999999999C88.5201227215304,125,87.3705107381339,125,86.2208987547374,124.99999999999999C85.07128677134091,125,83.92167478794441,125,82.77206280454791,124.99999999999999C81.6224508211514,125,80.4728388377549,125,79.32322685435841,124.99999999999999C78.17361487096191,125,77.02400288756542,125,75.87439090416892,124.99999999999999C74.72477892077242,125,73.57516693737593,125,72.42555495397943,124.99999999999999C71.27594297058292,125,70.12633098718642,125,68.97671900378992,124.99999999999999C67.82710702039341,125,66.67749503699693,125,65.52788305360042,124.99999999999999C64.37827107020394,125,63.22865908680743,125,62.07904710341094,124.99999999999999C60.92943512001444,125,59.77982313661794,125,58.63021115322144,124.99999999999999C57.48059916982494,125,56.33098718642844,125,55.18137520303194,124.99999999999999C54.03176321963544,125,52.88215123623894,125,51.73253925284244,124.99999999999999C50.582927269445946,125,49.43331528604945,125,48.28370330265295,124.99999999999999C47.13409131925645,125,45.984479335859945,125,44.83486735246345,124.99999999999999C43.68525536906695,125,42.535643385670454,125,41.38603140227396,124.99999999999999C40.23641941887746,125,39.08680743548096,125,37.93719545208446,124.99999999999999C36.787583468687956,125,35.63797148529146,125,34.48835950189496,124.99999999999999C33.338747518498465,125,32.18913553510197,125,31.039523551705464,124.99999999999999C29.889911568308968,125,28.740299584912467,125,27.590687601515967,124.99999999999999C26.44107561811947,125,25.291463634722973,125,24.141851651326476,124.99999999999999C22.992239667929976,125,21.842627684533475,125,20.693015701136975,124.99999999999999C19.54340371774048,125,18.393791734343978,125,17.24417975094748,124.99999999999999C16.09456776755098,125,14.944955784154482,125,13.795343800757983,124.99999999999999C12.645731817361485,125,11.496119833964986,125,10.346507850568488,124.99999999999999C9.196895867171989,125,8.04728388377549,125,6.897671900378992,124.99999999999999C5.748059916982493,125,4.5984479335859945,125,3.448835950189496,124.99999999999999C2.2992239667929972,125,1.1496119833964986,125,0.5748059916982493,124.99999999999999L0,125Z"
        ></path>
    </g>
</svg>