<?xml version="1.0" encoding="UTF-8" standalone="no"?>
<svg
   xmlns:dc="http://purl.org/dc/elements/1.1/"
   xmlns:cc="http://creativecommons.org/ns#"
   xmlns:rdf="http://www.w3.org/1999/02/22-rdf-syntax-ns#"
   xmlns:svg="http://www.w3.org/2000/svg"
   xmlns="http://www.w3.org/2000/svg"
   xmlns:sodipodi="http://sodipodi.sourceforge.net/DTD/sodipodi-0.dtd"
   xmlns:inkscape="http://www.inkscape.org/namespaces/inkscape"
   width="136.06335pt"
   height="136.06346pt"
   id="svg2"
   version="1.1"
   inkscape:version="0.91 r13725"
   sodipodi:docname="CNRS.svg">
  <metadata
     id="metadata32">
    <rdf:RDF>
      <cc:Work
         rdf:about="">
        <dc:format>image/svg+xml</dc:format>
        <dc:type
           rdf:resource="http://purl.org/dc/dcmitype/StillImage" />
        <dc:title></dc:title>
      </cc:Work>
    </rdf:RDF>
  </metadata>
  <defs
     id="defs30" />
  <sodipodi:namedview
     pagecolor="#ffffff"
     bordercolor="#666666"
     borderopacity="1"
     objecttolerance="10"
     gridtolerance="10"
     guidetolerance="10"
     inkscape:pageopacity="0"
     inkscape:pageshadow="2"
     inkscape:window-width="1364"
     inkscape:window-height="747"
     id="namedview28"
     showgrid="false"
     fit-margin-top="0"
     fit-margin-left="0"
     fit-margin-right="0"
     fit-margin-bottom="0"
     inkscape:zoom="0.22425732"
     inkscape:cx="147.01408"
     inkscape:cy="-257.04557"
     inkscape:window-x="0"
     inkscape:window-y="19"
     inkscape:window-maximized="1"
     inkscape:current-layer="svg2" />
  <g
     transform="translate(-0.03594186,-0.05637431)"
     style="fill:#000033;fill-rule:nonzero;stroke:none;stroke-width:1pt;stroke-linecap:butt;stroke-linejoin:miter;stroke-dasharray:none"
     id="g4">
    <path
       d="M 81.4697,0.200196 C 79.9785,0.108399 78.4961,0.060547 77.0235,0.056641 55.9278,0 36.8223,8.96582 20.1768,26.7578 5.08105,42.8907 0,55.876 0.036133,71.5498 0.056641,79.9541 1.54785,89.1289 3.75683,99.977 c 4.14551,20.369 16.23737,40.033 33.17387,53.956 12.958,10.648 27.4082,16.092 42.6367,16.201 7.9082,0.057 16.0264,-1.326 24.2546,-4.166 26.529,-9.156 51.906,-35.373 61.714,-63.752 3.087,-8.9376 4.596,-17.6339 4.579,-25.9152 C 170.073,55.9219 160.786,38.0567 143.007,25.291 121.483,9.83207 100.781,1.39258 81.4697,0.200196 Z"
       id="path6"
       inkscape:connector-curvature="0" />
  </g>
  <g
     transform="translate(18.094058,42.523626)"
     style="fill:#ffffff;fill-rule:nonzero;stroke:none;stroke-width:1pt;stroke-linecap:butt;stroke-linejoin:miter;stroke-dasharray:none"
     id="g8">
    <path
       d="m 35.2178,38.2705 c 0,0 -5.833,0 -5.833,0 0,0 -0.0078,0.1651 -0.0078,0.1651 -0.0459,1.1308 -0.7188,11.0546 -9.5977,11.0546 -7.9355,0 -11.9629,-7.1113 -11.9727,-21.1377 0.0098,-14.0283 4.0372,-21.1406 11.9727,-21.1406 9.0332,0 9.5801,10.6045 9.5977,11.0557 0,0 0.0078,0.1641 0.0078,0.1641 0,0 5.833,0 5.833,0 0.5381,0 1.0625,-0.2208 1.4375,-0.6055 0.3593,-0.3701 0.5449,-0.8477 0.5205,-1.3447 C 37.0537,13.7285 35.6426,0 19.6973,0 6.8096,0 0,9.793 0,28.3223 0,46.8897 6.8096,56.7031 19.6973,56.7031 35.043,56.7031 36.9512,44.165 37.1729,40.3223 37.21,39.791 37.0293,39.2822 36.6562,38.8906 36.2852,38.4961 35.7578,38.2705 35.2178,38.2705 Z"
       id="path10"
       inkscape:connector-curvature="0" />
  </g>
  <g
     transform="translate(117.74506,42.517626)"
     style="fill:#66ffe5;fill-rule:nonzero;stroke:none;stroke-width:1pt;stroke-linecap:butt;stroke-linejoin:miter;stroke-dasharray:none"
     id="g12">
    <path
       d="m 20.205,24.9864 c 0,0 0.003,0.0019 0.003,0.0019 0,0 -5.025,-2.1914 -5.025,-2.1914 -4.832,-2.123 -6.545,-4.1875 -6.545,-7.8945 0,-4.832 3.534,-8.0801 8.796,-8.0801 3.111,0 5.662,0.6377 8.778,3.8106 0,0 0.171,0.1738 0.171,0.1738 0,0 2.68,-2.4522 2.68,-2.4522 C 30.617,6.9131 30.167,5.6143 29.518,4.7793 26.904,1.6944 22.704,0 17.691,0 8.022,0 1.003,6.3077 1.003,14.9981 c 0,8.5469 5.385,12.1191 11.202,14.7061 0,0 5.128,2.288 5.128,2.288 5.152,2.3106 7.605,4.2813 7.605,9.2383 0,6.7608 -6.109,8.5625 -9.718,8.5625 -3.106,0 -6.562,-0.6631 -10.811,-5.4756 0,0 -0.166,-0.1904 -0.166,-0.1904 0,0 -2.792,2.4531 -2.792,2.4531 -1.438,1.2637 -1.451,2.3487 -0.05,4.1494 3.845,4.9424 9.483,5.9795 13.536,5.9795 8.764,0 17.637,-5.3828 17.637,-15.6699 0,-8.9043 -4.944,-12.8574 -12.369,-16.0527 z"
       id="path14"
       inkscape:connector-curvature="0" />
  </g>
  <g
     transform="translate(58.407058,42.576626)"
     style="fill:#66ffe5;fill-rule:nonzero;stroke:none;stroke-width:1pt;stroke-linecap:butt;stroke-linejoin:miter;stroke-dasharray:none"
     id="g16">
    <path
       d="M 34.0068,16.1709 C 34.0068,7.417 26.9131,0 18.1553,0 14.0371,0 10.2871,1.5704 7.4677,4.1465 c 0,0 0,-3.0097 0,-3.0097 0,0 -5.2734,0 -5.2734,0 C 0.6054,1.1368 0,2.1739 0,3.3653 c 0,0 0,51.082 0,51.082 0,1.4375 0.876,2.207 2.1699,2.207 0,0 5.2744,0 5.2744,0 0,0 0,-40.1718 0,-40.1738 0,-5.2773 4.2813,-9.5557 9.5567,-9.5557 5.2773,0 9.5576,4.2784 9.5576,9.5557 0,0.002 0,40.1797 0,40.1797 0,0 5.2412,0 5.2412,0 1.4531,0 2.207,-0.8057 2.207,-2.1973 0,0 0,-38.2422 0,-38.292 z"
       id="path18"
       inkscape:connector-curvature="0" />
  </g>
  <g
     transform="translate(95.737058,42.476626)"
     style="fill:#ffffff;fill-rule:nonzero;stroke:none;stroke-width:1pt;stroke-linecap:butt;stroke-linejoin:miter;stroke-dasharray:none"
     id="g20">
    <path
       d="m 23.9154,3.918 c 0.275,-0.3418 0.445,-0.7705 0.445,-1.2422 0,-0.8789 -0.573,-1.6172 -1.361,-1.8848 C 21.4734,0.2793 19.8474,0 18.1584,0 c -4.118,0 -7.868,1.5703 -10.688,4.1455 0,0 0,-3.0087 0,-3.0087 0,0 -5.2742,0 -5.2742,0 C 0.6084,1.1368 0,2.1739 0,3.3662 c 0,0 0,51.0811 0,51.0811 0,1.4375 0.8808,2.207 2.1738,2.207 0,0 5.2726,0 5.2726,0 0,0 0,-40.1718 0,-40.1738 0,-5.2773 4.281,-9.5566 9.559,-9.5566 1.382,0 2.695,0.3007 3.88,0.8281 0,0 3.047,-3.8233 3.047,-3.8233 0,0 -0.017,-0.0107 -0.017,-0.0107 z"
       id="path22"
       inkscape:connector-curvature="0" />
  </g>
  <g
     transform="translate(74.012058,56.696626)"
     style="fill:#ffffff;fill-rule:nonzero;stroke:none;stroke-width:1pt;stroke-linecap:butt;stroke-linejoin:miter;stroke-dasharray:none"
     id="g24">
    <path
       d="m 2.834,97.797 c 0,0.783 -0.6348,1.416 -1.418,1.416 C 0.6338,99.213 0,98.58 0,97.797 0,97.797 0,1.417 0,1.417 0,0.6338 0.6338,0 1.416,0 c 0.7832,0 1.418,0.6338 1.418,1.417 0,0 0,96.38 0,96.38 z"
       id="path26"
       inkscape:connector-curvature="0" />
  </g>
</svg>
