<?xml version="1.0" encoding="utf-8"?>
<!-- Generator: Adobe Illustrator 15.0.0, SVG Export Plug-In . SVG Version: 6.00 Build 0)  -->
<!DOCTYPE svg PUBLIC "-//W3C//DTD SVG 1.1//EN" "http://www.w3.org/Graphics/SVG/1.1/DTD/svg11.dtd">
<svg version="1.1" id="Calque_1" xmlns="http://www.w3.org/2000/svg" xmlns:xlink="http://www.w3.org/1999/xlink" x="0px" y="0px"
	 width="405.517px" height="106.207px" viewBox="0 0 405.517 106.207" enable-background="new 0 0 405.517 106.207"
	 xml:space="preserve">
<g>
	<rect x="346.545" y="17.098" fill="#FFDD00" stroke="#FDDC30" width="10.197" height="10.203"/>
	<path fill="#FFDD00" stroke="#FDDC30" d="M351.649,22.199"/>
</g>
<g>
	<g>
		<rect x="356.742" y="17.098" fill="#666666" stroke="#7C8083" stroke-width="0.5" width="30.605" height="30.613"/>
		<path fill="#666666" stroke="#7C8083" stroke-width="0.5" d="M372.051,32.401"/>
	</g>
</g>
<g>
	<g>
		<path fill="#EF4044" d="M336.229,64.333c6.213-4.105,10.315-11.157,10.315-19.154v-7.673h-7.651V27.301h17.849v10.205v7.673
			c0,12.39-6.801,23.197-16.888,28.888L336.229,64.333z"/>
	</g>
</g>
<path fill="#E81D2A" d="M347.821,32.401"/>
<path fill="#E81D2A" d="M356.742,47.711"/>
<path fill="#E81D2A" d="M373.317,52.789"/>
<path fill="#EF4044" d="M387.348,17.098c-9.927,3.83-17.018,17.011-20.072,30.59h12.408v10.215h-14.753
	c-1.891,11.29-2.074,20.383-2.074,20.383v0.02h-11.056l0.013-0.045c0,0,3.936-51.353,20.225-61.162"/>
<path fill="#58595B" d="M243.202,99.301c-0.798,0.306-2.394,0.757-4.255,0.757c-2.086,0-3.801-0.532-5.151-1.82
	c-1.186-1.146-1.922-2.985-1.922-5.132c0-4.108,2.843-7.114,7.462-7.114c1.596,0,2.863,0.348,3.457,0.633l-0.45,1.452
	c-0.736-0.348-1.656-0.593-3.047-0.593c-3.353,0-5.54,2.084-5.54,5.541c0,3.494,2.086,5.561,5.314,5.561
	c1.166,0,1.964-0.163,2.373-0.368v-4.108h-2.782v-1.432h4.541V99.301z"/>
<path fill="#58595B" d="M245.884,86.339c0.903-0.185,2.209-0.308,3.416-0.308c1.901,0,3.149,0.369,4.009,1.144
	c0.675,0.593,1.081,1.533,1.081,2.617c0,1.801-1.162,3.008-2.595,3.497v0.062c1.04,0.367,1.677,1.348,2.024,2.779
	c0.447,1.921,0.774,3.251,1.04,3.783h-1.837c-0.225-0.389-0.532-1.575-0.9-3.292c-0.412-1.9-1.165-2.616-2.781-2.68h-1.678v5.972
	h-1.779V86.339z M247.663,92.595h1.82c1.903,0,3.109-1.043,3.109-2.616c0-1.781-1.289-2.557-3.171-2.557
	c-0.859,0-1.452,0.08-1.759,0.162V92.595z"/>
<path fill="#58595B" d="M263.991,93.455h-5.339v4.968h5.972v1.492h-7.771V86.133h7.466v1.494h-5.666v4.354h5.339V93.455z"/>
<path fill="#58595B" d="M266.925,99.915V86.133h1.963l4.395,6.973c1.002,1.616,1.82,3.045,2.454,4.477l0.062-0.019
	c-0.164-1.843-0.208-3.518-0.208-5.644v-5.787h1.681v13.781h-1.8l-4.374-6.992c-0.964-1.534-1.882-3.107-2.558-4.601l-0.061,0.021
	c0.103,1.737,0.123,3.394,0.123,5.686v5.887H266.925z"/>
<path fill="#58595B" d="M285.741,100.139c-3.658,0-6.194-2.822-6.194-6.992c0-4.375,2.699-7.236,6.378-7.236
	c3.784,0,6.215,2.882,6.215,6.969c0,4.724-2.881,7.26-6.379,7.26H285.741z M285.826,98.688c2.819,0,4.414-2.598,4.414-5.726
	c0-2.74-1.431-5.6-4.397-5.6c-2.963,0-4.436,2.757-4.436,5.743c0,2.903,1.596,5.582,4.395,5.582H285.826z"/>
<path fill="#58595B" d="M294.437,86.339c0.776-0.185,2.024-0.308,3.252-0.308c1.779,0,2.925,0.308,3.763,1.002
	c0.713,0.533,1.163,1.348,1.163,2.432c0,1.351-0.896,2.517-2.328,3.027v0.062c1.305,0.307,2.84,1.389,2.84,3.433
	c0,1.187-0.471,2.087-1.184,2.764c-0.94,0.878-2.498,1.286-4.745,1.286c-1.228,0-2.168-0.081-2.761-0.163V86.339z M296.216,91.982
	h1.615c1.861,0,2.963-1.003,2.963-2.33c0-1.597-1.203-2.251-3.003-2.251c-0.818,0-1.289,0.062-1.575,0.125V91.982z M296.216,98.565
	c0.367,0.061,0.858,0.082,1.493,0.082c1.84,0,3.535-0.676,3.535-2.679c0-1.859-1.612-2.657-3.556-2.657h-1.473V98.565z"/>
<path fill="#58595B" d="M305.486,86.133h1.801v12.289h5.887v1.492h-7.688V86.133z"/>
<path fill="#58595B" d="M322.261,93.455h-5.335v4.968h5.97v1.492h-7.77V86.133h7.466v1.494h-5.666v4.354h5.335V93.455z"/>
<g>
	<path fill="#58595B" d="M45.434,16.217h8.135v17.258c0,1.179,0.287,2.054,0.858,2.624c0.57,0.571,1.452,0.856,2.643,0.856
		c1.203,0,2.116-0.313,2.737-0.939c0.622-0.627,0.93-1.549,0.93-2.764V16.217h6.368v17.798c0,2.99-0.896,5.271-2.691,6.841
		c-1.794,1.571-4.39,2.354-7.792,2.354c-3.797,0-6.611-0.768-8.443-2.306c-1.83-1.541-2.745-3.899-2.745-7.075V16.217z"/>
	<path fill="#58595B" d="M71.051,42.67V23.067h6.943v2.793c0.533-1.092,1.278-1.918,2.234-2.476
		c0.957-0.559,2.078-0.838,3.371-0.838c2.208,0,3.816,0.569,4.822,1.713c1.005,1.142,1.508,2.984,1.508,5.529V42.67h-7.502V30.589
		c0-0.944-0.146-1.639-0.438-2.085c-0.292-0.447-0.748-0.67-1.369-0.67c-0.658,0-1.17,0.241-1.536,0.727
		c-0.366,0.483-0.55,1.173-0.55,2.065V42.67H71.051z"/>
	<path fill="#58595B" d="M93.353,21.503v-5.287h7.782v5.287H93.353z M93.353,42.67V23.067h7.782V42.67H93.353z"/>
	<path fill="#58595B" d="M109.793,42.67l-7.485-19.603h7.819l3.352,11.021l3.407-11.021h5.752l-7.092,19.603H109.793z"/>
	<path fill="#58595B" d="M144.903,36.23c-0.67,2.234-1.91,3.962-3.723,5.184c-1.813,1.222-4.04,1.835-6.683,1.835
		c-1.441,0-2.756-0.184-3.948-0.549c-1.191-0.367-2.251-0.91-3.183-1.63c-1.241-0.969-2.206-2.168-2.896-3.601
		c-0.688-1.434-1.032-2.94-1.032-4.516c0-1.501,0.281-2.904,0.846-4.208c0.565-1.303,1.388-2.468,2.466-3.5
		c0.943-0.881,2.037-1.545,3.277-1.992c1.24-0.446,2.619-0.669,4.133-0.669c3.229,0,5.843,0.97,7.846,2.913
		c2.006,1.943,3.007,4.452,3.007,7.531c0,0.26-0.018,0.677-0.055,1.247c-0.012,0.062-0.018,0.105-0.018,0.13h-13.423v0.224
		c0,1.142,0.27,2.017,0.809,2.625c0.54,0.607,1.313,0.912,2.318,0.912c0.807,0,1.461-0.205,1.964-0.615
		c0.502-0.409,0.828-1.005,0.978-1.787L144.903,36.23z M131.593,30.478h5.529v-0.13c0-1.03-0.242-1.827-0.726-2.393
		c-0.484-0.565-1.167-0.847-2.048-0.847c-0.845,0-1.515,0.271-2.01,0.819c-0.497,0.547-0.746,1.292-0.746,2.234V30.478z"/>
	<path fill="#58595B" d="M147.845,42.67V23.067h6.572v3.966c0.324-1.488,0.905-2.603,1.751-3.341
		c0.844-0.739,1.96-1.107,3.351-1.107c0.123,0,0.253,0.001,0.391,0.009c0.137,0.007,0.348,0.027,0.632,0.065v6.851
		c-0.249-0.049-0.493-0.087-0.735-0.111c-0.242-0.026-0.464-0.038-0.662-0.038c-1.277,0-2.233,0.32-2.866,0.959
		c-0.633,0.64-0.95,1.604-0.95,2.895v9.456H147.845z"/>
	<path fill="#58595B" d="M161.882,36.956l6.162-0.763c0.175,0.734,0.623,1.285,1.341,1.657c0.72,0.373,1.701,0.558,2.942,0.558
		c0.844,0,1.511-0.121,2.002-0.361c0.49-0.242,0.734-0.568,0.734-0.978c0-0.584-0.788-0.974-2.365-1.173
		c-0.793-0.099-1.433-0.193-1.917-0.279c-0.025,0-0.081-0.011-0.168-0.036c-2.63-0.46-4.497-1.117-5.603-1.974
		c-0.695-0.533-1.23-1.183-1.61-1.945c-0.379-0.763-0.567-1.566-0.567-2.411c0-2.037,0.83-3.674,2.494-4.915
		c1.665-1.242,3.879-1.862,6.647-1.862c2.308,0,4.241,0.447,5.8,1.34c1.557,0.894,2.664,2.197,3.323,3.91l-5.883,1.023
		c-0.335-0.584-0.79-1.015-1.369-1.292c-0.577-0.28-1.325-0.42-2.243-0.42c-0.719,0-1.263,0.104-1.628,0.309
		c-0.367,0.204-0.55,0.511-0.55,0.921c0,0.608,1.014,1.055,3.035,1.34c0.98,0.137,1.775,0.26,2.383,0.373
		c0.062,0.012,0.143,0.025,0.243,0.037c2.42,0.447,4.095,1.08,5.026,1.899c0.584,0.532,1.026,1.146,1.331,1.841
		c0.305,0.697,0.457,1.459,0.457,2.291c0,2.073-0.906,3.757-2.719,5.054c-1.812,1.296-4.201,1.947-7.167,1.947
		c-2.756,0-4.999-0.522-6.731-1.564C163.548,40.437,162.416,38.93,161.882,36.956z"/>
	<path fill="#58595B" d="M184.595,21.503v-5.287h7.782v5.287H184.595z M184.595,42.67V23.067h7.782V42.67H184.595z"/>
	<path fill="#58595B" d="M197.031,36.88v-8.842h-2.979v-4.972h3.274l0.505-5.975l6.703-0.354v6.33h3.701v4.972h-3.701v7.764
		c0,0.645,0.137,1.1,0.418,1.368c0.277,0.268,0.748,0.401,1.405,0.401c0.261,0,0.569-0.031,0.92-0.094
		c0.356-0.064,0.748-0.143,1.184-0.242v5.434c-0.806,0.176-1.589,0.309-2.347,0.402c-0.756,0.092-1.486,0.138-2.193,0.138
		c-2.335,0-4.068-0.517-5.195-1.555C197.595,40.621,197.031,39.028,197.031,36.88z"/>
	<path fill="#58595B" d="M231.977,36.23c-0.672,2.234-1.914,3.962-3.726,5.184c-1.812,1.222-4.041,1.835-6.686,1.835
		c-1.438,0-2.752-0.184-3.944-0.549c-1.192-0.367-2.253-0.91-3.185-1.63c-1.239-0.969-2.206-2.168-2.893-3.601
		c-0.689-1.434-1.035-2.94-1.035-4.516c0-1.501,0.283-2.904,0.848-4.208c0.564-1.303,1.385-2.468,2.466-3.5
		c0.941-0.881,2.037-1.545,3.275-1.992c1.242-0.446,2.621-0.669,4.135-0.669c3.226,0,5.844,0.97,7.849,2.913
		c2.004,1.943,3.006,4.452,3.006,7.531c0,0.26-0.018,0.677-0.059,1.247c-0.012,0.062-0.018,0.105-0.018,0.13h-13.423v0.224
		c0,1.142,0.271,2.017,0.81,2.625c0.541,0.607,1.312,0.912,2.32,0.912c0.806,0,1.46-0.205,1.963-0.615
		c0.503-0.409,0.83-1.005,0.976-1.787L231.977,36.23z M218.067,20.48l3.574-6.907h5.344l-6.051,6.907H218.067z M218.664,30.478
		h5.528v-0.13c0-1.03-0.242-1.827-0.725-2.393c-0.485-0.565-1.169-0.847-2.049-0.847c-0.844,0-1.513,0.271-2.013,0.819
		c-0.493,0.547-0.742,1.292-0.742,2.234V30.478z"/>
</g>
<g>
	<path fill="#58595B" d="M24.571,67.625V47.986h9.276v19.872c0,3.93-0.806,6.741-2.415,8.438c-1.612,1.695-4.275,2.543-7.989,2.543
		c-1.05,0-2.089-0.074-3.117-0.214c-1.029-0.143-2.041-0.349-3.032-0.617v-7.148c0.609,0.157,1.209,0.274,1.797,0.351
		c0.589,0.079,1.152,0.117,1.692,0.117c1.39,0,2.369-0.27,2.937-0.809C24.287,69.979,24.571,69.015,24.571,67.625z"/>
	<path fill="#58595B" d="M49.678,78.838c-3.619,0-6.544-1.089-8.777-3.268c-2.234-2.176-3.351-5.021-3.351-8.543
		c0-3.544,1.113-6.4,3.34-8.562c2.226-2.163,5.155-3.246,8.788-3.246c3.628,0,6.555,1.079,8.775,3.236
		c2.22,2.155,3.33,5.014,3.33,8.572c0,3.533-1.11,6.384-3.33,8.555C56.233,77.752,53.307,78.838,49.678,78.838z M49.678,73.2
		c1.02,0,1.776-0.5,2.266-1.5c0.488-1.002,0.733-2.557,0.733-4.672c0-2.127-0.245-3.69-0.733-4.69c-0.49-1-1.246-1.499-2.266-1.499
		c-1.052,0-1.818,0.492-2.299,1.477c-0.482,0.987-0.723,2.558-0.723,4.713c0,2.143,0.241,3.707,0.723,4.692
		C47.86,72.707,48.626,73.2,49.678,73.2z"/>
	<path fill="#58595B" d="M63.4,71.688l7.043-0.871c0.198,0.837,0.708,1.467,1.533,1.893c0.822,0.426,1.942,0.639,3.36,0.639
		c0.964,0,1.726-0.137,2.288-0.415c0.559-0.276,0.84-0.649,0.84-1.116c0-0.667-0.901-1.113-2.703-1.342
		c-0.906-0.113-1.637-0.219-2.191-0.318c-0.029,0-0.093-0.014-0.191-0.043c-3.008-0.524-5.143-1.277-6.405-2.256
		c-0.794-0.607-1.407-1.351-1.84-2.222c-0.433-0.874-0.648-1.792-0.648-2.757c0-2.326,0.949-4.197,2.851-5.617
		c1.9-1.417,4.433-2.127,7.596-2.127c2.638,0,4.847,0.511,6.627,1.532c1.779,1.023,3.045,2.511,3.798,4.468l-6.723,1.17
		c-0.383-0.665-0.904-1.159-1.564-1.479c-0.66-0.319-1.515-0.479-2.563-0.479c-0.824,0-1.444,0.117-1.861,0.352
		c-0.419,0.232-0.629,0.584-0.629,1.053c0,0.695,1.157,1.205,3.468,1.531c1.121,0.157,2.029,0.299,2.724,0.426
		c0.07,0.014,0.161,0.029,0.275,0.042c2.766,0.511,4.681,1.234,5.746,2.171c0.667,0.609,1.172,1.312,1.52,2.105
		c0.348,0.796,0.522,1.668,0.522,2.617c0,2.371-1.036,4.296-3.107,5.777c-2.07,1.482-4.802,2.223-8.19,2.223
		c-3.149,0-5.713-0.596-7.691-1.787C65.305,75.667,64.009,73.944,63.4,71.688z"/>
	<path fill="#58595B" d="M112.974,70.859c-0.766,2.553-2.184,4.528-4.255,5.925c-2.072,1.398-4.616,2.098-7.638,2.098
		c-1.646,0-3.149-0.211-4.511-0.63c-1.361-0.417-2.574-1.038-3.639-1.86c-1.418-1.107-2.52-2.48-3.308-4.117
		c-0.788-1.639-1.18-3.357-1.18-5.16c0-1.715,0.321-3.318,0.967-4.809c0.645-1.489,1.586-2.821,2.82-4
		c1.077-1.008,2.324-1.766,3.744-2.277c1.417-0.511,2.992-0.766,4.723-0.766c3.688,0,6.679,1.11,8.968,3.33
		c2.291,2.22,3.436,5.089,3.436,8.607c0,0.296-0.021,0.773-0.063,1.424c-0.015,0.073-0.022,0.121-0.022,0.15H97.677v0.255
		c0,1.306,0.308,2.306,0.925,3.001c0.617,0.694,1.5,1.041,2.649,1.041c0.921,0,1.67-0.234,2.245-0.701
		c0.574-0.469,0.946-1.148,1.117-2.043L112.974,70.859z M97.761,64.284h6.32v-0.148c0-1.178-0.277-2.088-0.83-2.734
		c-0.553-0.645-1.333-0.968-2.34-0.968c-0.965,0-1.731,0.313-2.298,0.937c-0.569,0.625-0.852,1.477-0.852,2.553V64.284z"/>
	<path fill="#58595B" d="M116.337,85.987v-30.17h7.893v3.448c0.609-1.306,1.436-2.306,2.479-3.001
		c1.043-0.693,2.237-1.043,3.586-1.043c2.665,0,4.804,1.065,6.414,3.193c1.609,2.127,2.414,4.971,2.414,8.531
		c0,3.574-0.801,6.443-2.402,8.605c-1.604,2.164-3.718,3.246-6.341,3.246c-1.164,0-2.201-0.246-3.107-0.734
		c-0.908-0.489-1.689-1.223-2.34-2.202v10.128H116.337z M124.932,70.241c0,0.966,0.202,1.725,0.606,2.277
		c0.405,0.553,0.954,0.83,1.649,0.83c0.936,0,1.641-0.527,2.117-1.585c0.475-1.058,0.712-2.62,0.712-4.692
		c0-1.97-0.233-3.452-0.701-4.445c-0.469-0.993-1.165-1.49-2.086-1.49c-0.653,0-1.2,0.238-1.639,0.713
		c-0.439,0.477-0.659,1.067-0.659,1.777V70.241z"/>
	<path fill="#58595B" d="M142.741,78.22V47.986h8.551v9.937c0.752-0.921,1.599-1.603,2.543-2.042c0.944-0.438,2.025-0.66,3.246-0.66
		c2.523,0,4.362,0.653,5.51,1.958c1.149,1.306,1.724,3.412,1.724,6.319V78.22h-8.574v-13.81c0-1.076-0.169-1.871-0.5-2.382
		c-0.333-0.511-0.855-0.765-1.563-0.765c-0.753,0-1.338,0.275-1.756,0.827c-0.418,0.555-0.629,1.341-0.629,2.362V78.22H142.741z"/>
	<path fill="#58595B" d="M182.187,78.22V47.986h21.871v7.043h-12.594v5.021h9.892v6.788h-9.892V78.22H182.187z"/>
	<path fill="#58595B" d="M216.698,78.838c-3.617,0-6.545-1.089-8.777-3.268c-2.236-2.176-3.352-5.021-3.352-8.543
		c0-3.544,1.113-6.4,3.34-8.562c2.227-2.163,5.156-3.246,8.789-3.246c3.628,0,6.553,1.079,8.773,3.236
		c2.221,2.155,3.331,5.014,3.331,8.572c0,3.533-1.11,6.384-3.331,8.555C223.251,77.752,220.326,78.838,216.698,78.838z
		 M216.698,73.2c1.02,0,1.776-0.5,2.264-1.5c0.491-1.002,0.733-2.557,0.733-4.672c0-2.127-0.242-3.69-0.733-4.69
		c-0.487-1-1.244-1.499-2.264-1.499c-1.053,0-1.818,0.492-2.3,1.477c-0.482,0.987-0.725,2.558-0.725,4.713
		c0,2.143,0.242,3.707,0.725,4.692C214.88,72.707,215.646,73.2,216.698,73.2z"/>
	<path fill="#58595B" d="M253.376,55.816V78.22h-7.978v-3.192c-0.61,1.25-1.455,2.197-2.532,2.841
		c-1.078,0.646-2.355,0.97-3.831,0.97c-2.54,0-4.38-0.652-5.52-1.959c-1.143-1.305-1.712-3.41-1.712-6.318V55.816h8.593v13.831
		c0,1.062,0.164,1.85,0.491,2.361c0.324,0.51,0.842,0.766,1.551,0.766c0.755,0,1.333-0.273,1.736-0.82
		c0.403-0.545,0.607-1.335,0.607-2.372V55.816H253.376z"/>
	<path fill="#58595B" d="M257.632,78.22V55.816h7.51v4.532c0.368-1.701,1.035-2.975,2.002-3.818c0.964-0.843,2.241-1.268,3.83-1.268
		c0.141,0,0.289,0.004,0.447,0.012c0.154,0.006,0.395,0.031,0.722,0.074v7.83c-0.283-0.057-0.563-0.099-0.842-0.127
		c-0.274-0.029-0.528-0.043-0.753-0.043c-1.462,0-2.555,0.365-3.278,1.094c-0.722,0.732-1.084,1.835-1.084,3.309v10.81H257.632z"/>
	<path fill="#58595B" d="M275.144,54.029v-6.043h8.892v6.043H275.144z M275.144,78.22V55.816h8.892V78.22H275.144z"/>
	<path fill="#58595B" d="M311.652,70.859c-0.766,2.553-2.184,4.528-4.255,5.925c-2.072,1.398-4.616,2.098-7.637,2.098
		c-1.646,0-3.151-0.211-4.513-0.63c-1.361-0.417-2.573-1.038-3.638-1.86c-1.42-1.107-2.521-2.48-3.307-4.117
		c-0.789-1.639-1.182-3.357-1.182-5.16c0-1.715,0.322-3.318,0.968-4.809c0.644-1.489,1.584-2.821,2.816-4
		c1.079-1.008,2.329-1.766,3.746-2.277c1.418-0.511,2.992-0.766,4.725-0.766c3.688,0,6.677,1.11,8.967,3.33
		c2.292,2.22,3.437,5.089,3.437,8.607c0,0.296-0.021,0.773-0.064,1.424c-0.014,0.073-0.021,0.121-0.021,0.15h-15.343v0.255
		c0,1.306,0.31,2.306,0.927,3.001c0.619,0.694,1.502,1.041,2.649,1.041c0.925,0,1.672-0.234,2.244-0.701
		c0.576-0.469,0.947-1.148,1.119-2.043L311.652,70.859z M296.441,64.284h6.316v-0.148c0-1.178-0.274-2.088-0.829-2.734
		c-0.554-0.645-1.333-0.968-2.338-0.968c-0.968,0-1.733,0.313-2.301,0.937c-0.565,0.625-0.849,1.477-0.849,2.553V64.284z"/>
	<path fill="#58595B" d="M315.015,78.22V55.816h7.51v4.532c0.371-1.701,1.034-2.975,2.001-3.818
		c0.964-0.843,2.241-1.268,3.831-1.268c0.14,0,0.288,0.004,0.447,0.012c0.154,0.006,0.394,0.031,0.721,0.074v7.83
		c-0.284-0.057-0.563-0.099-0.841-0.127c-0.274-0.029-0.529-0.043-0.754-0.043c-1.462,0-2.554,0.365-3.276,1.094
		c-0.724,0.732-1.086,1.835-1.086,3.309v10.81H315.015z"/>
</g>
</svg>
