<svg version="1.1" xmlns="http://www.w3.org/2000/svg" xmlns:xlink="http://www.w3.org/1999/xlink" x="0px" y="0px"
	 width="400px" height="140px" viewBox="0 0 400 140" enable-background="new 0 0 400 140" xml:space="preserve">
<g id="step0">
	<path fill="#443A31" d="M144.968,104.236c1.574-2.071,2.371-4.509,2.371-7.258c0-3.109-1.138-5.823-3.376-8.061
		c-2.173-2.234-4.899-3.367-8.102-3.367h-11.226c-1.575,0-2.677,1.1-2.677,2.676v36.248c0,1.55,1.125,2.676,2.677,2.676h12.564
		c3.277,0,6.118-1.178,8.442-3.502c2.358-2.356,3.554-5.197,3.554-8.443v-1.596c0-2.377-0.66-4.622-1.96-6.667
		C146.6,105.911,145.839,105.003,144.968,104.236z M138.248,99.947c-0.708,0.741-1.674,1.1-2.955,1.1h-5.355v-7.519h5.923
		c1.061,0,1.777,0.284,2.473,0.978c0.721,0.721,1.029,1.46,1.029,2.472C139.362,98.246,139.029,99.135,138.248,99.947z
		 M129.938,109.025h6.693c1.231,0,2.304,0.45,3.194,1.338c0.934,0.936,1.389,1.998,1.389,3.247v1.596
		c0,1.074-0.387,1.984-1.182,2.781c-0.808,0.807-1.708,1.183-2.833,1.183h-7.26L129.938,109.025L129.938,109.025z"/>
	<path fill="#443A31" d="M169.867,84.983c-3.862,0-7.205,1.386-9.937,4.12c-2.732,2.732-4.118,6.075-4.118,9.935v14.777
		c0,3.859,1.387,7.202,4.118,9.936c2.733,2.733,6.076,4.12,9.937,4.12c3.862,0,7.203-1.386,9.935-4.12
		c2.733-2.733,4.12-6.076,4.12-9.935V99.039c0-3.859-1.388-7.202-4.12-9.935C177.07,86.369,173.729,84.983,169.867,84.983z
		 M163.791,99.037c0-1.721,0.572-3.095,1.801-4.326c1.176-1.177,2.576-1.75,4.276-1.75c1.701,0,3.099,0.573,4.273,1.751
		c1.231,1.229,1.803,2.604,1.803,4.326v14.777c0,1.75-0.555,3.066-1.803,4.276c-1.212,1.213-2.611,1.802-4.273,1.802
		c-1.664,0-3.067-0.595-4.298-1.827c-1.214-1.174-1.778-2.525-1.778-4.251L163.791,99.037L163.791,99.037z"/>
	<path fill="#443A31" d="M240.283,85.549h-8.958c-1.577,0-2.677,1.1-2.677,2.675v36.249c0,1.551,1.125,2.676,2.677,2.676h10.297
		c3.757,0,7.012-1.351,9.681-4.017c2.664-2.667,4.014-5.924,4.014-9.68v-12.921c0-4.1-1.489-7.667-4.427-10.605
		C247.986,87.021,244.419,85.549,240.283,85.549z M241.623,119.169h-4.995V93.528h3.655c1.982,0,3.598,0.672,4.945,2.06
		c1.421,1.421,2.111,3.038,2.111,4.944v12.922c0,1.62-0.538,2.893-1.701,4.018C244.484,118.629,243.206,119.169,241.623,119.169z"/>
	<path fill="#443A31" d="M285.012,119.169h-13.233v-10.195h11.018c1.496,0,2.625-1.151,2.625-2.677v-2.625
		c0-1.577-1.081-2.677-2.625-2.677h-11.018v-7.467h12.872c1.525,0,2.677-1.151,2.677-2.677v-2.626c0-1.55-1.125-2.675-2.677-2.675
		h-18.176c-1.576,0-2.677,1.1-2.677,2.675v36.249c0,1.551,1.126,2.676,2.677,2.676h18.538c1.549,0,2.676-1.126,2.676-2.676v-2.628
		C287.688,120.295,286.561,119.169,285.012,119.169z"/>
	<path fill="#443A31" d="M314.742,87.403c-0.381-1.143-1.346-1.854-2.518-1.854h-4.839c-1.19,0-2.134,0.708-2.53,1.904
		l-10.997,35.964c-0.144,0.318-0.217,0.673-0.217,1.057c0,1.55,1.125,2.676,2.674,2.676h2.729c1.239,0,2.266-0.776,2.548-1.902
		l3.251-10.559h9.919l3.226,10.627l0.052,0.145c0.422,1.059,1.366,1.691,2.529,1.691h2.728c1.525,0,2.677-1.15,2.677-2.676
		c0-0.386-0.076-0.743-0.196-0.989L314.742,87.403z M312.771,106.71h-5.902l2.936-9.949L312.771,106.71z"/>
	<path fill="#443A31" d="M355.724,85.549h-2.625c-1.549,0-2.676,1.126-2.676,2.675v26.463c0,1.511-0.471,2.671-1.493,3.658
		c-1.039,1.04-2.234,1.546-3.656,1.546c-1.44,0-2.609-0.497-3.686-1.572c-1.005-0.973-1.514-2.193-1.514-3.632V88.224
		c0-1.576-1.103-2.675-2.676-2.675h-2.627c-1.551,0-2.677,1.126-2.677,2.675v26.463c0,3.62,1.299,6.755,3.861,9.319
		c2.563,2.562,5.699,3.861,9.319,3.861c3.619,0,6.76-1.303,9.334-3.879c2.518-2.579,3.794-5.708,3.794-9.302V88.223
		C358.401,86.65,357.298,85.549,355.724,85.549z"/>
	<path fill="#443A31" d="M383.344,106.256l9.292-17.011l0.176-0.485c0.247-1.123-0.12-1.888-0.477-2.331
		c-0.287-0.358-0.941-0.955-2.098-0.955h-2.677c-1.103,0-2.026,0.608-2.382,1.523l-6.199,11.302l-6.171-11.238
		c-0.384-0.979-1.306-1.587-2.409-1.587h-2.676c-1.161,0-1.813,0.599-2.099,0.955c-0.357,0.442-0.726,1.206-0.453,2.404l0.187,0.483
		l9.258,16.941l-9.262,16.886l-0.146,0.355c-0.366,1.225,0.069,2.062,0.359,2.452c0.286,0.386,0.951,1.036,2.18,1.036h2.727
		c1.062,0,1.966-0.603,2.401-1.575l6.107-11.171l6.088,11.132c0.451,1.011,1.357,1.615,2.42,1.615h2.728
		c1.223,0,1.887-0.649,2.174-1.035c0.294-0.391,0.727-1.229,0.344-2.51L383.344,106.256z"/>
	<path fill="#443A31" d="M219.896,123.423l-7.254-13.823c0.908-0.521,1.764-1.18,2.549-1.965c2.29-2.289,3.449-5.078,3.449-8.288
		v-2.059c0-3.246-1.16-6.052-3.449-8.34c-2.253-2.255-5.042-3.398-8.289-3.398h-11.686c-1.575,0-2.677,1.1-2.677,2.675v36.249
		c0,1.551,1.126,2.676,2.677,2.676h2.627c1.524,0,2.674-1.15,2.674-2.676v-13.39h4.25l7.477,14.293
		c0.452,1.021,1.36,1.632,2.428,1.632h2.729c1.226,0,1.891-0.649,2.175-1.035c0.292-0.393,0.727-1.234,0.359-2.454
		C219.926,123.487,219.913,123.454,219.896,123.423z M210.663,97.288v2.059c0,1.048-0.337,1.833-1.131,2.626
		c-0.795,0.794-1.581,1.133-2.629,1.133h-6.385v-9.578h6.385c1.041,0,1.892,0.346,2.594,1.047
		C210.315,95.429,210.663,96.24,210.663,97.288z"/>
	<path fill="#443A31" d="M98.63,103.422h-0.803c-0.196,0-0.269-0.098-0.269-0.268v-0.219c0-0.195-0.097-0.268-0.268-0.268
		c-0.073,0-0.121,0-0.146,0.048c-0.902,0.707-1.877,1.048-2.951,1.048c-1.292,0-2.388-0.464-3.316-1.389
		c-0.927-0.926-1.39-2.025-1.39-3.316v-3.706c0-1.292,0.463-2.389,1.39-3.316c0.902-0.926,2.024-1.365,3.316-1.365
		c0.902,0,1.732,0.219,2.463,0.707c0.049,0.024,0.097,0.049,0.195,0.049c0.171,0,0.243-0.073,0.243-0.22V85.99
		c0-0.196,0.098-0.269,0.268-0.269h1.268c0.171,0,0.243,0.074,0.243,0.269v17.164C98.874,103.325,98.801,103.422,98.63,103.422z
		 M97.094,95.352c0-0.804-0.267-1.487-0.853-2.048c-0.585-0.585-1.268-0.853-2.048-0.853c-0.804,0-1.511,0.268-2.072,0.853
		c-0.561,0.561-0.854,1.243-0.854,2.048v3.706c0,0.804,0.293,1.487,0.854,2.072c0.56,0.561,1.267,0.853,2.072,0.853
		s1.487-0.293,2.048-0.853c0.586-0.585,0.853-1.268,0.853-2.072V95.352z"/>
	<path fill="#443A31" d="M110.624,98.01h-6.632c-0.171,0-0.269,0.097-0.269,0.268v0.756c0,0.829,0.294,1.511,0.855,2.072
		c0.584,0.585,1.267,0.878,2.072,0.878c1.023,0,1.95-0.293,2.78-0.878c0.122-0.097,0.244-0.073,0.341,0.048l0.732,1.049
		c0.098,0.121,0.073,0.268-0.074,0.366c-1.097,0.804-2.366,1.194-3.779,1.194c-1.292,0-2.389-0.464-3.316-1.39
		s-1.391-2.024-1.391-3.34v-3.901c0-1.243,0.439-2.291,1.318-3.169c0.877-0.853,1.926-1.292,3.145-1.292
		c1.243,0,2.293,0.439,3.17,1.316c0.878,0.878,1.292,1.926,1.292,3.145v2.609C110.867,97.912,110.794,98.01,110.624,98.01z
		 M109.087,95.132c0-0.731-0.244-1.365-0.78-1.901s-1.169-0.78-1.902-0.78c-0.73,0-1.365,0.244-1.877,0.78
		c-0.536,0.536-0.805,1.171-0.805,1.901v0.829c0,0.171,0.098,0.268,0.269,0.268h4.851c0.172,0,0.244-0.097,0.244-0.268V95.132z"/>
	<path fill="#443A31" d="M17.76,48.177v12.461c0,2.334,0.807,4.348,2.495,6.038c1.691,1.691,3.624,2.495,6.039,2.495
		c2.335,0,4.348-0.804,5.958-2.495c1.691-1.691,2.576-3.705,2.576-6.038v-26.89c0-0.564,0.241-0.804,0.805-0.804h4.186
		c0.564,0,0.886,0.24,0.886,0.804v26.89c0,3.945-1.45,7.326-4.267,10.144c-2.818,2.817-6.199,4.267-10.145,4.267
		c-3.944,0-7.406-1.45-10.225-4.267c-2.817-2.817-4.186-6.199-4.186-10.144v-6.42L17.76,48.177z"/>
	<path fill="#443A31" d="M134.132,42.638l-6.656,18.335c-0.161,0.322-0.323,0.402-0.645,0.402c-0.241,0-0.483-0.08-0.565-0.402
		l-9.982-27.526c-0.241-0.564-0.562-0.877-1.046-0.877h-4.348c-0.805,0-1.127,0.475-0.805,1.279l14.249,39.271
		c0.161,0.483,0.403,0.949,0.886,0.949h3.3c0.403,0,0.724-0.43,0.885-0.913l9.63-26.69L134.132,42.638z"/>
	<path fill="#443A31" d="M195.096,49.17v23.936c0,0.562-0.322,0.884-0.886,0.884h-4.105c-0.564,0-0.886-0.321-0.886-0.884V56.038
		L195.096,49.17z"/>
	<path fill="#443A31" d="M232.756,39.262c-2.477-0.951-5.107-1.413-7.893-1.413c-1.529,0-2.817,0.481-3.944,1.61
		c-1.048,1.046-1.53,2.334-1.53,3.865c0,2.656,1.288,4.347,3.945,5.071l8.453,2.255c2.817,0.724,4.991,2.255,6.682,4.429
		c1.61,2.173,2.495,4.67,2.495,7.407c0,3.542-1.287,6.52-3.784,9.017c-2.495,2.415-5.474,3.703-8.936,3.703
		c-5.878,0-11.352-1.45-16.262-4.429c-0.563-0.322-0.645-0.725-0.321-1.288l2.093-3.542c0.241-0.483,0.643-0.483,1.126-0.242
		c4.105,2.416,8.615,3.624,13.364,3.624c1.853,0,3.462-0.645,4.831-2.012c1.289-1.288,2.013-2.899,2.013-4.831
		c0-1.369-0.484-2.658-1.369-3.864c-0.886-1.207-2.013-1.851-3.382-2.254l-8.532-2.335c-2.497-0.644-4.51-2.013-6.039-4.025
		c-1.529-2.014-2.255-4.267-2.255-6.682c0-3.14,1.048-5.798,3.301-8.051c2.254-2.255,4.912-3.3,8.051-3.3
		c3.518,0,6.917,0.6,10.14,1.856L232.756,39.262z"/>
	<path fill="#443A31" d="M257.656,24.316c-0.724,0.805-1.691,1.208-2.817,1.208c-1.047,0-2.012-0.403-2.738-1.208
		c-0.805-0.724-1.207-1.691-1.207-2.736c0-1.127,0.403-2.093,1.207-2.817c0.726-0.807,1.691-1.128,2.738-1.128
		c1.127,0,2.093,0.322,2.817,1.128c0.805,0.725,1.207,1.691,1.207,2.817C258.863,22.626,258.461,23.593,257.656,24.316z
		 M256.932,73.909h-4.105c-0.645,0-0.885-0.322-0.885-0.885V33.736c0-0.564,0.24-0.804,0.885-0.804h4.105
		c0.562,0,0.885,0.241,0.885,0.804v39.288C257.818,73.587,257.495,73.909,256.932,73.909z"/>
	<path fill="#443A31" d="M328.862,55.967h-21.898c-0.562,0-0.886,0.322-0.886,0.885v2.495c0,2.737,0.967,4.991,2.819,6.844
		c1.931,1.931,4.186,2.898,6.842,2.898c3.381,0,6.441-0.967,9.18-2.898c0.403-0.323,0.805-0.243,1.127,0.16l2.415,3.462
		c0.321,0.402,0.242,0.886-0.241,1.208c-3.623,2.657-7.81,3.945-12.479,3.945c-4.268,0-7.89-1.531-10.949-4.589
		c-3.058-3.06-4.589-6.682-4.589-11.031v-12.88c0-4.107,1.45-7.568,4.348-10.468c2.898-2.817,6.36-4.265,10.384-4.265
		c4.106,0,7.568,1.449,10.466,4.346c2.898,2.898,4.267,6.361,4.267,10.387v8.613C329.667,55.646,329.426,55.967,328.862,55.967z
		 M323.789,46.468c0-2.416-0.805-4.51-2.576-6.282c-1.77-1.77-3.863-2.575-6.28-2.575c-2.415,0-4.508,0.804-6.198,2.575
		c-1.772,1.771-2.658,3.865-2.658,6.282v2.737c0,0.563,0.323,0.885,0.886,0.885h16.021c0.565,0,0.805-0.322,0.805-0.885V46.468z"/>
	<path fill="#443A31" d="M100.975,45.024v28.091c0,0.563-0.322,0.885-0.885,0.885h-4.106c-0.644,0-0.885-0.322-0.885-0.885V45.024
		H100.975z"/>
	<path fill="#443A31" d="M150.339,57.157V46.542c0-4.105,1.45-7.567,4.348-10.466c2.898-2.818,6.36-4.267,10.386-4.267
		c4.106,0,7.569,1.449,10.467,4.347s4.267,6.361,4.267,10.385v8.616c0,0.563-0.24,0.885-0.805,0.885h-21.898
		c-0.564,0-0.885,0.322-0.885,0.886v2.495c0,0.733,0.07,1.432,0.207,2.098L150.339,57.157z M173.93,46.542
		c0-2.415-0.806-4.508-2.577-6.278c-1.772-1.773-3.865-2.576-6.28-2.576c-2.414,0-4.509,0.803-6.199,2.576
		c-1.77,1.77-2.655,3.864-2.655,6.278v2.739c0,0.563,0.321,0.884,0.885,0.884h16.02c0.565,0,0.806-0.321,0.806-0.884V46.542z"/>
	<path fill="#443A31" d="M279.175,43.851v16.48c0,2.577,0.885,4.751,2.656,6.521c1.772,1.771,3.945,2.657,6.522,2.657
		c2.093,0,4.267-0.645,6.441-2.012c0.562-0.322,0.884-0.242,1.288,0.241l2.335,3.301c0.322,0.482,0.241,0.886-0.242,1.207
		c-2.899,2.094-6.199,3.14-9.822,3.14c-4.186,0-7.649-1.449-10.628-4.428c-2.979-2.979-4.43-6.441-4.43-10.628V41.812
		L279.175,43.851z"/>
	<path fill="#443A31" d="M76.353,62.883V46.341c0-2.334-0.805-4.346-2.496-5.956c-1.69-1.691-3.703-2.498-6.037-2.498
		c-2.336,0-4.348,0.807-6.039,2.498c-1.609,1.61-2.495,3.622-2.495,5.956v26.891c0,0.562-0.242,0.885-0.886,0.885h-4.106
		c-0.564,0-0.886-0.322-0.886-0.885V46.341c0-3.943,1.449-7.326,4.268-10.144c2.817-2.818,6.198-4.187,10.144-4.187
		c3.944,0,7.326,1.368,10.143,4.187c2.819,2.817,4.267,6.2,4.267,10.144v13.311L76.353,62.883z"/>
	<path fill="#009FE3" d="M320.242,14.882c-0.828,1.037-1.727,2.696-2.627,3.732c-1.035,0.899-2.417,3.042-3.385,3.87
		c0,0.207-0.621,0.898-0.621,0.898c-0.345,0.968-0.623,0.76-1.105,1.175c-0.762,0.761-1.59,0.83-2.143,0.415
		c-1.177-0.76,0.76-3.456,1.727-4.561c0.138-0.207,0.138-0.345,0.138-0.552c0.277-0.484,0.484-1.036,0.76-1.451
		c0.277-0.277,0.484-0.277,0.692-0.414c-0.069-0.485,0.552-1.174,0.691-1.589c0.345-0.415,0.208-1.106,0.623-1.521
		c0.552-0.484,0.69-0.83,0.965-1.451c0.279,0,0.693-0.483,0.693-0.483c0.138-0.622,0.276-1.313,0.552-1.867
		c0,0,0.208-0.276,0.346-0.276c0.552-0.622,0.622-1.589,1.176-2.143c0.414-0.276,1.244-0.414,1.797-0.276
		c0.966,0.276,2.073,0.691,2.901,1.935C323.56,12.325,321.487,13.638,320.242,14.882z"/>
	<path fill="#009FE3" d="M201.413,31.829c-2.701,0-4.253,1.242-6.253,4.742h-0.116v-4h-11v3.5h3.163c1.401,0,1.87,0.302,1.87,1.754
		l0.143,17.981l5.877-6.901l0.08-7.122c0-3.223,2.068-7.334,6.17-7.334c0.75,0,1.534,0.097,2.084,0.697
		c-1.801,0.049-3.31,1.098-3.31,2.999c0,2.051,1.598,3.201,3.548,3.201c2.45,0,3.8-1.857,3.8-4.109
		C207.469,33.585,204.615,31.829,201.413,31.829z"/>
	<path fill="#009FE3" d="M235.001,33.828c1.845,0,3.298-1.142,4.189-3.305h3.339v21.278h-3.911
		c-0.636-5.344-2.682-9.391-5.863-12.538L235.001,33.828z"/>
	<rect x="95.174" y="17.604" fill="#009FE3" width="5.737" height="7.475"/>
	<path fill="#009FE3" d="M100.15,30.57c-1.981,3-3.606,4.073-9.606,4.548v1.902c1.5,0,3.772-0.204,4.406,1.618
		c0.215,0.648,0.154-0.068,0.15,6.432h5.877c0-6.5,0.206-11,0.839-14.5L100.15,30.57L100.15,30.57z"/>
	<path fill="#009FE3" d="M143.134,35.386c2.635,0,2.635,0.082,3.458,0.082c0.577,0,1.234-0.576,1.234-1.482
		c0-0.822-0.658-1.398-1.234-1.398c-0.823,0-1.318,0.411-6.666,0.411h-0.247c-5.597,0-5.76-0.411-6.584-0.411
		c-0.657,0-1.317,0.576-1.317,1.398c0,0.906,0.66,1.482,1.317,1.482c0.823,0,0.906-0.082,3.704-0.082l-2.667,7.55l4.906,3.766
		L143.134,35.386z"/>
	<path fill="#009FE3" d="M162.101,68.485c2.927,1.796,6.344,2.498,9.245,2.498c5.757,0,8.374-2.094,8.898-2.094
		c0.435,0,0.435,0.523,0.435,0.699c0,0.436-6.629,5.582-13.693,5.582c-7.153,0-16.646-3.448-16.646-18.014l6.085,4.365
		C157.602,64.753,159.669,66.992,162.101,68.485"/>
	<path fill="#009FE3" d="M273.297,41.819V38.68c-2.017-0.154-4.488,0-6.427,0.776l-0.543-0.388c0.931-2.636,3.879-4.422,6.827-4.422
		c1.318-0.775,1.241-8.011,2.327-9.328c0.466-0.543,2.034-1.552,3.201-2.56c0.543,0.853-0.931,11.191,0.543,11.424
		c5.275,0.93,10.765,1.164,15.729-0.388c1.008,0.776,0,1.708-0.466,2.405c-4.19,3.879-9.882,2.25-15.312,2.406v5.252L273.297,41.819
		z"/>
	<polygon fill="#009FE3" points="17.766,32.95 6.252,32.95 6.252,37.349 11.883,37.349 11.883,54.218 17.76,48.177 	"/>
	<g>
		<path fill="#009FE3" d="M82.654,71.077c-0.584-1.781-0.586-7.237-0.586-11.724l-5.796,3.231l0.149,6.327
			c0,2.644,0.365,4.826,0.891,6.546c3.578-1.322,7.23-2.458,10.23-3.411v-2.074C86.544,70.648,84.25,71.017,82.654,71.077z"/>
	</g>
</g>
</svg>
