<?xml version="1.0" encoding="utf-8"?>
<!-- Generator: Adobe Illustrator 18.1.0, SVG Export Plug-In . SVG Version: 6.00 Build 0)  -->
<svg version="1.1" id="Layer_1" xmlns="http://www.w3.org/2000/svg" xmlns:xlink="http://www.w3.org/1999/xlink" x="0px" y="0px"
	 viewBox="0 0 792 612" enable-background="new 0 0 792 612" xml:space="preserve">
<g>
	<path fill="#414042" d="M-2551.7-372c0,12.7-1,16.9-3.6,20c-2.3,2.5-6.1,3.7-10.5,4.1l1,7.6c5.2,0,12.2-1.8,16.5-6
		c4.7-4.8,6.4-11.5,6.4-21.9v-48.2h-9.7V-372z"/>
	<path fill="#414042" d="M-2479.5-377.8c0,5.5,0.1,10.3,0.4,14.5h-8.6l-0.5-8.7h-0.2c-2.5,4.3-8.1,9.9-17.6,9.9
		c-8.3,0-18.3-4.6-18.3-23.3v-31.1h9.7v29.4c0,10.1,3.1,16.9,11.9,16.9c6.5,0,11-4.5,12.7-8.8c0.5-1.4,0.9-3.2,0.9-4.9v-32.6h9.7
		V-377.8z"/>
	<path fill="#414042" d="M-2461.3-399.1c0-6.8-0.2-12.3-0.4-17.3h8.7l0.4,9.1h0.2c4-6.5,10.2-10.3,18.9-10.3
		c12.8,0,22.5,10.9,22.5,27c0,19.1-11.6,28.5-24.2,28.5c-7,0-13.2-3.1-16.4-8.3h-0.2v28.9h-9.6V-399.1z M-2451.7-384.9
		c0,1.4,0.2,2.7,0.4,4c1.8,6.7,7.6,11.3,14.5,11.3c10.2,0,16.1-8.3,16.1-20.5c0-10.7-5.6-19.8-15.8-19.8c-6.6,0-12.7,4.7-14.6,12
		c-0.3,1.2-0.7,2.6-0.7,4V-384.9z"/>
	<path fill="#414042" d="M-2393.9-416.4l11.6,31.4c1.2,3.5,2.5,7.7,3.4,10.9h0.2c1-3.2,2.1-7.2,3.4-11.1l10.5-31.2h10.2l-14.5,37.9
		c-6.9,18.2-11.6,27.6-18.2,33.3c-4.7,4.2-9.4,5.8-11.9,6.3l-2.4-8.1c2.4-0.8,5.6-2.3,8.5-4.7c2.6-2.1,5.9-5.8,8.1-10.8
		c0.4-1,0.8-1.8,0.8-2.3c0-0.5-0.2-1.3-0.7-2.5l-19.7-49H-2393.9z"/>
	<path fill="#414042" d="M-2329-431.7v15.3h13.8v7.4h-13.8v28.7c0,6.6,1.9,10.3,7.2,10.3c2.5,0,4.4-0.3,5.6-0.7l0.4,7.2
		c-1.9,0.8-4.8,1.3-8.6,1.3c-4.5,0-8.1-1.4-10.4-4.1c-2.7-2.9-3.7-7.6-3.7-13.8v-29h-8.2v-7.4h8.2v-12.7L-2329-431.7z"/>
	<path fill="#414042" d="M-2297.4-388.1c0.2,13.1,8.6,18.4,18.2,18.4c6.9,0,11.1-1.2,14.7-2.7l1.6,6.9c-3.4,1.5-9.2,3.3-17.7,3.3
		c-16.4,0-26.1-10.8-26.1-26.8c0-16,9.4-28.7,24.9-28.7c17.3,0,22,15.3,22,25c0,2-0.2,3.5-0.3,4.5H-2297.4z M-2269.1-395
		c0.1-6.1-2.5-15.7-13.4-15.7c-9.8,0-14.1,9-14.8,15.7H-2269.1z"/>
	<path fill="#414042" d="M-2245.6-399.9c0-6.3-0.1-11.6-0.4-16.6h8.5l0.3,10.4h0.4c2.4-7.1,8.2-11.6,14.7-11.6
		c1.1,0,1.9,0.1,2.7,0.3v9.1c-1-0.2-2-0.3-3.3-0.3c-6.8,0-11.6,5.2-13,12.4c-0.2,1.3-0.4,2.9-0.4,4.5v28.3h-9.6V-399.9z"/>
</g>
<circle fill="#6D6E71" cx="-2282.8" cy="-563.4" r="21.4"/>
<g>
	<linearGradient id="SVGID_1_" gradientUnits="userSpaceOnUse" x1="-2544.8279" y1="-282.4558" x2="-2240.3093" y2="-282.4558">
		<stop  offset="5.220520e-02" style="stop-color:#F78D26"/>
		<stop  offset="0.2056" style="stop-color:#F68826"/>
		<stop  offset="0.4323" style="stop-color:#F37A25"/>
		<stop  offset="0.4766" style="stop-color:#F37625"/>
		<stop  offset="0.6159" style="stop-color:#E76623"/>
		<stop  offset="0.8356" style="stop-color:#DC5221"/>
		<stop  offset="0.9873" style="stop-color:#D84B21"/>
	</linearGradient>
	<path fill="url(#SVGID_1_)" d="M-2392.6-277.6c-65.5,0-122.6-23.5-152.3-58.3c22.5,62.4,82.2,106.9,152.3,106.9
		s129.8-44.6,152.3-106.9C-2270-301.1-2327.1-277.6-2392.6-277.6z"/>
	<linearGradient id="SVGID_2_" gradientUnits="userSpaceOnUse" x1="-2544.8279" y1="-499.131" x2="-2240.3093" y2="-499.131">
		<stop  offset="5.220520e-02" style="stop-color:#F78D26"/>
		<stop  offset="0.2056" style="stop-color:#F68826"/>
		<stop  offset="0.4323" style="stop-color:#F37A25"/>
		<stop  offset="0.4766" style="stop-color:#F37625"/>
		<stop  offset="0.6159" style="stop-color:#E76623"/>
		<stop  offset="0.8356" style="stop-color:#DC5221"/>
		<stop  offset="0.9873" style="stop-color:#D84B21"/>
	</linearGradient>
	<path fill="url(#SVGID_2_)" d="M-2392.6-504c65.5,0,122.6,23.5,152.3,58.3c-22.5-62.4-82.2-106.9-152.3-106.9
		s-129.8,44.6-152.3,106.9C-2515.1-480.4-2458.1-504-2392.6-504z"/>
</g>
<circle fill="#939598" cx="-2502.1" cy="-209.6" r="25.8"/>
<circle fill="#58595B" cx="-2527.5" cy="-534" r="15.7"/>
<circle fill="#6D6E71" cx="-2282.8" cy="810.8" r="21.4"/>
<g>
	<linearGradient id="SVGID_3_" gradientUnits="userSpaceOnUse" x1="-2544.8279" y1="1091.7117" x2="-2240.3093" y2="1091.7117">
		<stop  offset="5.220520e-02" style="stop-color:#F78D26"/>
		<stop  offset="0.2056" style="stop-color:#F68826"/>
		<stop  offset="0.4323" style="stop-color:#F37A25"/>
		<stop  offset="0.4766" style="stop-color:#F37625"/>
		<stop  offset="0.6159" style="stop-color:#E76623"/>
		<stop  offset="0.8356" style="stop-color:#DC5221"/>
		<stop  offset="0.9873" style="stop-color:#D84B21"/>
	</linearGradient>
	<path fill="url(#SVGID_3_)" d="M-2392.6,1096.6c-65.5,0-122.6-23.5-152.3-58.3c22.5,62.4,82.2,106.9,152.3,106.9
		s129.8-44.6,152.3-106.9C-2270,1073-2327.1,1096.6-2392.6,1096.6z"/>
	<linearGradient id="SVGID_4_" gradientUnits="userSpaceOnUse" x1="-2544.8279" y1="875.0365" x2="-2240.3093" y2="875.0365">
		<stop  offset="5.220520e-02" style="stop-color:#F78D26"/>
		<stop  offset="0.2056" style="stop-color:#F68826"/>
		<stop  offset="0.4323" style="stop-color:#F37A25"/>
		<stop  offset="0.4766" style="stop-color:#F37625"/>
		<stop  offset="0.6159" style="stop-color:#E76623"/>
		<stop  offset="0.8356" style="stop-color:#DC5221"/>
		<stop  offset="0.9873" style="stop-color:#D84B21"/>
	</linearGradient>
	<path fill="url(#SVGID_4_)" d="M-2392.6,870.2c65.5,0,122.6,23.5,152.3,58.3c-22.5-62.4-82.2-106.9-152.3-106.9
		s-129.8,44.6-152.3,106.9C-2515.1,893.7-2458.1,870.2-2392.6,870.2z"/>
</g>
<circle fill="#939598" cx="-2502.1" cy="1164.6" r="25.8"/>
<circle fill="#58595B" cx="-2527.5" cy="840.1" r="15.7"/>
<g>
	<path fill="#414042" d="M-1591.7-372c0,12.7-1,16.9-3.6,20c-2.3,2.5-6.1,3.7-10.5,4.1l1,7.6c5.2,0,12.2-1.8,16.5-6
		c4.7-4.8,6.4-11.5,6.4-21.9v-48.2h-9.7V-372z"/>
	<path fill="#414042" d="M-1519.6-377.8c0,5.5,0.1,10.3,0.4,14.5h-8.6l-0.5-8.7h-0.2c-2.5,4.3-8.1,9.9-17.6,9.9
		c-8.3,0-18.3-4.6-18.3-23.3v-31.1h9.7v29.4c0,10.1,3.1,16.9,11.9,16.9c6.5,0,11-4.5,12.7-8.8c0.5-1.4,0.9-3.2,0.9-4.9v-32.6h9.7
		V-377.8z"/>
	<path fill="#414042" d="M-1501.4-399.1c0-6.8-0.2-12.3-0.4-17.3h8.7l0.4,9.1h0.2c4-6.5,10.2-10.3,18.9-10.3
		c12.8,0,22.5,10.9,22.5,27c0,19.1-11.6,28.5-24.2,28.5c-7,0-13.2-3.1-16.4-8.3h-0.2v28.9h-9.6V-399.1z M-1491.8-384.9
		c0,1.4,0.2,2.7,0.4,4c1.8,6.7,7.6,11.3,14.5,11.3c10.2,0,16.1-8.3,16.1-20.5c0-10.7-5.6-19.8-15.8-19.8c-6.6,0-12.7,4.7-14.6,12
		c-0.3,1.2-0.7,2.6-0.7,4V-384.9z"/>
	<path fill="#414042" d="M-1434-416.4l11.6,31.4c1.2,3.5,2.5,7.7,3.4,10.9h0.2c1-3.2,2.1-7.2,3.4-11.1l10.5-31.2h10.2l-14.5,37.9
		c-6.9,18.2-11.6,27.6-18.2,33.3c-4.7,4.2-9.4,5.8-11.9,6.3l-2.4-8.1c2.4-0.8,5.6-2.3,8.5-4.7c2.6-2.1,5.9-5.8,8.1-10.8
		c0.4-1,0.8-1.8,0.8-2.3c0-0.5-0.2-1.3-0.7-2.5l-19.7-49H-1434z"/>
	<path fill="#414042" d="M-1369.1-431.7v15.3h13.8v7.4h-13.8v28.7c0,6.6,1.9,10.3,7.2,10.3c2.5,0,4.4-0.3,5.6-0.7l0.4,7.2
		c-1.9,0.8-4.8,1.3-8.6,1.3c-4.5,0-8.1-1.4-10.4-4.1c-2.7-2.9-3.7-7.6-3.7-13.8v-29h-8.2v-7.4h8.2v-12.7L-1369.1-431.7z"/>
	<path fill="#414042" d="M-1337.5-388.1c0.2,13.1,8.6,18.4,18.2,18.4c6.9,0,11.1-1.2,14.7-2.7l1.6,6.9c-3.4,1.5-9.2,3.3-17.7,3.3
		c-16.4,0-26.1-10.8-26.1-26.8c0-16,9.4-28.7,24.9-28.7c17.3,0,22,15.3,22,25c0,2-0.2,3.5-0.3,4.5H-1337.5z M-1309.2-395
		c0.1-6.1-2.5-15.7-13.4-15.7c-9.8,0-14.1,9-14.8,15.7H-1309.2z"/>
	<path fill="#414042" d="M-1285.7-399.9c0-6.3-0.1-11.6-0.4-16.6h8.5l0.3,10.4h0.4c2.4-7.1,8.2-11.6,14.7-11.6
		c1.1,0,1.9,0.1,2.7,0.3v9.1c-1-0.2-2-0.3-3.3-0.3c-6.8,0-11.6,5.2-13,12.4c-0.2,1.3-0.4,2.9-0.4,4.5v28.3h-9.6V-399.9z"/>
</g>
<circle fill="#6D6E71" cx="-1322.9" cy="-563.4" r="21.4"/>
<g>
	<linearGradient id="SVGID_5_" gradientUnits="userSpaceOnUse" x1="-1584.9127" y1="-282.4558" x2="-1280.394" y2="-282.4558">
		<stop  offset="7.414178e-02" style="stop-color:#BCBEC0"/>
		<stop  offset="0.3771" style="stop-color:#6D6E71"/>
		<stop  offset="0.4846" style="stop-color:#5E5F61"/>
		<stop  offset="0.697" style="stop-color:#414143"/>
		<stop  offset="0.8764" style="stop-color:#1A191A"/>
		<stop  offset="1" style="stop-color:#000000"/>
	</linearGradient>
	<path fill="url(#SVGID_5_)" d="M-1432.7-277.6c-65.5,0-122.6-23.5-152.3-58.3c22.5,62.4,82.2,106.9,152.3,106.9
		c70.1,0,129.8-44.6,152.3-106.9C-1310.1-301.1-1367.1-277.6-1432.7-277.6z"/>
	<linearGradient id="SVGID_6_" gradientUnits="userSpaceOnUse" x1="-1584.9127" y1="-499.131" x2="-1280.394" y2="-499.131">
		<stop  offset="7.414178e-02" style="stop-color:#BCBEC0"/>
		<stop  offset="0.3771" style="stop-color:#6D6E71"/>
		<stop  offset="0.4846" style="stop-color:#5E5F61"/>
		<stop  offset="0.697" style="stop-color:#414143"/>
		<stop  offset="0.8764" style="stop-color:#1A191A"/>
		<stop  offset="1" style="stop-color:#000000"/>
	</linearGradient>
	<path fill="url(#SVGID_6_)" d="M-1432.7-504c65.5,0,122.6,23.5,152.3,58.3c-22.5-62.4-82.2-106.9-152.3-106.9
		c-70.1,0-129.8,44.6-152.3,106.9C-1555.2-480.4-1498.2-504-1432.7-504z"/>
</g>
<circle fill="#939598" cx="-1542.2" cy="-209.6" r="25.8"/>
<circle fill="#58595B" cx="-1567.6" cy="-534" r="15.7"/>
<circle fill="#6D6E71" cx="-1322.9" cy="810.8" r="21.4"/>
<g>
	<linearGradient id="SVGID_7_" gradientUnits="userSpaceOnUse" x1="-1584.9127" y1="1091.7117" x2="-1280.394" y2="1091.7117">
		<stop  offset="7.414178e-02" style="stop-color:#BCBEC0"/>
		<stop  offset="0.3771" style="stop-color:#6D6E71"/>
		<stop  offset="0.4846" style="stop-color:#5E5F61"/>
		<stop  offset="0.697" style="stop-color:#414143"/>
		<stop  offset="0.8764" style="stop-color:#1A191A"/>
		<stop  offset="1" style="stop-color:#000000"/>
	</linearGradient>
	<path fill="url(#SVGID_7_)" d="M-1432.7,1096.6c-65.5,0-122.6-23.5-152.3-58.3c22.5,62.4,82.2,106.9,152.3,106.9
		c70.1,0,129.8-44.6,152.3-106.9C-1310.1,1073-1367.1,1096.6-1432.7,1096.6z"/>
	<linearGradient id="SVGID_8_" gradientUnits="userSpaceOnUse" x1="-1584.9127" y1="875.0365" x2="-1280.394" y2="875.0365">
		<stop  offset="7.414178e-02" style="stop-color:#BCBEC0"/>
		<stop  offset="0.3771" style="stop-color:#6D6E71"/>
		<stop  offset="0.4846" style="stop-color:#5E5F61"/>
		<stop  offset="0.697" style="stop-color:#414143"/>
		<stop  offset="0.8764" style="stop-color:#1A191A"/>
		<stop  offset="1" style="stop-color:#000000"/>
	</linearGradient>
	<path fill="url(#SVGID_8_)" d="M-1432.7,870.2c65.5,0,122.6,23.5,152.3,58.3c-22.5-62.4-82.2-106.9-152.3-106.9
		c-70.1,0-129.8,44.6-152.3,106.9C-1555.2,893.7-1498.2,870.2-1432.7,870.2z"/>
</g>
<circle fill="#939598" cx="-1542.2" cy="1164.6" r="25.8"/>
<circle fill="#58595B" cx="-1567.6" cy="840.1" r="15.7"/>
<g>
	<path fill="#414042" d="M-654.4-372c0,12.7-1,16.9-3.6,20c-2.3,2.5-6.1,3.7-10.5,4.1l1,7.6c5.2,0,12.2-1.8,16.5-6
		c4.7-4.8,6.4-11.5,6.4-21.9v-48.2h-9.7V-372z"/>
	<path fill="#414042" d="M-582.3-377.8c0,5.5,0.1,10.3,0.4,14.5h-8.6l-0.5-8.7h-0.2c-2.5,4.3-8.1,9.9-17.6,9.9
		c-8.3,0-18.3-4.6-18.3-23.3v-31.1h9.7v29.4c0,10.1,3.1,16.9,11.9,16.9c6.5,0,11-4.5,12.7-8.8c0.5-1.4,0.9-3.2,0.9-4.9v-32.6h9.7
		V-377.8z"/>
	<path fill="#414042" d="M-564.1-399.1c0-6.8-0.2-12.3-0.4-17.3h8.7l0.4,9.1h0.2c4-6.5,10.2-10.3,18.9-10.3
		c12.8,0,22.5,10.9,22.5,27c0,19.1-11.6,28.5-24.2,28.5c-7,0-13.2-3.1-16.4-8.3h-0.2v28.9h-9.6V-399.1z M-554.5-384.9
		c0,1.4,0.2,2.7,0.4,4c1.8,6.7,7.6,11.3,14.5,11.3c10.2,0,16.1-8.3,16.1-20.5c0-10.7-5.6-19.8-15.8-19.8c-6.6,0-12.7,4.7-14.6,12
		c-0.3,1.2-0.7,2.6-0.7,4V-384.9z"/>
	<path fill="#414042" d="M-496.6-416.4L-485-385c1.2,3.5,2.5,7.7,3.4,10.9h0.2c1-3.2,2.1-7.2,3.4-11.1l10.5-31.2h10.2l-14.5,37.9
		c-6.9,18.2-11.6,27.6-18.2,33.3c-4.7,4.2-9.4,5.8-11.9,6.3l-2.4-8.1c2.4-0.8,5.6-2.3,8.5-4.7c2.6-2.1,5.9-5.8,8.1-10.8
		c0.4-1,0.8-1.8,0.8-2.3c0-0.5-0.2-1.3-0.7-2.5l-19.7-49H-496.6z"/>
	<path fill="#414042" d="M-431.8-431.7v15.3h13.8v7.4h-13.8v28.7c0,6.6,1.9,10.3,7.2,10.3c2.5,0,4.4-0.3,5.6-0.7l0.4,7.2
		c-1.9,0.8-4.8,1.3-8.6,1.3c-4.5,0-8.1-1.4-10.4-4.1c-2.7-2.9-3.7-7.6-3.7-13.8v-29h-8.2v-7.4h8.2v-12.7L-431.8-431.7z"/>
	<path fill="#414042" d="M-400.2-388.1c0.2,13.1,8.6,18.4,18.2,18.4c6.9,0,11.1-1.2,14.7-2.7l1.6,6.9c-3.4,1.5-9.2,3.3-17.7,3.3
		c-16.4,0-26.1-10.8-26.1-26.8c0-16,9.4-28.7,24.9-28.7c17.3,0,22,15.3,22,25c0,2-0.2,3.5-0.3,4.5H-400.2z M-371.9-395
		c0.1-6.1-2.5-15.7-13.4-15.7c-9.8,0-14.1,9-14.8,15.7H-371.9z"/>
	<path fill="#414042" d="M-348.4-399.9c0-6.3-0.1-11.6-0.4-16.6h8.5l0.3,10.4h0.4c2.4-7.1,8.2-11.6,14.7-11.6c1.1,0,1.9,0.1,2.7,0.3
		v9.1c-1-0.2-2-0.3-3.3-0.3c-6.8,0-11.6,5.2-13,12.4c-0.2,1.3-0.4,2.9-0.4,4.5v28.3h-9.6V-399.9z"/>
</g>
<circle fill="#6D6E71" cx="-385.6" cy="-563.4" r="21.4"/>
<g>
	<path fill="#F37625" d="M-495.3-277.6c-65.5,0-122.6-23.5-152.3-58.3c22.5,62.4,82.2,106.9,152.3,106.9s129.8-44.6,152.3-106.9
		C-372.8-301.1-429.8-277.6-495.3-277.6z"/>
	<path fill="#F37625" d="M-495.3-504c65.5,0,122.6,23.5,152.3,58.3c-22.5-62.4-82.2-106.9-152.3-106.9S-625.1-508-647.6-445.7
		C-617.9-480.4-560.8-504-495.3-504z"/>
</g>
<circle fill="#939598" cx="-604.8" cy="-209.6" r="25.8"/>
<circle fill="#58595B" cx="-630.3" cy="-534" r="15.7"/>
<circle fill="#6D6E71" cx="-385.6" cy="810.8" r="21.4"/>
<g>
	<path fill="#F37625" d="M-495.3,1096.6c-65.5,0-122.6-23.5-152.3-58.3c22.5,62.4,82.2,106.9,152.3,106.9s129.8-44.6,152.3-106.9
		C-372.8,1073-429.8,1096.6-495.3,1096.6z"/>
	<path fill="#F37625" d="M-495.3,870.2c65.5,0,122.6,23.5,152.3,58.3c-22.5-62.4-82.2-106.9-152.3-106.9s-129.8,44.6-152.3,106.9
		C-617.9,893.7-560.8,870.2-495.3,870.2z"/>
</g>
<circle fill="#939598" cx="-604.8" cy="1164.6" r="25.8"/>
<circle fill="#58595B" cx="-630.3" cy="840.1" r="15.7"/>
<g>
	<path d="M236.9-372c0,12.7-1,16.9-3.6,20c-2.3,2.5-6.1,3.7-10.5,4.1l1,7.6c5.2,0,12.2-1.8,16.5-6c4.7-4.8,6.4-11.5,6.4-21.9v-48.2
		h-9.7V-372z"/>
	<path d="M309.1-377.8c0,5.5,0.1,10.3,0.4,14.5h-8.6l-0.5-8.7h-0.2c-2.5,4.3-8.1,9.9-17.6,9.9c-8.3,0-18.3-4.6-18.3-23.3v-31.1h9.7
		v29.4c0,10.1,3.1,16.9,11.9,16.9c6.5,0,11-4.5,12.7-8.8c0.5-1.4,0.9-3.2,0.9-4.9v-32.6h9.7V-377.8z"/>
	<path d="M327.3-399.1c0-6.8-0.2-12.3-0.4-17.3h8.7l0.4,9.1h0.2c4-6.5,10.2-10.3,18.9-10.3c12.8,0,22.5,10.9,22.5,27
		c0,19.1-11.6,28.5-24.2,28.5c-7,0-13.2-3.1-16.4-8.3h-0.2v28.9h-9.6V-399.1z M336.8-384.9c0,1.4,0.2,2.7,0.4,4
		c1.8,6.7,7.6,11.3,14.5,11.3c10.2,0,16.1-8.3,16.1-20.5c0-10.7-5.6-19.8-15.8-19.8c-6.6,0-12.7,4.7-14.6,12c-0.3,1.2-0.7,2.6-0.7,4
		V-384.9z"/>
	<path d="M394.7-416.4l11.6,31.4c1.2,3.5,2.5,7.7,3.4,10.9h0.2c1-3.2,2.1-7.2,3.4-11.1l10.5-31.2h10.2l-14.5,37.9
		c-6.9,18.2-11.6,27.6-18.2,33.3c-4.7,4.2-9.4,5.8-11.9,6.3l-2.4-8.1c2.4-0.8,5.6-2.3,8.5-4.7c2.6-2.1,5.9-5.8,8.1-10.8
		c0.4-1,0.8-1.8,0.8-2.3c0-0.5-0.2-1.3-0.7-2.5l-19.7-49H394.7z"/>
	<path d="M459.5-431.7v15.3h13.8v7.4h-13.8v28.7c0,6.6,1.9,10.3,7.2,10.3c2.5,0,4.4-0.3,5.6-0.7l0.4,7.2c-1.9,0.8-4.8,1.3-8.6,1.3
		c-4.5,0-8.1-1.4-10.4-4.1c-2.7-2.9-3.7-7.6-3.7-13.8v-29h-8.2v-7.4h8.2v-12.7L459.5-431.7z"/>
	<path d="M491.2-388.1c0.2,13.1,8.6,18.4,18.2,18.4c6.9,0,11.1-1.2,14.7-2.7l1.6,6.9c-3.4,1.5-9.2,3.3-17.7,3.3
		c-16.4,0-26.1-10.8-26.1-26.8c0-16,9.4-28.7,24.9-28.7c17.3,0,22,15.3,22,25c0,2-0.2,3.5-0.3,4.5H491.2z M519.5-395
		c0.1-6.1-2.5-15.7-13.4-15.7c-9.8,0-14.1,9-14.8,15.7H519.5z"/>
	<path d="M543-399.9c0-6.3-0.1-11.6-0.4-16.6h8.5l0.3,10.4h0.4c2.4-7.1,8.2-11.6,14.7-11.6c1.1,0,1.9,0.1,2.7,0.3v9.1
		c-1-0.2-2-0.3-3.3-0.3c-6.8,0-11.6,5.2-13,12.4c-0.2,1.3-0.4,2.9-0.4,4.5v28.3H543V-399.9z"/>
</g>
<circle cx="505.8" cy="-563.4" r="21.4"/>
<g>
	<path d="M396-277.6c-65.5,0-122.6-23.5-152.3-58.3C266.2-273.6,325.9-229,396-229s129.8-44.6,152.3-106.9
		C518.6-301.1,461.5-277.6,396-277.6z"/>
	<path d="M396-504c65.5,0,122.6,23.5,152.3,58.3C525.8-508,466.1-552.6,396-552.6S266.2-508,243.8-445.7
		C273.5-480.4,330.5-504,396-504z"/>
</g>
<circle cx="286.5" cy="-209.6" r="25.8"/>
<circle cx="261.1" cy="-534" r="15.7"/>
<circle cx="505.8" cy="810.8" r="21.4"/>
<g>
	<path d="M396,1096.6c-65.5,0-122.6-23.5-152.3-58.3c22.5,62.4,82.2,106.9,152.3,106.9s129.8-44.6,152.3-106.9
		C518.6,1073,461.5,1096.6,396,1096.6z"/>
	<path d="M396,870.2c65.5,0,122.6,23.5,152.3,58.3c-22.5-62.4-82.2-106.9-152.3-106.9s-129.8,44.6-152.3,106.9
		C273.5,893.7,330.5,870.2,396,870.2z"/>
</g>
<circle cx="286.5" cy="1164.6" r="25.8"/>
<circle cx="261.1" cy="840.1" r="15.7"/>
<g>
	<path fill="#414042" d="M-2580.9,327.7c0,20.6-1.6,27.4-5.9,32.3c-3.7,4.1-9.9,6-17.1,6.6l1.6,12.3c8.3,0,19.7-2.8,26.6-9.8
		c7.6-7.8,10.3-18.7,10.3-35.4v-78h-15.6V327.7z"/>
	<path fill="#414042" d="M-2464.2,318.3c0,8.9,0.2,16.7,0.7,23.4h-13.9l-0.9-14h-0.4c-4.1,6.9-13.1,16-28.4,16
		c-13.5,0-29.7-7.5-29.7-37.7v-50.3h15.6v47.6c0,16.3,5,27.4,19.2,27.4c10.5,0,17.8-7.3,20.6-14.2c0.9-2.3,1.4-5.2,1.4-8v-52.8h15.6
		V318.3z"/>
	<path fill="#414042" d="M-2434.7,283.8c0-11-0.4-19.9-0.7-28.1h14l0.7,14.7h0.4c6.4-10.5,16.5-16.7,30.6-16.7
		c20.8,0,36.4,17.6,36.4,43.7c0,30.9-18.8,46.2-39.1,46.2c-11.4,0-21.3-5-26.5-13.5h-0.4v46.7h-15.5V283.8z M-2419.3,306.7
		c0,2.3,0.4,4.4,0.7,6.4c2.8,10.8,12.3,18.3,23.4,18.3c16.5,0,26.1-13.5,26.1-33.2c0-17.2-9.1-32-25.6-32
		c-10.7,0-20.6,7.6-23.6,19.4c-0.5,2-1.1,4.3-1.1,6.4V306.7z"/>
	<path fill="#414042" d="M-2325.6,255.7l18.8,50.8c2,5.7,4.1,12.4,5.5,17.6h0.4c1.6-5.2,3.4-11.7,5.5-17.9l17.1-50.5h16.5
		l-23.4,61.3c-11.2,29.5-18.8,44.6-29.5,53.8c-7.6,6.7-15.3,9.4-19.2,10.1l-3.9-13.1c3.9-1.2,9.1-3.7,13.7-7.6
		c4.3-3.4,9.6-9.4,13.1-17.4c0.7-1.6,1.2-2.8,1.2-3.7c0-0.9-0.4-2.1-1.1-4.1l-31.8-79.2H-2325.6z"/>
	<path fill="#414042" d="M-2220.8,231v24.7h22.4v11.9h-22.4V314c0,10.7,3,16.7,11.7,16.7c4.1,0,7.1-0.5,9.1-1.1l0.7,11.7
		c-3,1.2-7.8,2.1-13.9,2.1c-7.3,0-13.1-2.3-16.9-6.6c-4.4-4.6-6-12.3-6-22.4v-46.9h-13.3v-11.9h13.3v-20.6L-2220.8,231z"/>
	<path fill="#414042" d="M-2169.6,301.6c0.4,21.1,13.9,29.8,29.5,29.8c11.2,0,17.9-2,23.8-4.4l2.7,11.2c-5.5,2.5-14.9,5.3-28.6,5.3
		c-26.5,0-42.3-17.4-42.3-43.3s15.3-46.4,40.3-46.4c28.1,0,35.5,24.7,35.5,40.5c0,3.2-0.4,5.7-0.5,7.3H-2169.6z M-2123.8,290.4
		c0.2-9.9-4.1-25.4-21.7-25.4c-15.8,0-22.7,14.6-24,25.4H-2123.8z"/>
	<path fill="#414042" d="M-2085.7,282.6c0-10.1-0.2-18.8-0.7-26.8h13.7l0.5,16.9h0.7c3.9-11.5,13.3-18.8,23.8-18.8
		c1.8,0,3,0.2,4.4,0.5v14.7c-1.6-0.4-3.2-0.5-5.3-0.5c-11,0-18.8,8.3-21,20.1c-0.4,2.1-0.7,4.6-0.7,7.3v45.8h-15.5V282.6z"/>
</g>
<circle fill="#6D6E71" cx="-2652.6" cy="240.3" r="7.1"/>
<g>
	<linearGradient id="SVGID_9_" gradientUnits="userSpaceOnUse" x1="-2739.4866" y1="333.4853" x2="-2638.4507" y2="333.4853">
		<stop  offset="5.220520e-02" style="stop-color:#F78D26"/>
		<stop  offset="0.2056" style="stop-color:#F68826"/>
		<stop  offset="0.4323" style="stop-color:#F37A25"/>
		<stop  offset="0.4766" style="stop-color:#F37625"/>
		<stop  offset="0.6159" style="stop-color:#E76623"/>
		<stop  offset="0.8356" style="stop-color:#DC5221"/>
		<stop  offset="0.9873" style="stop-color:#D84B21"/>
	</linearGradient>
	<path fill="url(#SVGID_9_)" d="M-2689,335.1c-21.7,0-40.7-7.8-50.5-19.4c7.5,20.7,27.3,35.5,50.5,35.5s43.1-14.8,50.5-35.5
		C-2648.3,327.3-2667.2,335.1-2689,335.1z"/>
	<linearGradient id="SVGID_10_" gradientUnits="userSpaceOnUse" x1="-2739.4866" y1="261.5949" x2="-2638.4507" y2="261.5949">
		<stop  offset="5.220520e-02" style="stop-color:#F78D26"/>
		<stop  offset="0.2056" style="stop-color:#F68826"/>
		<stop  offset="0.4323" style="stop-color:#F37A25"/>
		<stop  offset="0.4766" style="stop-color:#F37625"/>
		<stop  offset="0.6159" style="stop-color:#E76623"/>
		<stop  offset="0.8356" style="stop-color:#DC5221"/>
		<stop  offset="0.9873" style="stop-color:#D84B21"/>
	</linearGradient>
	<path fill="url(#SVGID_10_)" d="M-2689,260c21.7,0,40.7,7.8,50.5,19.4c-7.5-20.7-27.3-35.5-50.5-35.5s-43.1,14.8-50.5,35.5
		C-2729.6,267.8-2710.7,260-2689,260z"/>
</g>
<circle fill="#939598" cx="-2725.3" cy="357.7" r="8.6"/>
<circle fill="#58595B" cx="-2733.7" cy="250" r="5.2"/>
<g>
	<path fill="#414042" d="M-1622.2,327.7c0,20.6-1.6,27.4-5.9,32.3c-3.7,4.1-9.9,6-17.1,6.6l1.6,12.3c8.3,0,19.7-2.8,26.6-9.8
		c7.6-7.8,10.3-18.7,10.3-35.4v-78h-15.6V327.7z"/>
	<path fill="#414042" d="M-1505.5,318.3c0,8.9,0.2,16.7,0.7,23.4h-13.9l-0.9-14h-0.4c-4.1,6.9-13.1,16-28.4,16
		c-13.5,0-29.7-7.5-29.7-37.7v-50.3h15.6v47.6c0,16.3,5,27.4,19.2,27.4c10.5,0,17.8-7.3,20.6-14.2c0.9-2.3,1.4-5.2,1.4-8v-52.8h15.6
		V318.3z"/>
	<path fill="#414042" d="M-1476,283.8c0-11-0.4-19.9-0.7-28.1h14l0.7,14.7h0.4c6.4-10.5,16.5-16.7,30.6-16.7
		c20.8,0,36.4,17.6,36.4,43.7c0,30.9-18.8,46.2-39.1,46.2c-11.4,0-21.3-5-26.5-13.5h-0.4v46.7h-15.5V283.8z M-1460.5,306.7
		c0,2.3,0.4,4.4,0.7,6.4c2.8,10.8,12.3,18.3,23.4,18.3c16.5,0,26.1-13.5,26.1-33.2c0-17.2-9.1-32-25.6-32
		c-10.7,0-20.6,7.6-23.6,19.4c-0.5,2-1.1,4.3-1.1,6.4V306.7z"/>
	<path fill="#414042" d="M-1366.9,255.7l18.8,50.8c2,5.7,4.1,12.4,5.5,17.6h0.4c1.6-5.2,3.4-11.7,5.5-17.9l17.1-50.5h16.5
		l-23.4,61.3c-11.2,29.5-18.8,44.6-29.5,53.8c-7.6,6.7-15.3,9.4-19.2,10.1l-3.9-13.1c3.9-1.2,9.1-3.7,13.7-7.6
		c4.3-3.4,9.6-9.4,13.1-17.4c0.7-1.6,1.2-2.8,1.2-3.7c0-0.9-0.4-2.1-1.1-4.1l-31.8-79.2H-1366.9z"/>
	<path fill="#414042" d="M-1262,231v24.7h22.4v11.9h-22.4V314c0,10.7,3,16.7,11.7,16.7c4.1,0,7.1-0.5,9.1-1.1l0.7,11.7
		c-3,1.2-7.8,2.1-13.9,2.1c-7.3,0-13.1-2.3-16.9-6.6c-4.4-4.6-6-12.3-6-22.4v-46.9h-13.3v-11.9h13.3v-20.6L-1262,231z"/>
	<path fill="#414042" d="M-1210.9,301.6c0.4,21.1,13.9,29.8,29.5,29.8c11.2,0,17.9-2,23.8-4.4l2.7,11.2c-5.5,2.5-14.9,5.3-28.6,5.3
		c-26.5,0-42.3-17.4-42.3-43.3s15.3-46.4,40.3-46.4c28.1,0,35.5,24.7,35.5,40.5c0,3.2-0.4,5.7-0.5,7.3H-1210.9z M-1165,290.4
		c0.2-9.9-4.1-25.4-21.7-25.4c-15.8,0-22.7,14.6-24,25.4H-1165z"/>
	<path fill="#414042" d="M-1127,282.6c0-10.1-0.2-18.8-0.7-26.8h13.7l0.5,16.9h0.7c3.9-11.5,13.3-18.8,23.8-18.8
		c1.8,0,3,0.2,4.4,0.5v14.7c-1.6-0.4-3.2-0.5-5.3-0.5c-11,0-18.8,8.3-21,20.1c-0.4,2.1-0.7,4.6-0.7,7.3v45.8h-15.5V282.6z"/>
</g>
<circle fill="#6D6E71" cx="-1693.8" cy="240.3" r="7.1"/>
<g>
	<linearGradient id="SVGID_11_" gradientUnits="userSpaceOnUse" x1="-1780.7507" y1="333.4854" x2="-1679.7148" y2="333.4854">
		<stop  offset="7.414178e-02" style="stop-color:#BCBEC0"/>
		<stop  offset="0.3771" style="stop-color:#6D6E71"/>
		<stop  offset="0.4846" style="stop-color:#5E5F61"/>
		<stop  offset="0.697" style="stop-color:#414143"/>
		<stop  offset="0.8764" style="stop-color:#1A191A"/>
		<stop  offset="1" style="stop-color:#000000"/>
	</linearGradient>
	<path fill="url(#SVGID_11_)" d="M-1730.2,335.1c-21.7,0-40.7-7.8-50.5-19.4c7.5,20.7,27.3,35.5,50.5,35.5s43.1-14.8,50.5-35.5
		C-1689.6,327.3-1708.5,335.1-1730.2,335.1z"/>
	<linearGradient id="SVGID_12_" gradientUnits="userSpaceOnUse" x1="-1780.7507" y1="261.595" x2="-1679.7148" y2="261.595">
		<stop  offset="7.414178e-02" style="stop-color:#BCBEC0"/>
		<stop  offset="0.3771" style="stop-color:#6D6E71"/>
		<stop  offset="0.4846" style="stop-color:#5E5F61"/>
		<stop  offset="0.697" style="stop-color:#414143"/>
		<stop  offset="0.8764" style="stop-color:#1A191A"/>
		<stop  offset="1" style="stop-color:#000000"/>
	</linearGradient>
	<path fill="url(#SVGID_12_)" d="M-1730.2,260c21.7,0,40.7,7.8,50.5,19.4c-7.5-20.7-27.3-35.5-50.5-35.5s-43.1,14.8-50.5,35.5
		C-1770.9,267.8-1752,260-1730.2,260z"/>
</g>
<circle fill="#939598" cx="-1766.6" cy="357.7" r="8.6"/>
<circle fill="#58595B" cx="-1775" cy="250" r="5.2"/>
<g>
	<path fill="#414042" d="M-696.7,327.7c0,20.6-1.6,27.4-5.9,32.3c-3.7,4.1-9.9,6-17.1,6.6l1.6,12.3c8.3,0,19.7-2.8,26.6-9.8
		c7.6-7.8,10.3-18.7,10.3-35.4v-78h-15.6V327.7z"/>
	<path fill="#414042" d="M-580,318.3c0,8.9,0.2,16.7,0.7,23.4h-13.9l-0.9-14h-0.4c-4.1,6.9-13.1,16-28.4,16
		c-13.5,0-29.7-7.5-29.7-37.7v-50.3h15.6v47.6c0,16.3,5,27.4,19.2,27.4c10.5,0,17.8-7.3,20.6-14.2c0.9-2.3,1.4-5.2,1.4-8v-52.8h15.6
		V318.3z"/>
	<path fill="#414042" d="M-550.5,283.8c0-11-0.4-19.9-0.7-28.1h14l0.7,14.7h0.4c6.4-10.5,16.5-16.7,30.6-16.7
		c20.8,0,36.4,17.6,36.4,43.7c0,30.9-18.8,46.2-39.1,46.2c-11.4,0-21.3-5-26.5-13.5h-0.4v46.7h-15.5V283.8z M-535,306.7
		c0,2.3,0.4,4.4,0.7,6.4c2.8,10.8,12.3,18.3,23.4,18.3c16.5,0,26.1-13.5,26.1-33.2c0-17.2-9.1-32-25.6-32
		c-10.7,0-20.6,7.6-23.6,19.4c-0.5,2-1.1,4.3-1.1,6.4V306.7z"/>
	<path fill="#414042" d="M-441.4,255.7l18.8,50.8c2,5.7,4.1,12.4,5.5,17.6h0.4c1.6-5.2,3.4-11.7,5.5-17.9l17.1-50.5h16.5l-23.4,61.3
		c-11.2,29.5-18.8,44.6-29.5,53.8c-7.6,6.7-15.3,9.4-19.2,10.1l-3.9-13.1c3.9-1.2,9.1-3.7,13.7-7.6c4.3-3.4,9.6-9.4,13.1-17.4
		c0.7-1.6,1.2-2.8,1.2-3.7c0-0.9-0.4-2.1-1.1-4.1l-31.8-79.2H-441.4z"/>
	<path fill="#414042" d="M-336.5,231v24.7h22.4v11.9h-22.4V314c0,10.7,3,16.7,11.7,16.7c4.1,0,7.1-0.5,9.1-1.1l0.7,11.7
		c-3,1.2-7.8,2.1-13.9,2.1c-7.3,0-13.1-2.3-16.9-6.6c-4.4-4.6-6-12.3-6-22.4v-46.9h-13.3v-11.9h13.3v-20.6L-336.5,231z"/>
	<path fill="#414042" d="M-285.4,301.6c0.4,21.1,13.9,29.8,29.5,29.8c11.2,0,17.9-2,23.8-4.4l2.7,11.2c-5.5,2.5-14.9,5.3-28.6,5.3
		c-26.5,0-42.3-17.4-42.3-43.3s15.3-46.4,40.3-46.4c28.1,0,35.5,24.7,35.5,40.5c0,3.2-0.4,5.7-0.5,7.3H-285.4z M-239.6,290.4
		c0.2-9.9-4.1-25.4-21.7-25.4c-15.8,0-22.7,14.6-24,25.4H-239.6z"/>
	<path fill="#414042" d="M-201.5,282.6c0-10.1-0.2-18.8-0.7-26.8h13.7l0.5,16.9h0.7c3.9-11.5,13.3-18.8,23.8-18.8
		c1.8,0,3,0.2,4.4,0.5v14.7c-1.6-0.4-3.2-0.5-5.3-0.5c-11,0-18.8,8.3-21,20.1c-0.4,2.1-0.7,4.6-0.7,7.3v45.8h-15.5V282.6z"/>
</g>
<circle fill="#6D6E71" cx="-768.3" cy="240.3" r="7.1"/>
<g>
	<path fill="#F37625" d="M-804.8,335.1c-21.7,0-40.7-7.8-50.5-19.4c7.5,20.7,27.3,35.5,50.5,35.5c23.3,0,43.1-14.8,50.5-35.5
		C-764.1,327.3-783,335.1-804.8,335.1z"/>
	<path fill="#F37625" d="M-804.8,260c21.7,0,40.7,7.8,50.5,19.4c-7.5-20.7-27.3-35.5-50.5-35.5c-23.3,0-43.1,14.8-50.5,35.5
		C-845.4,267.8-826.5,260-804.8,260z"/>
</g>
<circle fill="#939598" cx="-841.1" cy="357.7" r="8.6"/>
<circle fill="#58595B" cx="-849.5" cy="250" r="5.2"/>
<g>
	<path d="M219.6,327.7c0,20.6-1.6,27.4-5.9,32.3c-3.7,4.1-9.9,6-17.1,6.6l1.6,12.3c8.3,0,19.7-2.8,26.6-9.8
		c7.6-7.8,10.3-18.7,10.3-35.4v-78h-15.6V327.7z"/>
	<path d="M336.3,318.3c0,8.9,0.2,16.7,0.7,23.4h-13.9l-0.9-14h-0.4c-4.1,6.9-13.1,16-28.4,16c-13.5,0-29.7-7.5-29.7-37.7v-50.3h15.6
		v47.6c0,16.3,5,27.4,19.2,27.4c10.5,0,17.8-7.3,20.6-14.2c0.9-2.3,1.4-5.2,1.4-8v-52.8h15.6V318.3z"/>
	<path d="M365.8,283.8c0-11-0.4-19.9-0.7-28.1h14l0.7,14.7h0.4c6.4-10.5,16.5-16.7,30.6-16.7c20.8,0,36.4,17.6,36.4,43.7
		c0,30.9-18.8,46.2-39.1,46.2c-11.4,0-21.3-5-26.5-13.5h-0.4v46.7h-15.5V283.8z M381.3,306.7c0,2.3,0.4,4.4,0.7,6.4
		c2.8,10.8,12.3,18.3,23.4,18.3c16.5,0,26.1-13.5,26.1-33.2c0-17.2-9.1-32-25.6-32c-10.7,0-20.6,7.6-23.6,19.4
		c-0.5,2-1.1,4.3-1.1,6.4V306.7z"/>
	<path d="M474.9,255.7l18.8,50.8c2,5.7,4.1,12.4,5.5,17.6h0.4c1.6-5.2,3.4-11.7,5.5-17.9l17.1-50.5h16.5L515.2,317
		c-11.2,29.5-18.8,44.6-29.5,53.8c-7.6,6.7-15.3,9.4-19.2,10.1l-3.9-13.1c3.9-1.2,9.1-3.7,13.7-7.6c4.3-3.4,9.6-9.4,13.1-17.4
		c0.7-1.6,1.2-2.8,1.2-3.7c0-0.9-0.4-2.1-1.1-4.1l-31.8-79.2H474.9z"/>
	<path d="M579.8,231v24.7h22.4v11.9h-22.4V314c0,10.7,3,16.7,11.7,16.7c4.1,0,7.1-0.5,9.1-1.1l0.7,11.7c-3,1.2-7.8,2.1-13.9,2.1
		c-7.3,0-13.1-2.3-16.9-6.6c-4.4-4.6-6-12.3-6-22.4v-46.9h-13.3v-11.9h13.3v-20.6L579.8,231z"/>
	<path d="M630.9,301.6c0.4,21.1,13.9,29.8,29.5,29.8c11.2,0,17.9-2,23.8-4.4l2.7,11.2c-5.5,2.5-14.9,5.3-28.6,5.3
		c-26.5,0-42.3-17.4-42.3-43.3s15.3-46.4,40.3-46.4c28.1,0,35.5,24.7,35.5,40.5c0,3.2-0.4,5.7-0.5,7.3H630.9z M676.8,290.4
		c0.2-9.9-4.1-25.4-21.7-25.4c-15.8,0-22.7,14.6-24,25.4H676.8z"/>
	<path d="M714.8,282.6c0-10.1-0.2-18.8-0.7-26.8h13.7l0.5,16.9h0.7c3.9-11.5,13.3-18.8,23.8-18.8c1.8,0,3,0.2,4.4,0.5v14.7
		c-1.6-0.4-3.2-0.5-5.3-0.5c-11,0-18.8,8.3-21,20.1c-0.4,2.1-0.7,4.6-0.7,7.3v45.8h-15.5V282.6z"/>
</g>
<circle cx="148" cy="240.3" r="7.1"/>
<g>
	<path d="M111.6,335.1c-21.7,0-40.7-7.8-50.5-19.4c7.5,20.7,27.3,35.5,50.5,35.5s43.1-14.8,50.5-35.5
		C152.2,327.3,133.3,335.1,111.6,335.1z"/>
	<path d="M111.6,260c21.7,0,40.7,7.8,50.5,19.4c-7.5-20.7-27.3-35.5-50.5-35.5s-43.1,14.8-50.5,35.5C70.9,267.8,89.8,260,111.6,260z
		"/>
</g>
<circle cx="75.2" cy="357.7" r="8.6"/>
<circle cx="66.8" cy="250" r="5.2"/>
<g>
	<path fill="#414042" d="M-2406,2002.4c0,29.6-2.3,39.3-8.4,46.4c-5.4,5.9-14.3,8.7-24.5,9.4l2.3,17.6c12,0,28.3-4.1,38.3-14
		c11-11.2,14.8-26.8,14.8-50.8v-112h-22.4V2002.4z"/>
	<path fill="#414042" d="M-2238.4,1988.9c0,12.8,0.3,24,1,33.7h-19.9l-1.3-20.1h-0.5c-5.9,9.9-18.9,23-40.8,23
		c-19.4,0-42.6-10.7-42.6-54.1v-72.2h22.4v68.4c0,23.5,7.1,39.3,27.5,39.3c15,0,25.5-10.5,29.6-20.4c1.3-3.3,2-7.4,2-11.5v-75.7
		h22.4V1988.9z"/>
	<path fill="#414042" d="M-2196.1,1939.4c0-15.8-0.5-28.6-1-40.3h20.1l1,21.2h0.5c9.2-15,23.7-24,43.9-24
		c29.8,0,52.3,25.2,52.3,62.7c0,44.4-27,66.3-56.1,66.3c-16.3,0-30.6-7.1-38-19.4h-0.5v67.1h-22.2V1939.4z M-2173.9,1972.3
		c0,3.3,0.5,6.4,1,9.2c4.1,15.6,17.6,26.3,33.7,26.3c23.7,0,37.5-19.4,37.5-47.7c0-24.7-13-45.9-36.7-45.9
		c-15.3,0-29.6,11-33.9,27.8c-0.8,2.8-1.5,6.1-1.5,9.2V1972.3z"/>
	<path fill="#414042" d="M-2039.5,1899.1l27,72.9c2.8,8.2,5.9,17.9,7.9,25.2h0.5c2.3-7.4,4.8-16.8,7.9-25.8l24.5-72.4h23.7l-33.7,88
		c-16.1,42.3-27,64-42.3,77.3c-11,9.7-21.9,13.5-27.5,14.5l-5.6-18.9c5.6-1.8,13-5.4,19.6-11c6.1-4.8,13.8-13.5,18.9-25
		c1-2.3,1.8-4.1,1.8-5.4c0-1.3-0.5-3.1-1.5-5.9l-45.7-113.7H-2039.5z"/>
	<path fill="#414042" d="M-1888.9,1863.6v35.5h32.1v17.1h-32.1v66.6c0,15.3,4.3,24,16.8,24c5.9,0,10.2-0.8,13-1.5l1,16.8
		c-4.3,1.8-11.2,3.1-19.9,3.1c-10.5,0-18.9-3.3-24.2-9.4c-6.4-6.6-8.7-17.6-8.7-32.1v-67.3h-19.1v-17.1h19.1v-29.6L-1888.9,1863.6z"
		/>
	<path fill="#414042" d="M-1815.4,1964.9c0.5,30.3,19.9,42.8,42.3,42.8c16.1,0,25.8-2.8,34.2-6.4l3.8,16.1
		c-7.9,3.6-21.4,7.7-41.1,7.7c-38,0-60.7-25-60.7-62.2s21.9-66.6,57.9-66.6c40.3,0,51,35.4,51,58.1c0,4.6-0.5,8.2-0.8,10.5H-1815.4z
		 M-1749.6,1948.8c0.3-14.3-5.9-36.5-31.1-36.5c-22.7,0-32.6,20.9-34.4,36.5H-1749.6z"/>
	<path fill="#414042" d="M-1695,1937.6c0-14.5-0.3-27-1-38.5h19.6l0.8,24.2h1c5.6-16.6,19.1-27,34.2-27c2.6,0,4.3,0.3,6.4,0.8v21.2
		c-2.3-0.5-4.6-0.8-7.7-0.8c-15.8,0-27,12-30.1,28.8c-0.5,3.1-1,6.6-1,10.5v65.8h-22.2V1937.6z"/>
</g>
<circle fill="#6D6E71" cx="-2508.8" cy="1876.9" r="10.2"/>
<g>
	<linearGradient id="SVGID_13_" gradientUnits="userSpaceOnUse" x1="-2633.6042" y1="2010.7208" x2="-2488.5486" y2="2010.7208">
		<stop  offset="5.220520e-02" style="stop-color:#F78D26"/>
		<stop  offset="0.2056" style="stop-color:#F68826"/>
		<stop  offset="0.4323" style="stop-color:#F37A25"/>
		<stop  offset="0.4766" style="stop-color:#F37625"/>
		<stop  offset="0.6159" style="stop-color:#E76623"/>
		<stop  offset="0.8356" style="stop-color:#DC5221"/>
		<stop  offset="0.9873" style="stop-color:#D84B21"/>
	</linearGradient>
	<path fill="url(#SVGID_13_)" d="M-2561.1,2013c-31.2,0-58.4-11.2-72.5-27.8c10.7,29.7,39.1,50.9,72.5,50.9
		c33.4,0,61.8-21.2,72.5-50.9C-2502.7,2001.8-2529.9,2013-2561.1,2013z"/>
	<linearGradient id="SVGID_14_" gradientUnits="userSpaceOnUse" x1="-2633.6042" y1="1907.5089" x2="-2488.5486" y2="1907.5089">
		<stop  offset="5.220520e-02" style="stop-color:#F78D26"/>
		<stop  offset="0.2056" style="stop-color:#F68826"/>
		<stop  offset="0.4323" style="stop-color:#F37A25"/>
		<stop  offset="0.4766" style="stop-color:#F37625"/>
		<stop  offset="0.6159" style="stop-color:#E76623"/>
		<stop  offset="0.8356" style="stop-color:#DC5221"/>
		<stop  offset="0.9873" style="stop-color:#D84B21"/>
	</linearGradient>
	<path fill="url(#SVGID_14_)" d="M-2561.1,1905.2c31.2,0,58.4,11.2,72.5,27.8c-10.7-29.7-39.1-50.9-72.5-50.9
		c-33.4,0-61.8,21.2-72.5,50.9C-2619.5,1916.4-2592.3,1905.2-2561.1,1905.2z"/>
</g>
<circle fill="#939598" cx="-2613.2" cy="2045.4" r="12.3"/>
<circle fill="#58595B" cx="-2625.4" cy="1890.9" r="7.5"/>
<g>
	<path fill="#F37625" d="M-1599.8,1842.2h22.1v75.7h0.5c3.5-6.3,9-11.8,15.8-15.5c6.5-3.8,14.3-6.3,22.6-6.3
		c16.3,0,42.4,10,42.4,51.9v72.2h-22.1v-69.7c0-19.6-7.3-36.1-28.1-36.1c-14.3,0-25.6,10-29.6,22.1c-1.3,3-1.5,6.3-1.5,10.5v73.2
		h-22.1V1842.2z"/>
	<path fill="#F37625" d="M-1359,1987.2c0,12.5,0.2,23.6,1,33.1h-19.6l-1.3-19.8h-0.5c-5.8,9.8-18.6,22.6-40.1,22.6
		c-19.1,0-41.9-10.5-41.9-53.2v-71h22.1v67.2c0,23.1,7,38.6,27.1,38.6c14.8,0,25.1-10.3,29.1-20.1c1.3-3.3,2-7.3,2-11.3v-74.5h22.1
		V1987.2z"/>
	<path fill="#F37625" d="M-1323.4,2020.3c0.5-8.3,1-20.6,1-31.3v-146.7h21.8v76.2h0.5c7.8-13.5,21.8-22.3,41.4-22.3
		c30.1,0,51.4,25.1,51.2,61.9c0,43.4-27.3,65-54.4,65c-17.6,0-31.6-6.8-40.6-22.8h-0.8l-1,20.1H-1323.4z M-1300.6,1971.6
		c0,2.8,0.5,5.5,1,8c4.3,15.3,17.1,25.8,33.1,25.8c23.1,0,36.9-18.8,36.9-46.6c0-24.3-12.5-45.1-36.1-45.1
		c-15,0-29.1,10.3-33.6,27.1c-0.5,2.5-1.3,5.5-1.3,9V1971.6z"/>
</g>
</svg>
