<?xml version="1.0" encoding="UTF-8" standalone="no"?>
<!-- Created with Inkscape (http://www.inkscape.org/) -->

<svg
   xmlns:dc="http://purl.org/dc/elements/1.1/"
   xmlns:cc="http://creativecommons.org/ns#"
   xmlns:rdf="http://www.w3.org/1999/02/22-rdf-syntax-ns#"
   xmlns:svg="http://www.w3.org/2000/svg"
   xmlns="http://www.w3.org/2000/svg"
   xmlns:sodipodi="http://sodipodi.sourceforge.net/DTD/sodipodi-0.dtd"
   xmlns:inkscape="http://www.inkscape.org/namespaces/inkscape"
   id="svg2"
   version="1.1"
   inkscape:version="0.91 r13725"
   width="48.299839"
   height="66.298164"
   viewBox="0 0 48.299839 66.298164"
   sodipodi:docname="singular-extracted.svg">
  <metadata
     id="metadata8">
    <rdf:RDF>
      <cc:Work
         rdf:about="">
        <dc:format>image/svg+xml</dc:format>
        <dc:type
           rdf:resource="http://purl.org/dc/dcmitype/StillImage" />
        <dc:title></dc:title>
      </cc:Work>
    </rdf:RDF>
  </metadata>
  <defs
     id="defs6" />
  <sodipodi:namedview
     pagecolor="#ffffff"
     bordercolor="#666666"
     borderopacity="1"
     objecttolerance="10"
     gridtolerance="10"
     guidetolerance="10"
     inkscape:pageopacity="0"
     inkscape:pageshadow="2"
     inkscape:window-width="1920"
     inkscape:window-height="1051"
     id="namedview4"
     showgrid="false"
     inkscape:zoom="3.4469982"
     inkscape:cx="153.08864"
     inkscape:cy="42.270041"
     inkscape:window-x="0"
     inkscape:window-y="0"
     inkscape:window-maximized="1"
     inkscape:current-layer="svg2"
     fit-margin-top="0"
     fit-margin-left="0"
     fit-margin-right="0"
     fit-margin-bottom="0" />
  <path
     style="fill:#ffcc00;fill-opacity:1"
     d="m 32.748317,65.306371 c -0.412066,-0.64616 -1.586933,-2.79483 -2.610817,-4.77483 -3.889101,-7.5208 -10.324525,-18.11781 -12.780121,-21.04462 -2.544701,-3.03302 -2.565263,-3.03902 -5.396362,-1.575 -4.023299,2.08053 -7.653347,1.85729 -9.974433,-0.61339 -5.76416,-6.13567 2.100916,-13.53567 9.743116,-9.16699 1.2375,0.70742 2.533287,1.30057 2.879527,1.31811 1.143646,0.0579 8.55031,-11.0716 13.301827,-19.98783 2.570392,-4.82335 5.007065,-8.97591003 5.414826,-9.22792003 1.293267,-0.79928 3.60382,0.5814 3.60382,2.15348003 0,2.27526 -11.592437,22.21854 -15.486361,26.64227 l -3.404176,3.86735 3.48416,4.21631 c 4.847214,5.8658 14.904495,23.69536 14.932901,26.47307 0.0259,2.53305 -2.45539,3.68406 -3.707907,1.71999 z M 18.648082,36.857291 c -2.944599,-3.0735 -3.012771,-4.33119 -0.396653,-7.31775 1.671002,-1.90761 1.520514,-1.85484 -0.867459,0.3042 -2.560459,2.315 -3.072094,2.4686 -4.496729,1.35 -1.464082,-1.14956 -1.49731,-1.12165 -0.37234,0.3128 1.046933,1.33494 1.046933,1.81506 0,3.15 -1.128361,1.43877 -1.094361,1.46433 0.393076,0.29558 1.457983,-1.14561 1.926804,-0.98089 4.482692,1.575 3.525378,3.52538 4.585244,3.80368 1.257413,0.33017 z m -9.303257,-2.39449 c 1.891422,-1.43294 1.444032,-2.74665 -1.168009,-3.42972 -2.449589,-0.64058 -4.250362,1.58716 -2.747115,3.39846 1.361963,1.64106 1.785776,1.64445 3.915124,0.0313 z m 12.399674,-9.25626 c 1.119484,-1.42745 1.087651,-1.45929 -0.339799,-0.3398 -0.86625,0.67936 -1.575,1.38811 -1.575,1.575 0,0.74073 0.739067,0.26397 1.914799,-1.2352 z m 7.085201,-11.025 c 0.529831,-0.99 0.760831,-1.8 0.513331,-1.8 -0.2475,0 -0.883499,0.81 -1.413331,1.8 -0.529832,0.99 -0.760831,1.8 -0.513331,1.8 0.2475,0 0.883499,-0.81 1.413331,-1.8 z m 8.1,36.33335 c -2.2275,-4.25937 -6.118154,-9.96316 -8.645899,-12.67508 l -4.595897,-4.93076 4.145897,-4.18876 c 2.280245,-2.30381 6.118595,-7.7325 8.529668,-12.06375 4.164913,-7.48185 6.330713,-9.41776 7.404778,-6.61879 0.657174,1.71257 -4.412068,11.55714 -9.206313,17.87884 -2.162728,2.85178 -3.932234,5.32106 -3.932234,5.48729 0,0.16623 0.852834,1.27546 1.895188,2.46495 5.201606,5.93585 13.024039,19.94446 12.032707,21.54847 -1.531211,2.47756 -3.792716,0.43114 -7.627895,-6.90241 z m -7.658535,-15.64278 c -1.58999,-1.75692 -1.575186,-1.88099 0.510128,-4.275 l 2.14764,-2.46557 -2.620011,2.44085 c -2.564181,2.38883 -2.584641,2.47993 -0.960128,4.275 0.912935,1.00878 1.862383,1.83415 2.109883,1.83415 0.2475,0 -0.28688,-0.81425 -1.187512,-1.80943 z m 13.94397,9.23443 c -4.069024,-9.16112 -4.174781,-10.92811 -1.095501,-18.30388 2.016423,-4.82992 3.237037,-6.67112 4.422583,-6.67112 2.096763,0 1.866692,2.6578 -0.72197,8.34026 -2.468279,5.41821 -2.415056,6.84114 0.493749,13.20044 1.325113,2.89699 2.198449,5.81671 1.940747,6.48828 -0.947092,2.46808 -3.190846,1.10837 -5.039608,-3.05398 z m -1.189382,-12.15 c -0.249672,-0.61875 -0.453947,-0.1125 -0.453947,1.125 0,1.2375 0.204275,1.74375 0.453947,1.125 0.249671,-0.61875 0.249671,-1.63125 0,-2.25 z"
     id="path4138"
     inkscape:connector-curvature="0"
     sodipodi:nodetypes="sssssscsssscsssssssssssscssccssssssssssscsssssssssscsssssssssssssss" />
</svg>
