<?xml version="1.0" encoding="UTF-8" standalone="no"?>
<svg
   xmlns:dc="http://purl.org/dc/elements/1.1/"
   xmlns:cc="http://creativecommons.org/ns#"
   xmlns:rdf="http://www.w3.org/1999/02/22-rdf-syntax-ns#"
   xmlns:svg="http://www.w3.org/2000/svg"
   xmlns="http://www.w3.org/2000/svg"
   xmlns:xlink="http://www.w3.org/1999/xlink"
   xmlns:sodipodi="http://sodipodi.sourceforge.net/DTD/sodipodi-0.dtd"
   xmlns:inkscape="http://www.inkscape.org/namespaces/inkscape"
   version="1.1"
   width="540"
   height="540"
   id="svg2"
   inkscape:version="0.48.3.1 r9886"
   sodipodi:docname="opendreamkit.svg"
   inkscape:export-filename="/users/schilly/Dokumente/opendreamkit.png"
   inkscape:export-xdpi="66.666664"
   inkscape:export-ydpi="66.666664">
  <metadata
     id="metadata43">
    <rdf:RDF>
      <cc:Work
         rdf:about="">
        <dc:format>image/svg+xml</dc:format>
        <dc:type
           rdf:resource="http://purl.org/dc/dcmitype/StillImage" />
        <dc:title></dc:title>
      </cc:Work>
    </rdf:RDF>
  </metadata>
  <sodipodi:namedview
     pagecolor="#ffffff"
     bordercolor="#666666"
     borderopacity="1"
     objecttolerance="10"
     gridtolerance="10"
     guidetolerance="10"
     inkscape:pageopacity="0"
     inkscape:pageshadow="2"
     inkscape:window-width="1920"
     inkscape:window-height="1060"
     id="namedview41"
     showgrid="true"
     inkscape:zoom="0.96376035"
     inkscape:cx="118.589"
     inkscape:cy="278.79828"
     inkscape:window-x="-3"
     inkscape:window-y="-3"
     inkscape:window-maximized="1"
     inkscape:current-layer="svg2">
    <inkscape:grid
       type="xygrid"
       id="grid3831"
       empspacing="5"
       visible="true"
       enabled="true"
       snapvisiblegridlinesonly="true" />
  </sodipodi:namedview>
  <desc
     id="desc4">European flag</desc>
  <defs
     id="defs6">
    <g
       id="s">
      <g
         id="c">
        <path
           id="t"
           d="M 0,0 V 1 H 0.5 z"
           transform="matrix(0.95105652,0.30901699,-0.30901699,0.95105652,0,-1)"
           inkscape:connector-curvature="0" />
        <use
           xlink:href="#t"
           transform="scale(-1,1)"
           id="use11"
           x="0"
           y="0"
           width="810"
           height="540" />
      </g>
      <g
         id="a">
        <use
           xlink:href="#c"
           transform="matrix(0.30901699,0.95105652,-0.95105652,0.30901699,0,0)"
           id="use14"
           x="0"
           y="0"
           width="810"
           height="540" />
        <use
           xlink:href="#c"
           transform="matrix(-0.80901699,0.58778525,-0.58778525,-0.80901699,0,0)"
           id="use16"
           x="0"
           y="0"
           width="810"
           height="540" />
      </g>
      <use
         xlink:href="#a"
         transform="scale(-1,1)"
         id="use18"
         x="0"
         y="0"
         width="810"
         height="540" />
    </g>
  </defs>
  <rect
     width="540"
     height="540"
     id="rect20"
     x="0"
     y="0"
     style="fill:#003399" />
  <g
     transform="matrix(37.612903,0,0,37.612903,270,270.72697)"
     id="g22"
     style="fill:#ffee11;fill-opacity:1">
    <use
       xlink:href="#s"
       y="-6"
       id="use24"
       x="0"
       width="810"
       height="540"
       style="fill:#ffee11;fill-opacity:1" />
    <use
       xlink:href="#s"
       y="6"
       id="use26"
       x="0"
       width="810"
       height="540"
       style="fill:#ffee11;fill-opacity:1" />
    <g
       id="l"
       style="fill:#ffee11;fill-opacity:1">
      <use
         xlink:href="#s"
         x="-6"
         id="use29"
         y="0"
         width="810"
         height="540"
         style="fill:#ffee11;fill-opacity:1" />
      <use
         xlink:href="#s"
         transform="matrix(-0.80901699,-0.58778525,0.58778525,-0.80901699,-3,-5.1961524)"
         id="use31"
         x="0"
         y="0"
         width="810"
         height="540"
         style="fill:#ffee11;fill-opacity:1" />
      <use
         xlink:href="#s"
         transform="matrix(-0.80901699,0.58778525,-0.58778525,-0.80901699,-5.1961524,-3)"
         id="use33"
         x="0"
         y="0"
         width="810"
         height="540"
         style="fill:#ffee11;fill-opacity:1" />
      <use
         xlink:href="#s"
         transform="matrix(0.30901699,0.95105652,-0.95105652,0.30901699,-5.1961524,3)"
         id="use35"
         x="0"
         y="0"
         width="810"
         height="540"
         style="fill:#ffee11;fill-opacity:1" />
      <use
         xlink:href="#s"
         transform="matrix(0.30901699,0.95105652,-0.95105652,0.30901699,-3,5.1961524)"
         id="use37"
         x="0"
         y="0"
         width="810"
         height="540"
         style="fill:#ffee11;fill-opacity:1" />
    </g>
    <use
       xlink:href="#l"
       transform="scale(-1,1)"
       id="use39"
       x="0"
       y="0"
       width="810"
       height="540"
       style="fill:#ffee11;fill-opacity:1" />
  </g>
  <g
     id="g3833"
     transform="matrix(0.56457312,-0.56457312,0.56457312,0.56457312,718.67321,-300.80982)">
    <g
       id="g3838"
       transform="matrix(0.80713651,0.80713651,-0.80713651,0.80713651,-723.07474,-100.18086)">
      <rect
         style="color:#000000;fill:#ffee11;fill-opacity:1;fill-rule:nonzero;stroke:none;stroke-width:10;marker:none;visibility:visible;display:inline;overflow:visible;enable-background:accumulate"
         id="rect3810"
         width="313.11569"
         height="45.573814"
         x="-110.66718"
         y="-666.73926"
         transform="matrix(0,1,-1,0,0,0)" />
      <path
         style="color:#000000;fill:#ffee11;fill-opacity:1;fill-rule:nonzero;stroke:none;stroke-width:10;marker:none;visibility:visible;display:inline;overflow:visible;enable-background:accumulate"
         d="m 555.33089,-132.61204 c 0,0 14.43702,0 21.94486,0 0,10.97243 5.97243,16.45864 10.97243,16.45864 19.82654,0 17.91729,-10.97243 32.91729,-10.97243 83.61401,0 98.75186,-5.48621 142.64158,49.375937 0,0 -28.07833,-16.458645 -43.88972,-16.458645 -25,0 -21.94486,10.97243 -38.4035,16.458645 -18.66319,6.221063 -34.91325,5.486214 -60.34836,5.486214 -7.58282,0 -20.43058,-10.972429 -32.91729,-10.972429 -5,0 -10.97243,5.486215 -10.97243,16.458644 -10,0 -21.94486,0 -21.94486,0 z"
         id="rect3810-9"
         inkscape:connector-curvature="0"
         sodipodi:nodetypes="ccsccssssccc" />
    </g>
  </g>
  <use
     x="0"
     y="0"
     xlink:href="#g3833"
     id="use3007"
     transform="matrix(0.75986845,0.75986845,-0.75986845,0.75986845,-321.59764,-414.90473)"
     width="540"
     height="540" />
  <path
     style="color:#000000;fill:#ffee11;fill-opacity:1;fill-rule:nonzero;stroke:#003399;stroke-width:11.03893375;stroke-opacity:1;marker:none;visibility:visible;display:inline;overflow:visible;enable-background:accumulate"
     d="m 166.21058,117.76314 c -26.46804,30.98093 -42.44743,71.19221 -42.44743,115.13417 0,97.94272 79.39681,177.33954 177.33953,177.33954 43.94196,0 84.15324,-15.9794 115.13417,-42.44743 C 278.93354,366.03958 167.96041,255.06646 166.21058,117.76314 z"
     id="path3788"
     inkscape:connector-curvature="0" />
</svg>
