<?xml version="1.0" encoding="UTF-8" standalone="no"?>
<!-- Created with Inkscape (http://www.inkscape.org/) -->

<svg
   xmlns:dc="http://purl.org/dc/elements/1.1/"
   xmlns:cc="http://creativecommons.org/ns#"
   xmlns:rdf="http://www.w3.org/1999/02/22-rdf-syntax-ns#"
   xmlns:svg="http://www.w3.org/2000/svg"
   xmlns="http://www.w3.org/2000/svg"
   xmlns:xlink="http://www.w3.org/1999/xlink"
   xmlns:sodipodi="http://sodipodi.sourceforge.net/DTD/sodipodi-0.dtd"
   xmlns:inkscape="http://www.inkscape.org/namespaces/inkscape"
   width="99.028267mm"
   height="98.918663mm"
   viewBox="0 0 350.88756 350.4992"
   id="svg2"
   version="1.1"
   inkscape:version="0.91 r13725"
   sodipodi:docname="gap4-extracted.svg">
  <defs
     id="defs4" />
  <sodipodi:namedview
     id="base"
     pagecolor="#ffffff"
     bordercolor="#666666"
     borderopacity="1.0"
     inkscape:pageopacity="0.0"
     inkscape:pageshadow="2"
     inkscape:zoom="0.35"
     inkscape:cx="-831.59419"
     inkscape:cy="88.017076"
     inkscape:document-units="px"
     inkscape:current-layer="layer1"
     showgrid="false"
     inkscape:window-width="1920"
     inkscape:window-height="1051"
     inkscape:window-x="0"
     inkscape:window-y="0"
     inkscape:window-maximized="1"
     fit-margin-top="0"
     fit-margin-left="0"
     fit-margin-right="0"
     fit-margin-bottom="0" />
  <metadata
     id="metadata7">
    <rdf:RDF>
      <cc:Work
         rdf:about="">
        <dc:format>image/svg+xml</dc:format>
        <dc:type
           rdf:resource="http://purl.org/dc/dcmitype/StillImage" />
        <dc:title></dc:title>
      </cc:Work>
    </rdf:RDF>
  </metadata>
  <g
     inkscape:label="Calque 1"
     inkscape:groupmode="layer"
     id="layer1"
     transform="translate(-173.73705,-278.45149)">
    <path
       style="fill:#ffcc00;fill-opacity:1"
       d="m 342.71426,628.35565 c -3.96529,-0.71136 -4.36885,-1.9206 -0.48983,-1.46775 1.9296,0.22527 3.75575,0.80987 4.05812,1.2991 0.30236,0.48923 0.18569,0.82823 -0.25926,0.75333 -0.44497,-0.0749 -1.93403,-0.33801 -3.30903,-0.58468 z m 9.47523,-0.23906 c 0.35354,-0.57204 1.93969,-1.04008 3.52477,-1.04008 1.58508,0 3.15859,-0.44758 3.49668,-0.99462 0.87106,-1.40941 4.50332,-3.23869 4.50332,-2.26797 0,1.04294 -5.68129,3.91539 -9.33378,4.71915 -1.84398,0.40579 -2.60927,0.26031 -2.19099,-0.41648 z m -96.11117,-82.29008 c -57.77987,-57.6883 -80.37551,-80.86598 -80.37072,-82.44098 0.004,-1.20504 -0.44334,-2.4691 -0.99334,-2.80902 -1.30295,-0.80527 -1.30295,-12.19473 0,-13 0.55,-0.33992 1,-1.4805 1,-2.53462 0,-1.09637 5.49401,-7.62655 12.83786,-15.2591 l 12.83786,-13.34252 0.61348,-9.93188 c 2.38708,-38.64573 27.65458,-63.5036 62.14694,-61.13944 l 7.99316,0.54786 33.03535,-32.71742 33.03535,-32.71742 6.62846,-1.28711 c 4.62709,-0.89848 7.19354,-0.97793 8.5,-0.26313 1.02935,0.56318 3.21881,1.31228 4.86548,1.66465 2.19872,0.47051 11.75886,9.38453 35.99304,33.56041 l 32.99909,32.91972 18.50697,0.0148 c 20.9261,0.0167 27.80179,1.1596 37.2399,6.19006 6.80667,3.62792 11.68645,8.88713 15.5243,16.73141 2.21412,4.52549 2.75795,7.20205 3.07692,15.14336 0.43029,10.71293 -1.20707,18.38266 -5.3129,24.88672 l -2.35377,3.7286 13.46604,13.40254 c 7.40633,7.37139 14.08508,14.75253 14.84168,16.40253 1.81247,3.95264 3.06436,10.60011 1.60078,8.5 -0.57495,-0.825 -1.05226,-2.29715 -1.06068,-3.27144 -0.0137,-1.58414 -4.73959,-9.72856 -5.64511,-9.72856 -0.20022,0 -0.0984,4.44904 0.22627,9.88675 l 0.59031,9.88675 -14.84339,15.22496 c -35.58227,36.49698 -70.30003,71.00154 -71.44026,71.00154 -0.68006,0 -0.95202,0.28445 -0.60436,0.6321 0.80141,0.80141 -22.83574,24.3679 -24.44096,24.3679 -0.65513,0 -0.9067,0.28445 -0.55904,0.6321 0.80141,0.80141 -22.83574,24.3679 -24.44096,24.3679 -0.65513,0 -0.90849,0.28265 -0.56303,0.62812 0.34548,0.34546 -4.21673,5.40796 -10.13821,11.25 -15.73051,15.51947 -15.57075,15.40759 -22.00359,15.40759 -4.59787,0 -5.82196,-0.39364 -7.44082,-2.39285 -1.06569,-1.31607 -2.33689,-2.44911 -2.82489,-2.51786 -0.488,-0.0688 -1.33727,-0.18125 -1.88727,-0.25 -0.55,-0.0688 -1,-0.59649 -1,-1.17275 0,-0.57626 -1.11768,-2.08358 -2.48374,-3.3496 -1.36605,-1.26601 -2.15355,-2.63203 -1.75,-3.03558 0.40356,-0.40356 0.22332,-0.58374 -0.40053,-0.4004 -0.62386,0.18333 -6.3947,-4.95417 -12.8241,-11.41667 -6.4294,-6.4625 -11.88224,-11.75 -12.11742,-11.75 -0.23519,0 -28.10184,-27.68852 -61.9259,-61.53005 -49.51604,-49.54159 -61.52484,-62.06 -61.63449,-64.25 -0.12526,-2.5019 -0.17198,-2.5315 -0.58275,-0.36919 -0.3566,1.87714 -0.9386,2.2567 -2.8887,1.88391 -2.09772,-0.401 -2.35465,-0.16841 -1.82179,1.64924 0.3412,1.16385 36.68885,38.22859 80.77256,82.36609 44.08371,44.1375 79.75757,80.25 79.27525,80.25 -0.48232,0 -37.04677,-36.1125 -81.25433,-80.25 z m 102.18271,69.32568 c -0.31419,-0.50837 0.11807,-1.13757 0.96059,-1.39821 1.18491,-0.36656 1.14983,-0.44033 -0.15489,-0.32568 -1.8832,0.16547 -3.17396,2.64821 -1.37679,2.64821 0.6283,0 0.88529,-0.41594 0.57109,-0.92432 z m 70.0766,-82.11236 c 42.28215,-42.37018 77.04341,-77.80571 77.24726,-78.74563 0.20384,-0.93991 1.21634,-2.78409 2.25,-4.09817 1.63935,-2.0841 2.80197,-6.37545 1.32789,-4.90137 -0.56245,0.56245 -17.29378,-16.21249 -18.74821,-18.79707 -0.57877,-1.0285 -0.22636,-1.42108 1.27568,-1.42108 1.97628,0 2.00253,-0.14086 0.54969,-2.95034 -2.03779,-3.94066 -2.03124,-7.45764 0.0124,-6.67341 0.98273,0.37711 0.60704,-0.63046 -1.0405,-2.7905 l -2.5786,-3.38072 1.94851,-3.46916 c 2.26799,-4.03791 5.13251,-14.5717 5.13251,-18.87382 0,-7.07331 -2.97115,-15.71877 -6.82592,-19.86205 l -2.32591,-2.5 1.60726,3.94713 c 0.88399,2.17093 1.3733,4.5568 1.08737,5.30194 -0.28594,0.74514 -0.13572,1.11737 0.33383,0.82718 2.13316,-1.31837 2.23457,21.05183 0.10846,23.92375 -0.40717,0.55 -1.07545,2.09043 -1.48506,3.42319 -1.75792,5.7198 -12.89655,15.07681 -17.94749,15.07681 -0.76222,0 -1.5695,0.55089 -1.79394,1.22419 -0.28839,0.86517 -4.63862,1.3388 -14.83333,1.61496 -9.25837,0.25081 -14.68842,0.79733 -15.15996,1.52581 -0.40408,0.62427 -0.74158,11.14754 -0.75,23.38504 l -0.0153,22.25 -13.5,0 c -8.83489,0 -13.5,0.36596 -13.5,1.05902 0,0.58246 -0.45,0.7809 -1,0.44098 -0.64805,-0.40052 -1,-21.01038 -1,-58.55902 l 0,-57.94098 11.07673,0 11.07672,0 -2.97854,-2.50629 c -1.7543,-1.47615 -3.63045,-2.25613 -4.56457,-1.89768 -0.89304,0.3427 -4.05458,-0.78456 -7.23586,-2.57996 -4.4741,-2.52503 -5.82929,-2.9105 -6.51216,-1.85232 -0.60286,0.93419 -1.08799,1.00647 -1.61232,0.24022 -0.4125,-0.60281 -1.9875,-1.39889 -3.5,-1.76905 -1.5125,-0.37016 -2.75,-1.32362 -2.75,-2.11879 0,-0.79517 -0.91321,-1.9345 -2.02934,-2.53184 -1.73322,-0.92758 -39.96037,-38.87189 -43.80707,-43.48293 -1.02405,-1.22753 -2.95234,-1.55477 -8.25,-1.40008 -3.93141,0.11479 -6.91359,0.64476 -6.91359,1.22862 0,0.56471 -11.68451,12.67062 -25.9656,26.90202 -21.5809,21.50584 -26.26691,25.7205 -27.75,24.95872 -1.32986,-0.68308 -3.5675,0.0635 -8.7844,2.9309 -5.68814,3.1264 -6.49568,3.85035 -4.30902,3.86295 1.48004,0.009 2.9477,0.43089 3.26147,0.93857 0.31378,0.50769 1.87774,1.21019 3.47548,1.56111 2.91683,0.64064 5.10678,3.67093 3.1293,4.33009 -0.64405,0.21468 -1.05723,4.06513 -1.05723,9.85241 0,5.225 -0.3375,9.33556 -0.75,9.13458 -0.41249,-0.20099 -2.09999,-1.01683 -3.75,-1.81298 -1.65,-0.79616 -3.31474,-1.89646 -3.69943,-2.44511 -1.07149,-1.52819 -21.03536,-1.33657 -21.55024,0.20684 -0.22935,0.6875 -0.942,1.25719 -1.58366,1.26597 -1.43574,0.0197 -7.04574,4.93278 -7.97466,6.98403 -0.3736,0.825 -1.09469,2.175 -1.60242,3 -2.22444,3.61444 -4.08959,9.04222 -4.08959,11.90113 0,1.70438 -0.45,3.09887 -1,3.09887 -0.61538,0 -1,5 -1,13 0,7.15 0.38732,13 0.86071,13 0.47339,0 1.1365,2.32859 1.47357,5.17465 0.33708,2.84605 1.01411,5.43355 1.50451,5.75 0.49041,0.31644 1.20763,1.58785 1.59382,2.82535 0.38619,1.2375 1.12185,2.25 1.63478,2.25 0.51294,0 0.94676,0.5625 0.96404,1.25 0.0492,1.95865 4.39434,4.63468 8.62015,5.3089 3.05005,0.48664 4.34903,0.17936 6.26156,-1.48123 2.04255,-1.77347 2.52089,-3.36088 3.11474,-10.33646 0.38587,-4.53266 0.87496,-8.91621 1.08685,-9.74121 0.30707,-1.19552 -0.68041,-1.49133 -4.86473,-1.4573 l -5.25,0.0427 0,-7.71091 c 0,-4.241 -0.27314,-8.42271 -0.60699,-9.29269 -0.54044,-1.40837 1.48777,-1.58179 18.5,-1.58179 12.07133,0 19.10699,0.36822 19.10699,1 0,0.55 -0.46329,1 -1.02954,1 -0.68879,0 -0.93701,9.59788 -0.75,29.00059 l 0.27954,29.00059 -6.75,-5.9e-4 c -3.7125,-3.3e-4 -6.75,-0.36955 -6.75,-0.82049 0,-1.32984 -5.57462,-7.18011 -6.8418,-7.18011 -0.63987,0 -2.7896,1.8 -4.77716,4 -1.98757,2.2 -4.4239,4 -5.41407,4 -0.99017,0 -1.98707,0.56031 -2.21535,1.24513 -0.56063,1.68189 -16.9644,1.61651 -17.52652,-0.0699 -0.21547,-0.64635 -1.04509,-1.17523 -1.84361,-1.17523 -3.30486,0 -15.36984,-10.11842 -15.3968,-12.91268 -0.013,-1.34881 -0.15295,-1.36977 -0.93129,-0.13947 -0.7183,1.13538 -1.06211,0.86561 -1.5931,-1.25 -0.37241,-1.48382 -1.07833,-2.69785 -1.5687,-2.69785 -0.49038,0 -0.8916,-0.675 -0.8916,-1.5 0,-0.825 -0.41044,-1.5 -0.9121,-1.5 -0.50165,0 -1.21581,-1.79764 -1.58701,-3.99476 -0.3712,-2.19712 -1.08575,-4.24868 -1.5879,-4.55902 -0.50214,-0.31034 -0.91299,-1.86114 -0.91299,-3.44622 0,-1.58508 -0.45,-3.16008 -1,-3.5 -0.55,-0.33992 -1.03423,-2.27898 -1.07607,-4.30902 -0.069,-3.34686 -2.66787,-12.13697 -2.84785,-9.63215 -0.0418,0.58235 -1.67509,3.71425 -3.62944,6.95977 -2.23639,3.7139 -3.44867,6.89906 -3.27088,8.594 0.22327,2.12847 -0.89384,3.86003 -5.32847,8.2594 -4.70162,4.66423 -5.72417,6.32134 -6.30956,10.22502 -0.38424,2.56227 -0.91557,5.22404 -1.18073,5.91504 -0.35638,0.92871 0.64259,1.13831 3.83045,0.80369 l 4.31255,-0.45267 75.99753,76.06846 c 62.09233,62.15028 76.47799,76.06846 78.62337,76.06846 2.14645,0 16.66107,-14.06445 79.50247,-77.03668 z m -83.62337,31.57793 c 0,-6.42 0.45992,-12.53209 1.02203,-13.58241 1.49852,-2.8 -1.05562,-3.14839 -20.36765,-2.77817 l -16.65704,0.31933 9.9e-4,-7.39796 0.001,-7.39797 6.81347,-9.10203 c 3.74809,-5.00612 9.48068,-12.70204 12.73976,-17.10204 7.43741,-10.04105 12.15778,-16.21039 15.49396,-20.25 0.71621,-0.86724 4.54168,-1.25 12.49291,-1.25 9.52051,0 11.46056,0.25392 11.46056,1.5 0,0.825 -0.46497,1.5 -1.03326,1.5 -0.68404,0 -0.9984,7.76771 -0.93012,22.98243 0.0567,12.64033 -0.17986,23.44033 -0.52575,24 -0.34589,0.55966 0.0727,1.01757 0.93011,1.01757 0.85746,0 1.55902,0.45 1.55902,1 0,0.55 2.02501,1 4.5,1 2.475,0 4.5,-0.45 4.5,-1 0,-0.55 -2.025,-1 -4.5,-1 -2.47499,0 -4.5,-0.45 -4.5,-1 0,-0.5575 2.70233,-1 6.10699,-1 5.15793,0 6.01267,0.24582 5.5,1.58179 -0.33385,0.86998 -0.60699,3.79498 -0.60699,6.5 l 0,4.91821 -5.52475,0 c -5.09145,0 -5.60582,0.21323 -6.5584,2.7187 -0.5685,1.49528 -0.89487,7.5712 -0.72525,13.50203 l 0.3084,10.78335 -9.16821,-0.002 c -5.04251,-10e-4 -9.88002,0.2711 -10.75,0.60495 -1.38671,0.53209 -1.58179,-0.83262 -1.58179,-11.06578 z m 4,-2.60027 c 0,-6.62732 -0.39427,-10.94098 -1,-10.94098 -0.60899,0 -1,4.51967 -1,11.55902 0,7.45136 0.35536,11.33939 1,10.94098 0.56808,-0.35109 1,-5.34372 1,-11.55902 z m -36,-21.15914 c 0,-5.2042 0.3706,-6.54949 2.27271,-8.25 1.24999,-1.11751 2.81534,-3.26934 3.47856,-4.78184 0.66322,-1.5125 1.6655,-2.75 2.22729,-2.75 0.56179,0 1.02144,-0.5109 1.02144,-1.13533 0,-0.62443 1.125,-2.17794 2.5,-3.45225 1.375,-1.27431 2.5,-2.75091 2.5,-3.28134 0,-0.53043 0.35667,-1.11441 0.79259,-1.29775 0.43593,-0.18333 1.82263,-2.02083 3.08156,-4.08333 1.25893,-2.0625 2.70227,-3.75 3.20741,-3.75 0.50514,0 0.91844,-0.60615 0.91844,-1.34699 0,-0.74084 0.90001,-2.3847 2,-3.65301 2.15275,-2.48215 2.82447,-5.01353 0.74869,-2.82143 -0.68822,0.72679 -2.37572,3.00586 -3.75,5.0646 -1.37428,2.05874 -2.83619,3.74624 -3.24869,3.75 -0.41249,0.004 -0.75,0.68183 -0.75,1.50683 0,0.825 -0.41968,1.5 -0.93261,1.5 -0.51294,0 -1.19226,0.7875 -1.5096,1.75 -0.31735,0.9625 -1.81017,3.16653 -3.31739,4.89785 -1.50722,1.73131 -3.4154,4.14895 -4.2404,5.37253 -0.825,1.22357 -1.9663,2.73204 -2.53625,3.35215 -5.11966,5.57035 -6.46375,8.4757 -6.46375,13.97186 0,3.11059 0.45,5.65561 1,5.65561 0.55945,0 1,-2.73939 1,-6.21816 z m 34.57143,-3.21041 c 1.71453,-1.71453 2.1132,-24.57143 0.42857,-24.57143 -0.61111,0 -1,4.66667 -1,12 l 0,12 -10,0 c -6,0 -10,-0.4 -10,-1 0,-0.59259 3.66667,-1 9,-1 l 9,0 0,-10.56574 c 0,-5.81116 0.48646,-11.4747 1.08102,-12.58565 0.59456,-1.11095 0.75795,-2.31886 0.3631,-2.68426 -0.39486,-0.36539 -0.91882,-0.10185 -1.16436,0.58565 -0.24552,0.6875 -1.30892,1.25 -2.36309,1.25 -1.05417,0 -1.92386,0.5625 -1.93264,1.25 -0.009,0.6875 -1.24629,2.66653 -2.75,4.39785 -1.50372,1.73131 -3.40902,4.14895 -4.23402,5.37253 -0.825,1.22357 -1.9508,2.73204 -2.50176,3.35215 -0.55097,0.62011 -2.17106,2.92845 -3.60019,5.12965 -2.08553,3.21219 -2.40045,4.44588 -1.59543,6.25 0.9372,2.10033 1.62102,2.24782 10.42162,2.24782 6.82946,0 9.81133,-0.39271 10.84719,-1.42857 z m -3.72937,-43.27632 c 1.858,-3.4717 1.33977,-3.79987 -1.07378,-0.67997 -1.22745,1.58667 -2.58025,3.03579 -3.00622,3.22027 -0.42599,0.18448 -0.51803,0.75043 -0.20452,1.25767 0.65965,1.06734 2.60231,-0.65472 4.28452,-3.79797 z m 21.15794,-4.44473 c 0,-0.46771 -4.52655,-0.85038 -10.05902,-0.85038 -6.38933,0 -9.83561,0.36147 -9.44665,0.99083 0.74472,1.20498 19.50567,1.06989 19.50567,-0.14045 z m -64,-23.29136 c 0,-1.34254 0.45,-2.7191 1,-3.05902 0.55,-0.33992 1,-1.68992 1,-3 0,-1.31008 0.41084,-2.63588 0.913,-2.94622 0.50214,-0.31034 1.22801,-2.4744 1.61305,-4.80902 0.38504,-2.33462 1.04832,-4.69476 1.47395,-5.24476 0.42563,-0.55 1.10063,-3.025 1.5,-5.5 0.39938,-2.475 1.06657,-4.95 1.48268,-5.5 0.41609,-0.55 1.07101,-2.7429 1.45535,-4.87311 0.38434,-2.13021 1.09083,-4.60521 1.56998,-5.5 0.47915,-0.89479 1.19918,-2.97689 1.60005,-4.62689 0.40089,-1.65 0.80226,-3.225 0.89195,-3.5 0.0897,-0.275 0.49106,-1.85 0.89194,-3.5 0.40086,-1.65 1.1209,-3.7321 1.60005,-4.62689 0.47916,-0.89479 1.18565,-3.36979 1.56999,-5.5 0.38434,-2.13021 1.03925,-4.32311 1.45535,-4.87311 0.4161,-0.55 1.0833,-3.025 1.48267,-5.5 0.39937,-2.475 1.07437,-4.95 1.5,-5.5 0.42563,-0.55 1.08891,-2.91014 1.47395,-5.24476 0.38504,-2.33462 1.11092,-4.49868 1.61306,-4.80902 0.50214,-0.31034 0.91298,-1.63614 0.91298,-2.94622 0,-1.31008 0.39808,-2.62799 0.88461,-2.92869 0.48654,-0.30069 1.19903,-2.64339 1.58332,-5.20599 0.38428,-2.5626 1.10393,-5.38063 1.59923,-6.26229 0.49529,-0.88167 1.27332,-3.17803 1.72894,-5.10303 l 0.82841,-3.5 13.88959,-0.27953 c 14.63602,-0.29456 17.59556,0.0699 15.72865,1.93678 -0.78891,0.78891 -0.72385,1.95853 0.2346,4.21722 0.72946,1.71904 2.04491,5.60053 2.92324,8.62553 0.87833,3.025 2.27251,7.65323 3.09818,10.28495 0.82568,2.63172 1.50123,5.89422 1.50123,7.25 0,1.35578 0.41045,2.46505 0.9121,2.46505 0.50166,0 1.2323,1.8952 1.62364,4.21154 0.39135,2.31635 1.04248,4.90385 1.44696,5.75 1.47421,3.08393 4.0173,11.86011 4.0173,13.86366 0,1.13122 0.43695,2.32682 0.97101,2.65688 0.53405,0.33007 1.26703,2.83162 1.62883,5.55902 0.3618,2.72739 1.03435,4.9589 1.49455,4.9589 0.4602,0 1.1352,2.25 1.5,5 0.3648,2.75 1.0042,5 1.4209,5 0.41669,0 1.05972,2.01451 1.42894,4.47669 0.36923,2.46218 1.09533,4.73874 1.61355,5.05902 0.51822,0.32028 0.94222,1.62581 0.94222,2.90118 0,1.27538 0.675,3.93436 1.5,5.90887 0.825,1.9745 1.5,4.72946 1.5,6.12212 0,1.39267 0.39893,2.53212 0.8865,2.53212 0.48758,0 1.08464,1.35 1.32681,3 l 0.4403,3 -13.0768,0.0137 c -7.19225,0.008 -14.08931,0.285 -15.32681,0.61664 -2.0247,0.54259 -2.25,0.24673 -2.25,-2.95464 0,-1.95669 -0.40294,-3.80665 -0.89542,-4.11102 -0.49248,-0.30437 -1.21432,-4.15593 -1.60408,-8.55901 l -0.70865,-8.00567 -12.33083,0 c -16.77161,0 -17.01758,0.12243 -17.88252,8.90025 -0.38229,3.87957 -1.11883,7.31567 -1.63678,7.63577 -0.51794,0.32011 -0.94171,1.90546 -0.94171,3.523 l 0,2.94098 -13.5,0 c -8.33333,0 -13.5,0.38272 -13.5,1 0,0.55 -0.45,1 -1,1 -0.55,0 -1,-1.09844 -1,-2.44098 z m 6.54327,-6.05902 c 0.37795,-3.025 1.08533,-5.5 1.57195,-5.5 1.17494,0 1.14018,-3.72412 -0.0416,-4.45449 -0.50948,-0.31488 -1.23634,1.90856 -1.61521,4.94099 -0.37887,3.03242 -1.08701,5.5135 -1.57362,5.5135 -0.48664,0 -0.88479,1.125 -0.88479,2.5 0,4.69837 1.85478,2.5105 2.54327,-3 z m 61.14607,-0.25 c -0.25153,-0.9625 -0.45734,-0.175 -0.45734,1.75 0,1.925 0.20581,2.7125 0.45734,1.75 0.25151,-0.9625 0.25151,-2.5375 0,-3.5 z m -0.68934,-6.30902 c 0,-1.61754 -0.45,-2.94098 -1,-2.94098 -0.55,0 -1,1.60156 -1,3.55902 0,2.11803 0.40488,3.30878 1,2.94098 0.55,-0.33992 1,-1.94148 1,-3.55902 z m -56.03048,-9.94098 c 0.46354,0 1.15226,-2.25 1.53048,-5 0.37822,-2.75 1.09545,-5 1.59384,-5 0.49839,0 0.90616,-1.15156 0.90616,-2.55902 0,-3.90761 -1.7365,-1.97298 -2.52605,2.81426 -0.38504,2.33462 -1.09861,4.74016 -1.58571,5.34565 -0.48709,0.60549 -1.0528,3.08049 -1.25712,5.5 -0.20434,2.41951 -0.17642,3.16161 0.062,1.64911 0.23845,-1.5125 0.81282,-2.75 1.27636,-2.75 z m 54.03048,5 c 0,-0.55 -0.47656,-1 -1.05902,-1 -0.58246,0 -0.7809,0.45 -0.44098,1 0.33992,0.55 0.81648,1 1.05903,1 0.24253,0 0.44097,-0.45 0.44097,-1 z m -5.41775,-21.47169 c 0.31565,-1.25766 0.3812,-3.57852 0.14566,-5.15748 -0.32266,-2.16305 -0.46519,-1.82303 -0.57808,1.37917 l -0.14983,4.25 -10,0 c -6.0628,0 -10,0.39746 -10,1.00951 0,0.61887 3.87119,0.97003 10.00417,0.90748 9.54877,-0.0974 10.03029,-0.20612 10.57808,-2.38868 z m -42.89609,-1.50254 c -0.47795,-3.13184 -1.68616,-3.628 -1.68616,-0.69244 0,1.46667 0.44718,2.66667 0.99373,2.66667 0.54654,0 0.85814,-0.8884 0.69243,-1.97423 z m 31.01384,-0.0258 c 9.19337,0 9.3,-0.028 9.3,-2.44098 0,-1.34254 -0.39691,-2.68629 -0.88201,-2.9861 -0.48511,-0.29981 -1.20438,-3.58887 -1.59838,-7.30902 -0.394,-3.72014 -1.06657,-7.2139 -1.49458,-7.7639 -0.42804,-0.55 -1.07993,-3.7 -1.44865,-7 -0.36874,-3.3 -1.15402,-7.23791 -1.74509,-8.7509 -0.80196,-2.05281 -0.76144,-3.12833 0.15965,-4.23817 0.99926,-1.20404 0.92721,-1.60511 -0.37831,-2.10609 -3.05653,-1.1729 -4.61262,0.3468 -4.61262,4.50476 0,2.1848 -0.39087,4.21394 -0.8686,4.50919 -0.47773,0.29526 -1.17896,3.68647 -1.55829,7.53602 -0.37932,3.84956 -1.11345,7.26111 -1.6314,7.58121 -0.51794,0.32011 -0.95752,2.01796 -0.97685,3.773 -0.0505,4.58369 -3.39353,15.91475 -4.4196,14.97991 -0.4792,-0.4366 -0.52062,-0.19178 -0.0927,0.5482 0.55678,0.96287 1.07747,1.03285 1.86032,0.25 0.62696,-0.62698 5.02351,-1.08713 10.3871,-1.08713 z m -30.00701,-6.73097 c -0.25354,-0.97297 -0.47766,-0.41903 -0.49804,1.23097 -0.0204,1.65 0.18706,2.44606 0.46099,1.76903 0.27392,-0.67703 0.29059,-2.02703 0.0371,-3 z m 41.11019,-4.26903 c 0.12572,-1.65 -0.22855,-3 -0.78729,-3 -0.55874,0 -1.01589,1.35 -1.01589,3 0,1.65 0.35428,3 0.7873,3 0.433,0 0.89015,-1.35 1.01589,-3 z m -38.80318,-0.55902 c 0,-0.79254 -0.45,-1.44098 -1,-1.44098 -0.55,0 -1,0.92656 -1,2.05902 0,1.13246 0.45,1.7809 1,1.44098 0.55,-0.33992 1,-1.26648 1,-2.05902 z m 0.69299,-6.17195 c -0.25354,-0.97297 -0.47765,-0.41903 -0.49804,1.23097 -0.0204,1.65 0.18707,2.44606 0.461,1.76903 0.27391,-0.67703 0.29059,-2.02703 0.0371,-3 z m 35.99635,-2.01903 c -0.25153,-0.9625 -0.45734,-0.175 -0.45734,1.75 0,1.925 0.20581,2.7125 0.45734,1.75 0.25151,-0.9625 0.25151,-2.5375 0,-3.5 z m -33.68934,-2.25 c 0,-1.1 -0.45,-2 -1,-2 -0.55,0 -1,0.9 -1,2 0,1.1 0.45,2 1,2 0.55,0 1,-0.9 1,-2 z m 32.73869,-4.53781 c 0.18135,-1.35421 -0.13566,-2.46219 -0.70448,-2.46219 -0.56882,0 -1.03421,1.425 -1.03421,3.16667 0,3.56731 1.23356,3.0675 1.73869,-0.70448 z m -30.66914,-2.46219 c 0.51175,0 0.93045,-1.125 0.93045,-2.5 0,-1.375 -0.39375,-2.5 -0.875,-2.5 -0.92452,0 -2.21916,5.12633 -1.98882,7.875 0.0749,0.89375 0.3312,0.6125 0.56955,-0.625 0.23836,-1.2375 0.85207,-2.25 1.36382,-2.25 z m 28.61978,-6.75 c -0.25153,-0.9625 -0.45733,-0.175 -0.45733,1.75 0,1.925 0.2058,2.7125 0.45733,1.75 0.25152,-0.9625 0.25152,-2.5375 0,-3.5 z m -25.68933,-1.19098 c 0,-1.06754 -0.45,-2.2191 -1,-2.55902 -0.56716,-0.35052 -1,0.48962 -1,1.94098 0,1.40746 0.45,2.55902 1,2.55902 0.55,0 1,-0.87344 1,-1.94098 z m 0.66228,-7.30902 c -0.2774,-0.6875 -0.50439,-0.125 -0.50439,1.25 0,1.375 0.22699,1.9375 0.50439,1.25 0.27742,-0.6875 0.27742,-1.8125 0,-2.5 z m 2.33772,-3.69098 c 0,-1.06754 -0.45,-2.2191 -1,-2.55902 -0.56716,-0.35052 -1,0.48962 -1,1.94098 0,1.40746 0.45,2.55902 1,2.55902 0.55,0 1,-0.87344 1,-1.94098 z m 2.05522,-8.05902 c 0.50731,0 0.82927,-1.125 0.71547,-2.5 -0.11379,-1.375 -0.49987,-2.5 -0.85796,-2.5 -0.7038,0 -1.97868,6.54945 -1.75189,9 0.0763,0.825 0.3263,0.2625 0.55541,-1.25 0.22913,-1.5125 0.83166,-2.75 1.33897,-2.75 z m 3.0112,-11 c 0.51348,0 0.93358,-0.675 0.93358,-1.5 0,-1.24574 1.9352,-1.5 11.41667,-1.5 8.19767,0 11.55888,0.35245 11.92106,1.25 0.30131,0.74674 0.53616,0.54544 0.58333,-0.5 0.0713,-1.58014 -1.17075,-1.75 -12.79606,-1.75 l -12.875,0 -0.625,3.125 c -0.34375,1.71875 -0.55758,3.85625 -0.47517,4.75 0.0824,0.89375 0.33731,0.3875 0.56642,-1.125 0.22913,-1.5125 0.8367,-2.75 1.35017,-2.75 z m 29.39087,247.9309 c -0.31642,-0.51199 0.0565,-0.9309 0.82871,-0.9309 0.77221,0 2.26127,-1.00475 3.30901,-2.23277 1.55082,-1.81765 1.57963,-1.98081 0.15499,-0.87755 -0.9625,0.74536 -1.75,1.07951 -1.75,0.74255 0,-0.33696 -0.9,0.15795 -2,1.0998 -2.02432,1.73328 -2.85744,4.91593 -0.98368,3.75789 0.55896,-0.34546 0.75741,-1.04702 0.44097,-1.55902 z m 12.06917,-10.73777 c -0.30789,-0.30789 -1.11479,-6.4e-4 -1.79313,0.68278 -0.98025,0.98762 -0.8654,1.10248 0.5598,0.5598 0.98622,-0.37553 1.54122,-0.93469 1.23333,-1.24258 z m 17.06855,-17.4259 c 1.16722,-1.36805 1.28843,-1.75869 0.31298,-1.00867 -0.8756,0.67325 -1.8131,1.00299 -2.08333,0.73276 -0.27023,-0.27022 -0.49133,0.18368 -0.49133,1.00868 0,1.91654 0.002,1.91595 2.26168,-0.73277 z m 7.93145,-7.5741 c -0.30789,-0.30789 -1.11479,-6.4e-4 -1.79313,0.68278 -0.98025,0.98762 -0.8654,1.10248 0.5598,0.5598 0.98622,-0.37553 1.54122,-0.93469 1.23334,-1.24258 z m 17.06855,-17.4259 c 1.16722,-1.36805 1.28843,-1.75869 0.31298,-1.00867 -0.8756,0.67325 -1.8131,1.00299 -2.08333,0.73276 -0.27023,-0.27022 -0.49133,0.18368 -0.49133,1.00868 0,1.91654 0.002,1.91595 2.26168,-0.73277 z m 7.93145,-7.5741 c -0.30789,-0.30789 -1.11479,-6.4e-4 -1.79313,0.68278 -0.98026,0.98762 -0.8654,1.10248 0.5598,0.5598 0.98622,-0.37553 1.54122,-0.93469 1.23333,-1.24258 z m 17.06855,-17.4259 c 1.16722,-1.36805 1.28843,-1.75869 0.31298,-1.00867 -0.8756,0.67325 -1.8131,1.00299 -2.08333,0.73276 -0.27023,-0.27022 -0.49133,0.18368 -0.49133,1.00868 0,1.91654 0.002,1.91595 2.26168,-0.73277 z m 7.93145,-7.5741 c -0.30789,-0.30789 -1.11479,-6.4e-4 -1.79313,0.68278 -0.98026,0.98762 -0.8654,1.10248 0.5598,0.5598 0.98622,-0.37553 1.54122,-0.93469 1.23333,-1.24258 z m 17.06855,-17.4259 c 1.16722,-1.36805 1.28843,-1.75869 0.31298,-1.00867 -0.8756,0.67325 -1.8131,1.00299 -2.08333,0.73276 -0.27023,-0.27022 -0.49133,0.18368 -0.49133,1.00868 0,1.91654 0.002,1.91595 2.26168,-0.73277 z m 7.93145,-7.5741 c -0.30789,-0.30789 -1.11479,-6.4e-4 -1.79313,0.68278 -0.98026,0.98762 -0.8654,1.10248 0.5598,0.5598 0.98622,-0.37553 1.54122,-0.93469 1.23333,-1.24258 z m 15.47354,-15.69313 c 1.86578,-1.925 3.16733,-3.5 2.89233,-3.5 -0.27499,0 -2.02655,1.575 -3.89233,3.5 -1.86578,1.925 -3.16733,3.5 -2.89233,3.5 0.275,0 2.02655,-1.575 3.89233,-3.5 z m 9.52646,-9.30687 c -0.30789,-0.30789 -1.11479,-6.4e-4 -1.79313,0.68278 -0.98026,0.98762 -0.8654,1.10248 0.5598,0.5598 0.98622,-0.37553 1.54122,-0.93469 1.23333,-1.24258 z m -90.52646,-60.17535 0,-54.98222 24.25,-0.28641 24.25,-0.28641 -25.25,-0.23137 -25.25,-0.23137 0,55.5 c 0,36.33333 0.34535,55.5 1,55.5 0.65454,0 1,-18.99407 1,-54.98222 z m 97.12756,53.23222 c 1.21431,-1.54837 1.18903,-1.60698 -0.21956,-0.50868 -0.87561,0.68273 -1.96025,0.90773 -2.41033,0.5 -0.45008,-0.40772 -0.49462,-0.17882 -0.099,0.50868 0.92979,1.61569 1.09309,1.58577 2.72886,-0.5 z m 2.87244,-7.41667 c 0,-1.19166 -0.31302,-1.85364 -0.69561,-1.47105 -1.08081,1.08081 -1.23257,3.63772 -0.21591,3.63772 0.50134,0 0.91152,-0.975 0.91152,-2.16667 z m -0.31689,-5.02083 c -0.31922,-0.79773 -0.55618,-0.56078 -0.60416,0.60417 -0.0434,1.05416 0.19293,1.64479 0.52522,1.3125 0.33229,-0.3323 0.36781,-1.1948 0.0789,-1.91667 z m -251.42289,-1.35294 c 1.50688,-1.39726 2.73978,-3.19726 2.73978,-4 0,-0.80274 0.45,-1.45953 1,-1.45953 0.58333,0 1,-3.33333 1,-8 0,-4.4 -0.40523,-8 -0.90049,-8 -0.49529,0 -1.05779,4.01264 -1.25,8.91697 -0.31121,7.93975 -0.61286,9.14525 -2.75252,11 -1.64126,1.42272 -3.78099,2.08303 -6.75,2.08303 -2.39084,0 -4.34699,0.45 -4.34699,1 0,0.55 1.9171,1 4.26022,1 3.17669,0 4.95704,-0.64613 7,-2.54047 z m -78.5771,-1.64703 c -0.31923,-0.79773 -0.55618,-0.56078 -0.60417,0.60417 -0.0434,1.05416 0.19293,1.64479 0.52522,1.3125 0.33229,-0.3323 0.36782,-1.1948 0.0789,-1.91667 z m 3.858,-1.74597 c -0.36253,-0.58659 -1.42009,-1.01433 -2.35013,-0.95053 -1.52451,0.10458 -1.5187,0.16103 0.059,0.57333 0.9625,0.25152 1.75,0.94932 1.75,1.55066 0,0.60134 0.27006,0.82328 0.60013,0.49321 0.33008,-0.33008 0.30352,-1.08008 -0.059,-1.66667 z m 57.45888,-0.53135 c 0,-0.25565 -0.88987,-0.94106 -1.97749,-1.52314 -1.61334,-0.86343 -1.86986,-0.77784 -1.39301,0.46482 0.51799,1.34986 3.3705,2.24553 3.3705,1.05832 z m -28,-7.53518 c 0,-1.1 -0.45,-2 -1,-2 -0.55,0 -1,0.9 -1,2 0,1.1 0.45,2 1,2 0.55,0 1,-0.9 1,-2 z m -2.31067,-7.75 c -0.25153,-0.9625 -0.45732,-0.175 -0.45732,1.75 0,1.925 0.20579,2.7125 0.45732,1.75 0.25153,-0.9625 0.25153,-2.5375 0,-3.5 z m -0.68933,-6.69098 c 0,-2.44254 -0.45,-4.7191 -1,-5.05902 -0.61633,-0.38091 -1,1.32295 -1,4.44098 0,2.78246 0.45,5.05902 1,5.05902 0.55,0 1,-1.99844 1,-4.44098 z m 43.9666,-4.91001 c -0.0931,-1.73196 -0.12364,-4.38651 -0.0679,-5.89901 l 0.1013,-2.75 15,0 c 9.33333,0 15,-0.37778 15,-1 0,-0.625 -6,-1 -16,-1 l -16,0 0,7.55902 c 0,5.10519 0.34667,7.34476 1.06792,6.89901 0.58735,-0.36301 0.99176,-2.07707 0.89868,-3.80902 z m -43.74398,-23.14901 c 0.25127,-4.4 0.27681,-6.5375 0.0567,-4.75 -0.22005,1.7875 -0.82293,3.25 -1.33973,3.25 -0.5168,0 -0.93964,2.565 -0.93964,5.7 0,8.40655 1.68448,5.22346 2.22262,-4.2 z m 242.07021,7.25 c 1.48036,-0.6875 2.69508,-1.5875 2.69937,-2 0.004,-0.4125 0.61709,-0.75 1.36178,-0.75 1.63811,0 6.64602,-4.48514 6.64602,-5.95225 0,-0.57626 0.38057,-1.04775 0.84571,-1.04775 1.22623,0 1.39197,-10.73507 0.17733,-11.48576 -0.64625,-0.3994 -1.02304,1.24394 -1.02304,4.46193 0,6.86155 -3.3709,12.32586 -8.3792,13.58287 -1.44144,0.36178 -2.6208,1.05899 -2.6208,1.54937 0,0.49037 -3.825,0.89159 -8.5,0.89159 -5,0 -8.5,-0.41176 -8.5,-1 0,-0.55 -0.51974,-1 -1.15499,-1 -0.65499,0 -0.37144,0.86581 0.65499,2 1.46409,1.6178 3.07997,2 8.45562,2 3.65511,0 7.85685,-0.5625 9.33722,-1.25 z m -3.79283,-3.75 c 0.33992,-0.55 1.3365,-1 2.21463,-1 4.90357,0 11.68956,-10.18038 9.78242,-14.67565 -0.4257,-1.00339 -0.69471,-3.17435 -0.59781,-4.82435 0.14281,-2.43163 -0.43979,-3.34596 -3.07513,-4.82609 -3.52338,-1.97888 -15.00394,-3.34756 -19.2147,-2.29072 l -2.60941,0.65491 0,13.39762 c 0,9.78242 0.3373,13.53372 1.25,13.902 2.3059,0.93045 11.62501,0.67353 12.25,-0.33772 z m -235.5,-14.41667 c 0,-0.77916 0.53096,-1.59365 1.17991,-1.80997 0.76821,-0.25606 0.88867,-1.07024 0.34525,-2.33333 -0.81855,-1.90255 -0.84322,-1.9014 -1.27698,0.06 -0.24327,1.1 -0.84862,2.4275 -1.34524,2.95 -1.19691,1.25927 -1.14778,2.54997 0.0971,2.54997 0.55,0 1,-0.6375 1,-1.41667 z m 2.68312,-7.77083 c -0.31923,-0.79773 -0.55618,-0.56078 -0.60417,0.60417 -0.0434,1.05416 0.19293,1.64479 0.52522,1.3125 0.33229,-0.3323 0.36782,-1.1948 0.0789,-1.91667 z m 8.99941,-10.71149 c 2.94406,-2.96945 5.11724,-5.63457 4.82931,-5.92251 -0.89843,-0.89842 -11.51617,10.819 -11.43289,12.61699 0.0643,1.38835 0.18763,1.42628 0.66486,0.20451 0.32224,-0.825 2.99467,-3.92955 5.93872,-6.89899 z m 259.81747,3.89899 c 0.33992,-0.55 0.14148,-1 -0.44098,-1 -0.58246,0 -1.05902,0.45 -1.05902,1 0,0.55 0.19844,1 0.44098,1 0.24255,0 0.71911,-0.45 1.05902,-1 z m -2.5,-5.44098 c 0,-0.24254 -0.45,-0.7191 -1,-1.05902 -0.55,-0.33992 -1,-0.14148 -1,0.44098 0,0.58246 0.45,1.05902 1,1.05902 0.55,0 1,-0.19844 1,-0.44098 z m -3,-2.45203 c 0,-0.49116 -0.65208,-1.14324 -1.44907,-1.44907 -0.96852,-0.37166 -1.26467,-0.0755 -0.89301,0.89301 0.60696,1.58173 2.34208,1.99368 2.34208,0.55606 z m -246,-3.10699 c 0,-0.55 0.75,-1 1.66667,-1 0.91667,0 1.40058,-0.26609 1.07536,-0.59131 -0.83421,-0.83421 -4.74203,0.53268 -4.74203,1.6587 0,0.51293 0.45,0.93261 1,0.93261 0.55,0 1,-0.45 1,-1 z m 242,0.0795 c 0,-1.08412 -5.86985,-2.54294 -6.73817,-1.67462 -0.32734,0.32734 0.37984,0.59516 1.5715,0.59516 1.19167,0 2.16667,0.45 2.16667,1 0,0.55 0.675,1 1.5,1 0.825,0 1.5,-0.41425 1.5,-0.92054 z m -196.27083,-1.68363 c -0.33229,-0.33229 -1.1948,-0.36781 -1.91667,-0.0789 -0.79773,0.31922 -0.56077,0.55618 0.60417,0.60416 1.05417,0.0434 1.64479,-0.19292 1.3125,-0.52522 z m -37.72917,-1.39587 c 0,-0.55 1.46251,-1.03553 3.25,-1.07895 1.7875,-0.0434 2.65937,-0.3153 1.93749,-0.60417 -2.02222,-0.80922 -10.30117,0.69016 -9.64782,1.7473 0.77466,1.25343 4.46033,1.2004 4.46033,-0.0642 z m 34.44193,0.094 c 0.62333,-1.00858 -9.21911,-2.65012 -10.17262,-1.69661 -0.33145,0.33145 0.82236,0.60264 2.56402,0.60264 1.74167,0 3.16667,0.45 3.16667,1 0,1.24766 3.68078,1.32553 4.44193,0.094 z m 191.55807,-0.094 c 0,-0.55 -1.60156,-1 -3.55902,-1 -2.11802,0 -3.30878,0.40488 -2.94098,1 0.33992,0.55 1.94148,1 3.55902,1 1.61754,0 2.94098,-0.45 2.94098,-1 z m -203.85391,-3.11145 c 0.81111,-0.51397 -2.25429,-0.85792 -7.64609,-0.85792 -5.64123,0 -8.47564,0.33196 -7.59495,0.88953 1.78581,1.13058 13.44511,1.1064 15.24104,-0.0316 z m 37.38037,-24.69542 c -0.30789,-0.30789 -1.11479,-6.4e-4 -1.79313,0.68278 -0.98025,0.98762 -0.8654,1.10248 0.5598,0.5598 0.98622,-0.37553 1.54122,-0.9347 1.23333,-1.24258 z m 25,-25 c -0.30789,-0.30789 -1.11479,-6.4e-4 -1.79313,0.68278 -0.98025,0.98762 -0.8654,1.10248 0.5598,0.5598 0.98622,-0.37553 1.54122,-0.9347 1.23333,-1.24258 z m 14.47354,-13.58614 c 0,-0.21616 -0.675,-0.65203 -1.5,-0.96862 -0.825,-0.31658 -1.5,-0.13972 -1.5,0.39301 0,0.53274 0.675,0.96862 1.5,0.96862 0.825,0 1.5,-0.17686 1.5,-0.39301 z m 17,-0.048 c 0,-0.24254 -0.45,-0.7191 -1,-1.05902 -0.55,-0.33992 -1,-0.14147 -1,0.44098 0,0.58246 0.45,1.05902 1,1.05902 0.55,0 1,-0.19844 1,-0.44098 z m -11.73097,-4.21496 c -0.67703,-0.27392 -2.02703,-0.29059 -3,-0.0371 -0.97297,0.25355 -0.41903,0.47767 1.23097,0.49805 1.65001,0.0204 2.44606,-0.18707 1.76903,-0.46099 z m 5.98097,-0.006 c -0.6875,-0.27741 -1.8125,-0.27741 -2.5,0 -0.6875,0.27742 -0.125,0.50439 1.25,0.50439 1.375,0 1.9375,-0.22697 1.25,-0.50439 z m 13.25,332.66224 c 0.33992,-0.55 0.81648,-1 1.05903,-1 0.24253,0 0.44097,0.45 0.44097,1 0,0.55 -0.47656,1 -1.05902,1 -0.58246,0 -0.7809,-0.45 -0.44098,-1 z m 3,-3 c 0.33992,-0.55 0.81648,-1 1.05903,-1 0.24253,0 0.44097,0.45 0.44097,1 0,0.55 -0.47656,1 -1.05902,1 -0.58246,0 -0.7809,-0.45 -0.44098,-1 z m 8,-8 c 0.33992,-0.55 0.81648,-1 1.05903,-1 0.24253,0 0.44097,0.45 0.44097,1 0,0.55 -0.47656,1 -1.05902,1 -0.58246,0 -0.7809,-0.45 -0.44098,-1 z m 3,-3 c 0.33992,-0.55 0.81648,-1 1.05903,-1 0.24253,0 0.44097,0.45 0.44097,1 0,0.55 -0.47656,1 -1.05902,1 -0.58246,0 -0.7809,-0.45 -0.44098,-1 z m 11,-11 c 0.33992,-0.55 0.81648,-1 1.05903,-1 0.24253,0 0.44097,0.45 0.44097,1 0,0.55 -0.47656,1 -1.05902,1 -0.58246,0 -0.7809,-0.45 -0.44098,-1 z m 3,-3 c 0.33992,-0.55 0.81648,-1 1.05903,-1 0.24253,0 0.44097,0.45 0.44097,1 0,0.55 -0.47656,1 -1.05902,1 -0.58246,0 -0.7809,-0.45 -0.44098,-1 z m 8,-8 c 0.33992,-0.55 0.81648,-1 1.05902,-1 0.24254,0 0.44098,0.45 0.44098,1 0,0.55 -0.47656,1 -1.05902,1 -0.58246,0 -0.78089,-0.45 -0.44098,-1 z m 3,-3 c 0.33992,-0.55 0.81648,-1 1.05902,-1 0.24254,0 0.44098,0.45 0.44098,1 0,0.55 -0.47656,1 -1.05902,1 -0.58246,0 -0.78089,-0.45 -0.44098,-1 z m 11,-11 c 0.33992,-0.55 0.81648,-1 1.05902,-1 0.24254,0 0.44098,0.45 0.44098,1 0,0.55 -0.47656,1 -1.05902,1 -0.58246,0 -0.78089,-0.45 -0.44098,-1 z m 3,-3 c 0.33992,-0.55 0.81648,-1 1.05902,-1 0.24254,0 0.44098,0.45 0.44098,1 0,0.55 -0.47656,1 -1.05902,1 -0.58246,0 -0.78089,-0.45 -0.44098,-1 z m 8,-8 c 0.33992,-0.55 0.81648,-1 1.05902,-1 0.24254,0 0.44098,0.45 0.44098,1 0,0.55 -0.47656,1 -1.05902,1 -0.58246,0 -0.78089,-0.45 -0.44098,-1 z m 3,-3 c 0.33992,-0.55 0.81648,-1 1.05902,-1 0.24254,0 0.44098,0.45 0.44098,1 0,0.55 -0.47656,1 -1.05902,1 -0.58246,0 -0.78089,-0.45 -0.44098,-1 z m 11,-11 c 0.33992,-0.55 0.81648,-1 1.05902,-1 0.24254,0 0.44098,0.45 0.44098,1 0,0.55 -0.47656,1 -1.05902,1 -0.58246,0 -0.78089,-0.45 -0.44098,-1 z m 3,-3 c 0.33992,-0.55 0.81648,-1 1.05902,-1 0.24254,0 0.44098,0.45 0.44098,1 0,0.55 -0.47656,1 -1.05902,1 -0.58246,0 -0.78089,-0.45 -0.44098,-1 z m 8,-8 c 0.33992,-0.55 0.81648,-1 1.05902,-1 0.24254,0 0.44098,0.45 0.44098,1 0,0.55 -0.47656,1 -1.05902,1 -0.58246,0 -0.78089,-0.45 -0.44098,-1 z m 3,-3 c 0.33992,-0.55 0.81648,-1 1.05902,-1 0.24254,0 0.44098,0.45 0.44098,1 0,0.55 -0.47656,1 -1.05902,1 -0.58246,0 -0.78089,-0.45 -0.44098,-1 z m 11,-11 c 0.33992,-0.55 0.81648,-1 1.05902,-1 0.24254,0 0.44098,0.45 0.44098,1 0,0.55 -0.47656,1 -1.05902,1 -0.58246,0 -0.78089,-0.45 -0.44098,-1 z m 3,-3 c 0.33992,-0.55 0.81648,-1 1.05902,-1 0.24254,0 0.44098,0.45 0.44098,1 0,0.55 -0.47656,1 -1.05902,1 -0.58246,0 -0.78089,-0.45 -0.44098,-1 z m 8,-8 c 0.33992,-0.55 0.81648,-1 1.05902,-1 0.24254,0 0.44098,0.45 0.44098,1 0,0.55 -0.47656,1 -1.05902,1 -0.58246,0 -0.78089,-0.45 -0.44098,-1 z m 3,-3 c 0.33992,-0.55 0.81648,-1 1.05902,-1 0.24254,0 0.44098,0.45 0.44098,1 0,0.55 -0.47656,1 -1.05902,1 -0.58246,0 -0.78089,-0.45 -0.44098,-1 z m 11,-11 c 0.33992,-0.55 0.81648,-1 1.05902,-1 0.24254,0 0.44098,0.45 0.44098,1 0,0.55 -0.47656,1 -1.05902,1 -0.58246,0 -0.78089,-0.45 -0.44098,-1 z m 3,-3 c 0.33992,-0.55 0.81648,-1 1.05902,-1 0.24254,0 0.44098,0.45 0.44098,1 0,0.55 -0.47656,1 -1.05902,1 -0.58246,0 -0.78089,-0.45 -0.44098,-1 z m 8,-8 c 0.33992,-0.55 0.81648,-1 1.05902,-1 0.24254,0 0.44098,0.45 0.44098,1 0,0.55 -0.47656,1 -1.05902,1 -0.58246,0 -0.78089,-0.45 -0.44098,-1 z m 3,-3 c 0.33992,-0.55 0.81648,-1 1.05902,-1 0.24254,0 0.44098,0.45 0.44098,1 0,0.55 -0.47656,1 -1.05902,1 -0.58246,0 -0.78089,-0.45 -0.44098,-1 z m 12.65812,-13 c 1.2199,-1.65 2.38381,-3 2.58647,-3 0.20267,0 -0.42898,1.35 -1.40366,3 -0.97467,1.65 -2.13859,3 -2.58647,3 -0.44789,0 0.18376,-1.35 1.40366,-3 z m 3.65317,-7.50927 c 0.22533,-1.9301 0.88644,-3.80392 1.46914,-4.16404 0.67145,-0.41499 0.8141,-0.0154 0.38951,1.09105 -0.36847,0.96021 -0.66994,2.83403 -0.66994,4.16405 0,1.33001 -0.35964,2.41821 -0.7992,2.41821 -0.43955,0 -0.61484,-1.57917 -0.3895,-3.50927 z"
       id="path4265"
       inkscape:connector-curvature="0" />
    <use
       style="fill:#ffcc00"
       height="100%"
       width="100%"
       y="0"
       x="0"
       id="use4209"
       transform="matrix(24.27051,-17.633558,-17.633558,-24.27051,481.04288,113.50645)"
       xlink:href="#s" />
    <use
       style="fill:#ffcc00"
       height="100%"
       width="100%"
       y="0"
       x="0"
       id="use4209-6"
       transform="matrix(24.27051,-17.633558,-17.633558,-24.27051,481.04288,113.50645)"
       xlink:href="#s" />
    <use
       style="fill:#ffcc00"
       height="100%"
       width="100%"
       y="0"
       x="0"
       id="use4209-68"
       transform="matrix(24.27051,-17.633558,-17.633558,-24.27051,481.04288,113.50645)"
       xlink:href="#s" />
  </g>
</svg>
