<?xml version="1.0" encoding="UTF-8" standalone="no"?>
<svg
   xmlns:dc="http://purl.org/dc/elements/1.1/"
   xmlns:cc="http://creativecommons.org/ns#"
   xmlns:rdf="http://www.w3.org/1999/02/22-rdf-syntax-ns#"
   xmlns:svg="http://www.w3.org/2000/svg"
   xmlns="http://www.w3.org/2000/svg"
   xmlns:xlink="http://www.w3.org/1999/xlink"
   xmlns:sodipodi="http://sodipodi.sourceforge.net/DTD/sodipodi-0.dtd"
   xmlns:inkscape="http://www.inkscape.org/namespaces/inkscape"
   version="1.1"
   width="810"
   height="540"
   id="svg2"
   inkscape:version="0.91 r13725"
   sodipodi:docname="logo.svg">
  <metadata
     id="metadata43">
    <rdf:RDF>
      <cc:Work
         rdf:about="">
        <dc:format>image/svg+xml</dc:format>
        <dc:type
           rdf:resource="http://purl.org/dc/dcmitype/StillImage" />
      </cc:Work>
    </rdf:RDF>
  </metadata>
  <sodipodi:namedview
     pagecolor="#ffffff"
     bordercolor="#666666"
     borderopacity="1"
     objecttolerance="10"
     gridtolerance="10"
     guidetolerance="10"
     inkscape:pageopacity="0"
     inkscape:pageshadow="2"
     inkscape:window-width="1920"
     inkscape:window-height="1051"
     id="namedview41"
     showgrid="false"
     inkscape:zoom="2.4722548"
     inkscape:cx="443.98275"
     inkscape:cy="318.80765"
     inkscape:window-x="0"
     inkscape:window-y="0"
     inkscape:window-maximized="1"
     inkscape:current-layer="svg2" />
  <desc
     id="desc4">European flag</desc>
  <defs
     id="defs6">
    <g
       id="s">
      <g
         id="c">
        <path
           id="t"
           d="M0,0v1h0.5z"
           transform="translate(0,-1)rotate(18)" />
        <use
           xlink:href="#t"
           transform="scale(-1,1)"
           id="use11" />
      </g>
      <g
         id="a">
        <use
           xlink:href="#c"
           transform="rotate(72)"
           id="use14" />
        <use
           xlink:href="#c"
           transform="rotate(144)"
           id="use16" />
      </g>
      <use
         xlink:href="#a"
         transform="scale(-1,1)"
         id="use18" />
    </g>
  </defs>
  <rect
     width="810"
     height="540"
     id="rect20"
     x="14.157117"
     y="0.80897802"
     style="fill:#003399;stroke-width:0.4;stroke-miterlimit:4;stroke-dasharray:none;stroke:#003399;stroke-opacity:1" />
  <use
     height="100%"
     width="100%"
     x="0"
     style="fill:#ffcc00"
     id="use24"
     y="-6"
     xlink:href="#s"
     transform="matrix(30,0,0,30,405,270)" />
  <use
     style="fill:#ffcc00"
     xlink:href="#s"
     x="-6"
     id="use29"
     y="0"
     width="100%"
     height="100%"
     transform="matrix(30,0,0,30,405,270)" />
  <use
     style="fill:#ffcc00"
     xlink:href="#s"
     transform="matrix(-24.27051,-17.633558,17.633558,-24.27051,315,114.11543)"
     id="use31"
     x="0"
     y="0"
     width="100%"
     height="100%" />
  <use
     style="fill:#ffcc00"
     xlink:href="#s"
     transform="matrix(-24.27051,17.633558,-17.633558,-24.27051,249.11543,180)"
     id="use33"
     x="0"
     y="0"
     width="100%"
     height="100%" />
  <use
     style="fill:#ffcc00"
     xlink:href="#s"
     transform="matrix(9.2705097,28.531696,-28.531696,9.2705097,249.11543,360)"
     id="use35"
     x="0"
     y="0"
     width="100%"
     height="100%" />
  <use
     style="fill:#ffcc00"
     height="100%"
     width="100%"
     y="0"
     id="use4207"
     x="-6"
     xlink:href="#s"
     transform="matrix(-30,0,0,30,405,270)" />
  <use
     style="fill:#ffcc00"
     height="100%"
     width="100%"
     y="0"
     x="0"
     id="use4209"
     transform="matrix(24.27051,-17.633558,-17.633558,-24.27051,495,114.11543)"
     xlink:href="#s" />
  <use
     style="fill:#ffcc00"
     height="100%"
     width="100%"
     y="0"
     x="0"
     id="use4211"
     transform="matrix(24.27051,17.633558,17.633558,-24.27051,560.88457,180)"
     xlink:href="#s" />
  <use
     style="fill:#ffcc00"
     height="100%"
     width="100%"
     y="0"
     x="0"
     id="use4213"
     transform="matrix(-9.2705097,28.531696,28.531696,9.2705097,560.88457,360)"
     xlink:href="#s" />
  <rect
     style="opacity:1;fill:none;fill-opacity:1;stroke:#ffcc00;stroke-width:6;stroke-miterlimit:4;stroke-dasharray:none;stroke-opacity:1"
     id="rect4227"
     width="204.69336"
     height="100.33512"
     x="304.16489"
     y="366.05884"
     ry="0" />
  <path
     style="fill:none;fill-rule:evenodd;stroke:#ffcc00;stroke-width:6;stroke-linecap:butt;stroke-linejoin:miter;stroke-miterlimit:4;stroke-dasharray:none;stroke-opacity:1"
     d="m 507.63376,365.66521 55.01051,-61.48232"
     id="path4246-9"
     inkscape:connector-curvature="0"
     sodipodi:nodetypes="cc" />
  <use
     x="0"
     y="0"
     xlink:href="#path4246-9"
     id="use4290"
     transform="matrix(-1,0,0,1,813.02298,-0.80897811)"
     width="100%"
     height="100%"
     inkscape:transform-center-x="1.6179562"
     inkscape:transform-center-y="3.2359124" />
  <text
     xml:space="preserve"
     style="font-style:normal;font-variant:normal;font-weight:normal;font-stretch:normal;font-size:80px;line-height:125%;font-family:sans-serif;-inkscape-font-specification:'sans-serif, Normal';text-align:start;writing-mode:lr-tb;text-anchor:start;opacity:1;fill:#ffcc00;fill-opacity:1;stroke:#ffcc00;stroke-width:3;stroke-miterlimit:4;stroke-dasharray:none;stroke-opacity:1"
     x="313.88351"
     y="446.15851"
     id="text4319"
     sodipodi:linespacing="125%"><tspan
       sodipodi:role="line"
       id="tspan4321"
       x="313.88351"
       y="446.15851">ODK</tspan></text>
  <text
     xml:space="preserve"
     style="font-style:normal;font-variant:normal;font-weight:normal;font-stretch:normal;font-size:125px;line-height:100%;font-family:'Times New Roman';-inkscape-font-specification:'Times New Roman, Normal';text-align:start;writing-mode:lr-tb;text-anchor:start;opacity:1;fill:#ffcc00;fill-opacity:1;stroke:#003399;stroke-width:3.20000005;stroke-miterlimit:4;stroke-dasharray:none;stroke-opacity:1"
     x="295.68146"
     y="336.9465"
     id="text4323"
     sodipodi:linespacing="100%"><tspan
       sodipodi:role="line"
       id="tspan4325"
       x="295.68146"
       y="336.9465">π</tspan></text>
  <path
     style="fill:none;fill-rule:evenodd;stroke:#ffcc00;stroke-width:6;stroke-linecap:butt;stroke-linejoin:miter;stroke-miterlimit:4;stroke-dasharray:none;stroke-opacity:1"
     d="m 536.72684,99.219373 c -35.31253,-64.590991 -87.15043,-28.059855 -89.17768,32.959137 -58.55574,25.37088 -49.14167,75.65359 38.23317,78.02412 87.37484,2.37053 153.73224,4.70669 209.65138,1.98178 96.1352,-4.68462 88.6847,-61.93455 16.28391,-80.76815 C 729.94598,51.97597 656.27438,70.073204 642.92728,91.449741 612.50914,-12.388383 533.2943,64.763267 536.72684,99.219373 Z"
     id="path4371"
     inkscape:connector-curvature="0"
     sodipodi:nodetypes="cczsccc" />
  <path
     style="fill:#ffcc00;fill-opacity:1"
     d="m 315.08458,283.82976 c -1.79416,-0.801 -3.35525,-1.09811 -5.95943,-1.13423 -2.04383,-0.0283 -3.40721,0.12984 -3.24028,0.37596 0.15851,0.2337 -0.96397,0.56746 -2.49441,0.7417 -3.05825,0.34816 -5.27049,-0.47289 -5.34631,-1.98425 -0.0219,-0.43681 -0.13601,-0.5858 -0.25354,-0.33109 -0.11753,0.25472 -1.23452,0.38915 -2.48219,0.29873 -1.24767,-0.0904 -2.14009,-0.3537 -1.98317,-0.58506 0.42439,-0.62569 3.70104,-1.7864 5.04295,-1.7864 1.28084,0 2.09979,0.73223 1.14373,1.02261 -0.34015,0.10331 -0.42815,0.43067 -0.20446,0.76047 0.21603,0.31849 0.70321,0.47053 1.08263,0.33786 0.37942,-0.13266 0.81092,-0.0627 0.95888,0.15542 0.3186,0.46972 2.28689,0.0806 2.28689,-0.45211 0,-0.20237 -0.28391,-0.47232 -0.6309,-0.59989 -0.34699,-0.12758 -0.1388,-0.2483 0.46266,-0.26827 0.60145,-0.02 1.18496,0.21357 1.29669,0.51898 0.13461,0.36798 0.60655,0.21284 1.39902,-0.45989 1.18687,-1.00754 2.33036,-1.39235 1.79588,-0.60435 -0.39501,0.58237 1.98752,1.04364 3.5477,0.68683 0.9677,-0.2213 1.13246,-0.40191 0.63089,-0.69155 -0.44862,-0.25907 -0.47711,-0.39442 -0.084,-0.39907 0.32717,-0.004 0.93553,0.30338 1.35192,0.68279 0.41639,0.37941 0.98419,0.68984 1.26179,0.68984 0.27759,0 0.81543,0.28312 1.1952,0.62916 0.37977,0.34604 1.2477,0.7735 1.92873,0.94991 0.94646,0.24516 1.05985,0.20693 0.48118,-0.16223 -1.03079,-0.65759 -0.0849,-0.63354 2.89487,0.0736 3.13414,0.7438 3.89144,1.37949 2.55164,2.1419 -0.82511,0.46953 -0.94037,0.46327 -0.63048,-0.0343 0.30508,-0.4898 0.24634,-0.49644 -0.30049,-0.0339 -1.09965,0.93004 -5.02857,0.65505 -7.70358,-0.53919 z m 21.3578,-0.82513 c -1.52676,-0.24462 -4.84755,-0.41451 -7.37954,-0.37753 l -4.6036,0.0672 -1.9577,-1.70034 -1.9577,-1.70034 1.51415,0.29879 c 4.23278,0.83526 4.94908,0.8921 4.59112,0.36434 -0.46425,-0.68447 0.45435,-0.68402 1.65781,9.2e-4 1.08262,0.61606 2.81475,0.1804 2.30002,-0.57849 -0.44314,-0.65333 1.72628,-0.0905 2.80715,0.72832 1.28857,0.97613 5.26989,1.21494 7.01675,0.42089 0.93846,-0.42658 2.00839,-0.57912 2.69541,-0.38427 1.10839,0.31436 1.11473,0.29809 0.23418,-0.60097 -1.0496,-1.07168 -0.28509,-1.61745 1.40976,-1.00641 0.55519,0.20016 0.78231,0.39302 0.50472,0.42857 -0.2776,0.0356 -0.0505,0.24251 0.50471,0.45989 1.37972,0.54023 5.43081,0.56563 5.06872,0.0318 -0.15972,-0.23546 -0.0596,-0.5581 0.22257,-0.71698 0.28212,-0.15887 0.51294,-0.0697 0.51294,0.19817 0,0.84535 0.92739,0.52729 1.26179,-0.43275 0.41885,-1.20245 2.603,-1.20245 4.29009,0 1.17409,0.83683 1.19163,0.90511 0.25235,0.98242 -0.55518,0.0457 -1.44475,0.0466 -1.9768,0.002 -0.53205,-0.0446 -1.51544,0.38829 -2.18529,0.96189 -1.0134,0.86778 -1.82566,1.0532 -4.83687,1.10419 -4.52048,0.0765 -7.19674,0.53638 -7.95283,1.36651 -0.32147,0.35294 -0.72703,0.61591 -0.90123,0.58435 -0.17421,-0.0314 -1.56591,-0.2574 -3.09268,-0.50202 z m -27.96985,-3.97768 c -0.21742,-0.32055 -0.259,-0.70701 -0.0924,-0.85881 0.45171,-0.41158 0.94421,0.19376 0.70024,0.86067 -0.17096,0.46732 -0.28984,0.46696 -0.60783,-0.002 z m -25.11949,-2.47615 c -0.1146,-1.08304 -0.43614,-1.53124 -1.16759,-1.62753 -0.55519,-0.0731 -1.27196,-0.64221 -1.59284,-1.2647 -0.54886,-1.06479 -0.49656,-1.13182 0.88325,-1.13182 0.80954,0 1.93406,0.4259 2.50987,0.95056 0.86767,0.79061 1.1744,0.85133 1.82296,0.36088 1.30208,-0.98465 1.63261,-2.38164 0.72301,-3.05578 -0.71472,-0.52972 -0.67567,-0.56824 0.32237,-0.31798 0.96394,0.2417 1.13561,0.10625 1.13561,-0.89597 0,-0.6494 0.22712,-1.18072 0.50472,-1.18072 0.27759,0 0.50471,-0.40417 0.50471,-0.89815 0,-1.06552 0.99666,-3.22879 1.87346,-4.06637 0.3429,-0.32756 0.86471,-1.41197 1.15959,-2.4098 0.40029,-1.35457 0.85853,-1.88798 1.80854,-2.10524 l 1.27241,-0.29099 -1.09159,-0.92666 c -0.82382,-0.69934 -1.18731,-0.78555 -1.48176,-0.35143 -0.21459,0.31637 -0.47444,0.37688 -0.57744,0.13444 -0.103,-0.24242 -0.79816,-0.57708 -1.5448,-0.74367 -1.03638,-0.23124 -1.69307,-0.03 -2.77593,0.8507 -1.12656,0.91623 -1.21072,1.09871 -0.40898,0.88686 0.90357,-0.23877 0.91792,-0.21305 0.13686,0.24528 -0.47991,0.28161 -0.96709,0.45245 -1.08262,0.37964 -0.53946,-0.33996 -2.2363,1.63612 -1.96273,2.28573 0.20082,0.47684 0.10355,0.60914 -0.28639,0.38954 -0.33117,-0.18649 -0.61606,-0.0681 -0.64871,0.26948 -0.032,0.3311 -0.0888,0.89461 -0.12618,1.25225 -0.0799,0.76417 -1.32975,1.26967 -1.32975,0.5378 0,-0.27401 -0.62458,-0.51133 -1.38797,-0.52736 l -1.38796,-0.0292 1.26179,-0.48634 1.26178,-0.48634 -1.42023,-0.37238 c -0.78113,-0.20481 -1.74519,-0.61812 -2.14235,-0.91846 -0.39717,-0.30034 -1.17735,-0.43761 -1.73374,-0.30503 -0.55639,0.13258 -1.15379,0.0314 -1.32757,-0.22477 -0.19941,-0.294 -0.46465,-0.24657 -0.7191,0.12858 -0.67242,0.99137 -1.9995,-0.39559 -1.95877,-2.04715 0.0295,-1.19511 0.10414,-1.2828 0.44156,-0.51855 0.22335,0.50588 0.30754,1.07499 0.1871,1.2647 -0.306,0.48196 0.44997,0.41781 1.35473,-0.11497 0.41639,-0.24519 0.49895,-0.44898 0.18346,-0.45285 -0.31548,-0.004 -0.6728,-0.62287 -0.79404,-1.37556 -0.166,-1.0306 -0.0701,-1.25482 0.38849,-0.90804 0.4288,0.32426 0.70904,0.22274 0.94737,-0.34318 0.27487,-0.65268 0.4194,-0.68432 0.76932,-0.16842 0.23698,0.34938 0.32798,0.87954 0.20224,1.17813 -0.12575,0.29859 0.16598,0.83473 0.64829,1.19143 0.48231,0.3567 0.72233,0.41339 0.53337,0.12597 -0.20025,-0.30459 0.0963,-0.6274 0.71097,-0.77386 0.72295,-0.17226 0.92197,-0.44176 0.63294,-0.85709 -0.23187,-0.3332 -0.42507,-1.17722 -0.42932,-1.8756 -0.006,-0.95231 0.18156,-1.19733 0.74935,-0.97998 0.41639,0.15939 1.05075,0.29965 1.40969,0.31168 0.35893,0.012 0.5364,0.2978 0.39437,0.63506 -0.46296,1.09931 0.6256,0.64541 1.67614,-0.69891 0.56395,-0.72165 2.30114,-2.11273 3.86044,-3.09128 2.4339,-1.52742 2.79897,-1.94371 2.57987,-2.94189 -0.21685,-0.98797 -0.0713,-1.16271 0.96873,-1.16271 0.67316,0 1.22393,0.15521 1.22393,0.34491 0,0.18971 -0.34068,0.34492 -0.75707,0.34492 -0.41639,0 -0.75707,0.20695 -0.75707,0.45989 0,0.71943 0.5252,0.55482 2.41058,-0.75551 1.56275,-1.08611 1.65408,-1.2637 0.85847,-1.6694 -0.77847,-0.39696 -0.6764,-0.53595 0.81253,-1.1064 1.36986,-0.52482 1.55674,-0.7407 0.95567,-1.10391 -0.53992,-0.32628 -0.36632,-0.37098 0.62588,-0.16116 0.93884,0.19854 1.63646,0.0503 2.20601,-0.46862 0.77414,-0.70539 0.74257,-0.73832 -0.44702,-0.46626 -0.77279,0.17673 -1.98473,-0.012 -3.05853,-0.4763 -0.97821,-0.42297 -2.18985,-0.67502 -2.69254,-0.56012 -0.66774,0.15262 -0.49472,0.29842 0.64223,0.54116 0.85591,0.18274 1.5562,0.62371 1.5562,0.97994 0,0.7708 -0.11674,0.78719 -1.34403,0.18869 -0.68976,-0.33636 -1.14319,-0.27493 -1.69728,0.22995 -0.41584,0.37891 -0.99942,0.68892 -1.29684,0.68892 -0.29742,0 -0.54076,0.20696 -0.54076,0.4599 0,0.25294 -0.34781,0.45989 -0.77292,0.45989 -0.4251,0 -0.90364,0.31042 -1.06343,0.68983 -0.15978,0.37941 -0.58845,0.68984 -0.95258,0.68984 -0.36414,0 -1.41187,0.72433 -2.32829,1.60962 -0.91641,0.88529 -1.87261,1.60961 -2.12487,1.60961 -0.91201,0 -4.16785,3.07221 -3.9353,3.71335 0.20259,0.55854 0.11354,0.56216 -0.60135,0.0244 -0.57027,-0.42891 -0.83916,-0.46112 -0.83916,-0.10052 0,0.29185 0.34069,0.64976 0.75708,0.79535 1.24185,0.43423 0.86079,0.9328 -0.71294,0.9328 -1.37227,0 -1.48167,-0.13349 -1.64524,-2.00742 -0.15606,-1.78791 -0.0983,-1.91781 0.52849,-1.18804 0.66036,0.76889 0.68167,0.7627 0.34605,-0.10043 -0.41506,-1.0674 -0.42163,-1.10994 -0.34264,-2.2182 0.0726,-1.0182 1.82628,-0.86936 1.82628,0.155 0,1.41751 1.80801,0.54898 5.75718,-2.76565 1.87252,-1.57165 4.99451,-3.65746 6.26208,-4.18371 1.7564,-0.72919 1.7303,-1.33498 -0.0575,-1.33498 -0.77726,0 -1.69142,-0.25351 -2.03146,-0.56335 -0.48787,-0.44453 -0.83756,-0.43855 -1.65809,0.0284 -0.91431,0.52029 -1.01859,0.49113 -0.86379,-0.24146 0.15817,-0.74853 0.80746,-0.83621 6.39063,-0.86306 4.45083,-0.0214 6.32704,-0.19569 6.61086,-0.61414 0.21796,-0.32134 0.48446,-0.52928 0.59222,-0.46208 0.40687,0.25374 6.50487,-1.16947 6.50487,-1.51817 0,-0.20076 0.47855,-0.36503 1.06343,-0.36503 0.72398,0 0.97335,-0.21389 0.78123,-0.67008 -0.22986,-0.54582 -0.0411,-0.58656 1.01778,-0.21973 1.02656,0.35564 1.42998,0.28834 1.91813,-0.31996 0.33999,-0.42367 0.87975,-0.623 1.19945,-0.44297 0.31971,0.18005 0.58128,0.11616 0.58128,-0.14195 0,-0.25812 0.93855,-0.69959 2.08567,-0.98104 2.18907,-0.53711 3.74124,-1.22369 4.84169,-2.14165 0.53526,-0.4465 0.49199,-0.64121 -0.23284,-1.04768 -0.78253,-0.43882 -0.73756,-0.49152 0.3715,-0.43542 2.90066,0.14672 3.75986,-0.0152 3.12924,-0.58986 -0.92701,-0.84468 -0.72145,-1.38316 0.40377,-1.05775 0.55519,0.16056 1.00943,0.0935 1.00943,-0.14909 0,-0.24257 0.5771,-0.57301 1.28244,-0.73432 0.70533,-0.1613 1.15935,-0.47474 1.00892,-0.69651 -0.15042,-0.22178 -0.70188,-0.30116 -1.22547,-0.1764 -0.52358,0.12476 -1.10168,0.006 -1.28468,-0.2637 -0.23253,-0.34282 -0.6173,-0.3286 -1.27777,0.0472 -0.72565,0.41294 -1.11664,0.40802 -1.68416,-0.0212 -0.59281,-0.44829 -0.80074,-0.41261 -1.05042,0.18025 -0.42858,1.01768 -0.42311,1.02979 0.57196,1.26673 0.66466,0.15827 0.60221,0.22353 -0.25236,0.26367 -0.62459,0.0293 -1.13561,0.23672 -1.13561,0.46084 0,0.22412 -0.85171,0.76423 -1.89269,1.20025 -1.04097,0.43603 -3.83697,1.67445 -6.21333,2.75207 -2.37636,1.07761 -6.46456,2.53062 -9.08489,3.2289 -2.62032,0.69828 -5.85146,1.65642 -7.18031,2.12919 -4.22872,1.50448 -4.85501,0.94915 -0.86281,-0.76505 2.08099,-0.89355 4.17799,-1.82483 4.66002,-2.06951 0.48202,-0.24468 1.32032,-0.44487 1.86289,-0.44487 0.54258,0 1.13644,-0.22106 1.31969,-0.49124 0.18326,-0.27019 0.6343,-0.38597 1.00232,-0.25728 0.36802,0.12867 0.94066,-0.0642 1.27254,-0.42854 0.33188,-0.36438 1.08663,-0.66567 1.67722,-0.66955 0.5906,-0.004 1.38497,-0.18664 1.76526,-0.40616 0.55831,-0.32226 0.50971,-0.49533 -0.25235,-0.89875 -0.80195,-0.42454 -0.65932,-0.50174 0.94887,-0.51362 1.04098,-0.008 1.89269,-0.19583 1.89269,-0.41808 0,-0.22226 0.67848,-0.66018 1.50773,-0.97316 1.43385,-0.54117 1.65901,-1.70539 0.23342,-1.20692 -0.41747,0.14597 -0.5808,0.001 -0.42273,-0.37375 0.18768,-0.44566 0.72759,-0.51504 1.9896,-0.25569 0.95261,0.19577 1.61932,0.18979 1.48158,-0.0133 -0.51402,-0.75784 0.37012,-1.73744 1.80397,-1.99874 1.48391,-0.27042 2.09512,-1.21283 0.7866,-1.21283 -0.3824,0 -0.98034,-0.31298 -1.32875,-0.69551 -0.39122,-0.42952 -0.84915,-0.54038 -1.19741,-0.28987 -0.31016,0.22309 -1.41773,0.65622 -2.46126,0.96251 -1.04353,0.30629 -1.7784,0.73224 -1.63303,0.94655 0.14536,0.21432 -0.64747,0.8566 -1.76186,1.4273 -1.11439,0.57069 -2.02616,1.1849 -2.02616,1.36489 0,0.17999 -1.19239,1.01769 -2.64975,1.86154 -1.45737,0.84385 -2.72547,1.69323 -2.818,1.88751 -0.0925,0.19427 -0.4551,0.35322 -0.80571,0.35322 -0.65576,0 -1.9519,0.5073 -6.97532,2.73007 -1.59617,0.70627 -2.90212,1.09876 -2.90212,0.87221 0,-0.22655 0.34068,-0.53103 0.75708,-0.67662 0.97769,-0.34186 0.97769,-0.9328 0,-0.9328 -0.4164,0 -0.75708,0.17246 -0.75708,0.38325 0,0.21078 -0.25493,0.38324 -0.56651,0.38324 -1.08623,0 0.53808,-1.25936 1.9658,-1.52412 0.75716,-0.14041 2.51226,-0.72475 3.90023,-1.29852 1.38796,-0.57377 2.80748,-0.99214 3.15447,-0.9297 1.21696,0.21899 0.61647,-0.77494 -0.75707,-1.25312 -1.27072,-0.44238 -1.22808,-0.46072 0.50471,-0.21709 1.25394,0.17631 1.89268,0.0886 1.89268,-0.25978 0,-0.28924 0.51103,-0.71305 1.13562,-0.94181 0.62458,-0.22876 0.8517,-0.42904 0.50471,-0.44507 -0.34699,-0.0161 -0.63089,-0.22422 -0.63089,-0.46264 0,-0.23841 0.4645,-0.35197 1.03223,-0.25235 0.56772,0.0996 1.41943,0.0417 1.89268,-0.12875 0.66794,-0.24056 0.52169,-0.37772 -0.65369,-0.61302 l -1.51415,-0.30313 1.41775,-0.0544 c 0.80509,-0.0309 1.28296,-0.25314 1.10583,-0.5143 -0.42804,-0.63107 0.42187,-0.58136 1.13261,0.0663 0.43341,0.39492 0.50684,0.28023 0.29443,-0.45989 -0.20314,-0.70783 -0.0528,-0.98603 0.53296,-0.98603 0.44876,0 0.81593,-0.22909 0.81593,-0.50909 0,-0.28949 0.3688,-0.38014 0.85496,-0.21016 0.74935,0.26202 0.73969,0.18289 -0.0782,-0.64063 -0.51324,-0.51676 -0.68426,-0.93957 -0.38002,-0.93957 0.30423,0 0.69352,0.20695 0.86508,0.45989 0.17157,0.25294 0.91176,0.45989 1.64488,0.45989 0.98515,0 1.18521,-0.13462 0.76673,-0.51593 -0.31142,-0.28377 -0.44611,-0.80114 -0.2993,-1.14973 0.15592,-0.37025 -0.058,-0.6338 -0.51437,-0.6338 -0.92739,0 -1.52733,-0.73966 -1.10498,-1.36233 0.18797,-0.27713 0.77018,-0.24741 1.55762,0.0795 1.79171,0.74385 2.6396,-0.0807 1.80315,-1.75342 -0.76698,-1.53384 -0.58537,-1.69611 1.10008,-0.98298 1.74834,0.73974 1.70682,1.42896 -0.15901,2.63955 -1.58865,1.03076 -1.92786,2.19841 -0.90849,3.12726 0.96007,0.8748 1.27764,0.66469 1.63755,-1.0834 0.33573,-1.63066 1.81973,-3.42353 2.83374,-3.42353 0.29397,0 0.39413,0.20695 0.22257,0.45989 -0.17156,0.25294 0.0342,0.45989 0.45717,0.45989 0.42301,0 1.02863,0.44186 1.34583,0.98191 0.43931,0.74797 0.67443,0.83786 0.98684,0.37727 0.31712,-0.46755 0.82803,-0.3142 2.2533,0.67636 1.01375,0.70455 1.96469,1.56954 2.11321,1.92219 0.26131,0.62049 1.67617,0.92644 1.67617,0.36245 0,-0.1533 -0.584,-0.69731 -1.29778,-1.20891 -0.90457,-0.64834 -1.13757,-1.07616 -0.769,-1.412 0.36857,-0.33583 0.83824,-0.22664 1.55014,0.36041 0.99387,0.81955 1.02136,0.81677 1.02136,-0.10332 0,-0.78271 0.3042,-0.93768 1.7665,-0.89991 0.97158,0.0251 1.76651,0.234 1.76651,0.46423 0,0.55722 2.64981,-0.0673 3.19191,-0.75233 0.24745,-0.31268 0.31006,0.0777 0.14935,0.93118 l -0.27673,1.46958 1.85447,-1.14671 1.85448,-1.14671 0.4222,1.03995 c 0.23221,0.57198 0.49265,1.10415 0.57875,1.1826 0.35576,0.32417 1.81517,-0.48003 1.81517,-1.00022 0,-0.30961 0.58224,-0.84685 1.29386,-1.19388 0.86038,-0.41957 1.21445,-0.90768 1.05681,-1.45692 -0.13037,-0.45429 -0.0526,-0.92986 0.1729,-1.05684 0.65023,-0.36617 -0.0414,-2.06951 -0.84032,-2.06951 -0.39742,0 -1.66276,-0.4139 -2.81187,-0.91978 -1.1491,-0.50588 -2.569,-0.91978 -3.15532,-0.91978 -0.58633,0 -1.33243,-0.24273 -1.65802,-0.53939 -0.45281,-0.4126 -0.90507,-0.40941 -1.92394,0.0136 -0.9343,0.38789 -1.52203,0.40926 -1.96857,0.0716 -0.35015,-0.26478 -0.98311,-0.36026 -1.40661,-0.21218 -0.4235,0.14807 -0.91461,0.056 -1.09136,-0.20457 -0.17674,-0.26058 1.14125,-1.31547 2.92889,-2.3442 3.27481,-1.88455 4.30305,-2.97553 3.19242,-3.38721 -0.333,-0.12344 -0.21537,-0.2396 0.26296,-0.25966 0.47602,-0.02 1.12502,-0.47817 1.44222,-1.01822 0.44413,-0.75616 0.67219,-0.84116 0.99197,-0.3697 0.22839,0.33672 0.19599,0.98553 -0.072,1.4418 -0.26799,0.45628 -0.28734,0.82959 -0.043,0.82959 0.68103,0 1.98883,-1.50126 2.19339,-2.51785 0.10052,-0.49952 0.65926,-1.12469 1.24164,-1.38925 0.83219,-0.37805 0.96978,-0.70051 0.64269,-1.5062 -0.47018,-1.15815 -1.45816,-1.38536 -1.45816,-0.33533 0,0.37941 -0.22712,0.68983 -0.50471,0.68983 -0.27759,0 -0.50472,0.31043 -0.50472,0.68984 0,0.78097 -0.79035,0.925 -1.26179,0.22994 -0.46638,-0.6876 -1.7665,-0.55457 -1.7665,0.18075 0,1.04993 -1.22564,1.17318 -4.83117,0.4858 -3.17591,-0.60547 -4.24116,-1.1503 -6.92313,-3.54086 -0.4966,-0.44265 -1.10949,-0.80481 -1.36196,-0.80481 -0.65877,0 -2.77649,1.88888 -3.48034,3.10426 -0.8538,1.4743 0.10732,1.30515 1.95985,-0.34492 1.93906,-1.72715 2.90113,-1.79418 1.65008,-0.11497 -0.90954,1.22082 -2.1548,3.57954 -2.1548,4.08152 0,0.13428 0.94937,-0.49631 2.10971,-1.40131 1.16034,-0.905 2.29595,-1.64546 2.52358,-1.64546 0.59646,0 0.50949,0.81165 -0.12526,1.16911 -0.29652,0.16698 -0.4172,0.5931 -0.2682,0.94692 0.15037,0.35706 -0.0349,0.64332 -0.41631,0.64332 -0.37797,0 -0.82209,0.32024 -0.98693,0.71164 -0.16484,0.39141 -0.98406,0.92903 -1.8205,1.19472 -0.83644,0.26569 -1.52081,0.66978 -1.52081,0.89797 0,0.2282 -0.22712,0.4149 -0.50471,0.4149 -0.2776,0 -0.50472,-0.38182 -0.50472,-0.8485 0,-1.18802 -1.59353,-2.37073 -3.19421,-2.37073 -1.01175,0 -1.34823,-0.22955 -1.34823,-0.91978 0,-0.50588 0.20282,-0.91978 0.45072,-0.91978 0.97075,0 1.0655,-1.5217 0.13185,-2.11758 -0.63862,-0.40758 -0.87685,-0.97759 -0.72035,-1.72357 0.12861,-0.61302 -0.0275,-1.55949 -0.34687,-2.10327 -0.60678,-1.03309 -0.25251,-2.97869 0.46846,-2.57268 0.22872,0.1288 1.06407,-0.0739 1.85635,-0.45038 0.79227,-0.37651 2.2788,-0.68584 3.30339,-0.6874 1.02459,-0.002 2.01953,-0.23377 2.21098,-0.51602 0.24831,-0.36609 -0.75588,-0.4624 -3.50322,-0.33598 -2.11822,0.0975 -3.84783,0.0697 -3.84358,-0.0617 0.0205,-0.63364 0.87065,-1.16903 2.01113,-1.26654 6.67988,-0.57108 6.34283,-0.41897 9.67924,-4.36834 1.55191,-1.83703 4.69838,-3.3139 7.99494,-3.75264 1.91177,-0.25444 2.77958,-0.0831 5.369,1.05979 1.69875,0.74981 3.57656,1.98765 4.1729,2.75076 0.60649,0.77608 1.38316,1.28296 1.76256,1.1503 1.60525,-0.56128 -3.5878,-6.61964 -5.67416,-6.61964 -0.28834,0 -0.67863,-0.46564 -0.86732,-1.03476 -0.18869,-0.56911 -0.92558,-1.60171 -1.63754,-2.29465 -1.50592,-1.4657 -1.2819,-1.98821 0.52992,-1.23601 1.27031,0.52739 2.3921,2.15207 2.3921,3.46447 0,0.38244 0.22712,0.56744 0.50472,0.41111 0.27759,-0.15632 0.50471,-0.0507 0.50471,0.23479 0,0.64666 2.1268,0.40628 2.36996,-0.26786 0.0978,-0.27113 -0.64675,-1.26659 -1.65455,-2.21214 -1.00781,-0.94554 -1.69396,-1.84529 -1.52479,-1.99945 0.3646,-0.33221 5.35182,1.72216 5.35182,2.20456 0,0.18264 -0.30917,0.44018 -0.68704,0.5723 -0.37787,0.13213 -0.81554,0.68799 -0.9726,1.23526 -0.21691,0.7558 -0.10248,0.93101 0.47596,0.72876 0.41884,-0.14645 1.4811,-0.26944 2.36057,-0.27332 0.87948,-0.004 1.35536,-0.15908 1.05752,-0.34491 -0.92483,-0.57703 -1.26832,-1.9475 -0.48811,-1.9475 0.38785,0 1.00531,-0.26619 1.37212,-0.59153 1.2674,-1.12409 4.45232,-3.19575 4.45232,-2.89605 0,0.43986 -1.65938,2.74431 -2.24495,3.11766 -0.27597,0.17595 -0.39477,0.41686 -0.26401,0.53536 0.13075,0.1185 1.72388,-0.77401 3.54028,-1.98335 3.40932,-2.26989 5.52998,-3.18627 5.52998,-2.3896 0,0.24935 -0.81974,0.91501 -1.82165,1.47923 -1.55997,0.87848 -1.70004,1.08787 -0.97506,1.45756 0.61956,0.31593 1.38197,0.10889 2.84291,-0.77205 2.13832,-1.28941 5.41526,-2.15935 4.81823,-1.27912 -0.57203,0.84337 -5.46291,2.75992 -8.40731,3.29451 -1.59724,0.29 -3.40726,0.99238 -4.2424,1.64626 -0.80113,0.62726 -1.67854,1.14047 -1.9498,1.14047 -1.02138,0 -2.28617,1.92405 -2.20701,3.35739 0.10268,1.85915 1.37522,1.97425 1.90413,0.17221 0.81208,-2.76677 4.49532,-4.63284 9.19727,-4.65966 3.14983,-0.018 3.55316,0.0902 4.6444,1.24503 0.65727,0.69559 1.49197,1.2647 1.85491,1.2647 0.36293,0 0.96027,0.4383 1.32743,0.974 0.85623,1.24928 0.0848,2.09899 -1.25935,1.38709 -0.68162,-0.361 -0.7323,-0.49731 -0.1887,-0.50754 0.47647,-0.009 0.30633,-0.2928 -0.47408,-0.79087 -0.66949,-0.42729 -1.64087,-1.16287 -2.1586,-1.63463 -2.00582,-1.82767 -9.44626,-0.38753 -10.11961,1.95872 -0.19132,0.6666 -0.51659,0.82979 -1.19299,0.59853 -0.81025,-0.27702 -0.84315,-0.22066 -0.25561,0.43785 0.37089,0.41569 0.54367,0.94845 0.38396,1.18391 -0.1597,0.23546 0.10465,0.39974 0.58745,0.36506 0.4828,-0.0347 0.8233,0.18946 0.75666,0.49808 -0.0666,0.30863 0.38761,0.7996 1.00943,1.09105 0.91822,0.43038 1.01539,0.41869 0.51726,-0.0622 -0.4844,-0.46768 -0.43135,-0.7291 0.25236,-1.24357 0.81759,-0.61521 0.81751,-0.63765 -0.002,-0.404 -0.47691,0.13608 -1.00134,0.0495 -1.1654,-0.1924 -0.16484,-0.2432 0.39198,-0.4398 1.24574,-0.4398 0.84916,0 1.54393,-0.21633 1.54393,-0.48073 0,-0.30033 -0.66291,-0.36742 -1.7665,-0.17877 -2.08008,0.35557 -2.33714,-0.0854 -0.43413,-0.74463 0.99429,-0.34446 1.53858,-0.30097 2.14504,0.17138 1.70499,1.32795 2.22471,1.42811 1.56281,0.30118 -0.55739,-0.94901 -0.51666,-1.01977 0.45386,-0.78851 0.58642,0.13973 1.1934,0.0665 1.34886,-0.16266 0.45894,-0.67664 1.73722,-0.47567 1.73722,0.27312 0,0.37941 0.21999,0.68983 0.48888,0.68983 0.26887,0 0.35814,0.31043 0.19835,0.68984 -0.18659,0.44307 0.0103,0.68984 0.55035,0.68984 0.46247,0 0.71639,0.1835 0.56427,0.40778 -0.15213,0.22428 0.0944,0.6883 0.54773,1.03115 0.73068,0.55255 0.78352,0.50623 0.46515,-0.40779 -0.21897,-0.62864 -0.14889,-1.03114 0.17955,-1.03114 0.2963,0 0.53873,0.31042 0.53873,0.68983 0,0.37941 0.22712,0.68984 0.50471,0.68984 0.2776,0 0.50472,-0.39176 0.50472,-0.87058 0,-0.47882 0.35926,-0.99619 0.79835,-1.14973 1.19336,-0.41726 1.35784,-0.3488 1.03033,0.42887 -0.34463,0.81834 0.66924,2.51122 1.50397,2.51122 0.33467,0 0.47617,-0.51724 0.34596,-1.2647 -0.12116,-0.69558 -0.26027,-1.71357 -0.30913,-2.26218 -0.1413,-1.58676 -3.19058,-5.14819 -5.12899,-5.99046 -0.97542,-0.42384 -1.7735,-0.9272 -1.7735,-1.11859 0,-0.49526 4.65069,-1.6679 5.51579,-1.39078 0.55089,0.17647 0.46157,0.38792 -0.37853,0.89619 -1.56858,0.94899 -1.36183,1.31602 0.62241,1.10495 0.94707,-0.10075 2.13946,0.038 2.64975,0.3083 0.86461,0.458 0.85327,0.49244 -0.16651,0.50547 -1.55738,0.0199 -2.73307,0.49974 -2.406,0.98196 0.15359,0.22643 1.15955,0.4117 2.23547,0.4117 2.9359,0 4.34959,0.6658 4.99485,2.3524 l 0.57322,1.49829 -1.19598,-1.02378 c -1.49457,-1.27938 -4.87374,-1.89566 -4.87374,-0.88886 0,0.77358 1.6684,2.29531 2.33423,2.12903 0.85572,-0.21368 2.97588,0.67448 3.88726,1.62844 0.6633,0.69429 0.83152,1.35321 0.59957,2.34864 -0.17731,0.76098 -0.45493,2.52183 -0.61692,3.913 -0.23098,1.98366 -0.64825,2.89012 -1.93395,4.20126 -0.90168,0.91952 -1.92163,2.38299 -2.26656,3.25216 -0.34493,0.86916 -1.09977,1.77243 -1.67743,2.00726 -0.57767,0.23484 -1.18173,0.94435 -1.34238,1.5767 -0.23163,0.9118 -0.35841,0.99248 -0.6126,0.38988 -0.17629,-0.41792 -0.18014,-0.88777 -0.009,-1.04413 0.86042,-0.784 0.36124,-2.09415 -0.99258,-2.60512 -0.79641,-0.30059 -1.75097,-0.94063 -2.12125,-1.42232 -0.6056,-0.78783 -0.97727,-0.83118 -3.70031,-0.43159 -4.40718,0.64672 -8.31658,-0.45546 -11.94184,-3.36676 -1.7021,-1.36689 -2.57338,-1.52269 -2.0852,-0.37286 0.73262,1.72552 0.89381,3.33421 0.3341,3.33421 -0.31229,0 -0.5678,-0.49524 -0.5678,-1.10053 0,-1.4227 -1.18974,-1.82793 -2.24559,-0.76484 -0.73627,0.74131 -0.74143,0.86161 -0.0474,1.10428 1.28595,0.44964 0.91865,1.35266 -0.42518,1.04533 -1.56645,-0.35823 -2.74676,0.77244 -1.8426,1.76512 0.33548,0.36833 0.46344,0.88571 0.28436,1.14973 -0.19375,0.28568 0.19734,0.48003 0.966,0.48003 0.71037,0 1.29158,-0.20695 1.29158,-0.45989 0,-0.25294 0.34068,-0.45989 0.75707,-0.45989 0.41639,0 0.75707,-0.39995 0.75707,-0.88879 0,-1.09827 1.96239,-1.77815 2.56558,-0.88886 0.33503,0.49396 0.54827,0.50398 1.04736,0.0492 0.85458,-0.77868 1.69955,-0.72663 0.9826,0.0605 -0.93426,1.02574 0.91438,3.86961 2.08638,3.20961 0.21126,-0.11897 0.3841,0.003 0.3841,0.27072 0,0.26787 0.44712,0.48704 0.9936,0.48704 1.13758,0 0.94651,-0.89969 -0.57479,-2.7064 -0.50794,-0.60322 -0.92352,-1.28755 -0.92352,-1.52072 0,-0.82015 2.10528,0.93111 2.94046,2.44601 0.87176,1.58124 3.28388,3.16122 3.92889,2.57349 0.20092,-0.18307 -0.35397,-1.14838 -1.23306,-2.14515 -1.90184,-2.1564 -1.39691,-2.86573 0.64008,-0.8992 1.56992,1.51561 4.78999,3.16784 6.19523,3.17879 0.70972,0.006 0.75434,0.0931 0.20817,0.40827 -0.38236,0.22068 -1.61247,0.28912 -2.73357,0.15211 -1.7097,-0.20895 -1.98931,-0.13261 -1.73408,0.47345 0.17681,0.41983 -0.0105,0.83265 -0.44711,0.98531 -0.41328,0.1445 -0.63389,0.0894 -0.49023,-0.12235 0.14366,-0.2118 -0.42809,-0.40295 -1.27056,-0.42477 -0.84247,-0.0218 -1.79992,-0.22416 -2.12766,-0.44962 -0.32776,-0.22547 -2.13574,-0.3721 -4.01777,-0.32586 -3.22009,0.0791 -4.55054,-0.28099 -3.41037,-0.92307 0.32303,-0.18191 0.28259,-0.60406 -0.11318,-1.1815 -0.64482,-0.94083 -1.88711,-1.22955 -1.88711,-0.43858 0,0.25294 -0.44626,0.4599 -0.99168,0.4599 -0.54542,0 -1.22655,0.39988 -1.51361,0.88863 -0.28706,0.48875 -0.97642,1.02007 -1.53191,1.18072 -0.55548,0.16064 -1.00996,0.48509 -1.00996,0.72098 0,0.70878 2.02787,0.48275 2.34106,-0.26093 0.54473,-1.29347 1.06144,-0.69304 1.399,1.62565 0.20474,1.40633 0.54071,2.20083 0.85568,2.02346 0.28521,-0.16062 0.39661,-0.40317 0.24755,-0.53899 -0.14907,-0.13583 0.20129,-0.85135 0.77855,-1.59005 1.15207,-1.47423 1.36844,-1.46281 1.69654,0.0895 0.31844,1.5067 0.446,1.55265 3.91517,1.4102 1.73296,-0.0712 4.91069,-0.15887 7.06161,-0.19492 2.15093,-0.0361 3.91112,-0.18604 3.91155,-0.33331 4.2e-4,-0.14726 0.7957,-0.49006 1.76728,-0.76176 1.88252,-0.52645 2.25088,-0.16737 0.99872,0.97359 -0.45778,0.41712 -1.37484,0.62959 -2.27122,0.52623 -0.82689,-0.0954 -1.50343,0.0185 -1.50343,0.25303 0,0.23452 0.39746,0.43298 0.88325,0.44102 0.79818,0.0132 0.78864,0.0798 -0.0991,0.69156 -0.65732,0.45298 -1.14992,0.52421 -1.48891,0.21532 -0.81349,-0.74124 -2.33653,-0.56756 -2.00139,0.22822 0.20242,0.48065 -0.0367,0.68984 -0.78876,0.68984 -0.59359,0 -1.21,-0.31043 -1.36978,-0.68984 -0.41584,-0.9874 -2.52911,-0.8511 -3.72698,0.24038 -0.89218,0.81295 -1.05969,0.83806 -1.32874,0.19918 -0.22167,-0.52635 -0.84835,-0.69547 -2.23827,-0.60402 -1.06173,0.0699 -2.09029,-0.0187 -2.28571,-0.19674 -0.19541,-0.17806 -0.89464,0.39948 -1.55384,1.28343 -0.70604,0.94676 -1.6181,1.60717 -2.21957,1.60717 -0.56156,0 -0.88065,0.20695 -0.70909,0.45989 0.17156,0.25294 1.00116,0.45989 1.84354,0.45989 1.10468,0 1.60484,-0.25515 1.79432,-0.91537 0.20901,-0.72826 0.53464,-0.85479 1.59307,-0.61902 0.73171,0.16299 1.48685,0.51494 1.6781,0.78211 0.22573,0.31534 0.70687,0.18961 1.37137,-0.35835 0.65227,-0.53787 1.43214,-0.74678 2.14959,-0.57582 0.61927,0.14756 1.42166,0.0447 1.7831,-0.22867 0.49164,-0.37178 0.65716,-0.31751 0.65716,0.21547 0,0.39184 -0.39747,0.80707 -0.88325,0.92275 -0.68202,0.1624 -0.63131,0.22247 0.22257,0.26367 0.6082,0.0293 1.24649,-0.15406 1.41843,-0.40754 0.17785,-0.26222 1.22413,-0.34533 2.42719,-0.1928 1.57361,0.1995 1.92089,0.14273 1.3575,-0.22191 -0.60826,-0.39368 -0.47364,-0.49138 0.68489,-0.49704 1.07609,-0.005 1.36825,0.168 1.15145,0.6828 -0.15978,0.37941 -0.0705,0.68983 0.19836,0.68983 0.26888,0 0.48888,-0.28828 0.48888,-0.64063 0,-0.7189 1.35967,-1.34021 2.06441,-0.94333 0.25254,0.14221 0.45917,-0.0519 0.45917,-0.43126 0,-0.37941 0.23247,-0.82076 0.51662,-0.98077 1.14912,-0.64713 -1.81463,10.89557 -3.34091,13.01157 -1.19259,1.65337 -3.72252,6.20359 -3.73062,6.70972 -0.0102,0.63192 -3.18661,3.75359 -3.67693,3.61348 -0.24322,-0.0695 -0.32607,0.0449 -0.18411,0.25417 0.14196,0.2093 -3.09997,3.50655 -7.20429,7.32723 -6.406,5.96329 -7.66258,7.37586 -8.87648,9.9784 -0.77774,1.66744 -1.62053,3.03171 -1.87287,3.03171 -0.25232,0 -0.32973,0.19026 -0.172,0.42281 0.15773,0.23255 -0.0722,0.74993 -0.51098,1.14973 -0.43877,0.3998 -0.66336,0.72691 -0.49909,0.72691 0.42094,0 -1.61665,3.55497 -2.23822,3.90501 -0.28156,0.15856 -0.51193,0.79346 -0.51193,1.41088 0,0.61742 -0.25174,1.12258 -0.55943,1.12258 -0.35208,0 -0.43594,-0.44832 -0.22625,-1.20959 0.30046,-1.0908 0.21909,-1.18174 -0.82854,-0.92605 -0.63894,0.15593 -1.33205,0.28635 -1.54025,0.2898 -0.6347,0.0105 -0.42293,0.95131 0.37854,1.6816 0.97456,0.888 0.97456,1.59109 0,1.25033 -0.83888,-0.29332 -1.05108,0.53362 -0.25236,0.98342 0.27759,0.15633 0.50472,0.77002 0.50472,1.36376 0,0.88939 0.20001,1.03407 1.13561,0.82143 1.13078,-0.257 1.13044,-0.25421 -0.0782,0.65688 l -1.21384,0.91498 1.19997,0.76585 c 0.65998,0.42122 0.99246,0.76584 0.73884,0.76584 -0.25362,0 -0.0202,0.30385 0.51859,0.67522 0.94109,0.64858 0.92685,0.67578 -0.361,0.68983 -1.08906,0.0119 -1.29117,0.18727 -1.07674,0.93441 0.31356,1.09257 1.15567,1.2322 1.15567,0.19162 0,-0.40049 0.2839,-0.64193 0.63089,-0.53654 0.34699,0.10539 0.6309,0.4848 0.6309,0.84313 0,0.35833 0.5678,0.89339 1.26179,1.18903 l 1.26179,0.53751 -1.18961,0.0373 c -0.8417,0.0264 -1.10465,0.2391 -0.89909,0.72719 0.53038,1.25941 -1.09969,0.73081 -2.87092,-0.93099 -1.33103,-1.24881 -1.86796,-2.27799 -2.33926,-4.48394 -0.81096,-3.79569 -1.68448,-6.31228 -2.19104,-6.31228 -0.22639,0 -0.27124,-0.20695 -0.0997,-0.45989 0.17156,-0.25294 -0.0288,-0.45989 -0.44515,-0.45989 -0.41639,0 -0.91912,-0.23893 -1.11719,-0.53095 -0.22313,-0.32896 -0.13846,-0.40611 0.22257,-0.2028 0.32048,0.18048 0.57556,0.16072 0.56684,-0.0439 -0.0236,-0.55456 -2.50772,-2.10083 -2.50772,-1.56098 0,0.255 -0.89827,0.68403 -1.99615,0.9534 -1.09789,0.26938 -2.33083,0.79473 -2.73989,1.16746 -0.40905,0.37272 -1.11404,0.67768 -1.56664,0.67768 -0.45261,0 -0.68255,0.20695 -0.51099,0.45989 0.17157,0.25294 0.0714,0.45989 -0.22257,0.45989 -0.29397,0 -0.5345,0.29318 -0.5345,0.65152 0,0.35833 -0.17739,0.72049 -0.39421,0.80481 -0.21681,0.0843 -0.77944,0.87762 -1.25029,1.76291 -0.71694,1.34799 -0.85796,1.43908 -0.86758,0.56043 -0.006,-0.57706 -0.35798,-1.17034 -0.78145,-1.31841 -0.63294,-0.22131 -0.6554,-0.39573 -0.12618,-0.98013 0.51208,-0.56549 0.51471,-0.7505 0.0129,-0.9044 -1.00957,-0.30962 -0.7273,-0.97348 0.30893,-0.72656 0.56392,0.13437 1.06227,-0.0668 1.24595,-0.50295 0.16837,-0.39979 0.0861,-0.72689 -0.18275,-0.72689 -0.26888,0 -0.48888,-0.31043 -0.48888,-0.68983 0,-0.37941 -0.22712,-0.68984 -0.50471,-0.68984 -0.2776,0 -0.50472,0.20695 -0.50472,0.45989 0,0.90012 -0.0925,1.15706 -0.6285,1.74552 -0.29846,0.32769 -0.82815,0.49596 -1.1771,0.37396 -0.949,-0.33183 -1.40223,1.20159 -0.49229,1.66559 0.42425,0.21633 1.0179,0.81307 1.31921,1.32608 0.53346,0.90826 0.51368,0.91234 -0.75378,0.15562 -0.7159,-0.42741 -1.75971,-1.63207 -2.31959,-2.67702 -2.284,-4.26287 -3.09336,-5.14986 -5.30634,-5.81535 -2.99623,-0.90102 -4.93545,0.39137 -7.60025,5.06516 -0.36054,0.63235 -1.89077,2.31143 -3.4005,3.73128 -1.50974,1.41985 -3.13809,3.33638 -3.61856,4.25897 -0.5168,0.99235 -1.35063,1.78653 -2.04166,1.94456 -0.77953,0.17827 -1.07085,0.49801 -0.87578,0.96121 0.26348,0.62564 -0.57764,1.496 -1.46314,1.51399 -0.1906,0.004 -0.41772,-0.66555 -0.50471,-1.4876 z m 9.37702,-11.03738 c 2.90739,-4.43746 3.04744,-4.63942 3.61381,-5.21123 0.2921,-0.29491 1.30622,-1.39014 2.25359,-2.43385 1.663,-1.8321 3.27335,-2.57556 2.71694,-1.25434 -0.417,0.99017 0.41466,1.18926 2.73046,0.65366 2.76438,-0.63936 2.80305,-1.51484 0.0492,-1.11359 -1.48941,0.21701 -2.0096,0.14842 -1.86532,-0.24596 0.11004,-0.30079 0.6149,-0.60238 1.12192,-0.67018 0.50703,-0.0678 1.16472,-0.34458 1.46155,-0.61505 0.29684,-0.27046 0.94852,-0.49176 1.44819,-0.49176 0.49967,0 0.90849,-0.31042 0.90849,-0.68983 0,-0.37941 0.39746,-0.69825 0.88325,-0.70853 0.48579,-0.0103 2.35954,-1.27296 4.1639,-2.80596 1.80436,-1.533 4.13236,-3.31118 5.17334,-3.9515 1.04097,-0.64032 1.89268,-1.34367 1.89268,-1.563 0,-0.68985 -1.282,-0.43427 -2.34407,0.46732 -0.59366,0.50397 -1.31931,0.73041 -1.73549,0.54157 -0.39338,-0.1785 -1.49359,-0.0803 -2.4449,0.21816 -1.11205,0.34892 -1.47249,0.63523 -1.00944,0.80181 0.40194,0.14459 0.12792,0.27514 -0.62003,0.2954 -0.73715,0.02 -2.21345,0.44062 -3.28065,0.93477 -1.06721,0.49415 -3.02987,1.33155 -4.36147,1.86089 -1.3316,0.52934 -2.90705,1.47169 -3.50099,2.09412 -0.70273,0.73643 -1.20126,0.95277 -1.42737,0.61941 -0.24388,-0.35956 -0.44687,-0.36572 -0.6809,-0.0207 -0.19577,0.28864 0.35121,0.66442 1.32488,0.9102 1.24991,0.31551 1.96906,0.24188 2.9201,-0.29901 0.69398,-0.39468 1.71603,-0.95038 2.27122,-1.23489 2.9499,-1.51166 4.28403,-2.33451 4.28689,-2.64401 0.002,-0.18971 0.44403,-0.34492 0.98284,-0.34492 0.5388,0 1.12202,-0.20991 1.29603,-0.46646 0.40764,-0.601 4.31194,-2.4222 4.61017,-2.15046 0.31595,0.28788 -3.23911,2.78147 -5.3717,3.7678 -0.97158,0.44936 -1.88007,0.96759 -2.01886,1.15161 -0.61367,0.81364 -6.10921,3.67609 -7.05762,3.67609 -0.57723,0 -1.18025,0.31043 -1.34003,0.68984 -0.15979,0.37941 -0.6312,0.68984 -1.04759,0.68984 -0.44214,0 -0.6441,0.26826 -0.48549,0.64487 0.43293,1.028 -0.25181,1.2645 -1.25824,0.43458 -1.29985,-1.07188 -1.16846,-1.39933 0.82511,-2.05619 2.28478,-0.75281 1.49544,-1.7979 -1.24906,-1.65377 -1.82855,0.096 -2.34495,0.6404 -1.27195,1.3408 0.73882,0.48226 0.0283,0.89396 -0.95158,0.55135 -0.47208,-0.16506 -0.73781,-0.58628 -0.59051,-0.93603 0.2203,-0.52311 0.024,-0.51556 -1.10661,0.0425 -2.38252,1.17604 -2.77827,1.49757 -2.22606,1.80855 0.28485,0.16041 0.87691,-0.0355 1.31568,-0.43526 0.43877,-0.39977 0.79776,-0.50515 0.79776,-0.23414 0,0.271 0.21704,0.49274 0.4823,0.49274 0.26527,0 1.31427,0.51444 2.33112,1.14321 1.45284,0.89836 1.67446,1.20418 1.03475,1.42787 -0.44774,0.15655 -0.68842,0.46991 -0.53483,0.69634 0.15358,0.22644 0.0225,0.4117 -0.29131,0.4117 -0.69341,0 -2.0126,1.14733 -2.0126,1.75041 0,0.24003 -0.35102,0.70187 -0.78004,1.02631 -0.42902,0.32443 -0.67389,0.84193 -0.54416,1.15 0.12974,0.30806 0.0476,0.74054 -0.18257,0.96107 -0.69583,0.66673 -2.00332,3.85014 -1.58134,3.85014 0.21637,0 1.24085,-1.29345 2.27662,-2.87432 z m 18.19509,-0.76192 c 0.15556,-0.22935 -0.17171,-0.30869 -0.72728,-0.17631 -1.17851,0.28082 -1.32748,0.59331 -0.28285,0.59331 0.40001,0 0.85457,-0.18765 1.01013,-0.417 z m -0.22327,-1.73127 c 0,-0.16978 -0.37972,-0.69102 -0.84382,-1.15831 -0.79316,-0.79859 -0.78558,-0.84471 0.12618,-0.76815 1.78513,0.1499 2.73651,-0.0597 2.73651,-0.60294 0,-0.61514 1.48047,-2.22069 2.04769,-2.22069 0.2074,0 0.0582,0.9654 -0.33149,2.14534 -0.38972,1.17993 -0.57758,2.2647 -0.41746,2.41059 0.40575,0.36971 1.42446,-1.37313 1.45334,-2.48642 0.0131,-0.50588 0.35421,-0.91978 0.75799,-0.91978 0.40377,0 1.22037,-0.44306 1.81466,-0.98457 0.7667,-0.69861 1.47849,-0.91526 2.45069,-0.74591 1.10404,0.1923 1.42678,0.0414 1.66167,-0.7771 0.20022,-0.69764 0.57567,-0.94805 1.19885,-0.79956 0.49903,0.11891 1.02842,-0.0713 1.17644,-0.42281 0.14801,-0.35146 0.66128,-0.63902 1.14059,-0.63902 1.14517,0 3.6945,-2.24356 3.38484,-2.97886 -0.17488,-0.41525 -0.93378,-0.24182 -2.74647,0.62766 -2.12272,1.0182 -2.5758,1.09904 -2.97011,0.52993 -0.40137,-0.57929 -0.59633,-0.56349 -1.4191,0.11497 -0.5246,0.43259 -1.61729,0.78969 -2.42821,0.79356 -0.90277,0.004 -1.23381,0.14631 -0.85385,0.36625 0.34131,0.19755 -0.5104,0.32649 -1.89268,0.28653 -2.00234,-0.0579 -2.51637,0.078 -2.52859,0.66851 -0.013,0.62869 -0.0957,0.61539 -0.54455,-0.0876 -0.50598,-0.79247 -0.60493,-0.78811 -2.25587,0.0995 -0.95757,0.5148 -1.72668,0.70526 -1.72668,0.42759 0,-0.31481 -0.30028,-0.2736 -0.80889,0.11101 -0.73338,0.5546 -0.70845,0.68582 0.26711,1.40561 0.99551,0.73453 1.01061,0.82726 0.20184,1.23967 -0.71258,0.36336 -0.75806,0.57323 -0.24604,1.13538 0.41833,0.4593 0.44903,0.74401 0.0919,0.85248 -0.36367,0.11046 -0.32985,0.56763 0.10512,1.42081 0.58618,1.1498 1.39838,1.7053 1.39838,0.95641 z m -0.60265,-2.48842 c -0.34429,-0.94113 1.23223,-3.17522 2.24298,-3.17855 1.13065,-0.004 1.11865,0.38949 -0.0404,1.32283 -0.50799,0.40908 -1.15967,1.13536 -1.44817,1.61395 -0.38977,0.64658 -0.58362,0.7087 -0.75443,0.24177 z m 5.1451,-3.16479 c -1.06143,-0.24307 -1.12163,-0.33804 -0.3791,-0.59807 0.48548,-0.17001 1.37363,-0.14363 1.97367,0.0586 1.45793,0.49142 0.14108,0.93691 -1.59457,0.53944 z m 5.17333,-0.34699 c -0.99599,-0.32554 -0.73489,-1.04934 0.37854,-1.04934 0.55519,0 1.00943,0.19473 1.00943,0.43274 0,0.58868 -0.62454,0.86613 -1.38797,0.6166 z m -1.52715,4.04841 c 1.50094,-1.19003 2.10107,-2.98046 0.62483,-1.8641 -0.42688,0.32282 -1.50136,1.43465 -2.38773,2.47074 -1.56689,1.83157 -1.11709,1.67678 1.7629,-0.60664 z m 10.57686,-0.039 c 0.28694,0 0.3923,-0.30727 0.23415,-0.68282 -0.16904,-0.40136 0.12077,-0.88194 0.70307,-1.1659 0.54485,-0.2657 0.99064,-0.76686 0.99064,-1.11369 0,-0.39478 0.36132,-0.54451 0.96621,-0.40037 0.62255,0.14834 1.1548,-0.0908 1.4964,-0.67243 0.57497,-0.97894 0.29805,-1.48347 -0.81424,-1.48347 -0.50273,0 -0.6032,0.29788 -0.34779,1.03114 0.29087,0.83506 0.22535,0.93799 -0.34453,0.54126 -0.89134,-0.62053 -2.97492,-0.7355 -2.97492,-0.16415 0,0.23722 -0.17034,0.40893 -0.37853,0.38157 -0.72587,-0.0954 -2.64976,0.61968 -2.64976,0.98483 0,0.20237 0.2839,0.48674 0.63089,0.63196 0.347,0.14521 0.14677,0.15629 -0.44494,0.0246 -1.44746,-0.3221 -1.99659,1.02667 -0.87697,2.15397 0.95522,0.96176 1.94734,1.15811 1.40678,0.27841 -0.19428,-0.31618 0.0762,-0.20333 0.60111,0.25076 0.82483,0.71358 0.9765,0.72918 1.11754,0.11498 0.0898,-0.39085 0.39795,-0.71065 0.68489,-0.71065 z m 2.33163,-0.55186 c 0.67096,-0.61137 0.81919,-1.74961 0.22712,-1.744 -0.20819,0.002 -0.64107,0.51935 -0.96194,1.14972 -0.6207,1.2194 -0.26602,1.50623 0.73482,0.59428 z m -24.23248,-1.63262 c -0.16444,-1.43144 -0.74841,-1.9795 -1.73984,-1.63283 -0.91569,0.32017 -0.85961,1.05797 0.0804,1.05797 0.42059,0 0.75707,0.40879 0.75707,0.91978 0,0.50588 0.23572,0.91978 0.52382,0.91978 0.2881,0 0.45844,-0.56911 0.37854,-1.2647 z m 16.0383,-0.34491 c 1.24097,-1.19895 1.44933,-1.60466 0.81667,-1.59016 -0.46714,0.0107 -1.34992,0.73504 -1.96173,1.60962 -1.42341,2.03478 -0.97326,2.02713 1.14506,-0.0195 z m -41.67173,0.76375 c 0,-0.5325 7.16476,-5.14588 10.85139,-6.98719 1.66556,-0.83188 3.82322,-1.98405 4.7948,-2.56037 0.97158,-0.57632 2.43959,-1.19746 3.26225,-1.38031 1.32212,-0.29385 1.38071,-0.37342 0.50472,-0.6855 -0.83169,-0.29629 -0.75985,-0.35826 0.44683,-0.38538 0.79083,-0.0178 2.15356,-0.32272 3.0283,-0.67765 4.1357,-1.67808 8.85463,-3.03381 10.55983,-3.03381 1.39671,0 1.88198,-0.19169 1.88198,-0.74345 0,-0.55857 0.33678,-0.68478 1.35433,-0.50754 0.74489,0.12975 2.05084,-0.0404 2.90212,-0.37818 0.85128,-0.33775 2.17236,-0.73415 2.93575,-0.88089 0.76338,-0.14674 1.38796,-0.57329 1.38796,-0.94788 0,-0.45015 0.51338,-0.68107 1.51415,-0.68107 0.86748,0 1.96895,-0.41441 2.57905,-0.97033 0.58569,-0.53367 1.92771,-1.07577 2.98226,-1.20465 1.61068,-0.19685 1.90454,-0.10473 1.83721,0.57591 -0.108,1.09184 2.6128,1.99391 3.25825,1.08025 0.78403,-1.1098 0.23063,-1.99638 -1.57803,-2.52813 -1.16719,-0.34316 -1.81439,-0.84459 -1.9207,-1.48811 l -0.16035,-0.97056 -1.9847,0.92259 c -2.0281,0.94277 -2.69111,1.56966 -1.10144,1.04143 0.79386,-0.26379 0.7861,-0.19268 -0.0766,0.70264 -0.70253,0.72908 -1.13145,0.86639 -1.59988,0.51216 -0.46533,-0.3519 -1.63228,-0.0533 -4.27595,1.09405 -2.26651,0.98368 -3.3748,1.68814 -2.94257,1.87038 0.38136,0.16079 0.18235,0.20595 -0.44223,0.10036 -0.62459,-0.1056 -1.13561,-0.005 -1.13561,0.22484 0,0.22926 -0.56781,0.41684 -1.26179,0.41684 -0.69399,0 -1.26179,0.21916 -1.26179,0.48703 0,0.26787 -0.20341,0.37249 -0.45202,0.23248 -0.24861,-0.14 -1.95721,0.26169 -3.79689,0.89264 -3.52542,1.20912 -6.26776,1.57225 -4.83597,0.64037 0.58055,-0.37786 0.46288,-0.41283 -0.50472,-0.15 -0.69398,0.1885 -2.19094,0.36167 -3.32658,0.38481 -1.7727,0.0361 -2.02917,0.1662 -1.81297,0.91951 0.20874,0.72736 0.0512,0.82963 -0.92116,0.59794 -0.75564,-0.18005 -1.6647,0.0395 -2.55502,0.6172 -0.76013,0.49319 -1.69903,0.89671 -2.08645,0.89671 -0.38741,0 -0.94451,0.2188 -1.238,0.48621 -0.29348,0.26743 -1.75842,1.0845 -3.25542,1.81573 -1.49699,0.73123 -2.67389,1.52294 -2.61534,1.75935 0.0586,0.23641 -0.62281,0.57691 -1.51415,0.75666 -0.89133,0.17977 -1.33529,0.42864 -0.98657,0.55307 0.34872,0.12443 0.51179,0.40646 0.36238,0.62676 -0.14942,0.22028 -0.64234,0.27091 -1.09538,0.11251 -0.5101,-0.17837 -0.69817,-0.10294 -0.49398,0.1981 0.18135,0.26737 0.0106,0.45775 -0.37936,0.42308 -0.7704,-0.0685 -7.35551,5.45369 -7.35551,6.16825 0,0.24041 0.56781,0.43711 1.26179,0.43711 0.69399,0 1.26179,-0.17368 1.26179,-0.38597 z m 29.55143,-5.54287 c 1.8464,-0.44769 7.30416,-4.40419 13.5732,-9.83963 1.6881,-1.46362 2.7614,-1.46562 3.35265,-0.006 0.28856,0.71228 0.23078,0.95402 -0.1954,0.81757 -0.33281,-0.10655 -1.26172,0.33307 -2.06423,0.97695 -1.24515,0.99899 -1.35617,1.26399 -0.75708,1.80697 0.5984,0.54236 1.08349,0.3146 3.28573,-1.54271 l 2.58367,-2.17901 -2.3481,-1.19455 -2.3481,-1.19456 -1.47941,1.07488 c -0.81368,0.59118 -1.94174,1.13529 -2.5068,1.20913 -0.62096,0.0811 -0.99965,0.45254 -0.95728,0.93884 0.0386,0.44253 -0.16193,0.80459 -0.44552,0.80459 -0.28358,0 -0.88293,0.3845 -1.33188,0.85446 -0.44895,0.46995 -1.74947,1.45297 -2.89004,2.18448 -2.78347,1.78519 -5.72736,3.86347 -7.25832,5.12412 -0.69115,0.56912 -1.42929,1.03476 -1.64033,1.03476 -0.21103,1e-5 -0.38369,0.23904 -0.38369,0.53118 0,0.33033 0.33396,0.25957 0.88325,-0.18716 0.48579,-0.39508 1.80325,-0.9414 2.92768,-1.21405 z m 21.56866,0.23613 c 1.6486,-0.64397 1.83931,-0.8671 1.392,-1.62866 -0.37687,-0.64166 -0.34725,-0.94543 0.10855,-1.1132 0.39998,-0.14722 0.33428,-0.24388 -0.18153,-0.26704 -0.44462,-0.02 -1.48425,0.5328 -2.31028,1.22839 -0.82604,0.69558 -1.92159,1.48445 -2.43455,1.75304 -1.18498,0.62044 -0.56371,1.7272 0.65565,1.168 0.47291,-0.21688 1.71949,-0.73011 2.77016,-1.14053 z m 2.89698,-0.0859 c 0.66737,-1.59943 0.62216,-1.79057 -0.26485,-1.11979 -0.41639,0.31488 -0.75707,0.84035 -0.75707,1.16771 0,0.32736 -0.28391,0.69959 -0.6309,0.82717 -0.37225,0.13686 -0.26367,0.24684 0.26485,0.26827 0.5189,0.021 1.10283,-0.45999 1.38797,-1.14336 z m -17.65443,-1.078 c 1.18372,-0.4829 2.51447,-0.75458 2.95723,-0.60373 0.68058,0.23186 0.70378,0.16071 0.15001,-0.46031 -0.56681,-0.63566 -0.45492,-0.77462 0.83092,-1.03196 0.81726,-0.16356 1.90393,-0.71824 2.41482,-1.23263 0.90345,-0.90964 0.90143,-0.95364 -0.0738,-1.60688 -0.91638,-0.61379 -1.11851,-0.554 -2.34724,0.69431 -0.73949,0.75128 -1.47763,1.24466 -1.64033,1.09642 -0.16269,-0.14825 -0.29581,-0.0581 -0.29581,0.20031 0,0.25841 -1.02205,1.0585 -2.27122,1.77797 -1.24917,0.71947 -2.27122,1.47381 -2.27122,1.67631 0,0.50693 0.10679,0.48555 2.54669,-0.50981 z m 20.57125,-3.49552 c -0.0844,-0.0719 -0.74464,0.46167 -1.46729,1.18576 -0.74709,0.74856 -1.07369,1.39041 -0.75708,1.48779 0.50151,0.15425 2.59284,-2.3594 2.22437,-2.67355 z m -12.20201,1.36085 c 3.07273,-1.12135 5.40029,-2.20177 6.49676,-3.01568 0.55519,-0.41212 1.60896,-0.87816 2.34173,-1.03564 1.45487,-0.31268 2.41075,-1.67394 1.17544,-1.67394 -0.40768,0 -0.74123,-0.23282 -0.74123,-0.51738 0,-0.32959 0.54958,-0.41722 1.51414,-0.24144 1.22743,0.22368 1.51415,0.12136 1.51415,-0.54037 0,-0.44897 -0.27254,-1.06465 -0.60566,-1.36818 -0.73221,-0.66718 -1.91792,-0.72729 -1.91792,-0.0972 0,0.58273 -1.60866,2.30471 -2.15305,2.30471 -0.22802,0 -1.02693,0.51737 -1.77537,1.14972 -0.74842,0.63235 -1.64508,1.14973 -1.99255,1.14973 -0.34748,0 -0.91761,0.4225 -1.26695,0.93889 -0.34934,0.51638 -1.60044,1.45638 -2.78021,2.08889 -1.17977,0.6325 -2.14504,1.24476 -2.14504,1.36057 0,0.3175 0.21542,0.27115 2.33576,-0.50265 z m 8.01091,-4.80548 c 0.17156,-0.25294 0.69599,-0.45672 1.1654,-0.45285 0.7355,0.006 0.74883,0.0687 0.0964,0.45285 -0.98842,0.58204 -1.65657,0.58204 -1.26179,0 z m 5.29951,2.29945 c 0,-0.25294 -0.10015,-0.45989 -0.22257,-0.45989 -0.12241,0 -0.36294,0.20695 -0.5345,0.45989 -0.17156,0.25294 -0.0714,0.45989 0.22257,0.45989 0.29398,0 0.5345,-0.20695 0.5345,-0.45989 z m -43.69507,-2.93291 c 1.12772,-0.53311 1.20475,-0.68075 0.48622,-0.93199 -0.53208,-0.18604 -1.21283,0.0526 -1.80669,0.63346 -1.10672,1.08242 -0.58654,1.20003 1.32047,0.29853 z m 46.04448,-1.45589 c 0.16438,-0.39031 0.16274,-0.8337 -0.004,-0.98531 -0.35947,-0.32755 -1.84105,0.71171 -1.84105,1.2914 0,0.69402 1.53046,0.44007 1.84469,-0.30609 z m -41.71723,-0.94915 c 0,-0.0994 -0.34068,-0.18074 -0.75707,-0.18074 -0.41639,0 -0.75708,0.20046 -0.75708,0.44546 0,0.245 0.34069,0.32634 0.75708,0.18074 0.41639,-0.14559 0.75707,-0.34605 0.75707,-0.44546 z m 1.76651,0.27915 c 0.17156,-0.25294 0.0714,-0.45989 -0.22257,-0.45989 -0.29398,0 -0.53451,0.20695 -0.53451,0.45989 0,0.25294 0.10016,0.45989 0.22257,0.45989 0.12242,0 0.36294,-0.20695 0.53451,-0.45989 z m 30.97471,-2.23876 c 0.95277,-0.86911 1.05444,-1.16797 0.50341,-1.47991 -0.37976,-0.21498 -0.75279,-0.22713 -0.82897,-0.027 -0.0762,0.20012 -0.79188,0.27647 -1.59045,0.16968 -1.13484,-0.15177 -1.52509,0.0158 -1.78677,0.76701 -0.18414,0.52866 -0.20181,1.15727 -0.0393,1.39691 0.50813,0.74916 2.49592,0.31002 3.74205,-0.82668 z m -2.45828,-0.0607 c 0,-0.25294 0.24053,-0.45989 0.53451,-0.45989 0.29397,0 0.39413,0.20695 0.22256,0.45989 -0.17156,0.25294 -0.41209,0.45989 -0.5345,0.45989 -0.12241,0 -0.22257,-0.20695 -0.22257,-0.45989 z m 12.11318,1.17687 c 0,-0.11154 -0.22713,-0.33071 -0.50472,-0.48703 -0.27759,-0.15633 -0.50471,-0.0651 -0.50471,0.2028 0,0.26787 0.22712,0.48703 0.50471,0.48703 0.27759,0 0.50472,-0.0913 0.50472,-0.2028 z m -34.6568,-1.72111 c -0.82745,-0.83312 -0.82209,-0.86106 0.11207,-0.58358 0.53963,0.16029 1.49241,0.51472 2.1173,0.78762 0.91475,0.39947 2.12539,0.19512 6.21203,-1.04855 4.54776,-1.384 6.54507,-2.29038 5.04713,-2.29038 -0.29398,0 -0.53451,-0.20695 -0.53451,-0.45989 0,-0.25294 0.34069,-0.45989 0.75708,-0.45989 0.41639,0 0.75707,-0.32264 0.75707,-0.71698 0,-0.39434 0.17259,-0.61978 0.38354,-0.50099 0.21094,0.1188 1.17621,-0.1175 2.14504,-0.52509 0.96883,-0.40759 2.32458,-0.85603 3.01279,-0.99651 0.94108,-0.19211 1.27915,-0.58575 1.36368,-1.58783 0.0618,-0.73281 0.22697,-1.60444 0.36699,-1.93695 0.14004,-0.3325 0.0237,-0.73459 -0.25853,-0.89352 -0.61134,-0.34428 -3.4805,0.66197 -3.4805,1.22065 0,0.21432 -0.34068,0.27054 -0.75707,0.12495 -0.41639,-0.1456 -0.75708,-0.058 -0.75708,0.19474 0,0.2527 -2.97525,1.84422 -6.61166,3.53672 -5.08968,2.3689 -6.91082,3.00886 -7.91123,2.78007 -1.1449,-0.26183 -1.22031,-0.21019 -0.63364,0.43393 0.58403,0.64121 0.48624,0.72231 -0.79511,0.65944 -0.80358,-0.0394 -2.25597,0.24043 -3.22755,0.62192 -0.97158,0.38149 -3.10806,0.84103 -4.74775,1.02119 -6.59008,0.72413 -5.15007,1.40273 3.09524,1.45861 5.09393,0.0345 5.19376,0.0152 4.34467,-0.83968 z m 10.31358,-2.75246 c 0.29329,-0.26725 0.83117,-0.39541 1.1953,-0.28482 0.378,0.11481 0.14922,0.32328 -0.53326,0.4859 -0.83952,0.20004 -1.03657,0.14019 -0.66204,-0.20108 z m 6.17345,-4.37141 c 0,-0.22456 0.73102,-0.6597 1.6245,-0.96699 1.35018,-0.46438 1.75195,-0.44258 2.37937,0.12912 0.67003,0.61052 0.57717,0.68784 -0.82614,0.68784 -0.86956,0 -1.94028,0.12561 -2.37937,0.27914 -0.4391,0.15353 -0.79836,0.0954 -0.79836,-0.12911 z m 16.1509,7.20822 c 0,-0.25294 -0.10015,-0.45989 -0.22257,-0.45989 -0.12241,0 -0.36294,0.20695 -0.5345,0.45989 -0.17156,0.25294 -0.0714,0.45989 0.22257,0.45989 0.29398,0 0.5345,-0.20695 0.5345,-0.45989 z m 6.81367,0 c 0.17156,-0.25294 0.0714,-0.45989 -0.22257,-0.45989 -0.29398,0 -0.53451,0.20695 -0.53451,0.45989 0,0.25294 0.10016,0.45989 0.22257,0.45989 0.12242,0 0.36294,-0.20695 0.53451,-0.45989 z m -1.38797,-0.57486 c -0.11567,-0.31618 -0.51313,-0.57487 -0.88325,-0.57487 -0.37013,0 -0.76759,0.25869 -0.88326,0.57487 -0.1251,0.34197 0.23273,0.57486 0.88326,0.57486 0.65052,0 1.00835,-0.23289 0.88325,-0.57486 z m -4.41626,-0.39357 c 0,-0.22618 -0.28391,-0.42579 -0.6309,-0.44357 -0.34699,-0.0178 -0.17665,-0.20251 0.37854,-0.41053 0.92664,-0.34718 0.93699,-0.40514 0.12618,-0.70671 -1.22665,-0.45623 -2.39747,0.0421 -2.39704,1.02016 2.3e-4,0.54941 0.41582,0.84109 1.26178,0.88556 0.69379,0.0365 1.26144,-0.11873 1.26144,-0.34491 z m 3.29838,-2.27695 c 0.52584,-0.77525 -0.21687,-2.7332 -1.03678,-2.7332 -0.51776,0 -0.74746,0.49464 -0.74746,1.60962 0,1.59307 1.0271,2.23986 1.78424,1.12358 z m 5.28178,-0.0505 c 0,-0.21078 -0.22712,-0.38324 -0.50471,-0.38324 -0.2776,0 -0.50472,-0.31042 -0.50472,-0.68983 0,-0.83157 -0.5889,-0.88907 -1.4132,-0.13797 -1.03796,0.94577 -0.66841,1.59429 0.90848,1.59429 0.83279,0 1.51415,-0.17246 1.51415,-0.38325 z m -25.65482,-0.79724 c 0.33332,-0.48632 0.95078,-0.77303 1.39225,-0.64646 0.68356,0.19599 0.69017,0.16105 0.0477,-0.25256 -0.53982,-0.34756 -0.9686,-0.29608 -1.55389,0.18656 -0.44458,0.36662 -1.07435,0.66657 -1.39949,0.66657 -0.32513,0 -0.59115,0.20695 -0.59115,0.45989 0,0.792 1.47713,0.50143 2.10454,-0.414 z m 16.27506,-1.37567 c 1.27988,-0.45713 1.46002,-2.80924 0.21515,-2.80924 -1.041,0 -1.60023,0.72405 -1.66928,2.16126 -0.0549,1.14209 0.001,1.16699 1.45413,0.64798 z m -11.95499,-0.32774 c -0.16771,-0.15282 -0.60303,-0.16916 -0.96737,-0.0363 -0.40263,0.14681 -0.28304,0.25578 0.30493,0.27785 0.53205,0.02 0.83015,-0.0887 0.66244,-0.24154 z m 8.61998,-1.09748 c 0.963,-0.73149 1.06927,-1.04766 0.61313,-1.82426 -0.70639,-1.20269 -1.09971,-1.18192 -2.45175,0.12945 -1.08628,1.0536 -1.04397,1.74428 0.0922,1.50421 0.31985,-0.0676 0.41121,-0.0361 0.20301,0.07 -0.20819,0.10609 -0.37853,0.3826 -0.37853,0.61446 0,0.6449 0.6389,0.48073 1.92198,-0.49387 z m -6.19871,-0.37542 c -0.1554,-0.14159 -0.56265,-2.9e-4 -0.90502,0.31401 -0.49475,0.4542 -0.43678,0.50702 0.28254,0.25745 0.49776,-0.17271 0.77788,-0.42986 0.62248,-0.57146 z m 22.22884,0.31991 c 0.1854,-0.27335 -0.004,-0.80776 -0.42082,-1.18759 -0.59211,-0.53952 -0.9875,-0.57864 -1.80743,-0.1788 -0.57723,0.28149 -0.93895,0.77435 -0.80381,1.09524 0.30904,0.73383 2.58046,0.93696 3.03206,0.27115 z m -5.00317,-2.02193 c 0.55005,-1.0806 0.49954,-1.14614 -0.88326,-1.14614 -0.80666,0 -1.46665,0.0865 -1.46665,0.19233 0,0.10579 -0.13024,0.50159 -0.28942,0.87956 -0.25492,0.60531 0.0979,0.8343 1.80356,1.17063 0.1388,0.0274 0.51489,-0.466 0.83577,-1.09638 z m -14.39611,-0.29673 c 1.30313,-1.36907 1.18437,-1.49151 -0.54425,-0.56108 -0.81768,0.44012 -1.37208,0.9692 -1.232,1.17572 0.39471,0.58194 0.75647,0.45675 1.77625,-0.61464 z m 22.03063,-0.31847 c 0.14464,-0.39579 -0.098,-0.56152 -0.67342,-0.45989 -0.49476,0.0874 -1.00131,0.43735 -1.12569,0.77768 -0.14464,0.3958 0.098,0.56153 0.67343,0.45989 0.49475,-0.0874 1.00131,-0.43735 1.12568,-0.77768 z m -10.99386,-0.0566 c 0,-0.24499 -0.39747,-0.33158 -0.88326,-0.1924 -0.79352,0.22735 -0.78836,0.18226 0.0508,-0.44388 0.90521,-0.67544 0.90148,-0.72878 -0.12085,-1.72867 -1.33371,-1.30442 -1.72802,-0.95291 -1.29428,1.1538 0.24866,1.20778 0.59935,1.65661 1.29433,1.65661 0.5243,0 0.95327,-0.20045 0.95327,-0.44546 z m -12.11318,-0.47432 c 0,-0.57621 -0.53563,-0.57621 -1.51415,0 -0.6122,0.3605 -0.53976,0.44715 0.37854,0.45285 0.62458,0.004 1.13561,-0.19991 1.13561,-0.45285 z m 7.4512,-1.19158 c -0.15649,-1.72292 -2.24086,-2.63876 -3.92902,-1.72635 l -1.25096,0.67612 1.23552,-0.23952 c 1.45835,-0.28271 2.54985,0.40984 2.54985,1.61786 0,0.47491 0.33814,0.86347 0.75142,0.86347 0.49992,0 0.7152,-0.39882 0.64319,-1.19158 z m -8.68362,-0.2314 c 0.33726,-0.49722 1.66125,-0.394 3.37746,0.26332 0.52745,0.20201 0.88325,0.13674 0.88325,-0.16205 0,-0.57105 -1.71099,-1.0374 -4.19706,-1.14394 -1.39539,-0.0598 -1.65985,0.0728 -1.46937,0.73647 0.26289,0.91603 0.89823,1.05442 1.40572,0.3062 z m -3.81474,-0.41658 c 0,-0.25294 -0.39746,-0.45672 -0.88325,-0.45285 -0.75483,0.006 -0.77317,0.0719 -0.12618,0.45285 0.95251,0.56089 1.00943,0.56089 1.00943,0 z m 22.71221,-0.031 c 0,-0.28159 0.43036,-0.36642 1.00943,-0.19895 1.18578,0.34292 1.33538,-0.33073 0.25489,-1.14782 -0.60807,-0.45982 -1.00001,-0.42406 -2.01887,0.18424 -1.52193,0.90864 -1.63674,1.65342 -0.25488,1.65342 0.55518,0 1.00943,-0.2209 1.00943,-0.49088 z m 4.75352,-0.24816 c 0.93193,-0.32585 1.05458,-1.36183 0.21707,-1.83348 -0.31971,-0.18003 -0.88751,0.0543 -1.26179,0.52065 -1.16313,1.44941 -0.76756,1.9465 1.04472,1.31283 z m 3.54567,-0.74296 c 0.43213,-0.56216 0.78569,-1.29822 0.78569,-1.63569 0,-0.98178 -2.17377,0.60703 -2.36114,1.72576 -0.20631,1.23184 0.59449,1.18605 1.57545,-0.0901 z m -12.11917,-0.0477 c 1.4428,-0.9613 0.65348,-2.49904 -1.15839,-2.25673 -1.21298,0.16222 -1.42548,0.39718 -1.38198,1.52812 0.0568,1.47718 1.00758,1.74988 2.54037,0.72861 z m -4.91146,-1.86942 c -0.37331,-0.53342 -0.8594,-1.24819 -1.08021,-1.58839 -0.30204,-0.46532 -0.63599,-0.29444 -1.34818,0.68984 -1.04054,1.43807 -1.23525,2.21124 -0.44476,1.76608 0.27972,-0.15752 0.87159,0.0444 1.31526,0.44863 0.62938,0.57348 0.96382,0.6162 1.52165,0.19435 0.6031,-0.45608 0.60878,-0.69241 0.0362,-1.51051 z m -15.05486,-0.32616 c -0.55052,-0.31776 -0.51751,-0.4011 0.16105,-0.4067 1.21239,-0.01 1.64682,-0.8756 0.61969,-1.23474 -0.54443,-0.19036 -1.11261,0.0108 -1.54208,0.54598 -0.58099,0.72399 -0.55386,0.97444 0.18625,1.71963 0.57389,0.57782 0.93401,0.68713 1.0669,0.32386 0.11033,-0.30161 -0.11098,-0.72821 -0.49181,-0.94803 z m 7.28194,0.62101 c 0.22199,-0.31617 0.74642,-0.57486 1.1654,-0.57486 0.41898,0 0.62141,0.20695 0.44985,0.45989 -0.17157,0.25294 -0.076,0.45989 0.21231,0.45989 0.28833,0 1.01571,-0.8778 1.6164,-1.95068 0.80898,-1.44489 0.8828,-1.79235 0.28473,-1.34008 -0.44409,0.33583 -1.04351,0.47766 -1.33203,0.31517 -0.28853,-0.16248 -1.10143,0.27172 -1.80646,0.96489 l -1.28185,1.2603 -1.46786,-1.46436 c -1.44689,-1.44345 -2.73547,-2.10378 -1.53644,-0.78735 0.48885,0.53671 0.47458,0.80646 -0.0689,1.30165 -0.37704,0.34356 -0.9674,0.53903 -1.31191,0.43439 -0.34452,-0.10464 -0.62639,-0.006 -0.62639,0.21918 0,1.08958 4.99898,1.70487 5.70313,0.70197 z m -9.68847,-1.17097 c -0.64779,-0.59027 -1.30471,-0.13406 -0.82513,0.57301 0.18578,0.27389 0.56899,0.36778 0.85159,0.20864 0.34473,-0.19413 0.33602,-0.45137 -0.0264,-0.78165 z m -1.56653,0.13622 c 0,-0.25294 -0.10016,-0.45989 -0.22257,-0.45989 -0.12242,0 -0.36294,0.20695 -0.53451,0.45989 -0.17156,0.25294 -0.0714,0.45989 0.22257,0.45989 0.29398,0 0.53451,-0.20695 0.53451,-0.45989 z m 30.48407,-0.24897 c 0.53873,-0.49089 1.39074,-0.64157 2.77068,-0.49001 1.46674,0.16109 2.06932,0.037 2.28294,-0.4703 0.16522,-0.3923 0.76067,-0.62695 1.38237,-0.54475 0.60067,0.0794 1.18896,-0.11428 1.30729,-0.43045 0.11834,-0.31618 -0.14445,-0.60073 -0.58398,-0.63235 -0.43952,-0.0316 -1.02625,-0.10922 -1.30385,-0.17246 -0.27759,-0.0632 -1.08592,-0.14084 -1.79629,-0.17246 -0.8807,-0.0392 -1.17593,-0.24036 -0.92805,-0.63235 0.19995,-0.31617 -0.18411,-0.12599 -0.85346,0.42264 -1.58887,1.3023 -4.81574,1.31205 -5.1878,0.0157 -0.13823,-0.48167 -0.48905,-0.74189 -0.77959,-0.57828 -0.29054,0.16362 -0.93042,0.10893 -1.42194,-0.12153 -1.30238,-0.61065 -2.15547,-0.16706 -2.15547,1.12081 0,0.96567 0.13782,1.06037 0.95988,0.65949 0.82594,-0.40277 0.92129,-0.33357 0.68324,0.4959 -0.24967,0.86995 -0.16784,0.91092 0.83887,0.42 0.84983,-0.41442 1.28435,-0.41635 1.82422,-0.008 0.38977,0.29475 0.68904,0.67128 0.66504,0.83672 -0.17432,1.20178 1.11286,1.35976 2.2959,0.28178 z m -33.5177,-0.43501 c 0.84472,-0.92743 0.29524,-2.05833 -0.86569,-1.78171 -1.10418,0.26311 -1.50341,2.46569 -0.44691,2.46569 0.37929,0 0.96996,-0.30779 1.3126,-0.68398 z m 25.74435,-0.60416 c 0.003,-0.2928 -3.80448,-3.30649 -4.18018,-3.30857 -0.21796,-10e-4 -0.15319,0.4117 0.14394,0.91758 0.37061,0.631 0.37484,0.91979 0.0135,0.91979 -0.3487,0 -0.33288,0.28286 0.0468,0.83685 0.37957,0.55382 1.1487,0.82602 2.27401,0.80481 0.93524,-0.0176 1.70111,-0.0943 1.70193,-0.17046 z m -30.78617,-1.06052 c 0,-0.28 0.34068,-0.38997 0.75707,-0.24437 0.50587,0.17688 0.75707,-0.0194 0.75707,-0.59144 0,-0.87911 -0.95212,-1.42564 -2.43868,-1.39981 -0.78299,0.0136 -0.78341,0.0552 -0.006,0.59405 0.60779,0.42128 0.70427,0.79387 0.35346,1.36505 -0.32009,0.52117 -0.30417,0.78562 0.0473,0.78562 0.29139,0 0.5298,-0.22909 0.5298,-0.5091 z m 13.1226,-0.41068 c 0,-0.25294 -0.22712,-0.45989 -0.50471,-0.45989 -0.2776,0 -0.50472,0.20695 -0.50472,0.45989 0,0.25294 0.22712,0.45989 0.50472,0.45989 0.27759,0 0.50471,-0.20695 0.50471,-0.45989 z m 30.60263,-3.02939 c 0.44973,0.15725 1.12958,0.05 1.51079,-0.23823 0.51871,-0.39226 0.86753,-0.39223 1.38634,1.1e-4 0.54199,0.40986 0.86356,0.28741 1.47381,-0.56124 1.04873,-1.45841 1.25209,-2.70013 0.48236,-2.94536 -0.38818,-0.12368 -0.52107,0.0605 -0.34512,0.47828 0.18842,0.44739 -0.26883,0.93165 -1.33899,1.4181 -2.04702,0.9305 -2.10781,0.92549 -1.73565,-0.14296 0.25646,-0.73627 0.11641,-0.83756 -0.84924,-0.61425 -0.63599,0.14708 -1.67903,0.5746 -2.31787,0.95004 -0.87456,0.51396 -1.30476,0.5521 -1.74127,0.15435 -0.31886,-0.29054 -1.10212,-0.52825 -1.74059,-0.52825 -0.63847,0 -1.16085,-0.21423 -1.16085,-0.47607 0,-0.32442 -0.31825,-0.32088 -0.99907,0.0111 -0.54949,0.26796 -1.54076,0.36332 -2.20282,0.21191 -1.32146,-0.30221 -2.04847,0.61507 -1.50683,1.9012 0.24513,0.58206 0.38983,0.60593 0.72022,0.11882 0.32494,-0.47908 0.54505,-0.48968 1.02813,-0.0495 0.47553,0.4333 0.77827,0.43635 1.33742,0.0135 0.57137,-0.43209 0.85512,-0.38163 1.35468,0.24088 0.74362,0.92665 1.60637,1.02199 1.92362,0.21259 0.12393,-0.31618 0.40234,-0.42465 0.6187,-0.24106 0.21636,0.18359 0.0902,0.66666 -0.28033,1.07347 -0.49456,0.54299 -0.11018,0.47203 1.44559,-0.26686 1.1656,-0.55359 2.48724,-0.87787 2.93697,-0.72062 z m -14.17409,0.69267 c 0.18546,-0.27344 0.88023,-0.37297 1.54393,-0.22119 1.54295,0.35287 1.53595,-0.21918 -0.019,-1.55023 -1.29617,-1.10954 -2.39083,-1.11205 -2.59297,-0.006 -0.0668,0.3657 -0.28131,1.02707 -0.47663,1.46972 -0.3987,0.90355 0.95728,1.17363 1.54465,0.30765 z m -14.62294,-8.16645 c -1.07773,-0.19165 -1.51592,0.15636 -1.05413,0.83719 0.24967,0.3681 0.57098,0.34429 1.13857,-0.0844 0.71241,-0.53804 0.70405,-0.61261 -0.0844,-0.75282 z m 14.85002,0.56631 c 0,-0.0994 -0.34068,-0.18074 -0.75707,-0.18074 -0.41639,0 -0.75708,0.20045 -0.75708,0.44546 0,0.245 0.34069,0.32633 0.75708,0.18074 0.41639,-0.1456 0.75707,-0.34605 0.75707,-0.44546 z m -10.89267,-0.45982 c 0.96159,-0.33622 1.01709,-0.92181 0.16746,-1.76679 -0.53169,-0.52878 -0.76525,-0.51825 -1.48533,0.0669 -0.67139,0.54561 -0.72545,0.82823 -0.25236,1.3192 0.72512,0.75251 0.59616,0.72125 1.57023,0.38066 z m 5.3408,-1.8496 c 0,-0.39419 -0.45425,-0.82494 -1.00943,-0.95723 -0.55519,-0.13229 -1.00944,-0.42812 -1.00944,-0.65739 0,-0.22927 -0.57489,-0.0736 -1.27754,0.34588 -0.70264,0.41951 -1.16238,0.86767 -1.02162,0.99592 0.14075,0.12825 0.60208,-0.0286 1.02518,-0.34855 0.6537,-0.49434 0.76927,-0.41207 0.76927,0.54765 0,0.62116 0.14342,1.26008 0.31872,1.4198 0.51402,0.46837 2.20486,-0.5639 2.20486,-1.34608 z m 3.38009,0.86405 c 0.008,-0.44265 -0.23762,-1.10322 -0.54678,-1.46795 -0.42856,-0.50562 -0.41222,-0.5811 0.0688,-0.31778 0.34699,0.18995 0.6309,0.1262 0.6309,-0.14167 0,-0.26786 -0.45425,-0.48703 -1.00943,-0.48703 -1.18306,0 -1.16289,-0.0785 -0.45534,1.77094 0.60534,1.58228 1.28761,1.91694 1.31185,0.64349 z m -2.62302,-6.09355 c 0.39478,-0.58204 -0.27337,-0.58204 -1.26179,0 -0.65244,0.38419 -0.63911,0.44678 0.0964,0.45284 0.46941,0.004 0.99384,-0.1999 1.1654,-0.45284 z m 4.78018,-0.90182 c 0.40835,-0.23532 0.57329,-0.58199 0.36652,-0.77039 -0.20676,-0.18841 -0.75988,0.007 -1.22915,0.43488 -0.91221,0.8312 -0.36613,1.04359 0.86263,0.33551 z m -10.37789,-2.09966 c 1.8075,-0.68815 6.12734,-4.03 6.89179,-5.33154 0.38314,-0.65232 0.31513,-1.14389 -0.26219,-1.89492 -0.55567,-0.72289 -0.80161,-0.81963 -0.8564,-0.33691 -0.0423,0.37246 -0.10308,0.89292 -0.13509,1.1566 -0.10929,0.90015 -4.07417,4.44263 -5.9507,5.31674 -4.75566,2.21525 -10.62539,-0.24111 -11.24553,-4.70601 -0.21931,-1.57898 -1.02778,-2.61049 -1.6218,-2.06923 -0.20478,0.1866 -0.0873,0.49977 0.26104,0.69595 0.34836,0.19617 0.51651,0.65056 0.37368,1.00975 -0.14284,0.35918 0.3605,1.68782 1.11851,2.95252 2.39699,3.99921 6.39712,5.1219 11.42669,3.20705 z m -18.31656,-0.33273 c 0.81464,-0.56912 2.09973,-1.49386 2.85576,-2.05498 l 1.3746,-1.02022 -1.3704,-0.0145 c -0.82654,-0.009 -2.12852,0.57143 -3.28066,1.46194 -1.05063,0.81207 -1.98977,1.52263 -2.08696,1.57902 -0.23974,0.13912 0.42056,1.08352 0.75757,1.08352 0.14791,0 0.93545,-0.46564 1.75009,-1.03475 z m 53.21749,-0.61241 c 0.90244,-0.67001 0.90646,-0.70616 0.0509,-0.4584 -0.94109,0.27254 -3.86601,-1.00102 -3.86601,-1.68332 0,-0.20424 -0.57489,-0.0281 -1.27754,0.39139 -1.45003,0.86572 -1.34175,1.08052 0.92348,1.83195 2.29197,0.76031 3.05526,0.74536 4.16914,-0.0816 z m -53.87949,-2.55783 c 0.43011,-0.55681 1.27867,-0.85381 2.43946,-0.85381 1.19972,0 1.71134,-0.18739 1.56949,-0.57486 -0.58728,-1.60418 -6.44015,0.32758 -6.74603,2.22655 -0.15059,0.93497 1.84876,0.35214 2.73708,-0.79788 z m 55.84341,0.007 c 0.28575,-0.23869 0.0404,-0.40052 -0.60715,-0.40052 -0.59765,0 -1.65063,-0.23415 -2.33998,-0.52034 -0.68934,-0.2862 -1.6547,-0.38002 -2.14523,-0.2085 -0.77383,0.27057 -0.69663,0.42855 0.58331,1.19361 1.45293,0.86846 3.4261,0.84035 4.50905,-0.0643 z m -10.67491,-0.22307 c 2.34473,-1.07759 4.3912,-2.96556 4.3912,-4.05111 0,-0.80081 -0.16837,-0.72629 -1.12169,0.49644 -2.34866,3.01238 -7.02188,4.09712 -10.6867,2.48057 -2.35968,-1.04085 -5.35195,-3.73105 -5.35195,-4.81167 0,-0.74945 -1.41487,-1.89368 -1.85062,-1.49663 -0.17165,0.1564 -0.0214,0.60352 0.3339,0.9936 0.35529,0.39008 0.67156,1.16842 0.70282,1.72963 0.038,0.68313 1.10908,1.74443 3.24041,3.21095 2.90099,1.99611 3.42964,2.19056 5.95548,2.19056 1.54743,0 3.48541,-0.32793 4.38715,-0.74234 z m 10.99982,-2.04008 c 1.43074,-0.69771 0.69873,-1.3566 -1.50714,-1.3566 -2.21114,0 -2.79596,0.35618 -2.00701,1.22238 0.67384,0.73982 2.15617,0.79644 3.51415,0.13422 z m -38.03769,-1.63445 c -0.16771,-0.15282 -0.60303,-0.16916 -0.96737,-0.0363 -0.40263,0.14681 -0.28303,0.25578 0.30493,0.27785 0.53205,0.02 0.83015,-0.0887 0.66244,-0.24154 z m 8.96922,-0.18204 c 0.17156,-0.25294 0.028,-0.45989 -0.31904,-0.45989 -0.35685,0 -0.22694,-0.26919 0.29903,-0.61964 0.64861,-0.43215 0.75307,-0.71927 0.34526,-0.94893 -0.32604,-0.18361 -0.71821,-0.0124 -0.88642,0.38705 -0.38504,0.91429 -1.20534,0.47406 -1.20534,-0.64686 0,-0.46988 -0.17034,-0.9233 -0.37853,-1.00762 -0.2082,-0.0843 -0.79738,-0.90502 -1.3093,-1.82379 -0.51191,-0.91877 -1.48787,-1.90179 -2.16879,-2.18448 -2.9503,-1.22486 -10.97489,-0.0777 -9.95676,1.42332 0.22895,0.33754 0.0642,0.41796 -0.47205,0.23044 -1.53701,-0.53742 -2.31863,1.91611 -1.11091,3.48722 0.41777,0.54349 0.75959,0.84376 0.75959,0.66727 0,-0.17649 0.57012,-0.12338 1.26692,0.11801 0.97886,0.33911 1.63873,0.23234 2.90212,-0.46955 0.89936,-0.49965 1.37266,-0.90923 1.05178,-0.91018 -0.43441,-0.001 -0.44068,-0.27729 -0.0245,-1.08076 0.40129,-0.77482 0.95677,-1.06655 1.97022,-1.03475 1.28779,0.0404 2.11857,0.73412 0.87917,0.73412 -0.29398,0 -0.4171,0.17309 -0.27361,0.38465 0.1435,0.21155 1.11021,0.41374 2.14826,0.4493 1.10481,0.0378 2.06573,0.35507 2.31755,0.76508 0.23658,0.38523 0.72436,0.70042 1.08393,0.70042 0.84377,0 2.43078,1.5893 1.98899,1.99186 -0.18567,0.16918 -0.086,0.3076 0.22147,0.3076 0.30747,0 0.69942,-0.20695 0.87098,-0.45989 z m -14.53892,-2.13366 c -0.40323,-0.36742 0.0526,-1.08558 0.68903,-1.08558 0.26121,0 0.47492,0.31043 0.47492,0.68984 0,0.71118 -0.59554,0.91366 -1.16395,0.39574 z m -2.36906,-1.08558 c 0,-0.25294 0.34069,-0.45989 0.75708,-0.45989 0.41639,0 0.75707,0.20695 0.75707,0.45989 0,0.25294 -0.34068,0.45989 -0.75707,0.45989 -0.41639,0 -0.75708,-0.20695 -0.75708,-0.45989 z m 2.01887,-0.91978 c 0,-0.25294 0.24052,-0.45989 0.5345,-0.45989 0.29398,0 0.39413,0.20695 0.22257,0.45989 -0.17156,0.25294 -0.41209,0.45989 -0.5345,0.45989 -0.12242,0 -0.22257,-0.20695 -0.22257,-0.45989 z m 2.93366,-1.69383 c 0.36434,-0.13285 0.79965,-0.11651 0.96737,0.0363 0.16771,0.15282 -0.13039,0.26151 -0.66244,0.24154 -0.58797,-0.0221 -0.70756,-0.13104 -0.30493,-0.27785 z m 3.12293,-0.14573 c 0,-0.25294 0.22712,-0.45989 0.50471,-0.45989 0.27759,0 0.50472,0.20695 0.50472,0.45989 0,0.25294 -0.22713,0.45989 -0.50472,0.45989 -0.27759,0 -0.50471,-0.20695 -0.50471,-0.45989 z m -3.0283,5.53312 c 0,-0.245 -0.34068,-0.32634 -0.75707,-0.18074 -0.41639,0.14559 -0.75708,0.34605 -0.75708,0.44545 0,0.0994 0.34069,0.18075 0.75708,0.18075 0.41639,0 0.75707,-0.20046 0.75707,-0.44546 z m 7.06602,0.26471 c 0,-0.0994 -0.34068,-0.29986 -0.75707,-0.44545 -0.41639,-0.1456 -0.75708,-0.0643 -0.75708,0.18074 0,0.245 0.34069,0.44546 0.75708,0.44546 0.41639,0 0.75707,-0.0813 0.75707,-0.18075 z m 34.95156,-1.0416 c 0.9245,-0.51681 0.20608,-0.88391 -1.89268,-0.96714 -1.95776,-0.0776 -2.27122,0.0352 -2.27122,0.81726 0,0.79039 0.24392,0.87216 1.89268,0.63441 1.04097,-0.15011 2.06302,-0.36815 2.27122,-0.48453 z m -37.47514,-0.61722 c 0,-0.25294 -0.24053,-0.45989 -0.5345,-0.45989 -0.29398,0 -0.39413,0.20695 -0.22257,0.45989 0.17156,0.25294 0.41209,0.45989 0.5345,0.45989 0.12242,0 0.22257,-0.20695 0.22257,-0.45989 z m 31.04001,0 c 0.17157,-0.25294 0.0714,-0.45989 -0.22256,-0.45989 -0.29398,0 -0.53451,0.20695 -0.53451,0.45989 0,0.25294 0.10016,0.45989 0.22257,0.45989 0.12241,0 0.36294,-0.20695 0.5345,-0.45989 z m -29.02115,-0.45989 c 0,-0.25294 -0.39746,-0.45672 -0.88325,-0.45285 -0.75483,0.006 -0.77317,0.0719 -0.12618,0.45285 0.95251,0.56089 1.00943,0.56089 1.00943,0 z m 24.73107,0 c -0.98842,-0.58203 -1.65657,-0.58203 -1.26179,0 0.17157,0.25294 0.696,0.45672 1.1654,0.45285 0.73551,-0.006 0.74883,-0.0687 0.0964,-0.45285 z m 12.11318,-1.76574 c 0,-0.50729 -2.41611,-1.50237 -4.13759,-1.70407 -1.02191,-0.11974 -1.29178,0.006 -1.08161,0.50541 0.15402,0.36572 0.76676,0.66812 1.36165,0.67199 0.88334,0.006 0.94283,0.0888 0.32454,0.45285 -0.55444,0.32648 -0.18294,0.44769 1.38797,0.45285 1.17977,0.004 2.14504,-0.16669 2.14504,-0.37903 z m -29.53915,-3.73336 c 0.3151,-0.46456 -2.25028,-1.86939 -3.36848,-1.84462 -0.71371,0.0158 1.89118,2.28492 2.62305,2.28492 0.24573,0 0.58117,-0.19813 0.74543,-0.4403 z m -35.82153,91.03879 c -0.17156,-0.25294 -0.0848,-0.45989 0.19278,-0.45989 0.2776,0 0.64509,0.20695 0.81665,0.45989 0.17156,0.25294 0.0848,0.45989 -0.19278,0.45989 -0.2776,0 -0.64509,-0.20695 -0.81665,-0.45989 z m 10.75675,0.14574 c 0.36434,-0.13285 0.79966,-0.11652 0.96738,0.0363 0.16771,0.15282 -0.13039,0.26152 -0.66244,0.24155 -0.58797,-0.0221 -0.70756,-0.13104 -0.30494,-0.27785 z m 37.69123,-0.1527 c -0.56515,-0.83323 -3.854,-1.83335 -5.09532,-1.54947 -0.73078,0.16713 -1.2089,0.0749 -1.2089,-0.23327 0,-1.22038 5.75801,-0.0378 6.57312,1.34993 0.53785,0.91573 0.30875,1.28446 -0.2689,0.43281 z m -18.66976,-0.91282 c -0.17156,-0.25294 -0.0848,-0.45989 0.19279,-0.45989 0.27759,0 0.64508,0.20695 0.81665,0.45989 0.17156,0.25294 0.0848,0.45989 -0.19279,0.45989 -0.27759,0 -0.64508,-0.20695 -0.81665,-0.45989 z m 3.18602,0.14574 c 0.36434,-0.13285 0.79966,-0.11652 0.96737,0.0363 0.16772,0.15282 -0.13038,0.26151 -0.66243,0.24155 -0.58797,-0.0221 -0.70757,-0.13105 -0.30494,-0.27785 z m -31.70245,-0.60563 c 0,-0.25294 0.22712,-0.45989 0.50471,-0.45989 0.2776,0 0.50472,0.20695 0.50472,0.45989 0,0.25294 -0.22712,0.45989 -0.50472,0.45989 -0.27759,0 -0.50471,-0.20695 -0.50471,-0.45989 z m 3.78537,-0.16929 c -0.55519,-0.2863 -1.10263,-0.57097 -1.21653,-0.6326 -0.1139,-0.0616 0.31288,-0.52298 0.9484,-1.02521 1.35661,-1.07209 2.03463,-0.84636 2.03463,0.67737 0,1.37641 -0.48097,1.64335 -1.7665,0.98044 z m 30.94538,0.31503 c 0.36433,-0.13285 0.79965,-0.11652 0.96737,0.0363 0.16771,0.15282 -0.13039,0.26151 -0.66244,0.24154 -0.58797,-0.0221 -0.70756,-0.13104 -0.30493,-0.27784 z m -8.75865,-1.09612 c -0.5498,-0.81059 0.0298,-0.92424 1.06703,-0.20922 0.85391,0.58865 0.86845,0.67224 0.11912,0.68509 -0.4694,0.008 -1.00317,-0.2061 -1.18615,-0.47587 z m -24.96267,-0.88918 c 0,-0.25294 0.22712,-0.45989 0.50472,-0.45989 0.27759,0 0.50471,0.20695 0.50471,0.45989 0,0.25294 -0.22712,0.45989 -0.50471,0.45989 -0.2776,0 -0.50472,-0.20695 -0.50472,-0.45989 z m -1.76142,-0.92729 c 0.17436,-0.25706 0.52845,-0.34833 0.78686,-0.2028 0.25842,0.14553 0.46984,0.0454 0.46984,-0.22244 0,-0.26787 0.34069,-0.48704 0.75708,-0.48704 0.99948,0 0.97148,0.74641 -0.0413,1.10053 -1.23857,0.43307 -2.32368,0.32951 -1.9725,-0.18825 z m -25.78223,-0.80434 c -0.62139,-0.38783 -0.65602,-2.36099 -0.0564,-3.2122 0.22273,-0.31617 0.28056,-0.75829 0.1285,-0.98247 -0.15206,-0.22418 0.232,-0.5346 0.85347,-0.68982 0.85379,-0.21325 0.96541,-0.37897 0.45672,-0.67812 -0.53909,-0.31703 -0.50757,-0.45382 0.15817,-0.6866 0.45726,-0.15989 0.69002,-0.49911 0.51724,-0.75384 -0.17277,-0.25473 -0.0736,-0.46314 0.22037,-0.46314 0.29398,0 0.5345,-0.31043 0.5345,-0.68983 0,-0.37941 0.17548,-0.68984 0.38994,-0.68984 0.21447,0 0.81804,-0.72433 1.34127,-1.60962 0.52323,-0.88529 1.09435,-1.60962 1.26916,-1.60962 0.74632,0 0.38205,1.82119 -0.51167,2.55817 -0.536,0.44199 -0.97455,1.06942 -0.97455,1.39427 0,0.32485 -0.79382,2.00012 -1.76404,3.72282 -1.9215,3.41175 -2.09434,4.08563 -1.13807,4.43722 0.4297,0.15799 0.38946,0.24129 -0.12618,0.26123 -0.41639,0.0161 -1.00069,-0.12278 -1.29844,-0.30861 z m -2.73929,-1.00057 c 0,-0.23802 0.22452,-0.5592 0.49894,-0.71373 0.2861,-0.16112 0.37071,0.0235 0.19835,0.43275 -0.33553,0.79672 -0.69729,0.9425 -0.69729,0.28098 z m -3.51839,-9.207 c -0.40835,-0.23531 -0.59338,-0.56368 -0.41118,-0.7297 0.18221,-0.16602 0.85075,0.0297 1.48566,0.43488 1.24428,0.79413 0.26044,1.06407 -1.07448,0.29482 z m 12.8592,-3.69182 c -0.17682,-0.2607 0.0258,-0.33779 0.47493,-0.18075 0.87438,0.30573 1.03436,0.63537 0.30836,0.63537 -0.26121,0 -0.61369,-0.20458 -0.78329,-0.45462 z m -10.35024,-5.06407 c 0,-0.25294 0.22712,-0.45989 0.50472,-0.45989 0.27759,0 0.50471,0.20695 0.50471,0.45989 0,0.25294 -0.22712,0.45989 -0.50471,0.45989 -0.2776,0 -0.50472,-0.20695 -0.50472,-0.45989 z m 6.81366,-4.59891 c -0.17156,-0.25294 -0.0848,-0.45989 0.19279,-0.45989 0.27759,0 0.64508,0.20695 0.81664,0.45989 0.17157,0.25294 0.0848,0.45989 -0.19278,0.45989 -0.2776,0 -0.64509,-0.20695 -0.81665,-0.45989 z m -11.50667,-1.3646 c 0.14281,-0.4976 0.61089,-1.17019 1.04018,-1.49465 0.65987,-0.49874 0.64943,-0.35888 -0.0675,0.90472 -0.95845,1.68927 -1.35766,1.93139 -0.97267,0.58993 z m 14.28261,-1.39474 c 0,-0.25294 0.21372,-0.45989 0.47493,-0.45989 0.26121,0 0.61529,0.20695 0.78686,0.45989 0.17156,0.25294 -0.0422,0.45989 -0.47493,0.45989 -0.43278,0 -0.78686,-0.20695 -0.78686,-0.45989 z m -10.56788,-1.91907 c -0.94863,-0.31975 -1.07898,-0.52935 -0.60041,-0.96542 0.47858,-0.43608 0.71068,-0.41047 1.06909,0.11795 0.38872,0.57309 0.68713,0.52046 1.97741,-0.34877 1.61212,-1.08603 2.06906,-1.23668 2.05895,-0.67879 -0.003,0.1897 -0.74584,0.78109 -1.64979,1.31419 -1.24385,0.73355 -1.93823,0.86995 -2.85525,0.56084 z m -0.34437,-2.85433 c 0.0668,-0.41503 0.37606,-0.9865 0.68712,-1.26994 0.41762,-0.38054 0.53378,-0.31794 0.44403,0.23925 -0.0668,0.41503 -0.37606,0.9865 -0.68712,1.26994 -0.41762,0.38053 -0.53378,0.31794 -0.44403,-0.23925 z m 3.64698,-5.09615 c 1.00646,-1.38121 2.37151,-2.83464 3.03345,-3.22983 1.64674,-0.98316 1.51059,-0.51285 -0.31062,1.07304 -0.83278,0.72516 -1.51415,1.52686 -1.51415,1.78153 0,0.64664 -1.99068,2.88656 -2.56537,2.88656 -0.26028,0 0.35023,-1.13009 1.35669,-2.5113 z m 30.48219,-3.69723 c 0,-0.37941 0.22712,-0.68984 0.50471,-0.68984 0.2776,0 0.50472,0.31043 0.50472,0.68984 0,0.37941 -0.22712,0.68984 -0.50472,0.68984 -0.27759,0 -0.50471,-0.31043 -0.50471,-0.68984 z m -21.92542,-0.44527 c 0.53884,-0.37136 1.66108,-0.66604 2.49386,-0.65484 l 1.51415,0.0204 -1.7665,0.61985 c -2.45683,0.86209 -3.48087,0.86877 -2.24151,0.0146 z m -0.99684,-2.12673 c 1.24231,-1.25082 2.73363,-1.98908 2.73363,-1.35325 0,0.26184 -0.33876,0.47607 -0.7528,0.47607 -0.41403,0 -1.03647,0.4139 -1.38319,0.91978 -0.34672,0.50588 -0.83809,0.91978 -1.09193,0.91978 -0.25385,0 -0.0314,-0.43307 0.49429,-0.96238 z m 15.85624,0.45944 c 0,-0.22926 0.45424,-0.41684 1.00943,-0.41684 0.55519,0 1.00943,0.0793 1.00943,0.17631 0,0.097 -0.45424,0.28454 -1.00943,0.41683 -0.55519,0.1323 -1.00943,0.053 -1.00943,-0.1763 z m 31.29237,-8.64059 c 0,-0.25294 0.22712,-0.58779 0.50471,-0.74412 0.2776,-0.15633 0.50472,-0.0773 0.50472,0.17566 0,0.25294 -0.22712,0.58779 -0.50472,0.74412 -0.27759,0.15633 -0.50471,0.0773 -0.50471,-0.17566 z m -33.81595,-0.65763 c 0,-0.0789 0.73815,-0.62906 1.64033,-1.22256 l 1.64032,-1.0791 -1.22359,1.22256 c -1.04516,1.04428 -2.05706,1.5751 -2.05706,1.0791 z m 31.30237,-1.5826 c -1.25153,-0.47199 -1.9953,-0.52654 -2.58716,-0.18974 -1.00128,0.56977 -2.97471,-0.49785 -2.97471,-1.60932 0,-0.52676 0.32228,-0.63991 1.23085,-0.43213 1.29169,0.29541 2.26364,-0.38106 1.16969,-0.81408 -0.34872,-0.13803 -0.007,-0.13269 0.75963,0.0119 1.13625,0.21431 1.33604,0.12599 1.08162,-0.47814 -0.33756,-0.80153 0.16764,-0.94971 1.201,-0.35227 0.35639,0.20606 0.5164,0.68711 0.35556,1.06901 -0.16083,0.3819 0.0586,0.95981 0.48762,1.28424 0.66191,0.50055 0.78005,0.44206 0.78005,-0.38621 0,-0.53685 0.22712,-0.97609 0.50471,-0.97609 0.2776,0 0.50472,0.20695 0.50472,0.45989 0,0.25294 0.29235,0.45989 0.64967,0.45989 1.1029,0 0.86295,1.69318 -0.30736,2.16875 -0.77687,0.31568 -1.61467,0.25241 -2.85589,-0.21568 z m -14.06883,-0.81129 c -0.65373,-0.62798 -1.50543,-1.14178 -1.89269,-1.14178 -0.81395,0 -0.94092,-0.73214 -0.19938,-1.14973 0.27759,-0.15632 0.50472,-0.47896 0.50472,-0.71698 0,-0.23801 -0.22713,-0.43275 -0.50472,-0.43275 -0.27759,0 -0.50472,0.31043 -0.50472,0.68984 0,0.89734 -0.57931,0.87047 -2.47948,-0.11497 -1.80589,-0.93655 -2.07709,-1.75272 -0.42263,-1.27187 0.62458,0.18153 1.87298,0.37742 2.77422,0.43532 1.75025,0.11242 2.39911,0.47342 2.39911,1.33476 0,0.65402 4.12119,0.99292 4.95828,0.40773 0.32648,-0.22823 1.13477,-0.28901 1.7962,-0.13507 1.08821,0.25326 1.12421,0.33916 0.37853,0.90306 -1.04581,0.79086 -1.07261,1.61564 -0.0408,1.25486 0.44916,-0.15705 0.65175,-0.08 0.47493,0.18074 -0.40075,0.59084 -2.11811,0.58725 -2.52,-0.005 -0.17157,-0.25294 -0.696,-0.45672 -1.1654,-0.45284 -0.66043,0.005 -0.70112,0.095 -0.17991,0.39608 0.50308,0.29058 0.37534,0.46181 -0.50471,0.67652 -1.62136,0.39557 -1.54246,0.41913 -2.87158,-0.85765 z m 0.17915,-2.52145 c 0.17156,-0.25294 0.52565,-0.4599 0.78686,-0.4599 0.26121,0 0.47493,0.20696 0.47493,0.4599 0,0.25294 -0.35409,0.45989 -0.78686,0.45989 -0.43278,0 -0.64649,-0.20695 -0.47493,-0.45989 z m 6.93079,-0.91979 c -0.50501,-0.73683 -0.50406,-0.91838 0.005,-0.91274 1.06895,0.0119 2.04616,0.78061 1.67948,1.32122 -0.50484,0.7443 -0.97178,0.63105 -1.68425,-0.40848 z m -4.50422,-0.23711 c -0.4708,-0.45923 -0.33744,-0.56817 0.63319,-0.51724 1.32182,0.0694 1.62654,0.51741 0.59677,0.87747 -0.34845,0.12184 -0.90193,-0.0403 -1.22996,-0.36023 z m -4.59685,-1.69443 c -0.8243,-0.75109 -0.76121,-1.28769 0.15142,-1.28769 0.41639,0 0.75707,0.0866 0.75707,0.19233 0,0.10578 0.13786,0.51968 0.30636,0.91978 0.36146,0.85829 -0.35237,0.96146 -1.21485,0.17558 z m 1.66556,-0.8278 c -0.17156,-0.25294 0.0288,-0.45989 0.44515,-0.45989 0.41639,0 0.89744,0.20695 1.069,0.45989 0.17156,0.25294 -0.0288,0.45989 -0.44514,0.45989 -0.41639,0 -0.89744,-0.20695 -1.06901,-0.45989 z m -1.7665,-1.37967 c 0,-0.25294 0.62459,-0.44535 1.38797,-0.42757 1.22991,0.0286 1.27302,0.0773 0.37853,0.42757 -1.37857,0.53978 -1.7665,0.53978 -1.7665,0 z m 4.66548,0.15436 c -1.02624,-0.377 -0.17853,-1.07414 1.30612,-1.07414 0.97405,0 1.87648,-0.53662 3.12469,-1.85806 0.9653,-1.02194 2.26612,-2.16494 2.89071,-2.54001 1.05089,-0.63107 1.13561,-0.61208 1.13561,0.25448 0,0.51503 -1.13861,1.96846 -2.53024,3.22984 -2.46043,2.23014 -3.92775,2.72228 -5.92689,1.98789 z m -2.64662,-1.34535 c 0,-0.40012 2.1892,-1.99387 2.77594,-2.02089 0.27759,-0.0128 1.03958,-0.53705 1.6933,-1.16503 1.05063,-1.00926 2.59678,-1.54981 2.59678,-0.90786 0,0.53777 -2.87916,3.12653 -4.13884,3.72138 -1.39855,0.66044 -2.92718,0.85491 -2.92718,0.3724 z m 40.65391,-6.00787 c -1.93417,-1.81467 -2.4578,-3.27636 -0.9019,-2.51763 0.48889,0.23841 1.31902,0.86655 1.84473,1.39586 0.54325,0.54697 1.57562,0.96237 2.39175,0.96237 1.65452,0 1.88059,0.67058 0.45967,1.3635 -1.49038,0.72678 -1.86189,0.60889 -3.79425,-1.2041 z m -44.56545,-12.91358 c -1.17978,-0.0968 -2.14505,-0.34761 -2.14505,-0.55729 0,-0.54223 2.84177,-0.85171 5.40416,-0.58855 1.77367,0.18217 2.07314,0.34119 1.60676,0.85323 -0.31527,0.34614 -1.05643,0.59319 -1.64702,0.549 -0.5906,-0.0442 -2.03908,-0.15957 -3.21885,-0.25639 z m 1.26179,-3.23716 c -1.31857,-0.39964 -2.3974,-0.91806 -2.3974,-1.15207 0,-0.2388 1.05178,-0.3072 2.3974,-0.1559 1.31856,0.14825 3.00705,0.27032 3.75218,0.27125 1.72736,0.002 2.24835,0.74186 0.96375,1.3683 -1.23989,0.60464 -1.74384,0.5692 -4.71593,-0.33158 z m 4.1639,-2.2483 c -0.97158,-0.40007 -2.42132,-0.86114 -3.22165,-1.02461 -1.17755,-0.24052 -1.32198,-0.39722 -0.75708,-0.82137 1.05385,-0.79129 7.67951,1.21574 6.7164,2.03451 -0.80866,0.68747 -0.57043,0.70387 -2.73767,-0.18853 z m 34.32066,-0.61628 c 0,-0.25294 0.22713,-0.45989 0.50472,-0.45989 0.27759,0 0.50472,0.20695 0.50472,0.45989 0,0.25294 -0.22713,0.45989 -0.50472,0.45989 -0.27759,0 -0.50472,-0.20695 -0.50472,-0.45989 z m -31.92326,-1.87087 c -2.07941,-1.00027 -2.59892,-2.06677 -0.75707,-1.55421 2.75158,0.76573 4.46467,1.60197 4.17044,2.03577 -0.45416,0.66958 -1.25526,0.55656 -3.41337,-0.48156 z m 37.97985,-0.19864 c -0.52494,-0.57633 -0.45206,-0.68983 0.44292,-0.68983 0.61573,0 1.07123,0.29332 1.07123,0.68983 0,0.37941 -0.19931,0.68984 -0.44292,0.68984 -0.2436,0 -0.72565,-0.31043 -1.07123,-0.68984 z m -33.31123,-0.21133 c 0,-0.93181 -2.81158,-2.77909 -4.28493,-2.81531 l -1.5193,-0.0374 1.51415,-0.61263 c 1.28307,-0.51914 1.53905,-0.51344 1.67733,0.0374 0.0897,0.35749 0.45405,0.64998 0.80955,0.64998 0.7636,0 3.00996,1.8788 3.19117,2.669 0.0694,0.30263 -0.21451,0.55024 -0.6309,0.55024 -0.41639,0 -0.75707,-0.19858 -0.75707,-0.44128 z m 5.04716,-0.36442 c -1.54638,-0.25491 -4.60087,-3.33332 -3.30743,-3.33332 0.45635,0 1.37868,0.5002 2.04962,1.11155 0.67095,0.61136 1.73321,1.43916 2.36058,1.83957 0.62739,0.4004 0.91981,0.697 0.64986,0.6591 -0.26997,-0.0379 -1.05865,-0.1625 -1.75263,-0.2769 z m 36.30111,-1.56934 c -0.34369,-0.59078 -1.2138,-1.53953 -1.93357,-2.10834 -1.52874,-1.2081 -0.80932,-1.39324 0.76227,-0.19616 1.20168,0.91531 2.42913,2.80194 2.04857,3.1487 -0.1388,0.12647 -0.53357,-0.25342 -0.87727,-0.8442 z m -26.43088,-2.03195 c -0.53806,-0.3585 -0.87809,-0.66862 -0.75564,-0.68917 1.23834,-0.20781 2.99858,-0.16036 2.99858,0.0808 0,0.86669 -1.31847,1.22429 -2.24294,0.60834 z m 20.1964,-2.5097 c -1.09054,-0.4958 -2.83733,-0.90146 -3.88175,-0.90146 -1.04443,0 -2.01284,-0.16789 -2.15203,-0.3731 -0.2721,-0.40117 -2.3909,-0.35131 -5.15581,0.12133 -0.94419,0.1614 -1.71671,0.10299 -1.71671,-0.12979 0,-0.51465 2.46327,-0.99811 5.0854,-0.99811 2.8362,0 6.91831,0.89195 8.86031,1.936 2.84303,1.52845 2.10349,1.77401 -1.03941,0.34513 z m -23.75769,0.0529 c -1.20152,-0.24891 -0.73257,-0.38277 2.27122,-0.64831 2.08195,-0.18405 4.80742,-0.43486 6.05659,-0.55737 1.92071,-0.18837 2.07982,-0.14752 1.03094,0.26468 -0.68216,0.26809 -2.38557,0.54448 -3.78537,0.6142 -1.39979,0.0697 -2.88577,0.24236 -3.30216,0.38364 -0.41639,0.14127 -1.43844,0.11569 -2.27122,-0.0568 z m -3.88,-0.34876 c 0.36434,-0.13285 0.79966,-0.11651 0.96737,0.0363 0.16771,0.15282 -0.13039,0.26152 -0.66244,0.24155 -0.58797,-0.0221 -0.70756,-0.13104 -0.30493,-0.27785 z"
     id="path4537"
     inkscape:connector-curvature="0" />
</svg>
