<?xml version="1.0" encoding="UTF-8" standalone="no"?>
<!-- Created with Inkscape (http://www.inkscape.org/) -->

<svg
   xmlns:dc="http://purl.org/dc/elements/1.1/"
   xmlns:cc="http://creativecommons.org/ns#"
   xmlns:rdf="http://www.w3.org/1999/02/22-rdf-syntax-ns#"
   xmlns:svg="http://www.w3.org/2000/svg"
   xmlns="http://www.w3.org/2000/svg"
   xmlns:xlink="http://www.w3.org/1999/xlink"
   xmlns:sodipodi="http://sodipodi.sourceforge.net/DTD/sodipodi-0.dtd"
   xmlns:inkscape="http://www.inkscape.org/namespaces/inkscape"
   id="svg4583"
   version="1.1"
   inkscape:version="0.91 r13725"
   width="32.099998"
   height="37.200001"
   viewBox="0 0 32.099998 37.200001"
   sodipodi:docname="owl-extracted-bw.svg">
  <metadata
     id="metadata4589">
    <rdf:RDF>
      <cc:Work
         rdf:about="">
        <dc:format>image/svg+xml</dc:format>
        <dc:type
           rdf:resource="http://purl.org/dc/dcmitype/StillImage" />
        <dc:title />
      </cc:Work>
    </rdf:RDF>
  </metadata>
  <defs
     id="defs4587" />
  <sodipodi:namedview
     pagecolor="#ffffff"
     bordercolor="#666666"
     borderopacity="1"
     objecttolerance="10"
     gridtolerance="10"
     guidetolerance="10"
     inkscape:pageopacity="0"
     inkscape:pageshadow="2"
     inkscape:window-width="1920"
     inkscape:window-height="1062"
     id="namedview4585"
     showgrid="false"
     inkscape:zoom="13.617587"
     inkscape:cx="14.946507"
     inkscape:cy="34.875622"
     inkscape:window-x="0"
     inkscape:window-y="0"
     inkscape:window-maximized="1"
     inkscape:current-layer="layer3" />
  <g
     inkscape:groupmode="layer"
     id="layer2"
     inkscape:label="Blueprint"
     style="display:none"
     sodipodi:insensitive="true">
    <image
       sodipodi:absref="/home/nthiery/OpenDreamKit/media/logos/drafts/nicolas/owl-extracted-bw.png"
       xlink:href="owl-extracted-bw.png"
       width="32.099998"
       height="37.200001"
       preserveAspectRatio="none"
       style="image-rendering:optimizeQuality"
       id="image4591"
       x="0"
       y="-0.12695687" />
  </g>
  <g
     inkscape:groupmode="layer"
     id="layer3"
     inkscape:label="vector"
     style="display:inline;opacity:0.967">
    <path
       style="fill:#ffcc00;fill-opacity:1"
       d="m 26.476562,0.17773438 c -0.81107,0.0184117 -1.567953,0.18747758 -1.564453,0.34960937 0.0016,0.0735807 0.240312,0.0867751 0.53125,0.0292969 0.851974,-0.1682981 1.50682,-0.19869029 1.59375,-0.0742187 0.04447,0.0637165 0.344907,0.10888151 0.667969,0.1015625 0.323053,-0.007338 0.866295,0.10927907 1.207031,0.2578125 l 0,-0.001953 c 0.982009,0.42807115 1.208294,0.34632235 0.31836,-0.11523437 -0.607895,-0.31527493 -1.876625,-0.5667738 -2.753907,-0.5468752 z m -1.841796,0.3671875 c -0.04628,-0.0109813 -0.207503,0.004595 -0.503907,0.0410156 -0.385545,0.0473569 -1.226422,0.1461014 -1.86914,0.21875 -0.927291,0.10480306 -1.070635,0.14881876 -0.697266,0.21875002 l 0,0.00195 c 0.258783,0.048419 0.575304,0.04747 0.703125,0 0.127825,-0.0474349 0.585076,-0.11075811 1.017578,-0.14257812 0.432502,-0.0317982 0.958811,-0.13142173 1.167969,-0.22070312 0.160797,-0.0686326 0.227918,-0.1062062 0.181641,-0.11718438 z m 2.193359,0.23828124 c -0.233727,0.014144 -0.793085,0.32462748 -1.572266,0.87890628 -0.553505,0.3937365 -1.040781,0.6848944 -1.082031,0.6484375 -0.04127,-0.036402 -0.006,-0.1125026 0.07813,-0.1699219 0.178551,-0.1217234 0.674875,-0.859477 0.671875,-0.9980469 -0.0021,-0.094418 -0.971195,0.5803294 -1.355469,0.9433594 -0.11122,0.1050914 -0.301931,0.1949756 -0.421875,0.1972656 -0.241331,0.00548 -0.124028,0.4340757 0.166016,0.609375 0.0934,0.056497 -0.05416,0.1077741 -0.326172,0.1152344 -0.272008,0.00739 -0.599969,0.054422 -0.728516,0.1035156 -0.177534,0.067779 -0.214223,0.013066 -0.152343,-0.2265625 0.0448,-0.1735133 0.176997,-0.352248 0.292969,-0.3964844 0.115967,-0.044281 0.210284,-0.1260247 0.208984,-0.1835937 -0.0033,-0.1519744 -1.559436,-0.7654337 -1.669922,-0.6582031 -0.05127,0.049738 0.16612,0.3283446 0.484375,0.6191406 0.318252,0.2908073 0.555744,0.5994329 0.527344,0.6855469 -0.07057,0.2140648 -0.725969,0.3052789 -0.730469,0.1015625 -0.002,-0.089907 -0.07342,-0.1214824 -0.158203,-0.070312 -0.08479,0.051191 -0.157556,-0.00647 -0.160156,-0.1269531 -0.009,-0.4134582 -0.367109,-0.916987 -0.763672,-1.0742188 -0.565614,-0.2242387 -0.630211,-0.058592 -0.154297,0.3925781 0.224999,0.2132952 0.459184,0.5349183 0.521484,0.7128907 0.06229,0.1779606 0.186211,0.3201093 0.275391,0.3183593 0.645343,-0.014652 2.293441,1.8587796 1.800781,2.046875 C 22.463632,5.2964074 22.220294,5.1425806 22.027344,4.9023438 21.837626,4.6661254 21.264995,4.2028053 20.734375,3.9785156 19.925541,3.6366592 19.638418,3.6740031 19.048828,3.7675781 c -1.016657,0.1613808 -1.979895,0.6486558 -2.447266,1.2382813 -1.00477,1.2676279 -0.90067,1.218491 -2.96289,1.4453125 -0.352099,0.03873 -0.611382,0.2123429 -0.613281,0.4121093 -4.11e-4,0.041489 0.534927,0.037764 1.189453,-0.00781 0.84893,-0.059098 1.160227,-0.035038 1.085937,0.082031 -0.05728,0.090267 -0.36278,0.1699645 -0.679687,0.1777344 -0.316911,0.00769 -0.775113,0.1160659 -1.017578,0.2402344 C 13.361043,7.4796394 13.10289,7.5487838 13.03125,7.5097678 12.805431,7.386925 12.70949,8.0030193 12.904297,8.324221 c 0.102538,0.1690635 0.158577,0.4661311 0.123047,0.6601562 -0.04327,0.2361126 0.254733,0.7745202 0.455078,0.8984375 0.387527,0.6400363 0.417879,0.8685133 1.046875,1.6054683 0.0032,0.147029 0.07624,0.265472 0.162109,0.263672 0.08586,-0.0019 0.155797,-0.06287 0.154297,-0.134765 -0.0016,-0.07189 0.206,-0.203419 0.462891,-0.292969 0.256895,-0.08958 0.50835,-0.264201 0.55664,-0.388672 0.04829,-0.124458 0.181928,-0.230022 0.298828,-0.232422 0.117939,-0.0027 0.17397,-0.09361 0.125,-0.205078 -0.04854,-0.110404 -0.01439,-0.24604 0.07617,-0.300781 0.193861,-0.117074 0.215745,-0.3733907 0.03125,-0.3691408 -0.07041,0.0016 -0.41686,0.2438568 -0.769531,0.5371088 -0.35267,0.293252 -0.641662,0.49742 -0.642578,0.455078 -0.0035,-0.158151 0.365753,-0.9097924 0.638672,-1.3007806 0.375395,-0.5378197 0.07811,-0.5089044 -0.509766,0.048828 -0.561623,0.5328396 -0.857443,0.5915486 -0.603515,0.1210937 0.209333,-0.3878269 0.850916,-0.997313 1.054687,-1.0019531 0.07809,-0.00176 0.269123,0.1081748 0.425781,0.2441406 0.846062,0.7342758 1.179451,0.8979424 2.166016,1.0664063 1.11999,0.1912181 1.499485,0.1452181 1.492188,-0.1855469 -0.0051,-0.231647 0.395935,-0.2836711 0.544921,-0.070312 0.150614,0.2156538 0.394072,0.163993 0.388672,-0.082031 -0.0026,-0.1195669 0.06452,-0.2188831 0.150391,-0.2207031 0.08587,-0.00195 0.154945,-0.1011691 0.152344,-0.2207031 -0.0072,-0.3307733 0.299706,-0.2658552 0.453125,0.095703 0.10673,0.2515226 0.06535,0.3535715 -0.189453,0.4785157 -0.178319,0.087438 -0.345397,0.2891935 -0.373047,0.4472655 -0.05626,0.3217 -0.451458,0.803794 -0.66211,0.808594 -0.07567,0.0017 -0.0719,-0.11609 0.0078,-0.261719 0.07977,-0.145615 0.08469,-0.35061 0.01172,-0.455078 -0.102163,-0.146276 -0.170574,-0.118276 -0.302734,0.123047 -0.09439,0.172363 -0.292348,0.322331 -0.439453,0.332031 -0.14782,0.0096 -0.183927,0.04741 -0.08008,0.08399 0.346376,0.121892 0.03512,0.471184 -0.964844,1.08789 -0.545851,0.336638 -0.945122,0.678956 -0.888672,0.759766 0.05646,0.08092 0.20792,0.106212 0.337891,0.05664 0.129971,-0.04957 0.327366,-0.02434 0.4375,0.05664 0.140449,0.103254 0.321102,0.0936 0.607422,-0.03516 0.312234,-0.140448 0.452795,-0.144382 0.595703,-0.01758 0.102758,0.09113 0.336214,0.162303 0.517578,0.158203 0.181353,-0.0041 0.655104,0.173206 0.980469,0.267578 0.293708,0.08519 0.649973,0.06459 0.876953,0.269531 0.173663,0.156802 0.242358,0.41458 0.273437,0.646485 0.01492,0.111335 -0.0049,0.229041 -0.04492,0.333984 -0.06704,0.175613 -0.195948,0.32249 -0.316406,0.466797 -0.117418,0.140665 -0.247241,0.273183 -0.392578,0.384766 -0.170396,0.130822 -0.348427,0.388178 -0.554687,0.328125 -0.132508,-0.03858 -0.129401,-0.243956 -0.1875,-0.369141 -0.04938,-0.10639 -0.136719,-0.324219 -0.136719,-0.324219 l -0.566406,0.373047 -0.566407,0.375 0.07617,-0.464844 c 0.04382,-0.270012 0.02165,-0.393227 -0.05273,-0.292968 -0.16296,0.219559 -0.978622,0.435295 -0.982422,0.259765 -0.0016,-0.07258 -0.24813,-0.131712 -0.548828,-0.132812 -0.452572,-0.0016 -0.546516,0.04834 -0.541016,0.294922 0.0063,0.289851 -0.0014,0.290274 -0.314453,0.03906 -0.224245,-0.179948 -0.370742,-0.209951 -0.482422,-0.101562 -0.111689,0.108385 -0.03622,0.241557 0.248047,0.439453 0.224315,0.156159 0.409156,0.322753 0.410156,0.371093 0.0039,0.177622 -0.436384,0.09208 -0.521484,-0.101562 -0.04837,-0.110052 -0.349541,-0.376959 -0.667969,-0.591797 -0.44769,-0.302054 -0.606312,-0.346792 -0.701172,-0.197265 -0.09346,0.147273 -0.167546,0.121223 -0.308593,-0.111329 -0.101838,-0.167905 -0.291038,-0.303581 -0.421875,-0.300781 -0.130849,0.003 -0.195852,-0.05975 -0.144532,-0.140625 0.05132,-0.08092 0.01865,-0.144178 -0.07226,-0.142578 -0.313648,0.0071 -0.760916,0.581578 -0.853516,1.097656 -0.09928,0.55323 -0.195051,0.62236 -0.498047,0.353516 -0.321714,-0.285458 -0.224521,-0.656304 0.259766,-0.992188 0.568788,-0.394483 0.575184,-0.611263 0.0293,-0.832031 -0.526256,-0.212817 -0.579851,-0.161422 -0.332031,0.316406 0.270258,0.521131 0.01246,0.786211 -0.546876,0.564454 -0.24582,-0.09744 -0.426202,-0.102265 -0.482421,-0.01367 -0.126347,0.199131 0.06471,0.428375 0.351562,0.421875 0.141173,-0.0032 0.283178,0.279525 0.237497,0.397257 -0.043,0.110852 -0.121466,0.283062 -0.206246,0.327352 -2.228053,1.142887 -3.2388513,2.251348 -5.7398421,3.546479 -1.3000035,0.605728 -1.1777036,1.130685 0.5113266,0.330474 1.2370803,-0.608495 3.0401655,-1.630435 4.6699215,-2.689453 0.561744,-0.313953 0.968433,-0.96528 1.78711,-1.091797 0.105999,-0.08141 0.249078,-0.05054 0.373047,0.08203 0.110411,0.118063 0.297747,0.213238 0.416015,0.210938 0.404752,-0.0092 0.207636,0.21931 -0.123047,0.554687 -0.32722,0.331869 -0.427043,0.327169 -0.65625,0.47461 -0.328488,0.211293 -0.673917,0.393446 -1.001953,0.605469 -0.156258,0.101001 -0.462437,0.248329 -0.460937,0.318359 -1.762487,0.793578 -3.6620177,1.873438 -5.0000002,2.197265 -2.1920881,0.530543 -1.0201173,0.602929 0.3671874,0.386719 0.431367,-0.06723 1.439307,-0.591935 2.1621094,-0.878906 0.9263604,-0.367788 1.8718374,-0.68429 2.7871094,-1.080078 0.645096,-0.27896 1.2938,-0.561576 1.904297,-0.912109 0.548572,-0.383343 1.147188,-0.646295 1.683594,-1.091797 0.124681,-0.04421 1.143821,-0.02826 1.175781,0.09765 0.03164,0.124673 -0.575945,0.375567 -0.699219,0.466797 -0.883886,0.773388 -1.79721,1.326365 -2.933594,1.773437 -1.484305,0.80363 -4.747104,1.710774 -4.833984,1.722654 -0.6786394,0.09276 -0.6644448,0.202234 -2.0410156,0.240234 -1.7267812,0.04766 -2.61249,-0.477159 -2.65625,-0.240234 0.06,0.03402 0.6056479,0.227733 1.0429687,0.382812 -0.3244132,0.226382 -1.0541704,0.666261 -1.3109314,0.851174 -0.3931081,0.282902 -0.6495106,0.0081 -0.7945353,0.148835 -0.1450246,0.14074 -0.9526264,1.708835 -0.6569936,1.802905 0,0 1.3651996,-1.285732 1.7448842,-1.525561 0.275933,-0.174293 0.7464873,-0.712853 0.7851562,-0.757813 0.2453676,-0.285371 0.3012574,-0.381396 0.3554688,-0.474609 0.3996306,0.141805 0.687788,0.243974 0.9335938,0.341797 0.5103758,0.128292 0.5577714,0.203745 0.027344,0.419922 -0.3942404,0.160675 -1.3398351,0.855006 -1.9082031,1.363281 -1.1986858,1.071961 -1.7519388,1.358672 -1.7617188,0.912109 -0.00706,-0.322727 -0.5508191,-0.35838 -0.5664062,-0.03711 -0.2898107,1.084753 -0.4154974,1.221678 -0.4160042,2.008947 0.4692148,0.0761 0.2646482,-0.357526 2.4101448,-2.006994 0.4993301,-0.336541 0.8162768,-0.775582 1.3554688,-1.044922 0.5051563,-0.295098 0.8415949,-0.688874 1.4101562,-0.974609 0.7619048,-0.382852 1.2364005,-0.397416 2.0742188,-0.25 0,0 0.6138771,0.221839 0.5957031,0.287109 -1.3955508,0.66526 -2.2681437,0.935883 -4.1171875,2.402344 -1.0944172,0.78641 -1.746545,1.339635 -2.3066406,2.177734 0.060429,0.08922 -0.5827294,0.339456 -0.734375,0.230469 -0.1564239,-0.191846 -0.3308339,-0.828592 -0.6953126,-0.550781 -0.56929189,0.603256 0.3209095,2.741283 2.2735499,2.326855 0.2937968,-0.01889 2.192049,-2.267688 3.0291845,-2.401074 0.4469285,0.129215 1.0802922,0.09863 1.2183652,0.492577 -0.1530577,-0.06122 -1.0114666,1.194484 -1.1410172,1.612893 -0.454066,0.732881 -1.2539626,3.340677 -1.464067,3.666015 -0.2715198,0.381929 -0.7628006,0.462041 -1.1503907,-0.422275 -0.2487728,-0.567594 0.5680904,-2.741615 0.5199196,-3.163635 -0.7536833,-0.199893 -1.3921251,3.029875 -1.0160133,3.851535 0.3056214,0.37185 1.386155,0.811121 1.5625031,0.521532 0.2485544,-0.181367 0.2776794,-0.248964 0.517575,-0.310594 0.2126546,-0.05464 0.243472,-0.595853 0.3964844,-0.912109 0.1422545,-0.29402 0.6326509,-0.90928 1.0898438,-1.367188 0.4571959,-0.457907 0.9182312,-0.997473 1.0253906,-1.199219 0.90959,-1.105844 2.0082116,-1.351115 2.4116286,-0.697247 0.229323,0.220422 0.436426,0.317468 1.204577,1.159653 0.112617,0.216162 1.313127,1.99028 3.0164,4.089614 0.257437,0.317297 -0.582457,2.797275 -0.07811,2.436728 0.242426,-0.173305 0.120363,-2.008142 1.161315,-2.331432 1.043039,-0.323937 2.918874,1.276131 3.056299,1.901443 0.133492,0.607412 1.222361,-1.580349 -2.915138,-2.670339 -0.35559,-0.09368 -2.003962,-1.66222 -1.748567,-2.447998 0.30243,-0.930492 0.43596,-0.699868 1.0498,-1.499022 0.123958,-0.120295 0.614411,-0.1867 0.952149,-0.27929 1.203904,0.198626 1.375702,0.778177 2.028319,2.714836 0,0 0.410752,0.327189 0.03905,0.673557 -0.587849,0.547764 -1.035668,1.056928 -1.373047,1.5 -0.08274,0.154782 -0.838872,1.581763 -0.39453,1.35155 0.391543,-0.202857 1.802366,-2.386917 2.908203,-2.310547 2.074774,0.547953 2.84983,3.93318 2.974609,3.435547 0.460154,-1.835145 -0.897326,-4.200858 -2.220703,-4.259766 -0.989273,-0.415695 -1.352834,-1.803134 -1.18187,-3.293412 0.06437,-0.0025 0.711926,-0.693738 0.890862,-0.829364 0.90211,-0.73984 0.766223,-2.058502 1.574219,-2.947265 0.357532,-0.828418 1.757558,-2.159233 2.675781,-3.205078 0.706127,-0.80427 1.517258,-1.517214 2.177735,-2.359375 0.343542,-0.438043 0.637779,-0.913837 0.921875,-1.392578 0.398757,-0.671961 0.841822,-1.333291 1.095703,-2.072266 0.522261,-1.520152 0.926418,-3.142912 0.841797,-4.748047 -0.02251,-0.426961 -0.135902,-1.23552 -0.355469,-1.232422 C 28.549635,10.275915 27.07027,9.8121396 26.57422,9.3456871 25.930583,8.7404706 25.8578,9.1347754 26.460939,9.8007652 26.739729,10.108615 26.8851,10.478053 26.82422,10.537093 26.628758,10.7268 25.983681,10.167818 25.703125,9.6757812 25.434347,9.2044027 24.590003,8.622485 24.595703,8.8808594 c -0.07695,0.1520092 0.297227,0.3664699 0.376953,0.5839844 0.09892,0.2698733 0.365909,0.8615732 0.113282,0.8554682 -0.357967,0.216163 -1.123428,-1.3584586 -1.230469,-1.5117182 -0.192709,-0.2759205 -0.79471,-0.04716 -0.78711,0.2988281 0.0034,0.1539968 -0.09972,0.2822762 -0.228515,0.2851562 -0.128794,0.00292 -0.232169,0.070708 -0.230469,0.1503907 0.0017,0.079716 -0.176755,0.1493368 -0.396484,0.1542968 -0.237751,0.0054 -0.360695,-0.053149 -0.302735,-0.1445312 0.05357,-0.084432 0.0106,-0.2475905 -0.0957,-0.3613282 -0.286514,-0.3063763 0.07159,-0.6701828 0.558594,-0.5683593 0.417786,0.087382 0.523914,-0.1994267 0.123047,-0.3320313 -0.2163,-0.071583 -0.214792,-0.1089446 0.0078,-0.3476562 0.319263,-0.3423194 0.689419,-0.2235887 0.699219,0.2246094 0.0042,0.1906815 0.08698,0.3442468 0.183594,0.3417968 0.173131,-0.00393 0.111557,-0.5084203 -0.126953,-1.046875 -0.158925,-0.3588867 0.112523,-0.3171001 0.648437,0.1015625 1.141426,0.8917244 2.358047,1.2112557 3.716797,0.9765625 0.839528,-0.1450166 0.955682,-0.1326161 1.148438,0.1113282 0.117851,0.1491495 0.417641,0.3444492 0.666015,0.4335937 0.422276,0.1514649 0.584955,0.5594695 0.324219,0.8125 -0.05183,0.05045 -0.04773,0.1996485 0.0098,0.3300785 0.08278,0.188056 0.12214,0.159968 0.1875,-0.128907 0.04533,-0.2003448 0.227235,-0.4277958 0.404296,-0.505859 0.177036,-0.078021 0.403212,-0.3663365 0.503907,-0.6425781 0.100699,-0.2762325 0.407125,-0.7450003 0.679687,-1.0410157 0.388649,-0.422085 0.510599,-0.7113383 0.56836,-1.3378906 0.04051,-0.4394031 0.114462,-0.9953475 0.164062,-1.2363281 0.06488,-0.3152199 0.0088,-0.5222615 -0.201172,-0.7363281 -0.288519,-0.2941311 -0.949675,-0.5596511 -1.21289,-0.4863282 -0.204806,0.057054 -0.732882,-0.410594 -0.738282,-0.6542968 -0.0069,-0.3171838 1.042555,-0.1464607 1.513672,0.2460937 l 0.376953,0.3144531 -0.1875,-0.46875 C 31.620812,3.0239178 31.179611,2.8250601 30.271484,2.8457031 29.938684,2.8532631 29.627195,2.8027192 29.578125,2.7324219 29.47363,2.5828083 29.832862,2.4234931 30.314453,2.40625 c 0.315333,-0.01127 0.319422,-0.023894 0.04883,-0.1621094 -0.1597,-0.08161 -0.530012,-0.11655 -0.822265,-0.078125 -0.6123,0.080438 -0.679815,-0.033774 -0.201172,-0.34375 0.256351,-0.1659839 0.282941,-0.2334252 0.111328,-0.2851562 -0.269505,-0.081235 -1.698613,0.3224859 -1.695313,0.4785156 0.0013,0.060289 0.250051,0.2131979 0.554688,0.3398438 0.60539,0.2517342 1.574256,1.3507266 1.628906,1.8496093 0.0189,0.1724883 0.06905,0.4926637 0.111328,0.7109375 0.04542,0.2345645 0.0039,0.3983207 -0.09961,0.4003906 -0.258197,0.00587 -0.583389,-0.5190745 -0.482422,-0.7792968 0.09594,-0.2473339 0.04594,-0.2687432 -0.320312,-0.1289063 -0.134769,0.05145 -0.104863,0.8178974 -0.101563,0.96875 C 28.623847,7.038003 26.084523,8.201624 24.574219,5.4179688 24.46287,5.2127342 24.404735,4.979887 24.359375,4.75 c -0.02433,-0.1236848 -0.05549,-0.2536537 -0.0293,-0.3769531 0.01107,-0.052061 0.03487,-0.1079331 0.07617,-0.140625 0.951383,-0.7528769 1.927692,-1.7559537 3.496094,-0.9335938 0.533035,0.435365 0.862768,0.5818372 0.892578,0.9042969 0.420675,0.2148346 0.652365,-0.057759 0.378906,-0.4453125 C 28.491449,3.1158329 27.729245,2.6978506 26.728511,2.7148438 25.274305,2.7563088 24.14812,3.3707141 23.916011,4.2480469 23.76486,4.819003 23.370747,4.7920065 23.326167,4.2070309 23.291797,3.756039 23.670396,3.139972 23.986323,3.1328122 c 0.08391,-0.0019 0.352227,-0.1698141 0.595703,-0.3730469 0.253813,-0.2118662 0.808729,-0.4462587 1.300781,-0.5488281 0.907068,-0.189098 2.407002,-0.8259869 2.578126,-1.0957031 0.178601,-0.28150385 -0.829892,0.014324 -1.482422,0.4355468 -0.445809,0.2875842 -0.681177,0.3588029 -0.875,0.2636719 -0.226797,-0.1113751 -0.183498,-0.177136 0.292968,-0.4648437 0.306017,-0.1847969 0.554435,-0.40189832 0.552735,-0.48046878 -0.0014,-0.0627455 -0.04318,-0.0906522 -0.121089,-0.0859372 z M 20.3129,1.0019493 C 20.25862,1.0011001 19.278981,1.1946055 18.231729,1.3636543 15.475673,1.8482094 13.998516,3.5598186 14.370493,3.5096665 13.84539,4.0395981 15.868878,2.0314634 18.033695,1.6331782 18.149072,1.6536292 20.667493,1.2060933 21.13748,1.0023415 21.10031,0.81642521 20.653629,0.97215801 20.3129,1.0019493 Z m 9.696866,0.2656288 c -0.05696,0.016314 0.0094,0.1256141 0.25,0.3105469 0.226557,0.174132 0.500947,0.4666876 0.611328,0.6503906 0.11039,0.1836808 0.235284,0.3006307 0.277344,0.2597656 C 31.263758,2.3763669 30.872155,1.7896855 30.494141,1.5097656 30.246953,1.3267124 30.066727,1.2512643 30.009766,1.2675781 Z m -6.958985,0.2402344 c -0.184108,-8.739e-4 -0.416617,0.017621 -0.607422,0.054687 -0.03773,0.00734 0.06938,0.1017479 0.238282,0.2109375 0.290205,0.1875561 0.695453,0.06601 0.689453,-0.2070313 -8.31e-4,-0.038002 -0.136204,-0.05772 -0.320313,-0.058593 z m -6.30664,0.5585937 -0.462891,0.203125 0.46875,0.00195 c 0.455986,0.00106 1.339303,0.5619117 1.345703,0.8554687 0.0017,0.076459 0.10753,0.1376657 0.236328,0.1347657 0.128805,-0.00293 0.214935,-0.082869 0.191407,-0.1777344 -0.0615,-0.2476549 -0.767713,-0.8236761 -1.003907,-0.8183562 -0.109964,0.0025 -0.225649,-0.087224 -0.255859,-0.1992188 -0.02328,-0.086294 -0.322884,-0.086279 -0.519531,0 z M 18.607422,1.951172 c -0.400083,0.00908 0.566798,0.9578697 1.046875,1.0273437 0.215444,0.031163 0.461162,0.064066 0.544922,0.074219 0.08376,0.010046 -0.0102,-0.081411 -0.207031,-0.203125 C 19.795368,2.7278724 19.461751,2.4749899 19.25,2.2871094 19.03825,2.0992181 18.748585,1.9478318 18.607422,1.951172 Z m -2.492188,0.8242187 c -0.164103,0.044891 0.05149,0.2882783 0.539063,0.5136719 0.674697,0.3118897 0.922735,0.3430314 1.058594,0.1289063 0.08802,-0.1387242 -0.446348,-0.3913741 -1.302735,-0.6132813 -0.143313,-0.037134 -0.240221,-0.044261 -0.294922,-0.029297 z m -1.234375,0.7011719 c -0.08652,0.00803 -0.155248,0.028462 -0.195312,0.060547 -0.171807,0.1375677 -0.125657,0.1844306 0.240234,0.2519531 0.248685,0.045869 0.700618,0.1815361 1.003907,0.3007813 0.676521,0.2657372 0.602264,0.2632675 0.847656,0.041016 0.255727,-0.231619 -1.290838,-0.7105193 -1.896485,-0.6542974 z m 7.09961,0.1425781 c 0.345711,-0.01566 1.148947,0.4080808 1.054687,0.5566406 -0.04914,0.077393 -0.152525,0.1431612 -0.228515,0.1445313 -0.226383,0.00514 -1.04682,-0.6912119 -0.826172,-0.7011719 z M 19.226562,4.294922 c 0.916728,-0.056668 1.918904,0.1160334 2.136719,0.7636719 0.8361,1.8114163 -1.289047,3.8548076 -2.761719,3.5878906 -1.239231,-0.2246062 -2.094813,-1.2054047 -1.138671,-3.6679688 0.167184,0.05525 0.217681,0.03048 0.144531,-0.074219 -0.128836,-0.2663191 0.702413,-0.552707 1.61914,-0.6093747 z M 14.121094,4.40625 c -0.133162,0.011858 -0.213691,0.038552 -0.212891,0.076172 0.0016,0.073725 0.339385,0.2291011 0.75,0.3457031 0.925518,0.2630398 1.081587,0.2714539 1.460938,0.072266 0.393025,-0.206373 0.225718,-0.4372382 -0.308594,-0.4257812 -0.23047,0.00453 -0.75324,-0.021119 -1.162109,-0.058594 C 14.439804,4.3969026 14.254255,4.3944 14.121094,4.40625 Z M 30.90625,4.6367188 c 0.533874,0.051455 1.287617,0.3479929 1.291016,0.5078124 0.0015,0.066891 -0.295209,0.1277556 -0.660157,0.1347657 C 31.051164,5.2887169 30.93427,5.253224 31.103516,5.1464844 31.292232,5.0277186 31.273275,5.0015795 31,5.0058594 30.815967,5.0088194 30.624379,4.9168584 30.574219,4.8027344 30.505769,4.6469045 30.589339,4.6060788 30.90625,4.6367188 Z M 14.693359,5.4550781 c -0.581575,0.013658 -1.073087,0.1121262 -1.070312,0.2402344 0.0014,0.066046 0.30043,0.1378273 0.666015,0.1601563 0.365587,0.02233 0.815067,0.048734 0.998047,0.058594 0.182986,0.00978 0.41072,-0.072344 0.50586,-0.1835937 0.140734,-0.164618 0.04598,-0.2129135 -0.503907,-0.2578126 -0.198596,-0.016227 -0.401844,-0.022131 -0.595703,-0.017578 z m 8.944532,-0.6933285 c 0.181224,0.055592 0.210568,0.8549498 0.455859,1.2089538 0.425937,0.6147141 0.950458,1.1672002 1.6875,1.4785157 1.144732,0.4835415 2.583348,0.1080781 3.289062,-0.8574219 0.28644,-0.3918987 0.33815,-0.4163458 0.34375,-0.1640625 0.0075,0.3419887 -0.612245,0.9506941 -1.330078,1.3066406 C 27.807919,7.8712648 27.211068,7.9891482 26.732422,8 25.951138,8.0177298 25.786088,7.960035 24.875,7.3515625 24.205629,6.9045244 23.623531,6.0344474 23.621094,5.8222656 c -0.112631,-0.1204 -0.117042,-0.8771026 0.0168,-1.060516 z m 6.082812,0.9960632 c 0.09097,-0.00206 0.123578,0.061708 0.07227,0.1425781 -0.05132,0.080915 -0.12423,0.1472075 -0.16211,0.1484375 -0.03787,8.583e-4 -0.07057,-0.062895 -0.07227,-0.1425781 -0.0017,-0.079726 0.0712,-0.1467775 0.16211,-0.1484375 z m 1.474609,0 c 0.649766,0.011476 0.874196,0.1236671 0.591797,0.2929687 -0.06359,0.038127 -0.37827,0.1133628 -0.699218,0.1679688 -0.508364,0.086489 -0.584344,0.061503 -0.589844,-0.1875 -0.0054,-0.2463246 0.09116,-0.2841336 0.697265,-0.2734375 z M 22.129679,5.4699569 c 0.887569,0.6291736 -1.367234,3.6763164 -2.121867,3.6198869 -1.542522,0.6385658 -2.385582,0.3865611 -3.593357,-0.6910256 -0.50735,-0.452662 -0.64353,-2.3242969 -0.243766,-2.4648018 0.271805,0.045614 0.143167,0.9157981 0.221887,1.4116867 0.222607,1.4022199 1.958333,2.1414395 3.414063,1.4101563 1.684656,-0.5397132 2.415761,-2.9459959 2.32304,-3.2859025 z m 8.866415,1.1276993 c 0.682311,-0.015493 0.914301,0.1881149 0.476562,0.4179688 -0.415479,0.2181022 -0.874357,0.2107592 -1.08789,-0.017578 -0.250009,-0.26734 -0.07261,-0.3848415 0.611328,-0.4003908 z m -0.884766,0.7851563 c 0.120531,0.00917 0.249823,0.035466 0.357422,0.078125 0.2152,0.085318 0.543659,0.1506243 0.728516,0.1464844 0.200467,-0.00454 0.276193,0.045902 0.189453,0.1230469 -0.328735,0.2926035 -0.939131,0.3141794 -1.394531,0.050781 -0.401183,-0.2320216 -0.424996,-0.2803728 -0.1875,-0.3710938 0.07528,-0.02877 0.186109,-0.036513 0.30664,-0.027343 z m -15.160156,0.080078 c 0.19685,1.994e-4 0.344399,0.054375 0.392578,0.1796875 0.04655,0.1210517 -0.111323,0.1829663 -0.482422,0.1914063 -0.359054,0.00816 -0.618846,0.1067172 -0.748047,0.2851562 -0.266843,0.3685459 -0.881927,0.5670984 -0.841797,0.2714844 0.06114,-0.4502864 1.089137,-0.9283325 1.679688,-0.9277344 z M 29.486328,7.890625 c 0.07113,-0.023909 0.114535,-0.022414 0.115234,0.00977 0.0047,0.2149526 0.919771,0.59438 1.208985,0.5019532 0.26293,-0.084071 0.260844,-0.072878 -0.01367,0.1445312 -0.338844,0.2683372 -0.574872,0.2781183 -1.289063,0.054687 C 28.801959,8.3807539 28.766432,8.3141632 29.208984,8.03125 29.316223,7.962435 29.415197,7.9145342 29.486328,7.890625 Z M 15.626953,8.1152344 15.208984,8.4472656 C 14.978999,8.6293404 14.587903,8.9282714 14.339844,9.1132812 14.091787,9.2982921 13.852381,9.4523116 13.806641,9.453125 13.702396,9.455495 13.491253,9.1626675 13.564453,9.1171875 13.594133,9.0987405 13.879842,8.8667196 14.199219,8.6035156 14.549457,8.31487 14.947393,8.1241234 15.203125,8.1210938 Z m 11.996094,0.6582031 c -0.128224,0.058411 0.08293,0.4193171 0.541015,0.8378906 0.610214,0.5575919 0.725647,0.5929469 1.181641,0.3535157 C 29.780438,9.7365682 29.70513,9.5255204 29.193359,9.5371094 28.940916,9.5428358 28.619074,9.420455 28.447266,9.2519531 28.28101,9.0888862 28.020049,8.8959004 27.867188,8.8242188 c -0.121626,-0.057022 -0.2014,-0.070252 -0.244141,-0.050781 z m -4.441406,0.6601563 c 0.06837,-0.026389 0.125578,-0.028935 0.158203,0 0.06525,0.0579 0.01727,0.1690423 -0.107422,0.2460937 -0.37519,0.2317251 -0.545962,0.168642 -0.269531,-0.099609 0.0711,-0.069025 0.150381,-0.1200968 0.21875,-0.1464847 z m 0.965479,0.4431147 c 0.08562,0.00273 0.167277,2.7518015 -0.422654,2.7428315 -0.470792,-0.0072 -1.198522,-2.451877 -1.003858,-2.568155 0.15086,-0.095171 1.812144,-0.3520402 1.426512,-0.1746765 z m -5.168604,0.3986825 c -0.04742,-0.0097 -0.132619,0.04144 -0.292969,0.144531 -0.190611,0.122547 -0.58542,0.491587 -0.876953,0.820312 -0.376982,0.425069 -0.653784,0.600518 -0.955078,0.607422 -0.459225,0.01043 -0.716521,0.236148 -0.396485,0.347656 0.623427,0.217319 1.074631,0.05189 1.820313,-0.667968 0.421753,-0.407143 0.763165,-0.872906 0.759765,-1.035156 -0.003,-0.136474 -0.01117,-0.207106 -0.05859,-0.216797 z m -1.273438,0.0918 c -0.150235,-0.01912 -0.476332,0.142712 -0.714844,0.386718 -0.197877,0.202422 -0.429835,0.372507 -0.515625,0.378906 -0.1813,0.01264 -0.848503,0.530201 -0.845703,0.65625 0.0033,0.152011 0.476256,0.08116 0.904297,-0.136718 0.385539,-0.19625 1.257606,-1.031749 1.253906,-1.201172 -0.0011,-0.05056 -0.03195,-0.07761 -0.08203,-0.08398 z m 10.687011,0.887207 c -0.04814,0.124408 0.250651,0.131806 0.3125,0.25 0.0045,0.0087 0.0055,0.02014 0.002,0.0293 -0.04691,0.124499 -0.150216,0.277357 -0.283203,0.28125 -0.133703,0.0039 -0.293632,-0.132056 -0.300781,-0.265625 -0.0071,-0.132987 0.319338,-0.171409 0.269531,-0.294922 -6e-6,-1.5e-5 -4.1e-5,-1.8e-5 -4.7e-5,-3e-6 z m -7.485839,0.179199 c 0.150791,-0.04241 0.392038,0.127491 0.375,0.283203 -0.02367,0.216333 -0.435827,0.421219 -0.59375,0.271484 -0.14423,-0.136752 0.02742,-0.500876 0.21875,-0.554687 z m 3.576172,0.566401 c -0.180601,-0.01009 -0.305942,-0.328714 -0.228516,-0.492188 0.09215,-0.194554 0.497298,-0.333626 0.625507,-0.160696 0.151692,0.204604 -0.142685,0.667096 -0.396991,0.652884 z m -4.730469,-0.404301 c 0.06639,-0.0046 0.126881,0.03381 0.210938,0.115235 0.268646,0.260225 0.256047,0.445926 -0.03906,0.558593 -0.29895,0.114151 -0.260755,0.122599 -0.490234,-0.109375 -0.149725,-0.151349 -0.133595,-0.23941 0.07031,-0.416015 0.109346,-0.09469 0.181654,-0.143882 0.248046,-0.148438 z m 6.044681,-0.05079 c -0.04815,0.124408 0.250651,0.131806 0.3125,0.25 0.0045,0.0087 0.0055,0.02014 0.002,0.0293 -0.04691,0.124499 -0.15021,0.277572 -0.283203,0.28125 -0.133222,0.0037 -0.291679,-0.132544 -0.298828,-0.265625 -0.0071,-0.132548 0.317443,-0.171905 0.267578,-0.294922 -6e-6,-1.5e-5 -4.1e-5,-1.8e-5 -4.7e-5,-3e-6 z m 1.330564,-0.04761 c 0.132994,-0.01037 0.250651,0.131806 0.3125,0.25 0.0045,0.0087 0.0055,0.02015 0.002,0.0293 -0.04729,0.124851 -0.151695,0.277789 -0.285156,0.28125 -0.133228,0.0035 -0.291914,-0.132532 -0.298828,-0.265625 -0.0069,-0.132988 0.13672,-0.284568 0.269484,-0.294925 z m -11.687745,0.537847 c -0.23625,-2.33e-4 -0.427481,0.06485 -0.425781,0.144532 0.0037,0.170002 0.124182,0.166056 0.546875,-0.01367 0.274284,-0.117012 0.259537,-0.130571 -0.121094,-0.130862 z m 3.046875,0.21875 c 0.05724,-0.0064 0.127269,-0.0034 0.210938,0.0098 0.244853,0.03863 0.247901,0.06182 0.03125,0.236328 -0.172609,0.139019 -0.271793,0.149314 -0.351563,0.03516 -0.110653,-0.158391 -0.06235,-0.261913 0.109375,-0.28125 z m -2.783203,0.199219 c -0.12862,0.0029 -0.187609,0.06994 -0.132813,0.148437 0.05481,0.07852 0.205188,0.139621 0.333985,0.136719 0.128617,-0.0029 0.187622,-0.06798 0.132812,-0.146484 -0.05481,-0.07851 -0.20519,-0.141572 -0.333984,-0.138672 z m -0.605469,0.01367 c -0.282305,0.0064 -0.29726,0.175415 -0.03711,0.40625 0.272195,0.241515 0.492719,0.205357 0.375,-0.0625 -0.0549,-0.124861 -0.100933,-0.253771 -0.101563,-0.287109 -7.25e-4,-0.03345 -0.107536,-0.05954 -0.236327,-0.05664 z m 9.388672,0.123047 c 0.268254,-0.01759 0.479183,0.573948 0.28125,0.755859 -0.111288,0.10228 -0.344072,-0.05742 -0.410156,-0.193359 -0.0841,-0.173001 -0.06304,-0.549915 0.128906,-0.5625 z m 1.181641,0.04687 c -0.06841,0.164659 0.394293,0.167939 0.408203,0.345703 0.01469,0.187749 -0.181027,0.417914 -0.369094,0.427738 -0.17846,0.0093 -0.38143,-0.18872 -0.390625,-0.367187 -0.0092,-0.178845 0.41903,-0.240362 0.351563,-0.40625 -6e-6,-1.5e-5 -4.1e-5,-1.9e-5 -4.7e-5,-4e-6 z m -11.34716,-0.230723 c 0.179454,-0.376971 -0.06986,-0.123068 -0.106199,-0.107188 -0.569333,0.249003 -5.2221277,4.505267 -5.8903872,4.822277 -0.3296287,0.156369 -3.0116606,1.960405 -4.2832032,3.21289 -0.5717909,0.563221 -1.5927192,2.239344 -1.0947284,2.003921 0.1777637,-0.004 0.9719294,-1.485301 1.4873066,-1.906264 1.3931094,-1.137895 3.0673714,-1.897188 4.4746093,-3.017579 1.6954229,-1.34983 5.4631289,-4.82257 5.4126019,-5.008057 z m 12.729483,0.310795 c 0.204133,0.01354 0.321168,0.403519 0.211427,0.576176 -0.09675,0.15222 -0.43921,0.197073 -0.539063,0.04687 -0.129904,-0.195407 0.0935,-0.638572 0.327636,-0.623046 z m -9.16748,0.414066 c -0.157444,0.0018 -0.155507,0.05853 0.0059,0.28711 0.227545,0.322471 0.372413,0.355217 0.523437,0.117187 0.109691,-0.172877 -0.198577,-0.407897 -0.529297,-0.404297 z m -1.197265,0.07813 c -0.30058,-0.0092 -0.340199,0.02466 -0.191406,0.166016 0.103675,0.09846 0.27587,0.146309 0.382812,0.105469 0.316043,-0.120666 0.217938,-0.258965 -0.191406,-0.271485 z m -2.826172,0.08008 c -0.216128,0.01339 -0.160113,0.184716 0.263672,0.396485 0.59455,0.297125 0.773778,0.300273 0.767578,0.01758 -0.0026,-0.119557 0.06647,-0.218903 0.152344,-0.220703 0.08586,-0.0019 0.156603,0.05779 0.158203,0.132812 0.0016,0.07499 -0.06562,0.179299 -0.150391,0.230469 -0.226492,0.136769 -0.183407,0.367028 0.06836,0.361328 0.119787,-0.0027 0.387207,0.152471 0.59375,0.345703 0.419922,0.39289 0.395747,0.38601 0.894531,0.25 0.270733,-0.07382 0.308003,-0.128757 0.15039,-0.216796 -0.163302,-0.09122 -0.149565,-0.120754 0.05469,-0.126954 0.14517,-0.0045 0.308471,0.05627 0.363281,0.134766 0.128395,0.18382 0.659412,0.173337 0.779297,-0.01563 0.0529,-0.08345 -0.01059,-0.105323 -0.148437,-0.05273 -0.316736,0.120896 -0.314114,-0.139993 0.0039,-0.396485 0.226762,-0.182891 0.215304,-0.20914 -0.123047,-0.28125 -0.205654,-0.04382 -0.455267,-0.01954 -0.554688,0.05469 -0.254899,0.190467 -1.532609,0.112289 -1.537109,-0.09375 -0.0059,-0.271298 -0.209797,-0.381127 -0.751953,-0.404297 -0.279166,-0.01191 -0.487194,-0.01949 -0.681641,-0.07227 -0.128766,-0.03497 -0.230691,-0.04743 -0.30273,-0.04297 z m 5.800781,0.101563 c -0.06554,0.02121 -0.07645,0.09563 -0.02148,0.220703 0.08285,0.188774 0.02091,0.217694 -0.332031,0.158203 -0.23815,-0.0402 -0.343189,-0.03922 -0.234375,0.002 0.341364,0.128731 0.04416,0.349655 -0.357422,0.265625 -0.282461,-0.05907 -0.380453,-0.02141 -0.376953,0.144532 0.0077,0.350167 0.625852,0.672857 0.93164,0.486328 0.18073,-0.110001 0.410411,-0.09887 0.800781,0.04101 0.387151,0.13891 0.658795,0.239043 0.884766,0.04883 0.176013,-0.14816 0.174834,-0.475895 0.08008,-0.685546 -0.03392,-0.07504 -0.138397,-0.08971 -0.203125,-0.140625 -0.05618,-0.04419 -0.09011,-0.156777 -0.160156,-0.142579 -0.113023,0.02291 -0.152138,0.143381 -0.148437,0.3125 0.0057,0.26094 -0.03204,0.279995 -0.240235,0.126954 -0.134932,-0.0992 -0.205313,-0.280905 -0.158203,-0.402344 0.04712,-0.121438 -0.0075,-0.271566 -0.119141,-0.333984 -0.161879,-0.09048 -0.280165,-0.122769 -0.345703,-0.101563 z m -3.667968,0.216797 c -0.0808,0.0018 -0.188915,0.06952 -0.240235,0.15039 -0.05132,0.08084 0.01459,0.143223 0.148438,0.140626 0.133862,-0.003 0.241934,-0.07071 0.240234,-0.150391 -0.0017,-0.07967 -0.06761,-0.142825 -0.148437,-0.140625 z m 6.906642,0.408991 c 0.213447,-0.05083 0.585785,0.17614 0.53125,0.388671 -0.06527,0.254367 -0.629898,0.316169 -0.78125,0.101563 -0.10572,-0.149903 0.07156,-0.447739 0.25,-0.490234 z m 2.829686,0.258978 c 0.183571,0.02987 0.485519,0.235386 0.392578,0.396484 -0.133518,0.231432 -0.747187,0.06257 -0.775391,-0.203125 -0.01509,-0.14216 0.241711,-0.21632 0.382813,-0.193359 z m -1.397339,-0.0365 c 2.92e-4,0.126352 0.227569,0.138508 0.283203,0.251953 0.0043,0.0088 0.0055,0.02014 0.002,0.0293 -0.04729,0.124851 -0.151695,0.277789 -0.285157,0.28125 -0.133228,0.0035 -0.29192,-0.132531 -0.298828,-0.265625 -0.0069,-0.132998 0.149569,-0.237084 0.269531,-0.294922 0.0088,-0.0043 0.02549,-0.01102 0.0293,-0.002 9e-6,2e-5 -4.9e-5,2.2e-5 -4.9e-5,4.4e-5 z m 2.696167,0.202509 c 0.04811,0.11783 0.233068,0.137782 0.285156,0.253906 0.004,0.0089 0.0038,0.02029 0,0.0293 -0.05116,0.122316 -0.150662,0.275863 -0.283203,0.279297 -0.133228,0.0035 -0.291679,-0.132544 -0.298828,-0.265625 -0.0071,-0.132548 0.148115,-0.237058 0.267578,-0.294922 0.0088,-0.0043 0.02238,-0.0089 0.0293,-0.002 10e-6,10e-6 -9e-6,3e-5 -3e-6,4.4e-5 z m 0.853515,0.08008 c -0.0012,0.126347 0.227569,0.138509 0.283203,0.251954 0.0043,0.0088 0.0055,0.02015 0.002,0.0293 -0.04734,0.124342 -0.152146,0.276079 -0.285157,0.279297 -0.133234,0.0032 -0.292141,-0.13252 -0.298828,-0.265625 -0.0067,-0.13253 0.149906,-0.235537 0.269531,-0.292968 0.0088,-0.0042 0.02559,-0.01106 0.0293,-0.002 8e-6,2e-5 -4.9e-5,2e-5 -4.9e-5,4.2e-5 z m -14.027343,0.587891 c 0.45964,-0.01858 0.759525,0.146875 0.765625,0.423828 0.0039,0.180188 -0.07278,0.243586 -0.230469,0.191406 -0.12981,-0.0429 -0.234322,-0.0062 -0.232422,0.08203 0.0019,0.08822 -0.07005,0.162462 -0.160156,0.164062 -0.10872,0.0025 -0.116895,-0.07966 -0.02149,-0.246094 0.104574,-0.182401 0.07372,-0.299286 -0.117187,-0.427734 -0.24424,-0.164308 -0.246019,-0.1777 -0.0039,-0.187498 z m 7.269531,0.02734 c -0.0345,-0.01414 -0.0788,0.0021 -0.109375,0.02344 -0.07701,0.05376 -0.182474,0.150007 -0.150391,0.238282 0.01892,0.05205 0.10615,0.0697 0.158203,0.05078 0.08827,-0.03208 0.151278,-0.144361 0.150391,-0.238281 -2.8e-4,-0.02961 -0.02143,-0.06299 -0.04883,-0.07422 z m -3.070313,0.30664 c 0.08586,-0.0019 0.158457,0.06289 0.160157,0.142579 0.0017,0.07968 -0.06843,0.146637 -0.154297,0.148437 -0.08586,0.002 -0.156504,-0.0629 -0.158203,-0.142578 -0.0017,-0.07968 0.06647,-0.146638 0.152343,-0.148438 z M 28.248799,12.56776 c 0.31833,0.151034 0.749679,0.739034 0.002,0.976562 -0.175035,0.05561 -0.290433,-0.279427 -0.298828,-0.462891 -0.0088,-0.192284 0.106421,-0.406462 0.267578,-0.511719 0.0082,-0.0054 0.02534,-0.01095 0.0293,-0.002 9e-6,2.1e-5 -7.1e-5,3.8e-5 -5e-5,4.8e-5 z m -4.03565,3.054103 c 0.207932,0.0355 0.358895,0.427064 0.226178,0.591021 -0.136332,0.168422 -0.56673,0.102333 -0.642194,-0.100786 -0.07464,-0.200903 0.204752,-0.526303 0.416016,-0.490235 z m -5.289321,0.102718 c 0.110476,0.05453 0.323985,0.217168 0.552734,0.439453 l 0.464844,0.451172 0.388672,-0.40625 c 0.213297,-0.223317 0.354658,-0.237713 0.550781,-0.318359 0.130711,-0.05375 0.3066,-0.2036 0.410157,-0.107422 0.105261,0.09776 -0.01932,0.292761 -0.07813,0.423828 -0.108067,0.24084 -0.223715,0.651763 -0.486329,0.625 -0.05272,-0.0054 -0.03944,-0.09951 -0.07031,-0.142578 -0.03861,-0.05389 -0.01103,-0.143525 -0.140625,-0.140625 -0.129598,0.0029 -0.290932,0.08637 -0.357422,0.1875 -0.210887,0.320887 -1.762031,0.163567 -1.769531,-0.179687 -0.0015,-0.07106 0.08607,-0.104767 0.193359,-0.07422 0.107288,0.03054 0.288091,-0.03561 0.402344,-0.146484 0.164754,-0.159822 0.166627,-0.244515 0.01172,-0.410157 -0.189982,-0.203146 -0.182734,-0.2557 -0.07226,-0.201171 z m -3.476562,0.01563 c 0.357178,-0.0953 0.534196,0.258533 0.279296,0.556641 -0.103384,0.120924 -0.283081,0.222209 -0.40039,0.224609 -0.326797,0.0074 -0.218633,-0.69061 0.121094,-0.78125 z m 7.617168,0.06251 c -0.05588,0.220893 -0.499224,0.321404 -0.663667,0.163686 -0.158882,-0.152384 -0.07795,-0.578708 0.131252,-0.647265 0.227827,-0.07466 0.591213,0.251152 0.532415,0.483579 z m -4.931622,0.26758 c 0.320185,0.105934 -0.04025,0.72255 -0.07226,0.81836 -0.0386,0.115381 -0.150532,0.0823 -0.332031,-0.0957 -0.234069,-0.229576 -0.245029,-0.308862 -0.07031,-0.541016 0.129153,-0.171577 0.304896,-0.237808 0.474601,-0.181644 z m 7.335762,-0.09032 c 0.14825,0.130175 -0.0041,0.566337 -0.201172,0.556636 -0.137524,-0.0068 -0.158079,-0.274834 -0.101562,-0.400391 0.04661,-0.103552 0.217403,-0.231173 0.302734,-0.156245 z m -8.870918,0.367669 c 0.03786,-8.48e-4 0.07057,0.0629 0.07227,0.142578 0.0017,0.07973 -0.07121,0.146838 -0.16211,0.148438 -0.09097,0.0021 -0.123565,-0.06171 -0.07227,-0.142578 0.05133,-0.08093 0.124229,-0.14724 0.16211,-0.148438 z m 0.408203,0.0098 c 0.04511,0.0082 0.09733,0.03277 0.148438,0.07813 0.114395,0.101504 0.118964,0.182503 0.01367,0.246094 -0.08631,0.05209 -0.206275,0.02637 -0.265625,-0.05859 -0.1149,-0.164754 -0.03181,-0.290218 0.103517,-0.265634 z m 10.884774,0.06681 c 0.202755,0.0781 0.104405,0.495963 -0.04884,0.649995 -0.114701,0.115294 -0.409031,0.182148 -0.486328,0.03906 -0.138225,-0.255873 0.263778,-0.793589 0.535168,-0.689055 z M 26.700572,16.0951 c 0.158204,-0.01006 0.33313,0.233286 0.281632,0.383212 -0.06597,0.192071 -0.460261,0.324841 -0.586318,0.165613 -0.129879,-0.164055 0.09586,-0.535548 0.304686,-0.548825 z m -3.375502,0.826795 c 0.210307,0.12642 0.07986,0.662784 -0.159054,0.71875 -0.144058,0.03375 -0.292203,-0.19839 -0.27841,-0.345703 0.01786,-0.190807 0.273214,-0.471782 0.437464,-0.373047 z m -1.440661,-0.217851 c 0.197114,-0.01645 0.501146,0.116166 0.503542,0.31395 0.0024,0.19762 -0.298225,0.339581 -0.495377,0.325784 -0.162439,-0.01137 -0.366586,-0.159818 -0.366791,-0.322654 -2.01e-4,-0.159566 0.199612,-0.303813 0.358626,-0.31708 z m -2.433237,0.684648 c 0.769718,0.0161 1.314475,-0.119083 1.30664,0.330078 -0.0016,0.09256 -0.10694,0.118492 -0.271484,0.05859 -0.535417,-0.194456 -0.945978,-0.217607 -1.046875,-0.05859 -0.151693,0.237631 -0.350036,0.198267 -0.4375,-0.08789 -0.0635,-0.20772 0.01719,-0.251187 0.449219,-0.242188 z m -1.470703,0.08789 c 0.150238,-0.0046 0.27369,0.05704 0.27539,0.136719 0.0039,0.17671 -0.01401,0.177857 -0.3125,0.0078 -0.202753,-0.115495 -0.196335,-0.137332 0.03711,-0.144532 z m 6.788494,-0.07116 c 0.170227,0.03558 0.245051,0.369103 0.135173,0.503898 -0.10834,0.132907 -0.443784,0.126263 -0.513511,-0.03039 -0.08215,-0.184573 0.180579,-0.514838 0.378338,-0.473508 z m -6.056072,0.405148 c 0.08842,0.04808 0.126961,0.175512 0.08594,0.28125 -0.041,0.105738 0.0089,0.436228 -0.09961,0.611328 -0.521437,0.841203 -1.514953,1.286764 -2.402344,1.708984 -1.756304,0.835648 -3.683902,1.406215 -5.623047,1.556641 -0.603198,0.04679 -1.814013,0.13784 -1.8359374,-0.193359 0.489133,-0.07517 6.2489554,-1.844575 6.3203124,-2.283203 0.707765,-0.334158 2.410118,-1.249784 2.486328,-1.271484 0.366323,-0.104355 0.876893,-0.514366 1.068358,-0.410157 z m 8.05664,0.212891 c 0.08412,-0.0023 0.186452,0.05817 0.210938,0.138671 0.04412,0.145042 -0.02948,0.382405 -0.176569,0.419135 -0.156791,0.03915 -0.379999,-0.144293 -0.376166,-0.305853 0.0034,-0.141501 0.200307,-0.248156 0.341797,-0.251953 z m -7.0625,0.002 c 0.07925,-0.0018 0.301523,0.158696 0.42457,0.291508 0.252351,0.272378 -0.170309,0.464683 -0.363526,0.467783 -0.284087,0.0046 -0.546021,-0.4195 -0.359138,-0.537365 0.149349,-0.0942 0.218843,-0.220126 0.298094,-0.221926 z m 2.979546,0.196625 c 0.207464,0.07385 0.198115,0.530216 0.02045,0.660335 -0.129698,0.09499 -0.413876,-0.0043 -0.455078,-0.159695 -0.05664,-0.213612 0.226433,-0.574752 0.434628,-0.50064 z m -1.102745,0.184733 c -0.08219,0.143661 -0.424152,0.07605 -0.490767,-0.07546 -0.04668,-0.106162 0.07766,-0.283672 0.193502,-0.289134 0.156633,-0.0074 0.375134,0.228488 0.297265,0.364594 z m 1.930799,0.248827 c 0.231515,0.0034 0.463932,0.43859 0.3174,0.617864 -0.12487,0.152772 -0.493664,0.02172 -0.569815,-0.1603 -0.06723,-0.160694 0.07824,-0.460138 0.252415,-0.457564 z m 2.346333,-0.938194 c 0.180872,0.01047 0.317756,0.331603 0.232322,0.491369 -0.09427,0.176293 -0.483674,0.255053 -0.593278,0.08786 -0.124725,-0.190259 0.133839,-0.592374 0.360956,-0.579229 z m -4.946902,1.704493 c -0.075,0.128858 0.09473,0.168912 -0.447265,0.0039 -0.292897,-0.469875 -0.106339,-0.588584 0.101562,-0.625 0.233389,-0.04088 0.46489,0.416317 0.345703,0.6211 z m 0.615803,0.04911 c 0.262565,0.06419 0.404733,0.638579 0.181108,0.79041 -0.180199,0.122346 -0.509593,-0.154703 -0.538139,-0.370632 -0.02408,-0.182108 0.178594,-0.463402 0.357031,-0.419778 z m 0.575285,-7.322959 c 0.124326,-0.01423 0.278225,0.107338 0.295737,0.231244 0.02254,0.159453 -0.123147,0.373642 -0.283203,0.391402 -0.132944,0.01475 -0.289547,-0.132337 -0.300781,-0.265625 -0.01284,-0.152412 0.136287,-0.339625 0.288247,-0.357021 z m -3.679369,7.324629 c 0.06819,5.29e-4 0.237575,0.09754 0.24643,0.147568 0.0129,0.07296 -0.124994,0.255059 -0.196634,0.242349 -0.0419,-0.0074 -0.234253,-0.162314 -0.219024,-0.202774 0.01786,-0.04745 0.101041,-0.187673 0.169228,-0.187143 z m 6.853462,-0.352063 c 0.169276,0.08255 0.291177,0.356502 0.207827,0.525387 -0.0716,0.145069 -0.316656,0.193049 -0.466797,0.132812 -0.177931,-0.07139 -0.361562,-0.317827 -0.291016,-0.496093 0.07033,-0.177716 0.378199,-0.245883 0.549986,-0.162106 z m -5.579672,1.259635 c 0.13591,0.294933 -0.315198,0.348126 -0.538567,0.167751 -0.07346,-0.188594 -0.08001,-0.195938 0.01712,-0.32481 0.217929,-0.08258 0.372466,-0.16623 0.521447,0.157059 z m 3.138284,-0.279588 c 0.194674,0.149608 0.06834,0.675136 -0.173793,0.715766 -0.179813,0.03017 -0.340738,-0.283674 -0.29549,-0.460297 0.0442,-0.172533 0.328063,-0.363997 0.469283,-0.255469 z m 1.126989,0.450141 c 0.109065,-0.003 0.246592,0.06915 0.277344,0.173828 0.05209,0.177301 -0.05456,0.465953 -0.235867,0.501702 -0.192744,0.03801 -0.446962,-0.202202 -0.434446,-0.398258 0.01021,-0.159988 0.232715,-0.272896 0.392969,-0.277272 z m -6.050782,0.0625 c 0.418653,0.06513 0.482838,0.549205 0.105469,0.484375 -0.156791,0.07008 -0.315432,0.13596 -0.46289,0.22461 -0.149271,0.08974 -0.267148,0.229013 -0.421875,0.308593 -0.85314,0.429685 -1.953253,0.463563 -2.8125,1.011719 -1.182012,0.293752 -4.017746,1.228196 -4.736267,1.83708 -1.7035516,0.410988 -6.3838524,4.068879 -6.406696,3.596106 0.027598,-0.83265 2.9678659,-2.754071 3.4417908,-3.243733 -0.019741,-0.07407 0.5283286,-0.356781 0.9863281,-0.597656 0.4580094,-0.240878 0.6503248,-0.420553 0.9941406,-0.595703 0.1226823,-0.0625 0.2532336,-0.106118 0.3789063,-0.16211 0.5395742,-0.280335 1.0760352,-0.545597 1.7070312,-0.703124 0.829891,-0.243587 2.047869,-0.188017 3.228516,-0.638672 1.220614,-0.255886 2.434155,-0.718802 3.464843,-1.410157 0.214737,-0.10724 0.393655,-0.133038 0.533203,-0.111328 z m 2.483381,0.165129 c 0.09472,0.02181 0.288786,0.226248 0.247939,0.368571 -0.03824,0.133233 -0.289317,0.179614 -0.379757,0.169425 -0.0825,-0.0093 -0.283231,-0.192449 -0.278231,-0.275319 0.0074,-0.121763 0.291169,-0.290047 0.410049,-0.262677 z m 1.17544,0.765779 c -0.04815,0.124408 0.250651,0.131806 0.3125,0.25 0.0045,0.0087 0.0055,0.02014 0.002,0.0293 -0.04691,0.124499 -0.150216,0.277357 -0.283203,0.28125 -0.133703,0.0039 -0.293633,-0.132056 -0.300782,-0.265625 -0.0071,-0.132987 0.319339,-0.171409 0.269532,-0.294922 -6e-6,-1.5e-5 -4.1e-5,-1.8e-5 -4.7e-5,-3e-6 z m 1.315813,0.399543 c 0.161228,-0.008 0.40405,0.134067 0.384586,0.294316 -0.02153,0.177248 -0.315131,0.2454 -0.490942,0.21424 -0.09814,-0.0174 -0.216753,-0.106827 -0.216264,-0.206499 7.23e-4,-0.147316 0.175484,-0.294747 0.32262,-0.302057 z m -5.036156,-0.06629 c 0.215919,-0.218309 1.095853,-0.249 1.369161,-0.02943 0.244847,0.119941 -0.452387,1.103164 -0.747093,1.294562 -0.918295,0.596389 -4.287819,3.250446 -4.400702,2.988628 0.211689,-0.347257 5.968506,-4.479907 3.694416,-3.720809 -1.614372,1.354654 -6.278065,4.751539 -6.278065,4.234158 0.46673,-0.41973 2.500298,-1.888179 3.374976,-2.632793 0.347752,-0.238464 0.577259,-0.484456 0.878907,-0.708985 0.365294,-0.216873 2.1084,-1.425335 2.1084,-1.425331 z m 2.737304,1.429193 c -1.417463,0.729437 -4.110765,2.289898 -4.453864,2.266374 0.12771,-0.183349 1.32182,-0.98852 1.682379,-1.196062 0.360561,-0.20755 2.32823,-1.690805 2.38086,-1.734375 0.168389,-0.0038 0.823105,0.368426 0.390625,0.664063 z m 1.289533,-0.5178 c 0.06955,-0.01756 0.137377,-0.01627 0.189453,0.0098 0.09135,0.0455 0.234821,0.3813 0.164901,0.456427 -0.191743,0.02098 -0.446544,0.09871 -0.523474,-0.08139 -0.06939,-0.16245 -0.03953,-0.332113 0.169107,-0.384801 z m -6.447736,-0.13845 c 0.05431,4.37e-4 0.09732,0.02206 0.125,0.07813 0.113701,0.230361 -0.379557,0.341029 -0.574219,0.505859 -0.516258,0.437132 -1.024717,0.785627 -1.572266,1.28125 -0.547548,0.49562 -1.119344,0.907363 -1.269531,0.914063 -0.374904,0.311938 -0.907924,0.840824 -1.515625,1.027343 -0.158572,0.0053 -0.7229139,0.568723 -1.2617188,0.767578 -0.285835,0.335458 -0.7046577,0.576905 -0.7929687,0.671875 -0.1712441,0.18412 -0.2113722,0.247646 -1.0800781,1.666016 -0.3094776,0.505298 -0.6186259,0.920375 -0.6855469,0.921875 -0.1305285,0.003 0.2522552,-1.007727 0.4628906,-1.222656 0.1369953,-0.331158 0.8253618,-1.490731 1.1425781,-1.697266 -0.049068,-0.07025 4.6008618,-3.066681 4.7382818,-3.119141 0.211871,-0.08864 2.00396,-1.466031 -0.261719,-0.30664 -0.33086,0.169307 -4.4960738,2.818612 -4.5781252,2.820312 -0.082047,0.0019 -0.9473188,-0.47125 -0.9492188,-0.55664 L 8.5917969,25.70124 c 0.7334107,-0.363332 1.3780925,-0.892349 2.1152341,-1.248047 1.155974,-0.557799 2.254621,-1.086181 3.595703,-1.376953 0.183058,-0.04131 0.35259,-0.132314 0.533204,-0.183594 0.178084,-0.05057 0.432767,-0.2435 0.595703,-0.242192 z m 5.917968,1.144531 c 0.134725,-0.01357 0.28024,0.03619 0.455079,0.175781 -0.794541,0.325012 -2.046587,3.916276 -2.306641,3.697266 -0.74741,0.351236 -2.486896,0.290129 -2.15625,0.162109 -0.318651,-0.387519 2.709453,-2.875698 2.564453,-2.960937 0.728975,-0.427441 1.039185,-1.033509 1.443359,-1.074219 z m -6.029301,4.59375 c -1.039265,1.049346 -2.025216,1.46982 -2.724609,1.210937 -0.518844,-0.434265 -1.612478,-1.327485 -1.821885,-1.851578 0.27111,-0.17008 1.451694,-0.41234 2.203522,-0.517977 1.484595,-0.305045 4.771591,-1.670006 5.032025,-1.810528 0.489464,0.299052 -1.749215,2.305665 -2.689053,2.969146 z M 6.8496094,27.365234 c -0.054069,0.0012 -0.7028517,0.64243 -0.8585908,0.925005 -0.7372048,1.093569 -1.0061518,1.503603 -1.2996124,2.424605 -0.1796005,0.27237 -0.1558155,0.891954 0.039063,1.009765 l 0,0.002 c 0.093382,0.05643 0.2021757,0.297735 0.4042968,0.08789 -0.2628888,-0.67081 0.4461096,-2.115943 0.8789059,-2.675777 -0.00224,-0.102337 1.0667871,-1.778738 0.8359375,-1.773438 z"
       id="path4537"
       inkscape:connector-curvature="0"
       sodipodi:nodetypes="cccccccsccccccccccssccccccccccccccccccscccsccssccccccscccccccccccsccsscccccccssscccccccscscccsaaaaaaaaccccccccscsccscsccccssccccsccccccccscccssssccccccscccccscccsscccccccccccccccccsccccsscccsssssscccccscsccccaaaaaccscscscsccsccccccccccsscccsccsssccccccccccccccccccccccccccccccscscsccccsccccccsccccsscccscccccccccccccccsssssccccscccccscsccscccsccccccccccscscccscacccscscccccccccsccccscsccccscssccccssccccsscccccsccscccccssccccsscccscscccssccsccccccsccaaaaaaaaaaaaaaacsccccaaaaaaaaaaaaacsccccccccccccccccccaaaaaaaaaacccsccccaaaaccccccscccccccccscccccccccccccccccccccaaaacsccccssccsaaaaaaaaaaaaaaaaaaaaaaaaaaaaaaaacscsccccaaaaaacssscssaaasaaaacsccaaaaasccccccccccaaaacccccaaaascccscccccaaaaaaaaaaaaaaaaasacccscccccaaaaccscccsscaaaaacssccaaaaaaaaaaaaaaaaacaaaaaaaaaaacccccaaaaasccsaaaaaaaaacscccccccccccccsacssaaaaaaaaaaaaccscccccccccccccscccccccsccccscccccscccccccccccccccccccccccccc" />
    <path
       style="color:#000000;clip-rule:nonzero;display:inline;overflow:visible;visibility:visible;opacity:1;isolation:auto;mix-blend-mode:normal;color-interpolation:sRGB;color-interpolation-filters:linearRGB;solid-color:#000000;solid-opacity:1;fill:#000000;fill-opacity:1;fill-rule:evenodd;stroke:#ff0000;stroke-width:0;stroke-linecap:butt;stroke-linejoin:round;stroke-miterlimit:4;stroke-dasharray:none;stroke-dashoffset:0;stroke-opacity:1;color-rendering:auto;image-rendering:auto;shape-rendering:auto;text-rendering:auto;enable-background:accumulate"
       id="path5179"
       sodipodi:type="arc"
       sodipodi:cx="25.153011"
       sodipodi:cy="14.106137"
       sodipodi:rx="0.0056107542"
       sodipodi:ry="0.033664525"
       sodipodi:start="0"
       sodipodi:end="6.1790066"
       sodipodi:open="true"
       d="m 25.158622,14.106137 a 0.00561075,0.03366452 0 0 1 -0.0055,0.03365 0.00561075,0.03366452 0 0 1 -0.0057,-0.0319 0.00561075,0.03366452 0 0 1 0.0052,-0.03531 0.00561075,0.03366452 0 0 1 0.006,0.03006" />
    <path
       style="color:#000000;clip-rule:nonzero;display:inline;overflow:visible;visibility:visible;opacity:1;isolation:auto;mix-blend-mode:normal;color-interpolation:sRGB;color-interpolation-filters:linearRGB;solid-color:#000000;solid-opacity:1;fill:#000000;fill-opacity:1;fill-rule:evenodd;stroke:#ff0000;stroke-width:0;stroke-linecap:butt;stroke-linejoin:round;stroke-miterlimit:4;stroke-dasharray:none;stroke-dashoffset:0;stroke-opacity:1;color-rendering:auto;image-rendering:auto;shape-rendering:auto;text-rendering:auto;enable-background:accumulate"
       id="path5181"
       sodipodi:type="arc"
       sodipodi:cx="24.389948"
       sodipodi:cy="14.975804"
       sodipodi:rx="0.02805377"
       sodipodi:ry="0.0056107542"
       sodipodi:start="0"
       sodipodi:end="6.1790066"
       sodipodi:open="true"
       d="m 24.418002,14.975804 a 0.02805377,0.00561075 0 0 1 -0.02732,0.0056 0.02805377,0.00561075 0 0 1 -0.02875,-0.0053 0.02805377,0.00561075 0 0 1 0.02583,-0.0059 0.02805377,0.00561075 0 0 1 0.03009,0.005" />
  </g>
</svg>
