<?xml version="1.0" encoding="UTF-8"?>
<svg xmlns="http://www.w3.org/2000/svg" xmlns:xlink="http://www.w3.org/1999/xlink" width="290.34pt" height="251.731pt" viewBox="0 0 290.34 251.731" version="1.1">
<defs>
<clipPath id="clip1">
  <path d="M 0 0 L 290 0 L 290 251.730469 L 0 251.730469 Z M 0 0 "/>
</clipPath>
<clipPath id="clip2">
  <path d="M 0 79 L 162 79 L 162 251.730469 L 0 251.730469 Z M 0 79 "/>
</clipPath>
<clipPath id="clip3">
  <path d="M 48 149 L 267 149 L 267 251.730469 L 48 251.730469 Z M 48 149 "/>
</clipPath>
<clipPath id="clip4">
  <path d="M 48 115 L 243 115 L 243 251.730469 L 48 251.730469 Z M 48 115 "/>
</clipPath>
<clipPath id="clip5">
  <path d="M 24 71 L 162 71 L 162 251.730469 L 24 251.730469 Z M 24 71 "/>
</clipPath>
<clipPath id="clip6">
  <path d="M 129 0 L 290.339844 0 L 290.339844 164 L 129 164 Z M 129 0 "/>
</clipPath>
<clipPath id="clip7">
  <path d="M 153 50 L 290.339844 50 L 290.339844 251.730469 L 153 251.730469 Z M 153 50 "/>
</clipPath>
<clipPath id="clip8">
  <path d="M 129 50 L 290.339844 50 L 290.339844 228 L 129 228 Z M 129 50 "/>
</clipPath>
<clipPath id="clip9">
  <path d="M 114 2 L 290.339844 2 L 290.339844 164 L 114 164 Z M 114 2 "/>
</clipPath>
<clipPath id="clip10">
  <path d="M 129 0 L 290.339844 0 L 290.339844 164 L 129 164 Z M 129 0 "/>
</clipPath>
<clipPath id="clip11">
  <path d="M 0 79 L 162 79 L 162 251.730469 L 0 251.730469 Z M 0 79 "/>
</clipPath>
<clipPath id="clip12">
  <path d="M 48 149 L 267 149 L 267 251.730469 L 48 251.730469 Z M 48 149 "/>
</clipPath>
<clipPath id="clip13">
  <path d="M 153 50 L 290.339844 50 L 290.339844 251.730469 L 153 251.730469 Z M 153 50 "/>
</clipPath>
<clipPath id="clip14">
  <path d="M 129 115 L 267 115 L 267 251.730469 L 129 251.730469 Z M 129 115 "/>
</clipPath>
<clipPath id="clip15">
  <path d="M 48 115 L 243 115 L 243 251.730469 L 48 251.730469 Z M 48 115 "/>
</clipPath>
<clipPath id="clip16">
  <path d="M 129 50 L 290.339844 50 L 290.339844 228 L 129 228 Z M 129 50 "/>
</clipPath>
<clipPath id="clip17">
  <path d="M 129 115 L 267 115 L 267 251.730469 L 129 251.730469 Z M 129 115 "/>
</clipPath>
<clipPath id="clip18">
  <path d="M 114 2 L 290.339844 2 L 290.339844 164 L 114 164 Z M 114 2 "/>
</clipPath>
<clipPath id="clip19">
  <path d="M 24 71 L 162 71 L 162 251.730469 L 24 251.730469 Z M 24 71 "/>
</clipPath>
</defs>
<g id="surface1">
<g clip-path="url(#clip1)" clip-rule="nonzero">
<path style=" stroke:none;fill-rule:nonzero;fill:rgb(0%,0%,100%);fill-opacity:0.75;" d="M 269.914062 1.28125 L 21.136719 0.554688 C 10.128906 0.523438 1.183594 9.417969 1.152344 20.421875 L 0.554688 230.464844 C 0.523438 241.472656 9.417969 250.417969 20.421875 250.449219 L 269.203125 251.175781 C 280.207031 251.207031 289.15625 242.3125 289.1875 231.308594 L 289.785156 21.265625 C 289.816406 10.261719 280.921875 1.3125 269.914062 1.28125 Z M 269.914062 1.28125 "/>
</g>
<path style="fill:none;stroke-width:1.99255;stroke-linecap:butt;stroke-linejoin:miter;stroke:rgb(100%,100%,100%);stroke-opacity:1;stroke-dasharray:3.9851,3.9851;stroke-miterlimit:10;" d="M -40.164156 49.808062 L -25.171969 -62.551313 " transform="matrix(1,0,0,-1,145.629,121.644)"/>
<path style="fill:none;stroke-width:1.99255;stroke-linecap:butt;stroke-linejoin:miter;stroke:rgb(100%,100%,100%);stroke-opacity:1;stroke-dasharray:3.9851,3.9851;stroke-miterlimit:10;" d="M -40.164156 49.808062 L 64.663969 6.604937 " transform="matrix(1,0,0,-1,145.629,121.644)"/>
<path style="fill:none;stroke-width:1.99255;stroke-linecap:butt;stroke-linejoin:miter;stroke:rgb(100%,100%,100%);stroke-opacity:1;stroke-dasharray:3.9851,3.9851;stroke-miterlimit:10;" d="M -40.164156 49.808062 L -64.570406 84.386187 " transform="matrix(1,0,0,-1,145.629,121.644)"/>
<path style="fill:none;stroke-width:1.99255;stroke-linecap:butt;stroke-linejoin:miter;stroke:rgb(100%,100%,100%);stroke-opacity:1;stroke-dasharray:3.9851,3.9851;stroke-miterlimit:10;" d="M -40.164156 49.808062 L 40.316313 97.413531 " transform="matrix(1,0,0,-1,145.629,121.644)"/>
<path style="fill:none;stroke-width:1.99255;stroke-linecap:butt;stroke-linejoin:miter;stroke:rgb(100%,100%,100%);stroke-opacity:1;stroke-dasharray:3.9851,3.9851;stroke-miterlimit:10;" d="M -40.164156 49.808062 L -105.043062 -14.477094 " transform="matrix(1,0,0,-1,145.629,121.644)"/>
<path style="fill:none;stroke-width:1.99255;stroke-linecap:butt;stroke-linejoin:miter;stroke:rgb(100%,100%,100%);stroke-opacity:1;stroke-dasharray:3.9851,3.9851;stroke-miterlimit:10;" d="M -25.171969 -62.551313 L -40.164156 49.808062 " transform="matrix(1,0,0,-1,145.629,121.644)"/>
<path style="fill:none;stroke-width:1.99255;stroke-linecap:butt;stroke-linejoin:miter;stroke:rgb(100%,100%,100%);stroke-opacity:1;stroke-dasharray:3.9851,3.9851;stroke-miterlimit:10;" d="M -25.171969 -62.551313 L 64.663969 6.604937 " transform="matrix(1,0,0,-1,145.629,121.644)"/>
<path style="fill:none;stroke-width:1.99255;stroke-linecap:butt;stroke-linejoin:miter;stroke:rgb(100%,100%,100%);stroke-opacity:1;stroke-dasharray:3.9851,3.9851;stroke-miterlimit:10;" d="M -25.171969 -62.551313 L -40.312594 -97.414594 " transform="matrix(1,0,0,-1,145.629,121.644)"/>
<path style="fill:none;stroke-width:1.99255;stroke-linecap:butt;stroke-linejoin:miter;stroke:rgb(100%,100%,100%);stroke-opacity:1;stroke-dasharray:3.9851,3.9851;stroke-miterlimit:10;" d="M -25.171969 -62.551313 L -105.043062 -14.477094 " transform="matrix(1,0,0,-1,145.629,121.644)"/>
<path style="fill:none;stroke-width:1.99255;stroke-linecap:butt;stroke-linejoin:miter;stroke:rgb(100%,100%,100%);stroke-opacity:1;stroke-dasharray:3.9851,3.9851;stroke-miterlimit:10;" d="M -25.171969 -62.551313 L 64.570219 -84.38725 " transform="matrix(1,0,0,-1,145.629,121.644)"/>
<path style="fill:none;stroke-width:1.99255;stroke-linecap:butt;stroke-linejoin:miter;stroke:rgb(100%,100%,100%);stroke-opacity:1;stroke-dasharray:3.9851,3.9851;stroke-miterlimit:10;" d="M 64.663969 6.604937 L -40.164156 49.808062 " transform="matrix(1,0,0,-1,145.629,121.644)"/>
<path style="fill:none;stroke-width:1.99255;stroke-linecap:butt;stroke-linejoin:miter;stroke:rgb(100%,100%,100%);stroke-opacity:1;stroke-dasharray:3.9851,3.9851;stroke-miterlimit:10;" d="M 64.663969 6.604937 L -25.171969 -62.551313 " transform="matrix(1,0,0,-1,145.629,121.644)"/>
<path style="fill:none;stroke-width:1.99255;stroke-linecap:butt;stroke-linejoin:miter;stroke:rgb(100%,100%,100%);stroke-opacity:1;stroke-dasharray:3.9851,3.9851;stroke-miterlimit:10;" d="M 64.663969 6.604937 L 105.042875 14.476031 " transform="matrix(1,0,0,-1,145.629,121.644)"/>
<path style="fill:none;stroke-width:1.99255;stroke-linecap:butt;stroke-linejoin:miter;stroke:rgb(100%,100%,100%);stroke-opacity:1;stroke-dasharray:3.9851,3.9851;stroke-miterlimit:10;" d="M 64.663969 6.604937 L 40.316313 97.413531 " transform="matrix(1,0,0,-1,145.629,121.644)"/>
<path style="fill:none;stroke-width:1.99255;stroke-linecap:butt;stroke-linejoin:miter;stroke:rgb(100%,100%,100%);stroke-opacity:1;stroke-dasharray:3.9851,3.9851;stroke-miterlimit:10;" d="M 64.663969 6.604937 L 64.570219 -84.38725 " transform="matrix(1,0,0,-1,145.629,121.644)"/>
<path style="fill:none;stroke-width:1.99255;stroke-linecap:butt;stroke-linejoin:miter;stroke:rgb(100%,100%,100%);stroke-opacity:1;stroke-dasharray:3.9851,3.9851;stroke-miterlimit:10;" d="M -40.312594 -97.414594 L -25.171969 -62.551313 " transform="matrix(1,0,0,-1,145.629,121.644)"/>
<path style="fill:none;stroke-width:1.99255;stroke-linecap:butt;stroke-linejoin:miter;stroke:rgb(100%,100%,100%);stroke-opacity:1;stroke-dasharray:3.9851,3.9851;stroke-miterlimit:10;" d="M 105.042875 14.476031 L 64.663969 6.604937 " transform="matrix(1,0,0,-1,145.629,121.644)"/>
<path style="fill:none;stroke-width:1.99255;stroke-linecap:butt;stroke-linejoin:miter;stroke:rgb(100%,100%,100%);stroke-opacity:1;stroke-dasharray:3.9851,3.9851;stroke-miterlimit:10;" d="M -64.570406 84.386187 L -40.164156 49.808062 " transform="matrix(1,0,0,-1,145.629,121.644)"/>
<path style="fill:none;stroke-width:1.99255;stroke-linecap:butt;stroke-linejoin:miter;stroke:rgb(100%,100%,100%);stroke-opacity:1;stroke-dasharray:3.9851,3.9851;stroke-miterlimit:10;" d="M 40.316313 97.413531 L -40.164156 49.808062 " transform="matrix(1,0,0,-1,145.629,121.644)"/>
<path style="fill:none;stroke-width:1.99255;stroke-linecap:butt;stroke-linejoin:miter;stroke:rgb(100%,100%,100%);stroke-opacity:1;stroke-dasharray:3.9851,3.9851;stroke-miterlimit:10;" d="M 40.316313 97.413531 L 64.663969 6.604937 " transform="matrix(1,0,0,-1,145.629,121.644)"/>
<path style="fill:none;stroke-width:1.99255;stroke-linecap:butt;stroke-linejoin:miter;stroke:rgb(100%,100%,100%);stroke-opacity:1;stroke-dasharray:3.9851,3.9851;stroke-miterlimit:10;" d="M -105.043062 -14.477094 L -40.164156 49.808062 " transform="matrix(1,0,0,-1,145.629,121.644)"/>
<path style="fill:none;stroke-width:1.99255;stroke-linecap:butt;stroke-linejoin:miter;stroke:rgb(100%,100%,100%);stroke-opacity:1;stroke-dasharray:3.9851,3.9851;stroke-miterlimit:10;" d="M -105.043062 -14.477094 L -25.171969 -62.551313 " transform="matrix(1,0,0,-1,145.629,121.644)"/>
<path style="fill:none;stroke-width:1.99255;stroke-linecap:butt;stroke-linejoin:miter;stroke:rgb(100%,100%,100%);stroke-opacity:1;stroke-dasharray:3.9851,3.9851;stroke-miterlimit:10;" d="M 64.570219 -84.38725 L -25.171969 -62.551313 " transform="matrix(1,0,0,-1,145.629,121.644)"/>
<path style="fill:none;stroke-width:1.99255;stroke-linecap:butt;stroke-linejoin:miter;stroke:rgb(100%,100%,100%);stroke-opacity:1;stroke-dasharray:3.9851,3.9851;stroke-miterlimit:10;" d="M 64.570219 -84.38725 L 64.663969 6.604937 " transform="matrix(1,0,0,-1,145.629,121.644)"/>
<path style="fill-rule:nonzero;fill:rgb(100%,100%,100%);fill-opacity:1;stroke-width:0.79701;stroke-linecap:butt;stroke-linejoin:miter;stroke:rgb(100%,100%,100%);stroke-opacity:1;stroke-miterlimit:10;" d="M -33.117281 49.808062 C -33.117281 53.698687 -36.273531 56.854937 -40.164156 56.854937 C -44.054781 56.854937 -47.207125 53.698687 -47.207125 49.808062 C -47.207125 45.917437 -44.054781 42.761187 -40.164156 42.761187 C -36.273531 42.761187 -33.117281 45.917437 -33.117281 49.808062 Z M -33.117281 49.808062 " transform="matrix(1,0,0,-1,145.629,121.644)"/>
<path style="fill-rule:nonzero;fill:rgb(100%,100%,100%);fill-opacity:1;stroke-width:0.79701;stroke-linecap:butt;stroke-linejoin:miter;stroke:rgb(100%,100%,100%);stroke-opacity:1;stroke-miterlimit:10;" d="M -18.125094 -62.551313 C -18.125094 -58.660688 -21.277437 -55.504438 -25.171969 -55.504438 C -29.062594 -55.504438 -32.214937 -58.660688 -32.214937 -62.551313 C -32.214937 -66.441938 -29.062594 -69.598188 -25.171969 -69.598188 C -21.277437 -69.598188 -18.125094 -66.441938 -18.125094 -62.551313 Z M -18.125094 -62.551313 " transform="matrix(1,0,0,-1,145.629,121.644)"/>
<path style="fill-rule:nonzero;fill:rgb(100%,100%,100%);fill-opacity:1;stroke-width:0.79701;stroke-linecap:butt;stroke-linejoin:miter;stroke:rgb(100%,100%,100%);stroke-opacity:1;stroke-miterlimit:10;" d="M 71.710844 6.604937 C 71.710844 10.495562 68.554594 13.647906 64.663969 13.647906 C 60.773344 13.647906 57.621 10.495562 57.621 6.604937 C 57.621 2.710406 60.773344 -0.441938 64.663969 -0.441938 C 68.554594 -0.441938 71.710844 2.710406 71.710844 6.604937 Z M 71.710844 6.604937 " transform="matrix(1,0,0,-1,145.629,121.644)"/>
<path style=" stroke:none;fill-rule:nonzero;fill:rgb(100%,100%,100%);fill-opacity:0.5;" d="M 185.792969 171.453125 L 250.671875 107.167969 L 210.199219 206.03125 Z M 185.792969 171.453125 "/>
<path style=" stroke:none;fill-rule:nonzero;fill:rgb(100%,100%,100%);fill-opacity:0.5;" d="M 185.792969 171.453125 L 105.316406 219.058594 L 210.199219 206.03125 Z M 185.792969 171.453125 "/>
<path style=" stroke:none;fill-rule:nonzero;fill:rgb(100%,100%,100%);fill-opacity:0.5;" d="M 170.800781 59.09375 L 250.671875 107.167969 L 185.945312 24.230469 Z M 170.800781 59.09375 "/>
<path style=" stroke:none;fill-rule:nonzero;fill:rgb(100%,100%,100%);fill-opacity:0.5;" d="M 170.800781 59.09375 L 250.671875 107.167969 L 185.792969 171.453125 Z M 170.800781 59.09375 "/>
<path style=" stroke:none;fill-rule:nonzero;fill:rgb(100%,100%,100%);fill-opacity:0.5;" d="M 80.964844 128.246094 L 105.316406 219.058594 L 185.792969 171.453125 Z M 80.964844 128.246094 "/>
<path style=" stroke:none;fill-rule:nonzero;fill:rgb(100%,100%,100%);fill-opacity:0.5;" d="M 80.964844 128.246094 L 105.316406 219.058594 L 40.585938 136.121094 Z M 80.964844 128.246094 "/>
<path style=" stroke:none;fill-rule:nonzero;fill:rgb(100%,100%,100%);fill-opacity:0.5;" d="M 80.964844 128.246094 L 185.792969 171.453125 L 170.800781 59.09375 Z M 80.964844 128.246094 "/>
<path style=" stroke:none;fill-rule:nonzero;fill:rgb(100%,100%,100%);fill-opacity:0.5;" d="M 80.964844 128.246094 L 81.058594 37.257812 L 40.585938 136.121094 Z M 80.964844 128.246094 "/>
<path style=" stroke:none;fill-rule:nonzero;fill:rgb(100%,100%,100%);fill-opacity:0.5;" d="M 80.964844 128.246094 L 81.058594 37.257812 L 170.800781 59.09375 Z M 80.964844 128.246094 "/>
<path style=" stroke:none;fill-rule:nonzero;fill:rgb(100%,100%,100%);fill-opacity:0.5;" d="M 170.800781 59.09375 L 81.058594 37.257812 L 185.945312 24.230469 Z M 170.800781 59.09375 "/>
<g clip-path="url(#clip2)" clip-rule="nonzero">
<path style="fill:none;stroke-width:3.9851;stroke-linecap:butt;stroke-linejoin:miter;stroke:rgb(100%,100%,100%);stroke-opacity:1;stroke-miterlimit:10;" d="M -40.312594 -97.414594 L -105.043062 -14.477094 " transform="matrix(1,0,0,-1,145.629,121.644)"/>
</g>
<g clip-path="url(#clip3)" clip-rule="nonzero">
<path style="fill:none;stroke-width:3.9851;stroke-linecap:butt;stroke-linejoin:miter;stroke:rgb(100%,100%,100%);stroke-opacity:1;stroke-miterlimit:10;" d="M -40.312594 -97.414594 L 64.570219 -84.38725 " transform="matrix(1,0,0,-1,145.629,121.644)"/>
</g>
<g clip-path="url(#clip4)" clip-rule="nonzero">
<path style="fill:none;stroke-width:3.9851;stroke-linecap:butt;stroke-linejoin:miter;stroke:rgb(100%,100%,100%);stroke-opacity:1;stroke-miterlimit:10;" d="M -40.312594 -97.414594 L 40.163969 -49.809125 " transform="matrix(1,0,0,-1,145.629,121.644)"/>
</g>
<g clip-path="url(#clip5)" clip-rule="nonzero">
<path style="fill:none;stroke-width:3.9851;stroke-linecap:butt;stroke-linejoin:miter;stroke:rgb(100%,100%,100%);stroke-opacity:1;stroke-miterlimit:10;" d="M -40.312594 -97.414594 L -64.664156 -6.602094 " transform="matrix(1,0,0,-1,145.629,121.644)"/>
</g>
<g clip-path="url(#clip6)" clip-rule="nonzero">
<path style="fill:none;stroke-width:3.9851;stroke-linecap:butt;stroke-linejoin:miter;stroke:rgb(100%,100%,100%);stroke-opacity:1;stroke-miterlimit:10;" d="M 105.042875 14.476031 L 40.316313 97.413531 " transform="matrix(1,0,0,-1,145.629,121.644)"/>
</g>
<g clip-path="url(#clip7)" clip-rule="nonzero">
<path style="fill:none;stroke-width:3.9851;stroke-linecap:butt;stroke-linejoin:miter;stroke:rgb(100%,100%,100%);stroke-opacity:1;stroke-miterlimit:10;" d="M 105.042875 14.476031 L 64.570219 -84.38725 " transform="matrix(1,0,0,-1,145.629,121.644)"/>
</g>
<g clip-path="url(#clip8)" clip-rule="nonzero">
<path style="fill:none;stroke-width:3.9851;stroke-linecap:butt;stroke-linejoin:miter;stroke:rgb(100%,100%,100%);stroke-opacity:1;stroke-miterlimit:10;" d="M 105.042875 14.476031 L 40.163969 -49.809125 " transform="matrix(1,0,0,-1,145.629,121.644)"/>
</g>
<g clip-path="url(#clip9)" clip-rule="nonzero">
<path style="fill:none;stroke-width:3.9851;stroke-linecap:butt;stroke-linejoin:miter;stroke:rgb(100%,100%,100%);stroke-opacity:1;stroke-miterlimit:10;" d="M 105.042875 14.476031 L 25.171781 62.55025 " transform="matrix(1,0,0,-1,145.629,121.644)"/>
</g>
<path style="fill:none;stroke-width:3.9851;stroke-linecap:butt;stroke-linejoin:miter;stroke:rgb(100%,100%,100%);stroke-opacity:1;stroke-miterlimit:10;" d="M -64.570406 84.386187 L 40.316313 97.413531 " transform="matrix(1,0,0,-1,145.629,121.644)"/>
<path style="fill:none;stroke-width:3.9851;stroke-linecap:butt;stroke-linejoin:miter;stroke:rgb(100%,100%,100%);stroke-opacity:1;stroke-miterlimit:10;" d="M -64.570406 84.386187 L -105.043062 -14.477094 " transform="matrix(1,0,0,-1,145.629,121.644)"/>
<path style="fill:none;stroke-width:3.9851;stroke-linecap:butt;stroke-linejoin:miter;stroke:rgb(100%,100%,100%);stroke-opacity:1;stroke-miterlimit:10;" d="M -64.570406 84.386187 L 25.171781 62.55025 " transform="matrix(1,0,0,-1,145.629,121.644)"/>
<path style="fill:none;stroke-width:3.9851;stroke-linecap:butt;stroke-linejoin:miter;stroke:rgb(100%,100%,100%);stroke-opacity:1;stroke-miterlimit:10;" d="M -64.570406 84.386187 L -64.664156 -6.602094 " transform="matrix(1,0,0,-1,145.629,121.644)"/>
<g clip-path="url(#clip10)" clip-rule="nonzero">
<path style="fill:none;stroke-width:3.9851;stroke-linecap:butt;stroke-linejoin:miter;stroke:rgb(100%,100%,100%);stroke-opacity:1;stroke-miterlimit:10;" d="M 40.316313 97.413531 L 105.042875 14.476031 " transform="matrix(1,0,0,-1,145.629,121.644)"/>
</g>
<path style="fill:none;stroke-width:3.9851;stroke-linecap:butt;stroke-linejoin:miter;stroke:rgb(100%,100%,100%);stroke-opacity:1;stroke-miterlimit:10;" d="M 40.316313 97.413531 L -64.570406 84.386187 " transform="matrix(1,0,0,-1,145.629,121.644)"/>
<path style="fill:none;stroke-width:3.9851;stroke-linecap:butt;stroke-linejoin:miter;stroke:rgb(100%,100%,100%);stroke-opacity:1;stroke-miterlimit:10;" d="M 40.316313 97.413531 L 25.171781 62.55025 " transform="matrix(1,0,0,-1,145.629,121.644)"/>
<g clip-path="url(#clip11)" clip-rule="nonzero">
<path style="fill:none;stroke-width:3.9851;stroke-linecap:butt;stroke-linejoin:miter;stroke:rgb(100%,100%,100%);stroke-opacity:1;stroke-miterlimit:10;" d="M -105.043062 -14.477094 L -40.312594 -97.414594 " transform="matrix(1,0,0,-1,145.629,121.644)"/>
</g>
<path style="fill:none;stroke-width:3.9851;stroke-linecap:butt;stroke-linejoin:miter;stroke:rgb(100%,100%,100%);stroke-opacity:1;stroke-miterlimit:10;" d="M -105.043062 -14.477094 L -64.570406 84.386187 " transform="matrix(1,0,0,-1,145.629,121.644)"/>
<path style="fill:none;stroke-width:3.9851;stroke-linecap:butt;stroke-linejoin:miter;stroke:rgb(100%,100%,100%);stroke-opacity:1;stroke-miterlimit:10;" d="M -105.043062 -14.477094 L -64.664156 -6.602094 " transform="matrix(1,0,0,-1,145.629,121.644)"/>
<g clip-path="url(#clip12)" clip-rule="nonzero">
<path style="fill:none;stroke-width:3.9851;stroke-linecap:butt;stroke-linejoin:miter;stroke:rgb(100%,100%,100%);stroke-opacity:1;stroke-miterlimit:10;" d="M 64.570219 -84.38725 L -40.312594 -97.414594 " transform="matrix(1,0,0,-1,145.629,121.644)"/>
</g>
<g clip-path="url(#clip13)" clip-rule="nonzero">
<path style="fill:none;stroke-width:3.9851;stroke-linecap:butt;stroke-linejoin:miter;stroke:rgb(100%,100%,100%);stroke-opacity:1;stroke-miterlimit:10;" d="M 64.570219 -84.38725 L 105.042875 14.476031 " transform="matrix(1,0,0,-1,145.629,121.644)"/>
</g>
<g clip-path="url(#clip14)" clip-rule="nonzero">
<path style="fill:none;stroke-width:3.9851;stroke-linecap:butt;stroke-linejoin:miter;stroke:rgb(100%,100%,100%);stroke-opacity:1;stroke-miterlimit:10;" d="M 64.570219 -84.38725 L 40.163969 -49.809125 " transform="matrix(1,0,0,-1,145.629,121.644)"/>
</g>
<g clip-path="url(#clip15)" clip-rule="nonzero">
<path style="fill:none;stroke-width:3.9851;stroke-linecap:butt;stroke-linejoin:miter;stroke:rgb(100%,100%,100%);stroke-opacity:1;stroke-miterlimit:10;" d="M 40.163969 -49.809125 L -40.312594 -97.414594 " transform="matrix(1,0,0,-1,145.629,121.644)"/>
</g>
<g clip-path="url(#clip16)" clip-rule="nonzero">
<path style="fill:none;stroke-width:3.9851;stroke-linecap:butt;stroke-linejoin:miter;stroke:rgb(100%,100%,100%);stroke-opacity:1;stroke-miterlimit:10;" d="M 40.163969 -49.809125 L 105.042875 14.476031 " transform="matrix(1,0,0,-1,145.629,121.644)"/>
</g>
<g clip-path="url(#clip17)" clip-rule="nonzero">
<path style="fill:none;stroke-width:3.9851;stroke-linecap:butt;stroke-linejoin:miter;stroke:rgb(100%,100%,100%);stroke-opacity:1;stroke-miterlimit:10;" d="M 40.163969 -49.809125 L 64.570219 -84.38725 " transform="matrix(1,0,0,-1,145.629,121.644)"/>
</g>
<path style="fill:none;stroke-width:3.9851;stroke-linecap:butt;stroke-linejoin:miter;stroke:rgb(100%,100%,100%);stroke-opacity:1;stroke-miterlimit:10;" d="M 40.163969 -49.809125 L 25.171781 62.55025 " transform="matrix(1,0,0,-1,145.629,121.644)"/>
<path style="fill:none;stroke-width:3.9851;stroke-linecap:butt;stroke-linejoin:miter;stroke:rgb(100%,100%,100%);stroke-opacity:1;stroke-miterlimit:10;" d="M 40.163969 -49.809125 L -64.664156 -6.602094 " transform="matrix(1,0,0,-1,145.629,121.644)"/>
<g clip-path="url(#clip18)" clip-rule="nonzero">
<path style="fill:none;stroke-width:3.9851;stroke-linecap:butt;stroke-linejoin:miter;stroke:rgb(100%,100%,100%);stroke-opacity:1;stroke-miterlimit:10;" d="M 25.171781 62.55025 L 105.042875 14.476031 " transform="matrix(1,0,0,-1,145.629,121.644)"/>
</g>
<path style="fill:none;stroke-width:3.9851;stroke-linecap:butt;stroke-linejoin:miter;stroke:rgb(100%,100%,100%);stroke-opacity:1;stroke-miterlimit:10;" d="M 25.171781 62.55025 L -64.570406 84.386187 " transform="matrix(1,0,0,-1,145.629,121.644)"/>
<path style="fill:none;stroke-width:3.9851;stroke-linecap:butt;stroke-linejoin:miter;stroke:rgb(100%,100%,100%);stroke-opacity:1;stroke-miterlimit:10;" d="M 25.171781 62.55025 L 40.316313 97.413531 " transform="matrix(1,0,0,-1,145.629,121.644)"/>
<path style="fill:none;stroke-width:3.9851;stroke-linecap:butt;stroke-linejoin:miter;stroke:rgb(100%,100%,100%);stroke-opacity:1;stroke-miterlimit:10;" d="M 25.171781 62.55025 L 40.163969 -49.809125 " transform="matrix(1,0,0,-1,145.629,121.644)"/>
<path style="fill:none;stroke-width:3.9851;stroke-linecap:butt;stroke-linejoin:miter;stroke:rgb(100%,100%,100%);stroke-opacity:1;stroke-miterlimit:10;" d="M 25.171781 62.55025 L -64.664156 -6.602094 " transform="matrix(1,0,0,-1,145.629,121.644)"/>
<g clip-path="url(#clip19)" clip-rule="nonzero">
<path style="fill:none;stroke-width:3.9851;stroke-linecap:butt;stroke-linejoin:miter;stroke:rgb(100%,100%,100%);stroke-opacity:1;stroke-miterlimit:10;" d="M -64.664156 -6.602094 L -40.312594 -97.414594 " transform="matrix(1,0,0,-1,145.629,121.644)"/>
</g>
<path style="fill:none;stroke-width:3.9851;stroke-linecap:butt;stroke-linejoin:miter;stroke:rgb(100%,100%,100%);stroke-opacity:1;stroke-miterlimit:10;" d="M -64.664156 -6.602094 L -64.570406 84.386187 " transform="matrix(1,0,0,-1,145.629,121.644)"/>
<path style="fill:none;stroke-width:3.9851;stroke-linecap:butt;stroke-linejoin:miter;stroke:rgb(100%,100%,100%);stroke-opacity:1;stroke-miterlimit:10;" d="M -64.664156 -6.602094 L -105.043062 -14.477094 " transform="matrix(1,0,0,-1,145.629,121.644)"/>
<path style="fill:none;stroke-width:3.9851;stroke-linecap:butt;stroke-linejoin:miter;stroke:rgb(100%,100%,100%);stroke-opacity:1;stroke-miterlimit:10;" d="M -64.664156 -6.602094 L 40.163969 -49.809125 " transform="matrix(1,0,0,-1,145.629,121.644)"/>
<path style="fill:none;stroke-width:3.9851;stroke-linecap:butt;stroke-linejoin:miter;stroke:rgb(100%,100%,100%);stroke-opacity:1;stroke-miterlimit:10;" d="M -64.664156 -6.602094 L 25.171781 62.55025 " transform="matrix(1,0,0,-1,145.629,121.644)"/>
<path style="fill-rule:nonzero;fill:rgb(100%,100%,100%);fill-opacity:1;stroke-width:0.79701;stroke-linecap:butt;stroke-linejoin:miter;stroke:rgb(100%,100%,100%);stroke-opacity:1;stroke-miterlimit:10;" d="M -33.269625 -97.414594 C -33.269625 -93.523969 -36.421969 -90.371625 -40.312594 -90.371625 C -44.207125 -90.371625 -47.359469 -93.523969 -47.359469 -97.414594 C -47.359469 -101.305219 -44.207125 -104.461469 -40.312594 -104.461469 C -36.421969 -104.461469 -33.269625 -101.305219 -33.269625 -97.414594 Z M -33.269625 -97.414594 " transform="matrix(1,0,0,-1,145.629,121.644)"/>
<path style="fill-rule:nonzero;fill:rgb(100%,100%,100%);fill-opacity:1;stroke-width:0.79701;stroke-linecap:butt;stroke-linejoin:miter;stroke:rgb(100%,100%,100%);stroke-opacity:1;stroke-miterlimit:10;" d="M 112.08975 14.476031 C 112.08975 18.366656 108.9335 21.522906 105.042875 21.522906 C 101.15225 21.522906 97.999906 18.366656 97.999906 14.476031 C 97.999906 10.585406 101.15225 7.433062 105.042875 7.433062 C 108.9335 7.433062 112.08975 10.585406 112.08975 14.476031 Z M 112.08975 14.476031 " transform="matrix(1,0,0,-1,145.629,121.644)"/>
<path style="fill-rule:nonzero;fill:rgb(100%,100%,100%);fill-opacity:1;stroke-width:0.79701;stroke-linecap:butt;stroke-linejoin:miter;stroke:rgb(100%,100%,100%);stroke-opacity:1;stroke-miterlimit:10;" d="M -57.527437 84.386187 C -57.527437 88.276812 -60.679781 91.433062 -64.570406 91.433062 C -68.464937 91.433062 -71.617281 88.276812 -71.617281 84.386187 C -71.617281 80.495562 -68.464937 77.343219 -64.570406 77.343219 C -60.679781 77.343219 -57.527437 80.495562 -57.527437 84.386187 Z M -57.527437 84.386187 " transform="matrix(1,0,0,-1,145.629,121.644)"/>
<path style="fill-rule:nonzero;fill:rgb(100%,100%,100%);fill-opacity:1;stroke-width:0.79701;stroke-linecap:butt;stroke-linejoin:miter;stroke:rgb(100%,100%,100%);stroke-opacity:1;stroke-miterlimit:10;" d="M 47.359281 97.413531 C 47.359281 101.308062 44.206938 104.460406 40.316313 104.460406 C 36.421781 104.460406 33.269438 101.308062 33.269438 97.413531 C 33.269438 93.522906 36.421781 90.370562 40.316313 90.370562 C 44.206938 90.370562 47.359281 93.522906 47.359281 97.413531 Z M 47.359281 97.413531 " transform="matrix(1,0,0,-1,145.629,121.644)"/>
<path style="fill-rule:nonzero;fill:rgb(100%,100%,100%);fill-opacity:1;stroke-width:0.79701;stroke-linecap:butt;stroke-linejoin:miter;stroke:rgb(100%,100%,100%);stroke-opacity:1;stroke-miterlimit:10;" d="M -98.000094 -14.477094 C -98.000094 -10.586469 -101.152437 -7.430219 -105.043062 -7.430219 C -108.933687 -7.430219 -112.089937 -10.586469 -112.089937 -14.477094 C -112.089937 -18.367719 -108.933687 -21.523969 -105.043062 -21.523969 C -101.152437 -21.523969 -98.000094 -18.367719 -98.000094 -14.477094 Z M -98.000094 -14.477094 " transform="matrix(1,0,0,-1,145.629,121.644)"/>
<path style="fill-rule:nonzero;fill:rgb(100%,100%,100%);fill-opacity:1;stroke-width:0.79701;stroke-linecap:butt;stroke-linejoin:miter;stroke:rgb(100%,100%,100%);stroke-opacity:1;stroke-miterlimit:10;" d="M 71.617094 -84.38725 C 71.617094 -80.496625 68.46475 -77.340375 64.570219 -77.340375 C 60.679594 -77.340375 57.52725 -80.496625 57.52725 -84.38725 C 57.52725 -88.277875 60.679594 -91.434125 64.570219 -91.434125 C 68.46475 -91.434125 71.617094 -88.277875 71.617094 -84.38725 Z M 71.617094 -84.38725 " transform="matrix(1,0,0,-1,145.629,121.644)"/>
<path style="fill-rule:nonzero;fill:rgb(100%,100%,100%);fill-opacity:1;stroke-width:0.79701;stroke-linecap:butt;stroke-linejoin:miter;stroke:rgb(100%,100%,100%);stroke-opacity:1;stroke-miterlimit:10;" d="M 47.206938 -49.809125 C 47.206938 -45.9185 44.054594 -42.76225 40.163969 -42.76225 C 36.273344 -42.76225 33.117094 -45.9185 33.117094 -49.809125 C 33.117094 -53.69975 36.273344 -56.852094 40.163969 -56.852094 C 44.054594 -56.852094 47.206938 -53.69975 47.206938 -49.809125 Z M 47.206938 -49.809125 " transform="matrix(1,0,0,-1,145.629,121.644)"/>
<path style="fill-rule:nonzero;fill:rgb(100%,100%,100%);fill-opacity:1;stroke-width:0.79701;stroke-linecap:butt;stroke-linejoin:miter;stroke:rgb(100%,100%,100%);stroke-opacity:1;stroke-miterlimit:10;" d="M 32.21475 62.55025 C 32.21475 66.440875 29.062406 69.597125 25.171781 69.597125 C 21.27725 69.597125 18.124906 66.440875 18.124906 62.55025 C 18.124906 58.659625 21.27725 55.507281 25.171781 55.507281 C 29.062406 55.507281 32.21475 58.659625 32.21475 62.55025 Z M 32.21475 62.55025 " transform="matrix(1,0,0,-1,145.629,121.644)"/>
<path style="fill-rule:nonzero;fill:rgb(100%,100%,100%);fill-opacity:1;stroke-width:0.79701;stroke-linecap:butt;stroke-linejoin:miter;stroke:rgb(100%,100%,100%);stroke-opacity:1;stroke-miterlimit:10;" d="M -57.621187 -6.602094 C -57.621187 -2.711469 -60.773531 0.440875 -64.664156 0.440875 C -68.554781 0.440875 -71.711031 -2.711469 -71.711031 -6.602094 C -71.711031 -10.492719 -68.554781 -13.648969 -64.664156 -13.648969 C -60.773531 -13.648969 -57.621187 -10.492719 -57.621187 -6.602094 Z M -57.621187 -6.602094 " transform="matrix(1,0,0,-1,145.629,121.644)"/>
</g>
</svg>
