<?xml version="1.0" encoding="UTF-8" standalone="no"?>
<svg
   xmlns:dc="http://purl.org/dc/elements/1.1/"
   xmlns:cc="http://creativecommons.org/ns#"
   xmlns:rdf="http://www.w3.org/1999/02/22-rdf-syntax-ns#"
   xmlns:svg="http://www.w3.org/2000/svg"
   xmlns="http://www.w3.org/2000/svg"
   xmlns:sodipodi="http://sodipodi.sourceforge.net/DTD/sodipodi-0.dtd"
   xmlns:inkscape="http://www.inkscape.org/namespaces/inkscape"
   width="223.91005pt"
   height="209.71889pt"
   viewBox="0 0 223.91005 209.71888"
   version="1.1"
   id="svg2"
   inkscape:version="0.91 r13725"
   sodipodi:docname="sage-extracted.svg">
  <metadata
     id="metadata270">
    <rdf:RDF>
      <cc:Work
         rdf:about="">
        <dc:format>image/svg+xml</dc:format>
        <dc:type
           rdf:resource="http://purl.org/dc/dcmitype/StillImage" />
        <dc:title />
      </cc:Work>
    </rdf:RDF>
  </metadata>
  <sodipodi:namedview
     pagecolor="#ffffff"
     bordercolor="#666666"
     borderopacity="1"
     objecttolerance="10"
     gridtolerance="10"
     guidetolerance="10"
     inkscape:pageopacity="0"
     inkscape:pageshadow="2"
     inkscape:window-width="1920"
     inkscape:window-height="1051"
     id="namedview268"
     showgrid="false"
     fit-margin-top="0"
     fit-margin-left="0"
     fit-margin-right="0"
     fit-margin-bottom="0"
     inkscape:zoom="0.75000694"
     inkscape:cx="-449.95774"
     inkscape:cy="120.46481"
     inkscape:window-x="0"
     inkscape:window-y="0"
     inkscape:window-maximized="1"
     inkscape:current-layer="svg2" />
  <defs
     id="defs4">
    <clipPath
       id="clip1">
      <path
         d="m 0,0 290,0 0,251.73047 -290,0 z m 0,0"
         id="path7"
         inkscape:connector-curvature="0" />
    </clipPath>
    <clipPath
       id="clip2">
      <path
         d="m 0,79 162,0 0,172.73047 -162,0 z m 0,0"
         id="path10"
         inkscape:connector-curvature="0" />
    </clipPath>
    <clipPath
       id="clip3">
      <path
         d="m 48,149 219,0 0,102.73047 -219,0 z m 0,0"
         id="path13"
         inkscape:connector-curvature="0" />
    </clipPath>
    <clipPath
       id="clip4">
      <path
         d="m 48,115 195,0 0,136.73047 -195,0 z m 0,0"
         id="path16"
         inkscape:connector-curvature="0" />
    </clipPath>
    <clipPath
       id="clip5">
      <path
         d="m 24,71 138,0 0,180.73047 -138,0 z m 0,0"
         id="path19"
         inkscape:connector-curvature="0" />
    </clipPath>
    <clipPath
       id="clip6">
      <path
         d="m 129,0 161.33984,0 0,164 L 129,164 Z m 0,0"
         id="path22"
         inkscape:connector-curvature="0" />
    </clipPath>
    <clipPath
       id="clip7">
      <path
         d="m 153,50 137.33984,0 0,201.73047 -137.33984,0 z m 0,0"
         id="path25"
         inkscape:connector-curvature="0" />
    </clipPath>
    <clipPath
       id="clip8">
      <path
         d="m 129,50 161.33984,0 0,178 L 129,228 Z m 0,0"
         id="path28"
         inkscape:connector-curvature="0" />
    </clipPath>
    <clipPath
       id="clip9">
      <path
         d="m 114,2 176.33984,0 0,162 L 114,164 Z m 0,0"
         id="path31"
         inkscape:connector-curvature="0" />
    </clipPath>
    <clipPath
       id="clip10">
      <path
         d="m 129,0 161.33984,0 0,164 L 129,164 Z m 0,0"
         id="path34"
         inkscape:connector-curvature="0" />
    </clipPath>
    <clipPath
       id="clip11">
      <path
         d="m 0,79 162,0 0,172.73047 -162,0 z m 0,0"
         id="path37"
         inkscape:connector-curvature="0" />
    </clipPath>
    <clipPath
       id="clip12">
      <path
         d="m 48,149 219,0 0,102.73047 -219,0 z m 0,0"
         id="path40"
         inkscape:connector-curvature="0" />
    </clipPath>
    <clipPath
       id="clip13">
      <path
         d="m 153,50 137.33984,0 0,201.73047 -137.33984,0 z m 0,0"
         id="path43"
         inkscape:connector-curvature="0" />
    </clipPath>
    <clipPath
       id="clip14">
      <path
         d="m 129,115 138,0 0,136.73047 -138,0 z m 0,0"
         id="path46"
         inkscape:connector-curvature="0" />
    </clipPath>
    <clipPath
       id="clip15">
      <path
         d="m 48,115 195,0 0,136.73047 -195,0 z m 0,0"
         id="path49"
         inkscape:connector-curvature="0" />
    </clipPath>
    <clipPath
       id="clip16">
      <path
         d="m 129,50 161.33984,0 0,178 L 129,228 Z m 0,0"
         id="path52"
         inkscape:connector-curvature="0" />
    </clipPath>
    <clipPath
       id="clip17">
      <path
         d="m 129,115 138,0 0,136.73047 -138,0 z m 0,0"
         id="path55"
         inkscape:connector-curvature="0" />
    </clipPath>
    <clipPath
       id="clip18">
      <path
         d="m 114,2 176.33984,0 0,162 L 114,164 Z m 0,0"
         id="path58"
         inkscape:connector-curvature="0" />
    </clipPath>
    <clipPath
       id="clip19">
      <path
         d="m 24,71 138,0 0,180.73047 -138,0 z m 0,0"
         id="path61"
         inkscape:connector-curvature="0" />
    </clipPath>
  </defs>
  <path
     inkscape:connector-curvature="0"
     id="path68"
     d="M 72.324285,55.050854 87.316479,167.41023"
     style="fill:none;stroke:#ffcc00;stroke-width:1.99255002;stroke-linecap:butt;stroke-linejoin:miter;stroke-miterlimit:10;stroke-dasharray:3.9851, 3.98510000000000009;stroke-opacity:0.99346403" />
  <path
     inkscape:connector-curvature="0"
     id="path70"
     d="M 72.324285,55.050854 177.15242,98.253989"
     style="fill:none;stroke:#ffcc00;stroke-width:1.99255002;stroke-linecap:butt;stroke-linejoin:miter;stroke-miterlimit:10;stroke-dasharray:3.9851, 3.98510000000000009;stroke-opacity:0.99346403" />
  <path
     inkscape:connector-curvature="0"
     id="path72"
     d="M 72.324285,55.050854 47.918035,20.472729"
     style="fill:none;stroke:#ffcc00;stroke-width:1.99255002;stroke-linecap:butt;stroke-linejoin:miter;stroke-miterlimit:10;stroke-dasharray:3.9851, 3.98510000000000009;stroke-opacity:0.99346403" />
  <path
     inkscape:connector-curvature="0"
     id="path74"
     d="M 72.324285,55.050854 152.80476,7.445384"
     style="fill:none;stroke:#ffcc00;stroke-width:1.99255002;stroke-linecap:butt;stroke-linejoin:miter;stroke-miterlimit:10;stroke-dasharray:3.9851, 3.98510000000000009;stroke-opacity:0.99346403" />
  <path
     inkscape:connector-curvature="0"
     id="path76"
     d="M 72.324285,55.050854 7.445385,119.33601"
     style="fill:none;stroke:#ffcc00;stroke-width:1.99255002;stroke-linecap:butt;stroke-linejoin:miter;stroke-miterlimit:10;stroke-dasharray:3.9851, 3.98510000000000009;stroke-opacity:0.99346403" />
  <path
     inkscape:connector-curvature="0"
     id="path78"
     d="M 87.316479,167.41023 72.324285,55.050854"
     style="fill:none;stroke:#ffcc00;stroke-width:1.99255002;stroke-linecap:butt;stroke-linejoin:miter;stroke-miterlimit:10;stroke-dasharray:3.9851, 3.98510000000000009;stroke-opacity:0.99346403" />
  <path
     inkscape:connector-curvature="0"
     id="path80"
     d="M 87.316479,167.41023 177.15242,98.253989"
     style="fill:none;stroke:#ffcc00;stroke-width:1.99255002;stroke-linecap:butt;stroke-linejoin:miter;stroke-miterlimit:10;stroke-dasharray:3.9851, 3.98510000000000009;stroke-opacity:0.99346403" />
  <path
     inkscape:connector-curvature="0"
     id="path82"
     d="M 87.316479,167.41023 72.175855,202.27351"
     style="fill:none;stroke:#ffcc00;stroke-width:1.99255002;stroke-linecap:butt;stroke-linejoin:miter;stroke-miterlimit:10;stroke-dasharray:3.9851, 3.98510000000000009;stroke-opacity:0.99346403" />
  <path
     inkscape:connector-curvature="0"
     id="path84"
     d="M 87.316479,167.41023 7.445385,119.33601"
     style="fill:none;stroke:#ffcc00;stroke-width:1.99255002;stroke-linecap:butt;stroke-linejoin:miter;stroke-miterlimit:10;stroke-dasharray:3.9851, 3.98510000000000009;stroke-opacity:0.99346403" />
  <path
     inkscape:connector-curvature="0"
     id="path86"
     d="m 87.316479,167.41023 89.742191,21.83594"
     style="fill:none;stroke:#ffcc00;stroke-width:1.99255002;stroke-linecap:butt;stroke-linejoin:miter;stroke-miterlimit:10;stroke-dasharray:3.9851, 3.98510000000000009;stroke-opacity:0.99346403" />
  <path
     inkscape:connector-curvature="0"
     id="path88"
     d="M 177.15242,98.253989 72.324285,55.050854"
     style="fill:none;stroke:#ffcc00;stroke-width:1.99255002;stroke-linecap:butt;stroke-linejoin:miter;stroke-miterlimit:10;stroke-dasharray:3.9851, 3.98510000000000009;stroke-opacity:0.99346403" />
  <path
     inkscape:connector-curvature="0"
     id="path90"
     d="M 177.15242,98.253989 87.316479,167.41023"
     style="fill:none;stroke:#ffcc00;stroke-width:1.99255002;stroke-linecap:butt;stroke-linejoin:miter;stroke-miterlimit:10;stroke-dasharray:3.9851, 3.98510000000000009;stroke-opacity:0.99346403" />
  <path
     inkscape:connector-curvature="0"
     id="path92"
     d="m 177.15242,98.253989 40.3789,-7.87109"
     style="fill:none;stroke:#ffcc00;stroke-width:1.99255002;stroke-linecap:butt;stroke-linejoin:miter;stroke-miterlimit:10;stroke-dasharray:3.9851, 3.98510000000000009;stroke-opacity:0.99346403" />
  <path
     inkscape:connector-curvature="0"
     id="path94"
     d="M 177.15242,98.253989 152.80476,7.445384"
     style="fill:none;stroke:#ffcc00;stroke-width:1.99255002;stroke-linecap:butt;stroke-linejoin:miter;stroke-miterlimit:10;stroke-dasharray:3.9851, 3.98510000000000009;stroke-opacity:0.99346403" />
  <path
     inkscape:connector-curvature="0"
     id="path96"
     d="m 177.15242,98.253989 -0.0937,90.992181"
     style="fill:none;stroke:#ffcc00;stroke-width:1.99255002;stroke-linecap:butt;stroke-linejoin:miter;stroke-miterlimit:10;stroke-dasharray:3.9851, 3.98510000000000009;stroke-opacity:0.99346403" />
  <path
     inkscape:connector-curvature="0"
     id="path98"
     d="M 72.175855,202.27351 87.316479,167.41023"
     style="fill:none;stroke:#ffcc00;stroke-width:1.99255002;stroke-linecap:butt;stroke-linejoin:miter;stroke-miterlimit:10;stroke-dasharray:3.9851, 3.98510000000000009;stroke-opacity:0.99346403" />
  <path
     inkscape:connector-curvature="0"
     id="path100"
     d="m 217.53132,90.382899 -40.3789,7.87109"
     style="fill:none;stroke:#ffcc00;stroke-width:1.99255002;stroke-linecap:butt;stroke-linejoin:miter;stroke-miterlimit:10;stroke-dasharray:3.9851, 3.98510000000000009;stroke-opacity:0.99346403" />
  <path
     inkscape:connector-curvature="0"
     id="path102"
     d="m 47.918035,20.472729 24.40625,34.578125"
     style="fill:none;stroke:#ffcc00;stroke-width:1.99255002;stroke-linecap:butt;stroke-linejoin:miter;stroke-miterlimit:10;stroke-dasharray:3.9851, 3.98510000000000009;stroke-opacity:0.99346403" />
  <path
     inkscape:connector-curvature="0"
     id="path104"
     d="M 152.80476,7.445384 72.324285,55.050854"
     style="fill:none;stroke:#ffcc00;stroke-width:1.99255002;stroke-linecap:butt;stroke-linejoin:miter;stroke-miterlimit:10;stroke-dasharray:3.9851, 3.98510000000000009;stroke-opacity:0.99346403" />
  <path
     inkscape:connector-curvature="0"
     id="path106"
     d="m 152.80476,7.445384 24.34766,90.808605"
     style="fill:none;stroke:#ffcc00;stroke-width:1.99255002;stroke-linecap:butt;stroke-linejoin:miter;stroke-miterlimit:10;stroke-dasharray:3.9851, 3.98510000000000009;stroke-opacity:0.99346403" />
  <path
     inkscape:connector-curvature="0"
     id="path108"
     d="m 7.445385,119.33601 64.8789,-64.285156"
     style="fill:none;stroke:#ffcc00;stroke-width:1.99255002;stroke-linecap:butt;stroke-linejoin:miter;stroke-miterlimit:10;stroke-dasharray:3.9851, 3.98510000000000009;stroke-opacity:0.99346403" />
  <path
     inkscape:connector-curvature="0"
     id="path110"
     d="m 7.445385,119.33601 79.871094,48.07422"
     style="fill:none;stroke:#ffcc00;stroke-width:1.99255002;stroke-linecap:butt;stroke-linejoin:miter;stroke-miterlimit:10;stroke-dasharray:3.9851, 3.98510000000000009;stroke-opacity:0.99346403" />
  <path
     inkscape:connector-curvature="0"
     id="path112"
     d="M 177.05867,189.24617 87.316479,167.41023"
     style="fill:none;stroke:#ffcc00;stroke-width:1.99255002;stroke-linecap:butt;stroke-linejoin:miter;stroke-miterlimit:10;stroke-dasharray:3.9851, 3.98510000000000009;stroke-opacity:0.99346403" />
  <path
     inkscape:connector-curvature="0"
     id="path114"
     d="m 177.05867,189.24617 0.0937,-90.992181"
     style="fill:none;stroke:#ffcc00;stroke-width:1.99255002;stroke-linecap:butt;stroke-linejoin:miter;stroke-miterlimit:10;stroke-dasharray:3.9851, 3.98510000000000009;stroke-opacity:0.99346403" />
  <path
     inkscape:connector-curvature="0"
     id="path116"
     d="m 79.371169,55.050854 c 0,-3.890625 -3.15625,-7.046875 -7.046884,-7.046875 -3.89062,0 -7.04296,3.15625 -7.04296,7.046875 0,3.890625 3.15234,7.046875 7.04296,7.046875 3.890634,0 7.046884,-3.15625 7.046884,-7.046875 z m 0,0"
     style="fill:none;fill-opacity:1;fill-rule:nonzero;stroke:#ffcc00;stroke-width:0.79701;stroke-linecap:butt;stroke-linejoin:miter;stroke-miterlimit:10;stroke-opacity:0.99346403" />
  <path
     inkscape:connector-curvature="0"
     id="path118"
     d="m 94.363359,167.41023 c 0,-3.89062 -3.15235,-7.04687 -7.04688,-7.04687 -3.89062,0 -7.04297,3.15625 -7.04297,7.04687 0,3.89063 3.15235,7.04688 7.04297,7.04688 3.89453,0 7.04688,-3.15625 7.04688,-7.04688 z m 0,0"
     style="fill:none;fill-opacity:1;fill-rule:nonzero;stroke:#ffcc00;stroke-width:0.79701;stroke-linecap:butt;stroke-linejoin:miter;stroke-miterlimit:10;stroke-opacity:0.99346403" />
  <path
     inkscape:connector-curvature="0"
     id="path120"
     d="m 184.19929,98.253989 c 0,-3.89062 -3.15625,-7.04297 -7.04687,-7.04297 -3.89063,0 -7.04297,3.15235 -7.04297,7.04297 0,3.894531 3.15234,7.046881 7.04297,7.046881 3.89062,0 7.04687,-3.15235 7.04687,-7.046881 z m 0,0"
     style="fill:none;fill-opacity:1;fill-rule:nonzero;stroke:#ffcc00;stroke-width:0.79701;stroke-linecap:butt;stroke-linejoin:miter;stroke-miterlimit:10;stroke-opacity:0.99346403" />
  <path
     inkscape:connector-curvature="0"
     id="path122"
     d="m 152.65242,154.66804 64.8789,-64.285141 -40.47265,98.863271 z m 0,0"
     style="fill:none;fill-opacity:0.5;fill-rule:nonzero;stroke:#ffcc00;stroke-opacity:0.99346403" />
  <path
     inkscape:connector-curvature="0"
     id="path124"
     d="M 152.65242,154.66804 72.175855,202.27351 177.05867,189.24617 Z m 0,0"
     style="fill:none;fill-opacity:0.5;fill-rule:nonzero;stroke:#ffcc00;stroke-opacity:0.99346403" />
  <path
     inkscape:connector-curvature="0"
     id="path126"
     d="M 137.66023,42.308666 217.53132,90.382899 152.80476,7.445384 Z m 0,0"
     style="fill:none;fill-opacity:0.5;fill-rule:nonzero;stroke:#ffcc00;stroke-opacity:0.99346403" />
  <path
     inkscape:connector-curvature="0"
     id="path128"
     d="m 137.66023,42.308666 79.87109,48.074233 -64.8789,64.285141 z m 0,0"
     style="fill:none;fill-opacity:0.5;fill-rule:nonzero;stroke:#ffcc00;stroke-opacity:0.99346403" />
  <path
     inkscape:connector-curvature="0"
     id="path130"
     d="m 47.824285,111.46101 24.35157,90.8125 80.476565,-47.60547 z m 0,0"
     style="fill:none;fill-opacity:0.5;fill-rule:nonzero;stroke:#ffcc00;stroke-opacity:0.99346403" />
  <path
     inkscape:connector-curvature="0"
     id="path132"
     d="m 47.824285,111.46101 24.35157,90.8125 -64.73047,-82.9375 z m 0,0"
     style="fill:none;fill-opacity:0.5;fill-rule:nonzero;stroke:#ffcc00;stroke-opacity:0.99346403" />
  <path
     inkscape:connector-curvature="0"
     id="path134"
     d="M 47.824285,111.46101 152.65242,154.66804 137.66023,42.308666 Z m 0,0"
     style="fill:none;fill-opacity:0.5;fill-rule:nonzero;stroke:#ffcc00;stroke-opacity:0.99346403" />
  <path
     inkscape:connector-curvature="0"
     id="path136"
     d="m 47.824285,111.46101 0.0937,-90.988282 -40.47265,98.863282 z m 0,0"
     style="fill:none;fill-opacity:0.5;fill-rule:nonzero;stroke:#ffcc00;stroke-opacity:0.99346403" />
  <path
     inkscape:connector-curvature="0"
     id="path138"
     d="m 47.824285,111.46101 0.0937,-90.988282 89.742195,21.835938 z m 0,0"
     style="fill:none;fill-opacity:0.5;fill-rule:nonzero;stroke:#ffcc00;stroke-opacity:0.99346403" />
  <path
     inkscape:connector-curvature="0"
     id="path140"
     d="M 137.66023,42.308666 47.918035,20.472728 152.80476,7.445384 Z m 0,0"
     style="fill:none;fill-opacity:0.5;fill-rule:nonzero;stroke:#ffcc00;stroke-opacity:0.99346403" />
  <g
     style="clip-rule:nonzero;stroke:#ffcc00;stroke-opacity:0.99346403;fill:none"
     id="g142"
     clip-path="url(#clip2)"
     transform="translate(-33.140554,-16.785085)">
    <path
       inkscape:connector-curvature="0"
       id="path144"
       transform="matrix(1,0,0,-1,145.629,121.644)"
       d="m -40.312594,-97.414594 -64.730466,82.9375"
       style="fill:none;stroke:#ffcc00;stroke-width:3.98510003;stroke-linecap:butt;stroke-linejoin:miter;stroke-miterlimit:10;stroke-opacity:0.99346403" />
  </g>
  <g
     style="clip-rule:nonzero;stroke:#ffcc00;stroke-opacity:0.99346403;fill:none"
     id="g146"
     clip-path="url(#clip3)"
     transform="translate(-33.140554,-16.785085)">
    <path
       inkscape:connector-curvature="0"
       id="path148"
       transform="matrix(1,0,0,-1,145.629,121.644)"
       d="M -40.312594,-97.414594 64.570219,-84.38725"
       style="fill:none;stroke:#ffcc00;stroke-width:3.98510003;stroke-linecap:butt;stroke-linejoin:miter;stroke-miterlimit:10;stroke-opacity:0.99346403" />
  </g>
  <g
     style="clip-rule:nonzero;stroke:#ffcc00;stroke-opacity:0.99346403;fill:none"
     id="g150"
     clip-path="url(#clip4)"
     transform="translate(-33.140554,-16.785085)">
    <path
       inkscape:connector-curvature="0"
       id="path152"
       transform="matrix(1,0,0,-1,145.629,121.644)"
       d="m -40.312594,-97.414594 80.476563,47.605469"
       style="fill:none;stroke:#ffcc00;stroke-width:3.98510003;stroke-linecap:butt;stroke-linejoin:miter;stroke-miterlimit:10;stroke-opacity:0.99346403" />
  </g>
  <g
     style="clip-rule:nonzero;stroke:#ffcc00;stroke-opacity:0.99346403;fill:none"
     id="g154"
     clip-path="url(#clip5)"
     transform="translate(-33.140554,-16.785085)">
    <path
       inkscape:connector-curvature="0"
       id="path156"
       transform="matrix(1,0,0,-1,145.629,121.644)"
       d="m -40.312594,-97.414594 -24.351562,90.8125"
       style="fill:none;stroke:#ffcc00;stroke-width:3.98510003;stroke-linecap:butt;stroke-linejoin:miter;stroke-miterlimit:10;stroke-opacity:0.99346403" />
  </g>
  <g
     style="clip-rule:nonzero;stroke:#ffcc00;stroke-opacity:0.99346403;fill:none"
     id="g158"
     clip-path="url(#clip6)"
     transform="translate(-33.140554,-16.785085)">
    <path
       inkscape:connector-curvature="0"
       id="path160"
       transform="matrix(1,0,0,-1,145.629,121.644)"
       d="m 105.04287,14.476031 -64.726557,82.9375"
       style="fill:none;stroke:#ffcc00;stroke-width:3.98510003;stroke-linecap:butt;stroke-linejoin:miter;stroke-miterlimit:10;stroke-opacity:0.99346403" />
  </g>
  <g
     style="clip-rule:nonzero;stroke:#ffcc00;stroke-opacity:0.99346403;fill:none"
     id="g162"
     clip-path="url(#clip7)"
     transform="translate(-33.140554,-16.785085)">
    <path
       inkscape:connector-curvature="0"
       id="path164"
       transform="matrix(1,0,0,-1,145.629,121.644)"
       d="M 105.04287,14.476031 64.570219,-84.38725"
       style="fill:none;stroke:#ffcc00;stroke-width:3.98510003;stroke-linecap:butt;stroke-linejoin:miter;stroke-miterlimit:10;stroke-opacity:0.99346403" />
  </g>
  <g
     style="clip-rule:nonzero;stroke:#ffcc00;stroke-opacity:0.99346403;fill:none"
     id="g166"
     clip-path="url(#clip8)"
     transform="translate(-33.140554,-16.785085)">
    <path
       inkscape:connector-curvature="0"
       id="path168"
       transform="matrix(1,0,0,-1,145.629,121.644)"
       d="M 105.04287,14.476031 40.163969,-49.809125"
       style="fill:none;stroke:#ffcc00;stroke-width:3.98510003;stroke-linecap:butt;stroke-linejoin:miter;stroke-miterlimit:10;stroke-opacity:0.99346403" />
  </g>
  <g
     style="clip-rule:nonzero;stroke:#ffcc00;stroke-opacity:0.99346403;fill:none"
     id="g170"
     clip-path="url(#clip9)"
     transform="translate(-33.140554,-16.785085)">
    <path
       inkscape:connector-curvature="0"
       id="path172"
       transform="matrix(1,0,0,-1,145.629,121.644)"
       d="M 105.04287,14.476031 25.171781,62.55025"
       style="fill:none;stroke:#ffcc00;stroke-width:3.98510003;stroke-linecap:butt;stroke-linejoin:miter;stroke-miterlimit:10;stroke-opacity:0.99346403" />
  </g>
  <path
     inkscape:connector-curvature="0"
     id="path174"
     d="M 47.918035,20.472729 152.80476,7.445384"
     style="fill:none;stroke:#ffcc00;stroke-width:3.98510003;stroke-linecap:butt;stroke-linejoin:miter;stroke-miterlimit:10;stroke-opacity:0.99346403" />
  <path
     inkscape:connector-curvature="0"
     id="path176"
     d="M 47.918035,20.472729 7.445385,119.33601"
     style="fill:none;stroke:#ffcc00;stroke-width:3.98510003;stroke-linecap:butt;stroke-linejoin:miter;stroke-miterlimit:10;stroke-opacity:0.99346403" />
  <path
     inkscape:connector-curvature="0"
     id="path178"
     d="M 47.918035,20.472729 137.66023,42.308666"
     style="fill:none;stroke:#ffcc00;stroke-width:3.98510003;stroke-linecap:butt;stroke-linejoin:miter;stroke-miterlimit:10;stroke-opacity:0.99346403" />
  <path
     inkscape:connector-curvature="0"
     id="path180"
     d="m 47.918035,20.472729 -0.0937,90.988281"
     style="fill:none;stroke:#ffcc00;stroke-width:3.98510003;stroke-linecap:butt;stroke-linejoin:miter;stroke-miterlimit:10;stroke-opacity:0.99346403" />
  <g
     style="clip-rule:nonzero;stroke:#ffcc00;stroke-opacity:0.99346403;fill:none"
     id="g182"
     clip-path="url(#clip10)"
     transform="translate(-33.140554,-16.785085)">
    <path
       inkscape:connector-curvature="0"
       id="path184"
       transform="matrix(1,0,0,-1,145.629,121.644)"
       d="m 40.316313,97.413531 64.726557,-82.9375"
       style="fill:none;stroke:#ffcc00;stroke-width:3.98510003;stroke-linecap:butt;stroke-linejoin:miter;stroke-miterlimit:10;stroke-opacity:0.99346403" />
  </g>
  <path
     inkscape:connector-curvature="0"
     id="path186"
     d="M 152.80476,7.445384 47.918035,20.472729"
     style="fill:none;stroke:#ffcc00;stroke-width:3.98510003;stroke-linecap:butt;stroke-linejoin:miter;stroke-miterlimit:10;stroke-opacity:0.99346403" />
  <path
     inkscape:connector-curvature="0"
     id="path188"
     d="M 152.80476,7.445384 137.66023,42.308666"
     style="fill:none;stroke:#ffcc00;stroke-width:3.98510003;stroke-linecap:butt;stroke-linejoin:miter;stroke-miterlimit:10;stroke-opacity:0.99346403" />
  <g
     style="clip-rule:nonzero;stroke:#ffcc00;stroke-opacity:0.99346403;fill:none"
     id="g190"
     clip-path="url(#clip11)"
     transform="translate(-33.140554,-16.785085)">
    <path
       inkscape:connector-curvature="0"
       id="path192"
       transform="matrix(1,0,0,-1,145.629,121.644)"
       d="m -105.04306,-14.477094 64.730466,-82.9375"
       style="fill:none;stroke:#ffcc00;stroke-width:3.98510003;stroke-linecap:butt;stroke-linejoin:miter;stroke-miterlimit:10;stroke-opacity:0.99346403" />
  </g>
  <path
     inkscape:connector-curvature="0"
     id="path194"
     d="M 7.445385,119.33601 47.918035,20.472729"
     style="fill:none;stroke:#ffcc00;stroke-width:3.98510003;stroke-linecap:butt;stroke-linejoin:miter;stroke-miterlimit:10;stroke-opacity:0.99346403" />
  <path
     inkscape:connector-curvature="0"
     id="path196"
     d="m 7.445385,119.33601 40.3789,-7.875"
     style="fill:none;stroke:#ffcc00;stroke-width:3.98510003;stroke-linecap:butt;stroke-linejoin:miter;stroke-miterlimit:10;stroke-opacity:0.99346403" />
  <g
     style="clip-rule:nonzero;stroke:#ffcc00;stroke-opacity:0.99346403;fill:none"
     id="g198"
     clip-path="url(#clip12)"
     transform="translate(-33.140554,-16.785085)">
    <path
       inkscape:connector-curvature="0"
       id="path200"
       transform="matrix(1,0,0,-1,145.629,121.644)"
       d="M 64.570219,-84.38725 -40.312594,-97.414594"
       style="fill:none;stroke:#ffcc00;stroke-width:3.98510003;stroke-linecap:butt;stroke-linejoin:miter;stroke-miterlimit:10;stroke-opacity:0.99346403" />
  </g>
  <g
     style="clip-rule:nonzero;stroke:#ffcc00;stroke-opacity:0.99346403;fill:none"
     id="g202"
     clip-path="url(#clip13)"
     transform="translate(-33.140554,-16.785085)">
    <path
       inkscape:connector-curvature="0"
       id="path204"
       transform="matrix(1,0,0,-1,145.629,121.644)"
       d="M 64.570219,-84.38725 105.04287,14.476031"
       style="fill:none;stroke:#ffcc00;stroke-width:3.98510003;stroke-linecap:butt;stroke-linejoin:miter;stroke-miterlimit:10;stroke-opacity:0.99346403" />
  </g>
  <g
     style="clip-rule:nonzero;stroke:#ffcc00;stroke-opacity:0.99346403;fill:none"
     id="g206"
     clip-path="url(#clip14)"
     transform="translate(-33.140554,-16.785085)">
    <path
       inkscape:connector-curvature="0"
       id="path208"
       transform="matrix(1,0,0,-1,145.629,121.644)"
       d="m 64.570219,-84.38725 -24.40625,34.578125"
       style="fill:none;stroke:#ffcc00;stroke-width:3.98510003;stroke-linecap:butt;stroke-linejoin:miter;stroke-miterlimit:10;stroke-opacity:0.99346403" />
  </g>
  <g
     style="clip-rule:nonzero;stroke:#ffcc00;stroke-opacity:0.99346403;fill:none"
     id="g210"
     clip-path="url(#clip15)"
     transform="translate(-33.140554,-16.785085)">
    <path
       inkscape:connector-curvature="0"
       id="path212"
       transform="matrix(1,0,0,-1,145.629,121.644)"
       d="M 40.163969,-49.809125 -40.312594,-97.414594"
       style="fill:none;stroke:#ffcc00;stroke-width:3.98510003;stroke-linecap:butt;stroke-linejoin:miter;stroke-miterlimit:10;stroke-opacity:0.99346403" />
  </g>
  <g
     style="clip-rule:nonzero;stroke:#ffcc00;stroke-opacity:0.99346403;fill:none"
     id="g214"
     clip-path="url(#clip16)"
     transform="translate(-33.140554,-16.785085)">
    <path
       inkscape:connector-curvature="0"
       id="path216"
       transform="matrix(1,0,0,-1,145.629,121.644)"
       d="M 40.163969,-49.809125 105.04287,14.476031"
       style="fill:none;stroke:#ffcc00;stroke-width:3.98510003;stroke-linecap:butt;stroke-linejoin:miter;stroke-miterlimit:10;stroke-opacity:0.99346403" />
  </g>
  <g
     style="clip-rule:nonzero;stroke:#ffcc00;stroke-opacity:0.99346403;fill:none"
     id="g218"
     clip-path="url(#clip17)"
     transform="translate(-33.140554,-16.785085)">
    <path
       inkscape:connector-curvature="0"
       id="path220"
       transform="matrix(1,0,0,-1,145.629,121.644)"
       d="M 40.163969,-49.809125 64.570219,-84.38725"
       style="fill:none;stroke:#ffcc00;stroke-width:3.98510003;stroke-linecap:butt;stroke-linejoin:miter;stroke-miterlimit:10;stroke-opacity:0.99346403" />
  </g>
  <path
     inkscape:connector-curvature="0"
     id="path222"
     d="M 152.65242,154.66804 137.66023,42.308666"
     style="fill:none;stroke:#ffcc00;stroke-width:3.98510003;stroke-linecap:butt;stroke-linejoin:miter;stroke-miterlimit:10;stroke-opacity:0.99346403" />
  <path
     inkscape:connector-curvature="0"
     id="path224"
     d="M 152.65242,154.66804 47.824285,111.46101"
     style="fill:none;stroke:#ffcc00;stroke-width:3.98510003;stroke-linecap:butt;stroke-linejoin:miter;stroke-miterlimit:10;stroke-opacity:0.99346403" />
  <g
     style="clip-rule:nonzero;stroke:#ffcc00;stroke-opacity:0.99346403;fill:none"
     id="g226"
     clip-path="url(#clip18)"
     transform="translate(-33.140554,-16.785085)">
    <path
       inkscape:connector-curvature="0"
       id="path228"
       transform="matrix(1,0,0,-1,145.629,121.644)"
       d="M 25.171781,62.55025 105.04287,14.476031"
       style="fill:none;stroke:#ffcc00;stroke-width:3.98510003;stroke-linecap:butt;stroke-linejoin:miter;stroke-miterlimit:10;stroke-opacity:0.99346403" />
  </g>
  <path
     inkscape:connector-curvature="0"
     id="path230"
     d="M 137.66023,42.308666 47.918035,20.472729"
     style="fill:none;stroke:#ffcc00;stroke-width:3.98510003;stroke-linecap:butt;stroke-linejoin:miter;stroke-miterlimit:10;stroke-opacity:0.99346403" />
  <path
     inkscape:connector-curvature="0"
     id="path232"
     d="M 137.66023,42.308666 152.80476,7.445384"
     style="fill:none;stroke:#ffcc00;stroke-width:3.98510003;stroke-linecap:butt;stroke-linejoin:miter;stroke-miterlimit:10;stroke-opacity:0.99346403" />
  <path
     inkscape:connector-curvature="0"
     id="path234"
     d="M 137.66023,42.308666 152.65242,154.66804"
     style="fill:none;stroke:#ffcc00;stroke-width:3.98510003;stroke-linecap:butt;stroke-linejoin:miter;stroke-miterlimit:10;stroke-opacity:0.99346403" />
  <path
     inkscape:connector-curvature="0"
     id="path236"
     d="M 137.66023,42.308666 47.824285,111.46101"
     style="fill:none;stroke:#ffcc00;stroke-width:3.98510003;stroke-linecap:butt;stroke-linejoin:miter;stroke-miterlimit:10;stroke-opacity:0.99346403" />
  <g
     style="clip-rule:nonzero;stroke:#ffcc00;stroke-opacity:0.99346403;fill:none"
     id="g238"
     clip-path="url(#clip19)"
     transform="translate(-33.140554,-16.785085)">
    <path
       inkscape:connector-curvature="0"
       id="path240"
       transform="matrix(1,0,0,-1,145.629,121.644)"
       d="m -64.664156,-6.602094 24.351562,-90.8125"
       style="fill:none;stroke:#ffcc00;stroke-width:3.98510003;stroke-linecap:butt;stroke-linejoin:miter;stroke-miterlimit:10;stroke-opacity:0.99346403" />
  </g>
  <path
     inkscape:connector-curvature="0"
     id="path242"
     d="m 47.824285,111.46101 0.0937,-90.988281"
     style="fill:none;stroke:#ffcc00;stroke-width:3.98510003;stroke-linecap:butt;stroke-linejoin:miter;stroke-miterlimit:10;stroke-opacity:0.99346403" />
  <path
     inkscape:connector-curvature="0"
     id="path244"
     d="m 47.824285,111.46101 -40.3789,7.875"
     style="fill:none;stroke:#ffcc00;stroke-width:3.98510003;stroke-linecap:butt;stroke-linejoin:miter;stroke-miterlimit:10;stroke-opacity:0.99346403" />
  <path
     inkscape:connector-curvature="0"
     id="path246"
     d="M 47.824285,111.46101 152.65242,154.66804"
     style="fill:none;stroke:#ffcc00;stroke-width:3.98510003;stroke-linecap:butt;stroke-linejoin:miter;stroke-miterlimit:10;stroke-opacity:0.99346403" />
  <path
     inkscape:connector-curvature="0"
     id="path248"
     d="M 47.824285,111.46101 137.66023,42.308666"
     style="fill:none;stroke:#ffcc00;stroke-width:3.98510003;stroke-linecap:butt;stroke-linejoin:miter;stroke-miterlimit:10;stroke-opacity:0.99346403" />
  <path
     inkscape:connector-curvature="0"
     id="path250"
     d="m 79.218829,202.27351 c 0,-3.89062 -3.15235,-7.04297 -7.042974,-7.04297 -3.89453,0 -7.04688,3.15235 -7.04688,7.04297 0,3.89063 3.15235,7.04688 7.04688,7.04688 3.890624,0 7.042974,-3.15625 7.042974,-7.04688 z m 0,0"
     style="fill:none;fill-opacity:1;fill-rule:nonzero;stroke:#ffcc00;stroke-width:0.79701;stroke-linecap:butt;stroke-linejoin:miter;stroke-miterlimit:10;stroke-opacity:0.99346403" />
  <path
     inkscape:connector-curvature="0"
     id="path252"
     d="m 223.51154,89.316239 c 0,-3.89064 -3.15625,-7.04689 -7.04688,-7.04689 -3.89062,0 -7.04296,3.15625 -7.04296,7.04689 0,3.89062 3.15234,7.04297 7.04296,7.04297 3.89063,0 7.04688,-3.15235 7.04688,-7.04297 z m 0,0"
     style="fill:none;fill-opacity:1;fill-rule:nonzero;stroke:#ffcc00;stroke-width:0.79701;stroke-linecap:butt;stroke-linejoin:miter;stroke-miterlimit:10;stroke-opacity:0.99346403" />
  <path
     inkscape:connector-curvature="0"
     id="path254"
     d="m 54.961005,20.472729 c 0,-3.890626 -3.15234,-7.046876 -7.04297,-7.046876 -3.89453,0 -7.04687,3.15625 -7.04687,7.046876 0,3.890625 3.15234,7.042968 7.04687,7.042968 3.89063,0 7.04297,-3.152343 7.04297,-7.042968 z m 0,0"
     style="fill:none;fill-opacity:1;fill-rule:nonzero;stroke:#ffcc00;stroke-width:0.79701;stroke-linecap:butt;stroke-linejoin:miter;stroke-miterlimit:10;stroke-opacity:0.99346403" />
  <path
     inkscape:connector-curvature="0"
     id="path256"
     d="m 159.84773,7.445384 c 0,-3.894529 -3.15234,-7.046879 -7.04297,-7.046879 -3.89453,0 -7.04687,3.15235 -7.04687,7.046879 0,3.890625 3.15234,7.042969 7.04687,7.042969 3.89063,0 7.04297,-3.152344 7.04297,-7.042969 z m 0,0"
     style="fill:none;fill-opacity:1;fill-rule:nonzero;stroke:#ffcc00;stroke-width:0.79701;stroke-linecap:butt;stroke-linejoin:miter;stroke-miterlimit:10;stroke-opacity:0.99346403" />
  <path
     inkscape:connector-curvature="0"
     id="path258"
     d="m 14.488345,119.33601 c 0,-3.89062 -3.15234,-7.04687 -7.04296,-7.04687 -3.89063,0 -7.04688,3.15625 -7.04688,7.04687 0,3.89063 3.15625,7.04688 7.04688,7.04688 3.89062,0 7.04296,-3.15625 7.04296,-7.04688 z m 0,0"
     style="fill:none;fill-opacity:1;fill-rule:nonzero;stroke:#ffcc00;stroke-width:0.79701;stroke-linecap:butt;stroke-linejoin:miter;stroke-miterlimit:10;stroke-opacity:0.99346403" />
  <path
     inkscape:connector-curvature="0"
     id="path260"
     d="m 184.10554,189.24617 c 0,-3.89063 -3.15234,-7.04688 -7.04687,-7.04688 -3.89063,0 -7.04297,3.15625 -7.04297,7.04688 0,3.89062 3.15234,7.04687 7.04297,7.04687 3.89453,0 7.04687,-3.15625 7.04687,-7.04687 z m 0,0"
     style="fill:none;fill-opacity:1;fill-rule:nonzero;stroke:#ffcc00;stroke-width:0.79701;stroke-linecap:butt;stroke-linejoin:miter;stroke-miterlimit:10;stroke-opacity:0.99346403" />
  <path
     inkscape:connector-curvature="0"
     id="path262"
     d="m 159.69539,154.66804 c 0,-3.89062 -3.15235,-7.04687 -7.04297,-7.04687 -3.89063,0 -7.04688,3.15625 -7.04688,7.04687 0,3.89063 3.15625,7.04297 7.04688,7.04297 3.89062,0 7.04297,-3.15234 7.04297,-7.04297 z m 0,0"
     style="fill:none;fill-opacity:1;fill-rule:nonzero;stroke:#ffcc00;stroke-width:0.79701;stroke-linecap:butt;stroke-linejoin:miter;stroke-miterlimit:10;stroke-opacity:0.99346403" />
  <path
     inkscape:connector-curvature="0"
     id="path264"
     d="m 144.7032,42.308666 c 0,-3.890625 -3.15234,-7.046875 -7.04297,-7.046875 -3.89453,0 -7.04687,3.15625 -7.04687,7.046875 0,3.890625 3.15234,7.042969 7.04687,7.042969 3.89063,0 7.04297,-3.152344 7.04297,-7.042969 z m 0,0"
     style="fill:none;fill-opacity:1;fill-rule:nonzero;stroke:#ffcc00;stroke-width:0.79701;stroke-linecap:butt;stroke-linejoin:miter;stroke-miterlimit:10;stroke-opacity:0.99346403" />
  <path
     inkscape:connector-curvature="0"
     id="path266"
     d="m 54.867255,111.46101 c 0,-3.89061 -3.15234,-7.04295 -7.04297,-7.04295 -3.89062,0 -7.04687,3.15234 -7.04687,7.04295 0,3.89063 3.15625,7.04688 7.04687,7.04688 3.89063,0 7.04297,-3.15625 7.04297,-7.04688 z m 0,0"
     style="fill:none;fill-opacity:1;fill-rule:nonzero;stroke:#ffcc00;stroke-width:0.79701;stroke-linecap:butt;stroke-linejoin:miter;stroke-miterlimit:10;stroke-opacity:0.99346403" />
</svg>
